<svg width="321" height="85" viewBox="0 0 321 85" fill="none" xmlns="http://www.w3.org/2000/svg">
<mask id="mask0_41_2" style="mask-type:luminance" maskUnits="userSpaceOnUse" x="0" y="0" width="79" height="85">
<path d="M0 0H78.4186V84.2659H0V0Z" fill="white"/>
</mask>
<g mask="url(#mask0_41_2)">
<path d="M77.7404 32.9423L59.4819 17.2986L39.5678 0.256746C39.2764 0.00308172 38.8844 0.00308172 38.5929 0.256746L18.6891 17.2986L0.422935 32.9423C-0.239837 33.5084 0.0928383 34.7736 0.915501 34.7736H3.1256V84.1886H13.454V34.7736H64.7789V84.1886H75.1073V34.7736H77.2478C78.0704 34.7736 78.4031 33.5084 77.7404 32.9423Z" fill="#274761"/>
</g>
<path d="M14.0575 35.6429H64.1058V38.0898H14.0575V35.6429Z" fill="#274761"/>
<path d="M14.0575 38.956H64.1058V41.4029H14.0575V38.956Z" fill="#274761"/>
<path d="M14.0575 42.2722H64.1058V44.7191H14.0575V42.2722Z" fill="#274761"/>
<path d="M14.0575 45.5729H64.1058V48.0198H14.0575V45.5729Z" fill="#274761"/>
<mask id="mask1_41_2" style="mask-type:luminance" maskUnits="userSpaceOnUse" x="18" y="51" width="43" height="34">
<path d="M18.4854 51.1659H60.0776V84.2659H18.4854V51.1659Z" fill="white"/>
</mask>
<g mask="url(#mask1_41_2)">
<path d="M58.7392 72.5355C58.8294 71.7869 58.8397 71.3043 58.8397 71.3043C59.6443 66.8714 57.3827 63.2675 57.3827 63.2675L56.56 63.2304V61.4238C56.9004 61.4578 57.2718 61.4238 57.6535 61.3032C58.8088 60.9165 59.5644 59.8183 59.3323 58.8686C59.1105 57.9158 57.9964 57.458 56.8411 57.854C55.6858 58.2406 54.9302 59.3388 55.1623 60.2885C55.2422 60.6257 55.4227 60.8917 55.6858 61.0835V63.1809H55.6342C53.9863 57.2415 49.5764 52.0444 49.5764 52.0444L39.2583 51.5031V51.4907H39.0752V51.5031L28.7571 52.0568C28.7571 52.0568 24.3575 57.2538 22.6993 63.1933H22.5781V61.0835C22.8386 60.8917 23.0191 60.6164 23.1016 60.2885C23.3208 59.3388 22.5678 58.253 21.4228 57.854C20.2674 57.4704 19.1508 57.9158 18.9316 58.8686C18.7098 59.8183 19.4628 60.9041 20.6078 61.3032C20.9895 61.4331 21.3634 61.4702 21.7039 61.4238V63.2304L21.0101 63.2675C21.0101 63.2675 18.7588 66.8714 19.5531 71.3043C19.5531 71.3043 19.5531 71.6199 19.6046 72.1241H19.5531C19.5531 72.1241 17.1521 77.9955 19.5531 84.1886H23.8753C24.2853 83.1275 24.5587 82.082 24.7186 81.0673C25.3607 81.3333 26.0751 81.5128 26.8874 81.587C32.0529 81.9953 36.896 81.8159 39.1964 81.6829C41.4968 81.8159 46.3399 81.9953 51.5054 81.587C52.2198 81.5251 52.8619 81.3828 53.4447 81.1632C53.6149 82.1531 53.8754 83.1647 54.2777 84.1886H58.569C60.6089 78.9576 59.2214 73.9678 58.7392 72.5355ZM28.9376 53.6376C28.9376 53.6376 35.6092 52.8054 39.1964 52.6136C42.7836 52.4187 49.3443 53.7799 49.3443 53.7799L53.2126 61.9528C38.7245 57.4704 24.9404 61.9528 24.9404 61.9528L28.9376 53.6376ZM25.4716 73.0305C24.1048 73.0305 23.001 71.8735 23.001 70.4382C23.001 69.0028 24.1048 67.8458 25.4716 67.8458C26.8384 67.8458 27.9447 69.0028 27.9447 70.4382C27.9447 71.8612 26.8384 73.0305 25.4716 73.0305ZM45.9376 78.4874H31.3308V77.5717H45.9299V78.4874H45.9376ZM45.9376 76.5972H31.3308V75.6816H45.9299V76.5972H45.9376ZM45.9376 74.7041H31.3308V73.7884H45.9299V74.7041H45.9376ZM51.8768 73.0305C50.51 73.0305 49.4062 71.8735 49.4062 70.4382C49.4062 69.0028 50.51 67.8458 51.8768 67.8458C53.2436 67.8458 54.3473 69.0028 54.3473 70.4382C54.3499 71.8612 53.2436 73.0305 51.8768 73.0305Z" fill="#274761"/>
</g>
<path d="M117.147 58.1415L117.106 38.1454L108.936 54.615H106.037L97.8983 38.5785V58.1415H91.8637V24.8188H97.1865L107.585 45.5326L117.818 24.8188H123.099L123.182 58.1415H117.147Z" fill="#274761"/>
<path d="M140.997 46.3369V58.1415H134.57V46.2379L123.811 24.8188H130.64L138.057 39.6303L145.484 24.8188H151.787L140.997 46.3369Z" fill="#274761"/>
<path d="M171.162 40.9543H177.031V54.4789C175.525 55.84 173.777 56.8887 171.791 57.6218C169.811 58.3457 167.815 58.7107 165.808 58.7107C162.92 58.7107 160.323 57.9745 158.02 56.4958C155.722 55.0202 153.917 52.9755 152.604 50.3584C151.297 47.7444 150.644 44.7871 150.644 41.4863C150.644 38.1794 151.297 35.219 152.604 32.6019C153.917 29.9879 155.735 27.9432 158.061 26.4645C160.393 24.9889 163.013 24.2496 165.922 24.2496C168.356 24.2496 170.564 24.7414 172.544 25.7221C174.53 26.7058 176.199 28.1319 177.547 30.0034L173.421 34.5817C171.44 32.076 169.047 30.8201 166.241 30.8201C164.467 30.8201 162.891 31.2655 161.517 32.1565C160.14 33.0412 159.067 34.294 158.298 35.9181C157.535 37.536 157.153 39.3921 157.153 41.4863C157.153 43.5497 157.535 45.3903 158.298 47.0051C159.067 48.623 160.135 49.8851 161.496 50.7915C162.858 51.6917 164.41 52.1402 166.159 52.1402C168.016 52.1402 169.682 51.6669 171.162 50.7172V40.9543Z" fill="#F2642B"/>
<path d="M199.181 51.0018H186.276L183.821 58.1415H177.229L189.618 24.8188H195.962L208.382 58.1415H201.636L199.181 51.0018ZM197.159 45.149L192.754 32.3916L188.349 45.149H197.159Z" fill="#F2642B"/>
<path d="M226.877 58.1415L221.524 48.8611H215.613V58.1415H209.176V24.8188H221.204C223.664 24.8188 225.799 25.3137 227.61 26.3036C229.425 27.2873 230.82 28.6794 231.798 30.486C232.773 32.2926 233.263 34.4332 233.263 36.908C233.263 39.3828 232.767 41.5204 231.777 43.3177C230.787 45.1088 229.376 46.4792 227.548 47.4258L233.778 58.1415H226.877ZM226.764 36.908C226.764 35.0365 226.258 33.6011 225.247 32.6019C224.242 31.6058 222.774 31.1047 220.843 31.1047H215.613V42.7237H220.843C222.774 42.7237 224.242 42.2164 225.247 41.2017C226.258 40.1809 226.764 38.7486 226.764 36.908Z" fill="#F2642B"/>
<path d="M254.54 51.0018H241.636L239.18 58.1415H232.589L244.978 24.8188H251.322L263.742 58.1415H256.995L254.54 51.0018ZM252.518 45.149L248.114 32.3916L243.709 45.149H252.518Z" fill="#F2642B"/>
<path d="M283.31 40.9543H289.179V54.4789C287.673 55.84 285.925 56.8887 283.939 57.6218C281.958 58.3457 279.962 58.7107 277.956 58.7107C275.068 58.7107 272.471 57.9745 270.168 56.4958C267.87 55.0202 266.065 52.9755 264.752 50.3584C263.445 47.7444 262.792 44.7871 262.792 41.4863C262.792 38.1794 263.445 35.219 264.752 32.6019C266.065 29.9879 267.883 27.9432 270.209 26.4645C272.54 24.9889 275.16 24.2496 278.069 24.2496C280.504 24.2496 282.711 24.7414 284.692 25.7221C286.678 26.7058 288.346 28.1319 289.695 30.0034L285.569 34.5817C283.588 32.076 281.195 30.8201 278.389 30.8201C276.615 30.8201 275.039 31.2655 273.665 32.1565C272.288 33.0412 271.215 34.294 270.446 35.9181C269.683 37.536 269.301 39.3921 269.301 41.4863C269.301 43.5497 269.683 45.3903 270.446 47.0051C271.215 48.623 272.282 49.8851 273.644 50.7915C275.006 51.6917 276.558 52.1402 278.307 52.1402C280.163 52.1402 281.829 51.6669 283.31 50.7172V40.9543Z" fill="#F2642B"/>
<path d="M314.537 51.9546V58.1415H293.029V24.8188H314.021V31.0057H299.424V38.2444H312.319V44.2457H299.424V51.9546H314.537Z" fill="#F2642B"/>
<path d="M92.1428 78.8622C91.1654 78.8622 90.2783 78.6024 89.4814 78.0827C88.682 77.5568 88.0604 76.8329 87.6143 75.9173C87.1656 75.0016 86.9438 73.9746 86.9438 72.8362C86.9438 71.6978 87.1656 70.6707 87.6143 69.7551C88.0604 68.8394 88.682 68.1186 89.4814 67.5897C90.2783 67.0638 91.1654 66.7977 92.1428 66.7977C93.1176 66.7977 93.9996 67.0576 94.7836 67.5773C95.5727 68.097 96.1917 68.8209 96.6404 69.7427C97.0943 70.6677 97.3212 71.6978 97.3212 72.8362C97.3212 73.9746 97.0943 75.0078 96.6404 75.9296C96.1917 76.8453 95.5727 77.563 94.7836 78.0827C93.9996 78.6024 93.1176 78.8622 92.1428 78.8622ZM92.1428 77.7486C92.9268 77.7486 93.6308 77.5382 94.2575 77.1175C94.8893 76.6906 95.3845 76.0998 95.7429 75.3481C96.0988 74.5994 96.2793 73.7611 96.2793 72.8362C96.2793 71.9143 96.0988 71.076 95.7429 70.3243C95.3845 69.5757 94.8893 68.9879 94.2575 68.5672C93.6308 68.1403 92.9268 67.9237 92.1428 67.9237C91.3588 67.9237 90.6496 68.1403 90.0178 68.5672C89.3834 68.9879 88.8857 69.5757 88.5221 70.3243C88.1559 71.076 87.9753 71.9143 87.9753 72.8362C87.9753 73.7611 88.1559 74.5994 88.5221 75.3481C88.8857 76.0998 89.3834 76.6906 90.0178 77.1175C90.6496 77.5382 91.3588 77.7486 92.1428 77.7486Z" fill="#274761"/>
<path d="M108.073 66.9091V78.7633H107.042V73.294H100.853V78.7633H99.8106V66.9091H100.853V72.1928H107.042V66.9091H108.073Z" fill="#274761"/>
<path d="M119.155 66.9091V78.7633H118.124V67.9856H113.348L113.244 71.9576C113.195 73.591 113.082 74.9088 112.904 75.9049C112.731 76.9041 112.466 77.6496 112.11 78.1446C111.751 78.6395 111.277 78.887 110.686 78.887C110.431 78.887 110.165 78.8437 109.892 78.7633L109.974 77.6496C110.139 77.6929 110.294 77.7115 110.439 77.7115C110.856 77.7115 111.194 77.5135 111.449 77.1175C111.71 76.7216 111.906 76.1122 112.037 75.2862C112.166 74.4541 112.257 73.3528 112.306 71.9824L112.45 66.9091H119.155Z" fill="#274761"/>
<path d="M128.811 75.5956H123.302L122.116 78.7633H121.033L125.551 66.9091H126.583L131.101 78.7633H129.997L128.811 75.5956ZM128.429 74.5809L126.057 68.2084L123.684 74.5809H128.429Z" fill="#274761"/>
<path d="M132.988 66.9091H134.009V76.734L140.343 66.9091H141.292V78.7633H140.26V68.9508L133.927 78.7633H132.988V66.9091ZM137.104 66.043C136.395 66.043 135.835 65.8543 135.422 65.4738C135.015 65.0871 134.809 64.5457 134.803 63.8528H135.577C135.59 64.3075 135.732 64.6664 136 64.9293C136.273 65.1861 136.642 65.3129 137.104 65.3129C137.558 65.3129 137.921 65.1861 138.197 64.9293C138.478 64.6664 138.623 64.3075 138.63 63.8528H139.404C139.396 64.5457 139.182 65.0871 138.765 65.4738C138.352 65.8543 137.797 66.043 137.104 66.043Z" fill="#274761"/>
<path d="M152.87 66.9091V78.7633H151.838V73.294H145.649V78.7633H144.607V66.9091H145.649V72.1928H151.838V66.9091H152.87Z" fill="#274761"/>
<path d="M164.194 72.564C164.838 72.7558 165.349 73.1053 165.72 73.6158C166.092 74.12 166.277 74.7294 166.277 75.4471C166.277 76.1338 166.097 76.734 165.741 77.2537C165.383 77.7734 164.908 78.1755 164.318 78.4539C163.724 78.7262 163.08 78.8623 162.378 78.8623C161.723 78.8623 161.078 78.7385 160.439 78.4911C159.805 78.2374 159.235 77.8538 158.727 77.3403L159.108 76.437C159.541 76.8825 160.031 77.2227 160.583 77.4517C161.14 77.6837 161.703 77.7981 162.275 77.7981C162.811 77.7981 163.301 77.6991 163.75 77.5012C164.204 77.297 164.565 77.0031 164.833 76.6226C165.102 76.2452 165.236 75.7936 165.236 75.2739C165.236 74.5809 165.009 74.0488 164.555 73.6776C164.106 73.3064 163.472 73.1208 162.646 73.1208H160.532V72.1062H162.595C163.289 72.1062 163.833 71.9298 164.225 71.5741C164.617 71.2214 164.813 70.7265 164.813 70.0892C164.813 69.3901 164.56 68.8395 164.06 68.4435C163.565 68.0413 162.938 67.8372 162.182 67.8372C161.713 67.8372 161.238 67.9207 160.759 68.0847C160.276 68.2517 159.82 68.493 159.387 68.8147L159.036 67.7877C160.011 67.0886 161.071 66.7359 162.213 66.7359C162.879 66.7359 163.492 66.8689 164.049 67.1319C164.606 67.3886 165.045 67.7598 165.37 68.2455C165.692 68.7343 165.855 69.3035 165.855 69.9531C165.855 70.5904 165.705 71.1379 165.411 71.5988C165.122 72.0536 164.715 72.3753 164.194 72.564Z" fill="#274761"/>
<path d="M175.202 75.5956H169.694L168.507 78.7633H167.424L171.942 66.9091H172.974L177.492 78.7633H176.388L175.202 75.5956ZM174.82 74.5809L172.448 68.2084L170.075 74.5809H174.82Z" fill="#274761"/>
<path d="M187.694 66.9091V78.7633H186.662V67.9856H180.401V78.7633H179.379V66.9091H187.694Z" fill="#274761"/>
<path d="M197.996 66.9091V78.7633H196.975V73.8508C195.902 74.4046 194.863 74.6799 193.86 74.6799C192.697 74.6799 191.791 74.3427 191.147 73.6652C190.507 72.9909 190.187 72.0412 190.187 70.8193V66.9091H191.219V70.6831C191.219 71.5988 191.456 72.3134 191.931 72.8238C192.41 73.3281 193.086 73.5786 193.953 73.5786C194.943 73.5786 195.949 73.3002 196.975 72.7372V66.9091H197.996Z" fill="#274761"/>
<path d="M207.663 75.5956H202.155L200.969 78.7633H199.886L204.404 66.9091H205.435L209.953 78.7633H208.85L207.663 75.5956ZM207.282 74.5809L204.909 68.2084L202.537 74.5809H207.282Z" fill="#274761"/>
<path d="M216.152 78.8622C215.175 78.8622 214.29 78.6024 213.501 78.0827C212.717 77.563 212.101 76.8453 211.655 75.9296C211.206 75.0078 210.984 73.9746 210.984 72.8362C210.984 71.6978 211.206 70.6677 211.655 69.7427C212.101 68.8209 212.72 68.097 213.512 67.5773C214.301 67.0576 215.188 66.7977 216.173 66.7977C216.9 66.7977 217.576 66.9462 218.195 67.2432C218.819 67.5402 219.35 67.9702 219.783 68.5301L219.123 69.322C218.344 68.3909 217.37 67.9237 216.194 67.9237C215.415 67.9237 214.708 68.1403 214.069 68.5672C213.429 68.9972 212.926 69.588 212.563 70.3367C212.196 71.0791 212.016 71.9143 212.016 72.8362C212.016 73.7611 212.196 74.5994 212.563 75.3481C212.926 76.0905 213.429 76.6782 214.069 77.1051C214.708 77.5351 215.415 77.7486 216.194 77.7486C217.383 77.7486 218.36 77.2753 219.123 76.3256L219.783 77.1175C219.35 77.6867 218.819 78.1198 218.195 78.4168C217.568 78.7137 216.887 78.8622 216.152 78.8622Z" fill="#274761"/>
<path d="M228.414 67.9856H224.937V78.7633H223.906V67.9856H220.429V66.9091H228.414V67.9856Z" fill="#274761"/>
<path d="M230.245 66.9091H231.266V76.734L237.6 66.9091H238.549V78.7633H237.517V68.9508L231.183 78.7633H230.245V66.9091Z" fill="#274761"/>
<path d="M245.572 66.9091H246.593V76.734L252.927 66.9091H253.876V78.7633H252.844V68.9508L246.511 78.7633H245.572V66.9091Z" fill="#274761"/>
<path d="M265.211 78.8622C264.234 78.8622 263.349 78.6024 262.56 78.0827C261.776 77.563 261.16 76.8453 260.714 75.9296C260.265 75.0078 260.043 73.9746 260.043 72.8362C260.043 71.6978 260.265 70.6677 260.714 69.7427C261.16 68.8209 261.779 68.097 262.57 67.5773C263.36 67.0576 264.247 66.7977 265.232 66.7977C265.959 66.7977 266.635 66.9462 267.254 67.2432C267.878 67.5402 268.409 67.9702 268.842 68.5301L268.182 69.322C267.403 68.3909 266.428 67.9237 265.253 67.9237C264.474 67.9237 263.767 68.1403 263.128 68.5672C262.488 68.9972 261.985 69.588 261.621 70.3367C261.255 71.0791 261.075 71.9143 261.075 72.8362C261.075 73.7611 261.255 74.5994 261.621 75.3481C261.985 76.0905 262.488 76.6782 263.128 77.1051C263.767 77.5351 264.474 77.7486 265.253 77.7486C266.441 77.7486 267.419 77.2753 268.182 76.3256L268.842 77.1175C268.409 77.6867 267.878 78.1198 267.254 78.4168C266.627 78.7137 265.946 78.8622 265.211 78.8622Z" fill="#274761"/>
<path d="M277.988 77.6744V78.7633H270.994V66.9091H277.772V67.9856H272.036V72.2051H277.153V73.2693H272.036V77.6744H277.988Z" fill="#274761"/>
<path d="M283.999 66.9091C285.257 66.9091 286.242 67.2741 286.959 67.998C287.673 68.7157 288.032 69.7056 288.032 70.9677C288.032 72.2392 287.673 73.2322 286.959 73.9498C286.242 74.6613 285.257 75.014 283.999 75.014H281.337V78.7633H280.295V66.9091H283.999ZM283.968 73.9127C284.942 73.9127 285.69 73.6591 286.206 73.1455C286.727 72.6351 286.99 71.9082 286.99 70.9677C286.99 70.0119 286.727 69.2787 286.206 68.7652C285.69 68.2455 284.942 67.9856 283.968 67.9856H281.337V73.9127H283.968Z" fill="#274761"/>
<path d="M296.185 72.6506C296.871 72.8176 297.395 73.1455 297.753 73.6405C298.109 74.1293 298.29 74.7665 298.29 75.5584C298.29 76.5917 297.983 77.3836 297.372 77.9342C296.766 78.4879 295.876 78.7633 294.7 78.7633H290.326V66.9091H294.432C295.484 66.9091 296.304 67.169 296.897 67.6887C297.496 68.2084 297.795 68.9601 297.795 69.9407C297.795 70.6089 297.653 71.1719 297.372 71.6236C297.088 72.0783 296.694 72.4217 296.185 72.6506ZM291.348 72.2794H294.37C295.133 72.2794 295.716 72.0938 296.124 71.7225C296.536 71.3451 296.743 70.8007 296.743 70.0892C296.743 69.3808 296.536 68.8394 296.124 68.4682C295.716 68.0908 295.133 67.899 294.37 67.899H291.348V72.2794ZM294.7 77.761C296.405 77.761 297.258 77 297.258 75.4718C297.258 73.987 296.405 73.2445 294.7 73.2445H291.348V77.761H294.7Z" fill="#274761"/>
<path d="M300.897 66.9091H301.919V76.734L308.252 66.9091H309.201V78.7633H308.17V68.9508L301.836 78.7633H300.897V66.9091Z" fill="#274761"/>
<path d="M316.839 78.8622C315.861 78.8622 314.977 78.6024 314.188 78.0827C313.404 77.563 312.787 76.8453 312.341 75.9296C311.893 75.0078 311.671 73.9746 311.671 72.8362C311.671 71.6978 311.893 70.6677 312.341 69.7427C312.787 68.8209 313.406 68.097 314.198 67.5773C314.987 67.0576 315.874 66.7977 316.859 66.7977C317.587 66.7977 318.262 66.9462 318.881 67.2432C319.505 67.5402 320.037 67.9702 320.47 68.5301L319.81 69.322C319.031 68.3909 318.056 67.9237 316.88 67.9237C316.101 67.9237 315.395 68.1403 314.755 68.5672C314.116 68.9972 313.613 69.588 313.249 70.3367C312.883 71.0791 312.702 71.9143 312.702 72.8362C312.702 73.7611 312.883 74.5994 313.249 75.3481C313.613 76.0905 314.116 76.6782 314.755 77.1051C315.395 77.5351 316.101 77.7486 316.88 77.7486C318.069 77.7486 319.046 77.2753 319.81 76.3256L320.47 77.1175C320.037 77.6867 319.505 78.1198 318.881 78.4168C318.255 78.7137 317.574 78.8622 316.839 78.8622Z" fill="#274761"/>
</svg>
