<svg width="307" height="66" viewBox="0 0 307 66" fill="none" xmlns="http://www.w3.org/2000/svg">
<path d="M18.148 14.919H3V3.98852H44.2416V14.919H29.0903V62.0115H18.148V14.919ZM76.2159 63C69.4497 63 64.1834 60.707 60.4237 56.1209C56.6606 51.5348 54.7775 44.9838 54.7775 36.472V3.98852H65.7362V35.9858C65.7362 46.3734 69.2515 51.5672 76.282 51.5672C79.7048 51.5672 82.3181 50.3113 84.122 47.8035C85.9259 45.2795 86.8278 41.3417 86.8278 35.9858V3.98852H97.6379V36.472C97.6379 44.9838 95.7547 51.5348 91.9917 56.1209C88.2319 60.707 82.9723 63 76.2159 63ZM156.928 3.98852V62.0115H147.935L124.336 26.7772V62.0115H113.526V3.98852H122.585L146.105 39.2228V3.98852H156.928ZM173.213 3.98852H184.172V62.0115H173.213V3.98852ZM243.858 3.98852V62.0115H234.865L211.263 26.7772V62.0115H200.456V3.98852H209.515L233.032 39.2228V3.98852H243.858ZM292.111 32.0804H302.128V55.6347C299.551 58.0088 296.577 59.8319 293.198 61.0999C289.821 62.368 286.415 63 282.982 63C278.076 63 273.659 61.7198 269.731 59.1553C265.812 56.5787 262.74 53.0095 260.506 48.4517C258.283 43.8899 257.173 38.7367 257.173 32.9919C257.173 27.2431 258.283 22.0939 260.506 17.5483C262.74 12.9905 265.835 9.42539 269.797 6.86496C273.768 4.28832 278.235 3 283.197 3C287.347 3 291.106 3.85483 294.486 5.56853C297.863 7.28224 300.701 9.7657 303 13.0149L295.969 20.9676C292.593 16.6124 288.513 14.4328 283.726 14.4328C280.709 14.4328 278.033 15.2066 275.687 16.7583C273.345 18.2978 271.518 20.4774 270.21 23.2971C268.901 26.1168 268.244 29.3457 268.244 32.9919C268.244 36.5935 268.901 39.8022 270.21 42.6219C271.518 45.4294 273.335 47.6212 275.654 49.2012C277.977 50.7772 280.623 51.5672 283.593 51.5672C286.752 51.5672 289.59 50.7367 292.111 49.0797V32.0804Z" stroke="#FF0000" stroke-width="4.79148"/>
</svg>
