<svg width="3" height="3" viewBox="0 0 3 3" fill="none" xmlns="http://www.w3.org/2000/svg">
<path d="M1.11755 0.313487L0.960238 0.489814C0.869977 0.594991 0.797768 0.71873 0.748769 0.857936C0.697193 0.997142 0.671403 1.14253 0.668824 1.29411C0.666245 1.44569 0.686876 1.59109 0.733296 1.73339C0.779716 1.87569 0.846767 1.99942 0.934449 2.11079C1.02213 2.21906 1.12271 2.30568 1.23876 2.36445C1.35481 2.42632 1.47859 2.46035 1.60496 2.46035C1.73132 2.46344 1.85253 2.4387 1.97116 2.38301C2.08979 2.32733 2.19294 2.2469 2.28578 2.14172L2.31157 2.11079L2.45857 1.92518C2.54109 1.81691 2.60298 1.69317 2.64683 1.55706C2.68809 1.41785 2.70872 1.27865 2.70614 1.13016C2.70356 0.984768 2.67777 0.842468 2.62877 0.70945C2.58235 0.573338 2.5153 0.455786 2.42762 0.350608C2.34252 0.248523 2.24194 0.168094 2.13105 0.109318C2.01758 0.0536363 1.90153 0.0227011 1.77774 0.0196078C1.65654 0.0134213 1.53791 0.0381688 1.42444 0.0907574C1.30839 0.140253 1.20781 0.214496 1.11755 0.313487Z" fill="white"/>
</svg>
