<svg width="4" height="5" viewBox="0 0 4 5" fill="none" xmlns="http://www.w3.org/2000/svg">
<path d="M1.22573 1.33345L1.07357 1.51287C0.923997 1.6892 0.810527 1.89027 0.728003 2.12228C0.648057 2.3512 0.606795 2.59249 0.604216 2.84306C0.601638 3.09363 0.64032 3.33492 0.720266 3.56384C0.797632 3.79585 0.911103 4.00311 1.0581 4.17944C1.20252 4.35886 1.37272 4.49497 1.56356 4.59396C1.75698 4.69295 1.95555 4.74245 2.16444 4.74245C2.37333 4.74554 2.57448 4.69914 2.7679 4.60633C2.96131 4.51353 3.13152 4.37742 3.28109 4.20109L3.29915 4.18253L3.44614 3.99692C3.58798 3.82059 3.69887 3.61643 3.77366 3.38751C3.84845 3.15859 3.88455 2.9204 3.88197 2.67292C3.8794 2.42854 3.83813 2.19034 3.75819 1.96452C3.68082 1.73869 3.56735 1.53762 3.42293 1.36439C3.27594 1.18806 3.11089 1.05504 2.92005 0.959142C2.73179 0.863244 2.53322 0.813749 2.32949 0.810656C2.12318 0.807562 1.92718 0.85087 1.73634 0.943675C1.54293 1.03338 1.3753 1.16331 1.22573 1.33345Z" fill="white"/>
</svg>
