<svg width="5" height="6" viewBox="0 0 5 6" fill="none" xmlns="http://www.w3.org/2000/svg">
<path d="M1.21315 1.53143L1.06099 1.70776C0.901104 1.89646 0.774739 2.11609 0.687057 2.36357C0.596796 2.61105 0.552955 2.8709 0.550376 3.14003C0.547797 3.40916 0.58906 3.66901 0.671584 3.91958C0.756687 4.17015 0.877894 4.38979 1.03521 4.58468C1.19252 4.77647 1.37562 4.92496 1.58451 5.03014C1.79082 5.13222 2.00744 5.18481 2.23181 5.1879C2.45617 5.1879 2.67279 5.13841 2.88168 5.03323C3.09057 4.93114 3.27367 4.78575 3.43099 4.59396L3.59861 4.39288C3.75592 4.20109 3.87713 3.98145 3.96481 3.73397C4.04992 3.4865 4.09118 3.22974 4.09118 2.96061C4.09118 2.69148 4.04992 2.43472 3.96224 2.18724C3.87713 1.93977 3.75592 1.72013 3.59861 1.53143C3.43872 1.34273 3.2582 1.19424 3.05189 1.09216C2.843 0.990074 2.62895 0.937485 2.40459 0.937485C2.18281 0.937485 1.96618 0.990074 1.75987 1.09216C1.55356 1.19424 1.37046 1.33964 1.21315 1.53143Z" fill="white"/>
</svg>
