<svg width="3" height="3" viewBox="0 0 3 3" fill="none" xmlns="http://www.w3.org/2000/svg">
<path d="M1.97898 2.15151L1.82425 2.33093C1.73141 2.43611 1.62568 2.51345 1.50705 2.56913C1.38842 2.62172 1.26721 2.64647 1.14085 2.64337C1.01448 2.64028 0.893276 2.60934 0.774647 2.55057C0.658598 2.49179 0.555442 2.40827 0.467761 2.3C0.3775 2.19482 0.30787 2.07108 0.256292 1.93188C0.207294 1.79267 0.181505 1.64728 0.178926 1.4926C0.176347 1.34102 0.196978 1.19563 0.240819 1.05333C0.287239 0.911033 0.351711 0.7842 0.436814 0.672836L0.586389 0.487229C0.67665 0.375865 0.782384 0.289247 0.901012 0.224284C1.01964 0.162415 1.14601 0.128387 1.27495 0.125293C1.40647 0.1222 1.53026 0.150041 1.65405 0.205723C1.77525 0.264499 1.88099 0.348023 1.97641 0.456294C2.06925 0.564565 2.14403 0.688304 2.19561 0.833696C2.24719 0.975996 2.27556 1.12448 2.27813 1.28225C2.28071 1.43692 2.2575 1.5885 2.21108 1.73389C2.16208 1.87929 2.09503 2.00921 2.00477 2.12367L1.97898 2.15151Z" fill="white"/>
</svg>
