<svg width="3" height="4" viewBox="0 0 3 4" fill="none" xmlns="http://www.w3.org/2000/svg">
<path d="M2.45379 2.46466L2.29906 2.64099C2.18816 2.76782 2.0618 2.86681 1.91996 2.93177C1.77812 2.99983 1.62855 3.03386 1.47639 3.03077C1.32166 3.02767 1.17466 2.99055 1.03283 2.9194C0.893565 2.84825 0.7672 2.74617 0.658888 2.61624C0.550574 2.48632 0.46805 2.33783 0.408736 2.16769C0.346843 1.99755 0.318476 1.82122 0.315896 1.63871C0.313318 1.45619 0.341685 1.27677 0.395842 1.10663C0.452577 0.933398 0.532523 0.781817 0.638257 0.648799L0.785253 0.466285C0.893565 0.330173 1.01993 0.224995 1.16435 0.147658C1.30619 0.0734151 1.45576 0.0331999 1.61307 0.0301067C1.77039 0.0239193 1.91996 0.057948 2.06696 0.122911C2.21137 0.190967 2.34032 0.289958 2.45379 0.419883C2.56726 0.549809 2.65494 0.701388 2.71941 0.871529C2.78131 1.04476 2.81483 1.22418 2.81741 1.41288C2.82257 1.59849 2.79678 1.78101 2.74004 1.95733C2.68331 2.13057 2.60078 2.28524 2.49247 2.42135L2.45379 2.46466Z" fill="white"/>
</svg>
