<svg width="2" height="3" viewBox="0 0 2 3" fill="none" xmlns="http://www.w3.org/2000/svg">
<path d="M1.41392 2.09929L1.25919 2.27562C1.1973 2.34986 1.12509 2.40864 1.04256 2.44885C0.962618 2.48907 0.874936 2.51072 0.787254 2.51072C0.699572 2.51072 0.614469 2.48907 0.531945 2.44885C0.44942 2.40864 0.377212 2.34986 0.315319 2.27562C0.253426 2.20138 0.204427 2.11476 0.170901 2.01577C0.137375 1.91678 0.119324 1.81469 0.119324 1.70952C0.119324 1.60434 0.137375 1.50225 0.170901 1.40326C0.204427 1.30427 0.253426 1.21765 0.315319 1.14341L0.462315 0.957804C0.524208 0.877373 0.593838 0.812411 0.676362 0.766009C0.758886 0.719607 0.846568 0.691766 0.936829 0.688673C1.02967 0.682485 1.11735 0.701046 1.20245 0.738168C1.28756 0.778383 1.36492 0.834065 1.4294 0.911402C1.49645 0.985645 1.54802 1.07226 1.58413 1.17435C1.62023 1.27334 1.63828 1.37852 1.64086 1.48988C1.64086 1.59815 1.62281 1.70333 1.58929 1.80541C1.55318 1.9044 1.50418 1.99411 1.43971 2.07145L1.41392 2.09929Z" fill="white"/>
</svg>
