<svg width="3" height="4" viewBox="0 0 3 4" fill="none" xmlns="http://www.w3.org/2000/svg">
<path d="M0.410332 3.08068L0.565065 3.2601C0.694009 3.4024 0.841005 3.50757 1.00347 3.58182C1.16852 3.65606 1.33615 3.69009 1.51151 3.68699C1.68688 3.68081 1.85451 3.6375 2.0144 3.55707C2.17687 3.47355 2.3187 3.35909 2.44249 3.2106C2.56628 3.06211 2.66169 2.89197 2.73132 2.69709C2.79838 2.50529 2.83448 2.30422 2.83964 2.09386C2.84222 1.88351 2.81385 1.68243 2.75196 1.48445C2.69006 1.28956 2.60238 1.11323 2.48375 0.958561L2.33418 0.776046C2.20781 0.621373 2.06082 0.503822 1.89319 0.417205C1.72556 0.333681 1.55278 0.290373 1.37225 0.290373C1.18915 0.287279 1.01637 0.327494 0.848742 0.411018C0.681115 0.491448 0.531539 0.608999 0.402595 0.763672C0.273652 0.915252 0.175654 1.09158 0.106024 1.29265C0.0338155 1.49064 0.000289897 1.70099 -0.00228882 1.91753C-0.00228882 2.13408 0.031237 2.34443 0.0982875 2.54551C0.167917 2.74658 0.263336 2.92291 0.39228 3.07758L0.410332 3.08068Z" fill="white"/>
</svg>
