<svg width="4" height="4" viewBox="0 0 4 4" fill="none" xmlns="http://www.w3.org/2000/svg">
<path d="M2.66523 2.81417L2.50792 2.9905C2.39445 3.11733 2.2655 3.21633 2.12109 3.28438C1.97667 3.34934 1.8271 3.38337 1.67236 3.38028C1.51505 3.37719 1.36548 3.34006 1.22364 3.26582C1.07922 3.19467 0.952854 3.09259 0.844542 2.95957C0.73365 2.82964 0.648547 2.67497 0.589232 2.50483C0.527339 2.33159 0.496393 2.15527 0.493814 1.96657C0.491235 1.78096 0.519602 1.60154 0.573759 1.4283C0.630494 1.25507 0.713019 1.0973 0.818753 0.964285L0.965749 0.775583C1.07664 0.639472 1.20301 0.5312 1.35 0.453863C1.49442 0.376527 1.64915 0.336311 1.80646 0.333218C1.96635 0.330124 2.12109 0.361059 2.26808 0.432209C2.41766 0.500265 2.54918 0.602349 2.66265 0.735368C2.7787 0.865294 2.86896 1.01997 2.93086 1.19629C2.99533 1.36953 3.02885 1.55204 3.03143 1.74384C3.03659 1.93563 3.00822 2.11815 2.95149 2.29757C2.89217 2.47389 2.80965 2.63166 2.69876 2.77087L2.66523 2.81417Z" fill="white"/>
</svg>
