<svg width="4" height="5" viewBox="0 0 4 5" fill="none" xmlns="http://www.w3.org/2000/svg">
<path d="M0.589346 3.57363L0.738921 3.74995C0.888497 3.92937 1.06128 4.06549 1.2547 4.16138C1.45069 4.25728 1.65185 4.30678 1.86331 4.30678C2.07478 4.30678 2.27593 4.25728 2.46935 4.16138C2.66535 4.06239 2.83555 3.92628 2.98513 3.74686C3.1347 3.56744 3.24817 3.36327 3.3307 3.12817C3.41064 2.89616 3.4519 2.65487 3.4519 2.4012C3.4519 2.14754 3.41064 1.90625 3.3307 1.67115C3.25075 1.43914 3.13728 1.23187 2.98771 1.05245L2.84071 0.873033C2.69113 0.699799 2.52093 0.56678 2.32751 0.470883C2.1341 0.378079 1.93552 0.331677 1.72663 0.33477C1.52032 0.33477 1.31917 0.381172 1.12833 0.47707C0.934916 0.569873 0.764711 0.705986 0.617714 0.87922C0.468139 1.05245 0.354668 1.25353 0.272144 1.48244C0.187041 1.71136 0.1432 1.94956 0.140621 2.20013C0.135464 2.44761 0.168989 2.68889 0.243776 2.9209C0.315985 3.15291 0.424298 3.36018 0.566136 3.54269L0.589346 3.57363Z" fill="white"/>
</svg>
