<svg width="4" height="4" viewBox="0 0 4 4" fill="none" xmlns="http://www.w3.org/2000/svg">
<path d="M0.871016 2.9578L1.02833 3.13413C1.13922 3.26715 1.26816 3.36923 1.41516 3.44038C1.55958 3.51463 1.71173 3.54865 1.86904 3.54865C2.02893 3.54865 2.18109 3.51463 2.3255 3.44038C2.4725 3.36923 2.60145 3.26405 2.71234 3.13104C2.82323 2.99802 2.91091 2.84334 2.97023 2.66702C3.03212 2.49378 3.06049 2.31127 3.06049 2.11947C3.06049 1.93077 3.03212 1.74826 2.97023 1.57502C2.91091 1.3987 2.82581 1.24402 2.71234 1.11101L2.56534 0.922304C2.45703 0.789285 2.32808 0.687201 2.18367 0.612958C2.03925 0.538715 1.88709 0.501593 1.72978 0.4985C1.57505 0.495406 1.4229 0.529435 1.2759 0.600584C1.1289 0.66864 0.99996 0.767631 0.886489 0.897556C0.773018 1.03058 0.685337 1.18215 0.620865 1.3523C0.558972 1.52553 0.522867 1.70495 0.51771 1.89365C0.515131 2.08235 0.538341 2.26487 0.595076 2.44119C0.649232 2.61752 0.731756 2.77529 0.837491 2.9114L0.871016 2.9578Z" fill="white"/>
</svg>
