<svg width="4" height="4" viewBox="0 0 4 4" fill="none" xmlns="http://www.w3.org/2000/svg">
<path d="M3.07576 0.725319L3.23049 0.90474C3.3517 1.05323 3.44454 1.22646 3.50901 1.42135C3.57349 1.61314 3.60443 1.81422 3.60443 2.02457C3.60443 2.23184 3.57091 2.43291 3.50386 2.6278C3.43938 2.81959 3.34397 2.99283 3.22276 3.14131C3.10155 3.2898 2.96229 3.40735 2.8024 3.49087C2.64251 3.5744 2.47488 3.6208 2.3021 3.62699C2.12673 3.63008 1.95911 3.59915 1.79664 3.5249C1.63417 3.45375 1.48717 3.34548 1.35823 3.20628L1.33244 3.17534L1.18286 2.98973C1.06166 2.83815 0.968816 2.66492 0.904344 2.47003C0.837293 2.27514 0.806347 2.07098 0.808925 1.86062C0.808925 1.65026 0.845029 1.4461 0.912081 1.2543C0.979132 1.05941 1.07455 0.886179 1.20092 0.737693C1.3247 0.589207 1.46654 0.474748 1.62901 0.394319C1.79148 0.310795 1.95911 0.270581 2.13447 0.267487C2.30983 0.267487 2.48004 0.304608 2.64251 0.381945C2.80498 0.462374 2.9494 0.573739 3.07576 0.719132V0.725319Z" fill="white"/>
</svg>
