<svg width="5" height="5" viewBox="0 0 5 5" fill="none" xmlns="http://www.w3.org/2000/svg">
<path d="M3.67219 4.07697L3.52003 4.25639C3.37561 4.42962 3.20541 4.56574 3.01457 4.66163C2.82373 4.75444 2.62516 4.80393 2.41885 4.80393C2.21254 4.80393 2.01397 4.75444 1.82313 4.66163C1.63229 4.56574 1.46209 4.42962 1.31767 4.25639C1.17067 4.08006 1.0572 3.87899 0.979835 3.65007C0.899889 3.42116 0.861206 3.18296 0.861206 2.93239C0.861206 2.68491 0.899889 2.44671 0.979835 2.2178C1.0572 1.98888 1.17067 1.78781 1.31767 1.61148L1.46724 1.42897C1.60908 1.24954 1.77671 1.10725 1.97012 1.00516C2.16096 0.903077 2.36211 0.850488 2.571 0.847395C2.77989 0.841207 2.98105 0.887609 3.17704 0.980414C3.37046 1.07322 3.54324 1.20624 3.69282 1.38256C3.84239 1.55889 3.95586 1.76306 4.03839 1.99507C4.11833 2.22708 4.15959 2.46837 4.15959 2.71894C4.15959 2.96951 4.11833 3.2108 4.03839 3.44281C3.95586 3.67482 3.83981 3.87899 3.69282 4.05222L3.67219 4.07697Z" fill="white"/>
</svg>
