<svg width="4" height="5" viewBox="0 0 4 5" fill="none" xmlns="http://www.w3.org/2000/svg">
<path d="M3.16009 3.83868L3.00535 4.01501C2.87383 4.17277 2.72426 4.29342 2.55147 4.38003C2.38126 4.46356 2.20332 4.50687 2.01764 4.50687C1.83196 4.50687 1.65144 4.46356 1.48123 4.38003C1.31103 4.29342 1.15887 4.17277 1.02735 4.01501C0.895829 3.85724 0.795252 3.67782 0.723044 3.47056C0.653414 3.26639 0.61731 3.05294 0.61731 2.83021C0.61731 2.60748 0.653414 2.39403 0.723044 2.18677C0.795252 1.9826 0.895829 1.80009 1.02735 1.64232L1.17435 1.45981C1.30329 1.29895 1.45545 1.17521 1.62565 1.0855C1.79586 0.99888 1.9738 0.952478 2.16206 0.949385C2.34774 0.946291 2.52568 0.986507 2.69847 1.06694C2.87383 1.15046 3.02598 1.27111 3.16009 1.42578C3.29161 1.58045 3.39734 1.76297 3.46955 1.96713C3.54434 2.1713 3.58044 2.38475 3.58302 2.60748C3.5856 2.8333 3.55465 3.04675 3.48502 3.25401C3.41539 3.46128 3.3174 3.64688 3.18587 3.80465L3.16009 3.83868Z" fill="white"/>
</svg>
