<svg width="3" height="4" viewBox="0 0 3 4" fill="none" xmlns="http://www.w3.org/2000/svg">
<path d="M0.379239 2.73016L0.531393 2.90649C0.655179 3.04878 0.794439 3.15396 0.951751 3.22821C1.10906 3.30245 1.27411 3.33957 1.44174 3.33648C1.61194 3.33338 1.77441 3.29317 1.93173 3.21583C2.08646 3.1354 2.22572 3.02404 2.34435 2.88174C2.46555 2.73635 2.55839 2.57239 2.62287 2.38369C2.68992 2.19808 2.72344 2.00319 2.72602 1.79903C2.72602 1.59486 2.69765 1.39997 2.63576 1.21127C2.57387 1.02257 2.48361 0.852427 2.36756 0.707034L2.22056 0.52452C2.09935 0.379128 1.96009 0.267763 1.80278 0.187332C1.64547 0.106903 1.48042 0.066688 1.31021 0.063594C1.13743 0.0605007 0.972381 0.0976223 0.81507 0.174959C0.655179 0.252295 0.51592 0.360566 0.392133 0.502866C0.268347 0.645164 0.172929 0.812212 0.105878 1.00091C0.0362477 1.18961 0.000144064 1.3845 -0.00243531 1.58867C-0.00759274 1.79593 0.0233533 1.99391 0.0826678 2.18571C0.144561 2.3775 0.234822 2.54764 0.35345 2.69613L0.379239 2.73016Z" fill="white"/>
</svg>
