<svg width="4" height="5" viewBox="0 0 4 5" fill="none" xmlns="http://www.w3.org/2000/svg">
<path d="M1.38397 1.36266L1.23182 1.53899C1.10288 1.69366 1.00488 1.87308 0.932669 2.07416C0.863039 2.27524 0.826935 2.4825 0.826935 2.70213C0.826935 2.92177 0.86046 3.12903 0.93009 3.3332C0.99972 3.53428 1.09772 3.7137 1.22666 3.86837C1.35303 4.02304 1.5026 4.14059 1.67023 4.22412C1.83786 4.31073 2.01322 4.35095 2.19374 4.35404C2.37684 4.35404 2.55221 4.31383 2.71983 4.2303C2.88746 4.14678 3.03704 4.02923 3.16598 3.87456L3.31813 3.69204C3.43934 3.53737 3.53476 3.36104 3.59923 3.15997C3.6637 2.96198 3.69465 2.75472 3.69207 2.54127C3.68949 2.32782 3.65339 2.12056 3.58376 1.92258C3.51413 1.7246 3.41613 1.55136 3.28977 1.39979C3.16598 1.24821 3.01898 1.13065 2.85394 1.04713C2.69147 0.963608 2.51868 0.920299 2.34074 0.920299C2.1628 0.917205 1.99001 0.954327 1.82238 1.03166C1.65733 1.109 1.50776 1.22036 1.37882 1.36885L1.38397 1.36266Z" fill="white"/>
</svg>
