<svg width="4" height="5" viewBox="0 0 4 5" fill="none" xmlns="http://www.w3.org/2000/svg">
<path d="M3.19576 1.28569L3.34791 1.46511C3.47944 1.61051 3.58001 1.78065 3.65222 1.97554C3.72701 2.17042 3.76569 2.37459 3.77085 2.58495C3.77601 2.7984 3.74506 3.00566 3.68059 3.20364C3.61612 3.40162 3.5207 3.57795 3.39691 3.73262C3.27313 3.8842 3.13129 4.00175 2.96624 4.08528C2.80377 4.1688 2.63356 4.21211 2.45562 4.21211C2.27768 4.2152 2.10489 4.17499 1.94242 4.09146C1.77738 4.01103 1.63296 3.89348 1.50917 3.7419L1.4808 3.70478L1.33123 3.52227C1.20744 3.37378 1.11202 3.20364 1.04497 3.00875C0.977923 2.81696 0.944397 2.61279 0.944397 2.40553C0.944397 2.19517 0.977923 1.9941 1.04497 1.79921C1.11202 1.60741 1.20744 1.43418 1.33123 1.28569C1.45502 1.1403 1.59685 1.02584 1.75932 0.945413C1.91921 0.864983 2.08942 0.824768 2.26221 0.824768C2.43757 0.824768 2.6052 0.864983 2.76767 0.945413C2.92756 1.02584 3.07197 1.1403 3.19576 1.28569Z" fill="white"/>
</svg>
