<svg width="3" height="3" viewBox="0 0 3 3" fill="none" xmlns="http://www.w3.org/2000/svg">
<path d="M1.39941 0.288328L1.2421 0.464655C1.15442 0.563646 1.08479 0.681197 1.03579 0.814216C0.986789 0.947235 0.961 1.08644 0.955842 1.23183C0.953264 1.37723 0.973895 1.51952 1.01774 1.65564C1.059 1.79175 1.12347 1.9124 1.20857 2.01757C1.2911 2.12275 1.38909 2.20627 1.49999 2.26505C1.61088 2.32383 1.72693 2.35476 1.84813 2.35785C1.96934 2.36404 2.08797 2.33929 2.20144 2.2867C2.31491 2.23412 2.41549 2.15678 2.50317 2.05779L2.5367 2.01448L2.68369 1.82887C2.82811 1.61233 2.89258 1.36485 2.87969 1.08644C2.86679 0.811122 2.77911 0.572926 2.61664 0.378038C2.45159 0.180056 2.2556 0.0748794 2.0235 0.0594114C1.7914 0.0439443 1.58509 0.121281 1.40457 0.294515L1.39941 0.288328Z" fill="white"/>
</svg>
