<svg width="5" height="5" viewBox="0 0 5 5" fill="none" xmlns="http://www.w3.org/2000/svg">
<path d="M1.17183 4.1209L1.32398 4.30341C1.49419 4.50449 1.69018 4.66226 1.91197 4.77053C2.13375 4.88189 2.36327 4.93448 2.60311 4.93448C2.84294 4.93448 3.07246 4.8788 3.29425 4.77053C3.51603 4.65916 3.70945 4.50449 3.87965 4.30032C4.04986 4.09615 4.1788 3.86105 4.27164 3.59811C4.36448 3.33207 4.40832 3.05366 4.4109 2.76906C4.4109 2.48137 4.36448 2.20295 4.27422 1.93692C4.18138 1.67088 4.05244 1.43887 3.88223 1.2347L3.73008 1.05219C3.56245 0.848017 3.36646 0.693344 3.14467 0.581979C2.92289 0.470615 2.69079 0.414932 2.45095 0.414932C2.21112 0.414932 1.9816 0.470615 1.75981 0.581979C1.53803 0.690251 1.34203 0.848017 1.17183 1.05219C1.00162 1.25635 0.872678 1.48836 0.779839 1.7544C0.686999 2.02044 0.643158 2.29885 0.643158 2.58654C0.643158 2.87424 0.689578 3.15265 0.779839 3.41868C0.872678 3.68163 1.0042 3.91673 1.17183 4.1209Z" fill="white"/>
</svg>
