<svg width="3" height="4" viewBox="0 0 3 4" fill="none" xmlns="http://www.w3.org/2000/svg">
<path d="M2.32684 0.62246L2.48415 0.798787C2.59246 0.925619 2.67757 1.07101 2.73946 1.23806C2.79877 1.40511 2.8323 1.57834 2.83488 1.76085C2.83746 1.94337 2.81167 2.1197 2.75751 2.28674C2.70078 2.45688 2.62083 2.60846 2.51768 2.73839C2.41194 2.87141 2.29073 2.97349 2.15147 3.04773C2.01221 3.11888 1.8678 3.1591 1.71564 3.16219C1.56349 3.16838 1.41907 3.13745 1.27723 3.06939C1.1354 3.00443 1.00903 2.90853 0.900718 2.78479L0.864613 2.74458L0.717617 2.55587C0.617041 2.42595 0.537095 2.28056 0.482939 2.11351C0.428782 1.94956 0.400415 1.77632 0.402994 1.5969C0.405572 1.42057 0.43394 1.24734 0.493254 1.08339C0.549989 0.919432 0.632514 0.774039 0.735669 0.647207C0.841403 0.520375 0.96261 0.424478 1.09929 0.353328C1.23597 0.285272 1.38039 0.248151 1.52739 0.248151C1.67696 0.245057 1.82138 0.275992 1.95806 0.344048C2.09732 0.409011 2.2211 0.501815 2.32684 0.625553V0.62246Z" fill="white"/>
</svg>
