<svg width="4" height="5" viewBox="0 0 4 5" fill="none" xmlns="http://www.w3.org/2000/svg">
<path d="M2.86942 3.74031L2.71984 3.91973C2.56769 4.09297 2.39232 4.22599 2.19891 4.31879C2.00291 4.4085 1.79918 4.4549 1.59029 4.45181C1.3814 4.44872 1.18025 4.39613 0.986833 4.30023C0.793417 4.20124 0.623211 4.06513 0.473635 3.88571C0.326639 3.70938 0.21059 3.50521 0.128065 3.2732C0.04812 3.04119 0.00685794 2.79681 0.00427922 2.54624C0.00170051 2.29567 0.0378043 2.05128 0.115171 1.81927C0.189958 1.58417 0.30085 1.37691 0.445268 1.19439L0.594843 1.01188C0.744418 0.823177 0.917203 0.677785 1.11578 0.572607C1.31177 0.467429 1.52066 0.414841 1.73471 0.408653C1.95133 0.40556 2.16022 0.451962 2.36138 0.547859C2.56253 0.643757 2.73789 0.782962 2.89263 0.962383C3.04736 1.1449 3.16599 1.35525 3.24851 1.59654C3.33361 1.83474 3.37488 2.08222 3.3723 2.34207C3.3723 2.60192 3.33104 2.85249 3.24593 3.09069C3.16341 3.32888 3.04478 3.53924 2.89005 3.71866L2.86942 3.74031Z" fill="white"/>
</svg>
