<svg width="5" height="5" viewBox="0 0 5 5" fill="none" xmlns="http://www.w3.org/2000/svg">
<path d="M1.63898 1.41662L1.48683 1.59604C1.33209 1.76927 1.20831 1.97344 1.12062 2.20545C1.03036 2.43746 0.983943 2.68184 0.978786 2.9386C0.973628 3.19536 1.00973 3.43974 1.0871 3.67794C1.16447 3.91613 1.28051 4.12649 1.42751 4.3121C1.57709 4.49461 1.74987 4.63382 1.94844 4.73281C2.14444 4.8318 2.35075 4.8782 2.56222 4.8782C2.77627 4.87511 2.98258 4.82561 3.17599 4.72353C3.37199 4.62144 3.54477 4.47914 3.69177 4.29354L3.7124 4.26569L3.86197 4.08318C4.00123 3.90685 4.10697 3.70269 4.17918 3.47377C4.25396 3.24485 4.28749 3.00975 4.28233 2.76537C4.27975 2.52098 4.23849 2.28588 4.15855 2.06006C4.0786 1.83733 3.96771 1.63625 3.82329 1.46611C3.67887 1.29288 3.51382 1.15677 3.32557 1.06396C3.13731 0.968065 2.94389 0.915475 2.74016 0.912382C2.53643 0.909288 2.33786 0.949503 2.1496 1.03612C1.95876 1.12274 1.78855 1.24957 1.63898 1.41662Z" fill="white"/>
</svg>
