<svg width="2" height="3" viewBox="0 0 2 3" fill="none" xmlns="http://www.w3.org/2000/svg">
<path d="M1.28661 0.838286L1.44134 1.01152C1.51355 1.09195 1.57029 1.18785 1.61155 1.29612C1.65281 1.40439 1.67344 1.51575 1.6786 1.6364C1.68118 1.75395 1.66571 1.86841 1.6296 1.97977C1.59608 2.09114 1.5445 2.19013 1.47745 2.27675C1.4104 2.36336 1.33045 2.43142 1.24019 2.48091C1.14993 2.53041 1.05709 2.55516 0.956515 2.56134C0.858517 2.56444 0.763099 2.54588 0.670259 2.50566C0.57742 2.46235 0.494896 2.40048 0.422686 2.32005C0.409792 2.30768 0.396897 2.29221 0.386582 2.27675L0.242165 2.09114C0.110641 1.91481 0.0461694 1.71064 0.0539062 1.47245C0.0590636 1.23734 0.131272 1.03627 0.267953 0.872314C0.407213 0.705267 0.57484 0.61865 0.770835 0.612463C0.969409 0.606276 1.13962 0.680519 1.28661 0.838286Z" fill="white"/>
</svg>
