<svg width="5" height="6" viewBox="0 0 5 6" fill="none" xmlns="http://www.w3.org/2000/svg">
<path d="M3.59253 1.31936L3.74211 1.50187C3.91232 1.70295 4.04384 1.93805 4.1341 2.20409C4.22694 2.46703 4.27336 2.74235 4.27336 3.03004C4.27594 3.31773 4.22952 3.59305 4.13926 3.85909C4.049 4.12513 3.91747 4.36023 3.74985 4.56131C3.57964 4.76547 3.38622 4.92324 3.16444 5.03461C2.94524 5.14288 2.71314 5.19856 2.47588 5.20165C2.23604 5.20165 2.00394 5.14597 1.78474 5.0377C1.56296 4.92943 1.36696 4.77166 1.19675 4.57059L1.04718 4.38807C0.876973 4.1839 0.748029 3.95189 0.657768 3.68586C0.567507 3.41982 0.521088 3.1445 0.521088 2.85681C0.523666 2.56912 0.570087 2.2938 0.660347 2.03085C0.753187 1.76481 0.88471 1.52971 1.05234 1.32864C1.22254 1.12756 1.41854 0.969795 1.64032 0.861524C1.85953 0.753253 2.08905 0.697571 2.32888 0.697571C2.56872 0.697571 2.79824 0.753253 3.02002 0.864618C3.23923 0.972888 3.43522 1.13065 3.60543 1.33173L3.59253 1.31936Z" fill="white"/>
</svg>
