<svg width="3" height="4" viewBox="0 0 3 4" fill="none" xmlns="http://www.w3.org/2000/svg">
<path d="M0.389258 2.92702L0.54399 3.10335C0.644567 3.2209 0.758038 3.31371 0.886982 3.37867C1.01593 3.44054 1.15003 3.47457 1.29187 3.47457C1.43113 3.47457 1.56523 3.44054 1.69417 3.37867C1.82312 3.31371 1.93659 3.2209 2.03716 3.10335C2.13516 2.98271 2.21253 2.84659 2.26668 2.69192C2.31826 2.53725 2.34663 2.37639 2.34663 2.20934C2.34663 2.0392 2.31826 1.87834 2.26668 1.72367C2.21253 1.56899 2.13516 1.43288 2.03716 1.31224L1.89017 1.12663C1.78959 1.02454 1.6787 0.947208 1.55491 0.897713C1.43113 0.845124 1.30476 0.820376 1.17324 0.823469C1.04429 0.826563 0.917928 0.860591 0.796721 0.919367C0.675513 0.978142 0.5672 1.06167 0.471782 1.16994C0.376363 1.27511 0.301576 1.39885 0.242261 1.54115C0.185526 1.68036 0.152 1.82884 0.139106 1.98661C0.128791 2.14128 0.139107 2.29596 0.175211 2.44754C0.208736 2.59912 0.265471 2.73523 0.345417 2.86206L0.389258 2.92702Z" fill="white"/>
</svg>
