<svg width="3" height="3" viewBox="0 0 3 3" fill="none" xmlns="http://www.w3.org/2000/svg">
<path d="M2.13778 0.297347L2.28994 0.473674C2.3673 0.560291 2.4292 0.662376 2.47304 0.779927C2.5143 0.897478 2.53751 1.01812 2.54009 1.14805C2.54267 1.27488 2.5272 1.39862 2.48851 1.51926C2.44983 1.63682 2.39309 1.74199 2.32089 1.8348C2.2461 1.9276 2.16099 2.00184 2.06558 2.05443C1.96758 2.10393 1.86442 2.13177 1.75869 2.13486C1.65296 2.13796 1.5498 2.1194 1.44922 2.07299C1.35123 2.02659 1.26097 1.95854 1.1836 1.87192C1.17328 1.85955 1.16297 1.84717 1.15523 1.8348L1.00823 1.65228C0.936026 1.55948 0.881869 1.4574 0.845765 1.34294C0.809661 1.22539 0.791608 1.10474 0.794188 0.981002C0.794188 0.857263 0.817398 0.736619 0.856081 0.62216C0.897343 0.507702 0.954078 0.408711 1.02629 0.319001C1.10107 0.232384 1.1836 0.164328 1.27902 0.114832C1.37444 0.0684309 1.47501 0.0405892 1.57817 0.0405892C1.68132 0.0374959 1.7819 0.0591504 1.8799 0.102458C1.97531 0.148861 2.06042 0.21073 2.13778 0.297347Z" fill="white"/>
</svg>
