<svg width="4" height="5" viewBox="0 0 4 5" fill="none" xmlns="http://www.w3.org/2000/svg">
<path d="M2.84345 0.712069L2.9956 0.89149C3.14776 1.06472 3.26897 1.2658 3.35407 1.49471C3.43917 1.72672 3.48301 1.96801 3.48817 2.21859C3.49075 2.47225 3.45465 2.71354 3.3747 2.94864C3.29733 3.18065 3.18386 3.38791 3.03429 3.56733C2.88729 3.74676 2.71451 3.88287 2.52109 3.97877C2.3251 4.07157 2.12394 4.11797 1.91505 4.11488C1.70359 4.11178 1.50243 4.0592 1.30902 3.95711C1.11818 3.85503 0.950552 3.71273 0.806135 3.52712L0.653981 3.3477C0.5173 3.17137 0.411566 2.9703 0.339358 2.74447C0.267149 2.51865 0.231045 2.28664 0.236203 2.04535C0.238782 1.80097 0.280044 1.56896 0.35741 1.34932C0.437355 1.12659 0.548248 0.928611 0.690086 0.758471C0.831924 0.588331 0.996972 0.455312 1.18007 0.359414C1.36575 0.266611 1.55917 0.217115 1.76032 0.214021C1.96405 0.207835 2.15747 0.251143 2.34573 0.33776C2.53399 0.424377 2.70161 0.551208 2.84861 0.715162L2.84345 0.712069Z" fill="white"/>
</svg>
