<svg width="4" height="5" viewBox="0 0 4 5" fill="none" xmlns="http://www.w3.org/2000/svg">
<path d="M3.25307 3.64481L3.10091 3.82423C2.97455 3.97581 2.83013 4.09027 2.66508 4.1738C2.50003 4.25423 2.32983 4.29444 2.15189 4.29444C1.97394 4.29444 1.80116 4.25423 1.63611 4.1738C1.47106 4.09027 1.32664 3.97581 1.20028 3.82423C1.07649 3.67265 0.978494 3.49942 0.908865 3.30144C0.841814 3.10346 0.808289 2.89929 0.808289 2.68584C0.808289 2.47239 0.841814 2.26513 0.908865 2.06715C0.978494 1.87226 1.07649 1.69593 1.20028 1.54435L1.34985 1.36184C1.47364 1.20717 1.61806 1.08961 1.78311 1.003C1.94558 0.919473 2.11836 0.876165 2.2963 0.869978C2.47425 0.866884 2.64703 0.9071 2.81208 0.984436C2.97713 1.06487 3.12412 1.17932 3.25307 1.32781C3.38201 1.4763 3.48001 1.64953 3.55222 1.84442C3.62185 2.0424 3.65795 2.24657 3.66053 2.46002C3.66311 2.67347 3.63216 2.88073 3.56769 3.07871C3.50064 3.27979 3.40522 3.45611 3.28144 3.60769L3.25307 3.64481Z" fill="white"/>
</svg>
