<svg width="3" height="3" viewBox="0 0 3 3" fill="none" xmlns="http://www.w3.org/2000/svg">
<path d="M0.879849 0.411605L0.722537 0.587932C0.627119 0.696203 0.552331 0.823035 0.498175 0.965334C0.444018 1.11073 0.415651 1.26231 0.410493 1.42007C0.407914 1.57784 0.428545 1.73251 0.474965 1.881C0.521385 2.02949 0.588435 2.15941 0.678696 2.27387C0.768957 2.39142 0.874691 2.48113 0.995899 2.54609C1.11453 2.61106 1.24089 2.64818 1.37499 2.65437C1.50652 2.65746 1.63288 2.63271 1.75667 2.57703C1.88045 2.52135 1.99135 2.44092 2.08677 2.33264L2.13576 2.28006L2.28018 2.09135C2.36528 1.97999 2.43234 1.85006 2.47618 1.70777C2.5226 1.56547 2.54323 1.41698 2.54065 1.26231C2.53807 1.11073 2.5097 0.962241 2.4607 0.823035C2.4117 0.680735 2.3395 0.556997 2.24923 0.448726C2.15897 0.340455 2.05582 0.256931 1.93719 0.195062C1.82114 0.136286 1.69735 0.102258 1.57099 0.0991648C1.44204 0.0960708 1.31826 0.120819 1.19963 0.176501C1.081 0.22909 0.972689 0.30952 0.879849 0.411605Z" fill="white"/>
</svg>
