<svg width="4" height="5" viewBox="0 0 4 5" fill="none" xmlns="http://www.w3.org/2000/svg">
<path d="M2.8095 3.45404L2.65734 3.63346C2.51035 3.79123 2.3453 3.90878 2.1622 3.98612C1.97652 4.06655 1.78826 4.10367 1.59227 4.09748C1.39627 4.0882 1.20801 4.0387 1.02749 3.9459C0.849548 3.8531 0.689657 3.72317 0.552977 3.55612C0.413717 3.38908 0.305404 3.20038 0.228038 2.98383C0.150671 2.76729 0.109409 2.54147 0.104251 2.30637C0.0990933 2.07126 0.13004 1.84544 0.197091 1.6258C0.264142 1.40307 0.362139 1.20509 0.493662 1.03186L0.643237 0.849344C0.787655 0.685391 0.952703 0.558559 1.13838 0.471942C1.32406 0.385325 1.51748 0.34511 1.71605 0.348203C1.91463 0.348203 2.10546 0.397698 2.28856 0.490503C2.47424 0.580213 2.63671 0.710139 2.77855 0.880279C2.92039 1.04733 3.0287 1.24221 3.10865 1.45876C3.18859 1.67839 3.22986 1.90731 3.23501 2.1486C3.23759 2.3868 3.20664 2.61571 3.13444 2.84153C3.06481 3.06426 2.96165 3.26534 2.82755 3.43857L2.8095 3.45404Z" fill="white"/>
</svg>
