<svg width="3" height="4" viewBox="0 0 3 4" fill="none" xmlns="http://www.w3.org/2000/svg">
<path d="M2.45574 0.770037L2.61047 0.949458C2.72652 1.08248 2.81936 1.24024 2.88384 1.41657C2.95089 1.5929 2.98441 1.77851 2.98957 1.97339C2.99215 2.16828 2.96636 2.35389 2.90705 2.5364C2.84773 2.71582 2.76263 2.87669 2.65174 3.01898C2.53827 3.15819 2.40932 3.26646 2.25975 3.3438C2.11017 3.42114 1.95544 3.46135 1.79555 3.46444C1.63308 3.46754 1.47577 3.43042 1.32619 3.35927C1.17662 3.28812 1.04252 3.18294 0.926466 3.04683L0.895519 3.00661L0.745944 2.821C0.645368 2.68489 0.57058 2.52712 0.519002 2.35389C0.467425 2.18066 0.444215 2.00433 0.449373 1.81872C0.454531 1.63621 0.488056 1.45988 0.54737 1.29283C0.609263 1.12269 0.694366 0.974206 0.802679 0.84428C0.910992 0.714355 1.03478 0.61227 1.17662 0.538027C1.31588 0.466878 1.46287 0.426663 1.61503 0.420476C1.76976 0.414288 1.91676 0.44213 2.06117 0.503999C2.20559 0.565868 2.33711 0.655579 2.45058 0.776224L2.45574 0.770037Z" fill="white"/>
</svg>
