<svg width="5" height="5" viewBox="0 0 5 5" fill="none" xmlns="http://www.w3.org/2000/svg">
<path d="M1.36183 3.60841L1.5114 3.78783C1.6584 3.96415 1.82603 4.10027 2.01686 4.19307C2.2077 4.28897 2.40628 4.33537 2.61516 4.33537C2.82148 4.33537 3.02005 4.28897 3.21089 4.19307C3.40172 4.10027 3.56935 3.96415 3.71635 3.78783C3.86334 3.61459 3.97423 3.41042 4.05418 3.18151C4.13413 2.95259 4.17281 2.7144 4.17281 2.46692C4.17281 2.21944 4.13413 1.98125 4.05418 1.75233C3.97423 1.52341 3.86334 1.31924 3.71635 1.14292L3.56677 0.963496C3.42235 0.780983 3.25473 0.638683 3.06389 0.536598C2.87305 0.437608 2.6719 0.385019 2.46301 0.378832C2.25412 0.375739 2.05039 0.419047 1.85697 0.511851C1.66098 0.604655 1.49077 0.740766 1.3412 0.917094C1.19162 1.09033 1.07557 1.2945 0.995628 1.52651C0.915683 1.75852 0.87442 1.99981 0.87442 2.25038C0.87442 2.50095 0.915683 2.74224 0.995628 2.97425C1.07815 3.20626 1.19162 3.41043 1.3412 3.58675L1.36183 3.60841Z" fill="white"/>
</svg>
