<svg width="4" height="4" viewBox="0 0 4 4" fill="none" xmlns="http://www.w3.org/2000/svg">
<path d="M1.32175 1.08226L1.1696 1.25859C1.05613 1.3947 0.968447 1.55247 0.906554 1.73189C0.844661 1.90821 0.811135 2.09382 0.811135 2.28562C0.808557 2.4805 0.836924 2.66611 0.896238 2.84553C0.955552 3.02495 1.04324 3.18272 1.15413 3.32193C1.26502 3.46113 1.39396 3.5725 1.54096 3.64983C1.68795 3.72717 1.84011 3.77048 2.00258 3.77666C2.16247 3.78285 2.31978 3.75192 2.46936 3.68695C2.62151 3.6189 2.75561 3.51991 2.87424 3.38998L2.91034 3.34667L3.05734 3.16416C3.16565 3.02495 3.24818 2.86409 3.30491 2.68777C3.36165 2.50834 3.38744 2.32583 3.38486 2.13404C3.38228 1.94224 3.34875 1.75973 3.28686 1.58649C3.22497 1.41017 3.13729 1.25549 3.02381 1.11938C2.91292 0.986361 2.78398 0.881184 2.63698 0.806941C2.48999 0.732698 2.33783 0.692482 2.18052 0.689389C2.02063 0.686296 1.86848 0.71723 1.7189 0.785286C1.57191 0.853343 1.4378 0.952334 1.32175 1.08226Z" fill="white"/>
</svg>
