<svg width="5" height="5" viewBox="0 0 5 5" fill="none" xmlns="http://www.w3.org/2000/svg">
<path d="M1.19404 3.95547L1.34362 4.13799C1.49835 4.3205 1.67371 4.4628 1.87487 4.56179C2.07602 4.66078 2.28491 4.71028 2.50154 4.71028C2.71816 4.71028 2.92705 4.66078 3.1282 4.56179C3.32678 4.4628 3.50472 4.3205 3.65687 4.13799C3.81161 3.95238 3.93023 3.74203 4.01276 3.50074C4.09528 3.25945 4.13655 3.00887 4.13655 2.74902C4.13655 2.48917 4.09528 2.2386 4.01276 2.00041C3.93023 1.75912 3.81161 1.54567 3.65687 1.36315L3.5073 1.18064C3.35257 0.998124 3.1772 0.855825 2.97605 0.753741C2.7749 0.65475 2.56859 0.605254 2.34938 0.605254C2.13276 0.602161 1.92387 0.651656 1.72529 0.750647C1.52414 0.849638 1.3462 0.991938 1.19404 1.17445C1.03931 1.36006 0.920681 1.57041 0.838157 1.8117C0.755633 2.05299 0.711792 2.30047 0.711792 2.56342C0.711792 2.82327 0.753054 3.07384 0.835578 3.31203C0.918102 3.55332 1.03673 3.76677 1.18888 3.94929L1.19404 3.95547Z" fill="white"/>
</svg>
