<svg width="5" height="5" viewBox="0 0 5 5" fill="none" xmlns="http://www.w3.org/2000/svg">
<path d="M3.61334 0.937542L3.76549 1.11696C3.91507 1.29638 4.03112 1.50364 4.11364 1.73875C4.19359 1.97076 4.23485 2.21514 4.23743 2.46881C4.23743 2.72556 4.19874 2.96995 4.1188 3.20505C4.03627 3.44015 3.9228 3.64742 3.77323 3.82684C3.62365 4.00935 3.45345 4.14856 3.25745 4.24755C3.06146 4.34344 2.85773 4.39603 2.64626 4.39603C2.43479 4.39603 2.23106 4.34963 2.03506 4.25373C1.83907 4.15784 1.6637 4.02172 1.51413 3.8423L1.50381 3.82993L1.35424 3.64742C1.2124 3.46799 1.10409 3.26073 1.03188 3.02872C0.95709 2.79671 0.920986 2.55542 0.926143 2.30795C0.928722 2.05737 0.969984 1.81918 1.05251 1.59026C1.13245 1.36135 1.24592 1.16027 1.39292 0.983944C1.53992 0.81071 1.70754 0.671504 1.89838 0.575607C2.08922 0.479709 2.28779 0.427121 2.49668 0.424027C2.70299 0.417841 2.90157 0.461148 3.09498 0.550859C3.2884 0.64057 3.46118 0.767401 3.61334 0.937542Z" fill="white"/>
</svg>
