<svg width="3" height="4" viewBox="0 0 3 4" fill="none" xmlns="http://www.w3.org/2000/svg">
<path d="M1.07465 1.2131L0.917339 1.39252C0.814184 1.51008 0.734239 1.64619 0.677504 1.80396C0.620768 1.96172 0.589821 2.12568 0.587243 2.29582C0.584664 2.46905 0.610452 2.633 0.66203 2.79386C0.713607 2.95163 0.788395 3.09393 0.888972 3.21767C0.986969 3.34141 1.10302 3.4373 1.23196 3.50536C1.36349 3.57342 1.50017 3.61054 1.642 3.61363C1.78642 3.61672 1.9231 3.58579 2.0572 3.52392C2.18873 3.46205 2.30736 3.37234 2.41051 3.2517L2.44146 3.21457L2.58845 3.02897C2.68903 2.90832 2.7664 2.76912 2.82055 2.61135C2.87471 2.45358 2.9005 2.29272 2.9005 2.12258C2.9005 1.95244 2.87213 1.78849 2.81797 1.63072C2.76382 1.47605 2.68903 1.33684 2.58845 1.2162C2.48788 1.09555 2.37183 1.00275 2.24031 0.937786C2.11136 0.872823 1.97468 0.841888 1.83284 0.841888C1.691 0.841888 1.55432 0.872823 1.42538 0.937786C1.29386 1.00275 1.17781 1.09555 1.07723 1.2131H1.07465Z" fill="white"/>
</svg>
