<svg width="5" height="5" viewBox="0 0 5 5" fill="none" xmlns="http://www.w3.org/2000/svg">
<path d="M3.51533 0.792484L3.66749 0.974998C3.82996 1.16679 3.95374 1.38952 4.04142 1.64319C4.12911 1.89685 4.17295 2.15979 4.17295 2.43511C4.17295 2.70734 4.13169 2.97338 4.044 3.22395C3.95632 3.47761 3.83254 3.70343 3.67007 3.89523C3.51018 4.09011 3.3245 4.2417 3.11303 4.34687C2.90156 4.45205 2.68235 4.50464 2.45283 4.50464C2.22589 4.50464 2.00669 4.45205 1.79522 4.34997C1.58375 4.24479 1.39549 4.0963 1.2356 3.90141L1.08345 3.7189C0.920978 3.52711 0.797193 3.30438 0.70951 3.05071C0.624408 2.79705 0.580566 2.5341 0.580566 2.26188C0.580566 1.98656 0.621829 1.72362 0.70951 1.46995C0.797193 1.21938 0.920979 0.993559 1.08087 0.801764C1.24334 0.606876 1.42902 0.45839 1.64049 0.353212C1.84938 0.248035 2.06858 0.195446 2.2981 0.192352C2.52504 0.192352 2.74425 0.244941 2.95572 0.347025C3.16718 0.452203 3.35286 0.600689 3.51533 0.792484Z" fill="white"/>
</svg>
