<svg width="2" height="3" viewBox="0 0 2 3" fill="none" xmlns="http://www.w3.org/2000/svg">
<path d="M1.45619 2.24835L1.30404 2.42777C1.23956 2.50201 1.16478 2.56079 1.07967 2.6041C0.994571 2.64431 0.906889 2.66287 0.816628 2.66287C0.723789 2.66287 0.636106 2.64122 0.551004 2.59791C0.468479 2.55769 0.393692 2.49583 0.32922 2.41849C0.264748 2.34115 0.21317 2.25144 0.179645 2.15245C0.14354 2.05037 0.125488 1.94519 0.125488 1.83382C0.125488 1.72555 0.140961 1.62038 0.174487 1.51829C0.210591 1.41621 0.25959 1.3265 0.321483 1.24607L0.468479 1.05737C0.530373 0.976935 0.60516 0.911972 0.690263 0.865571C0.775366 0.819168 0.865626 0.794421 0.958467 0.791327C1.05131 0.78514 1.14157 0.803701 1.22925 0.843916C1.31693 0.884131 1.3943 0.939814 1.46393 1.01715C1.53098 1.09449 1.58513 1.1842 1.62382 1.28628C1.6625 1.38837 1.68313 1.49354 1.68571 1.60491C1.68829 1.71937 1.6754 1.82764 1.64187 1.93282C1.60834 2.0349 1.56192 2.1308 1.49745 2.21123L1.45619 2.24835Z" fill="white"/>
</svg>
