<svg width="3" height="4" viewBox="0 0 3 4" fill="none" xmlns="http://www.w3.org/2000/svg">
<path d="M1.87172 1.07143L2.02645 1.24776C2.13219 1.3715 2.21471 1.5138 2.27402 1.67466C2.33334 1.83861 2.36428 2.00875 2.36944 2.18508C2.37202 2.36141 2.34623 2.53155 2.29208 2.69859C2.23792 2.86255 2.16055 3.00794 2.05998 3.13786C1.95682 3.2647 1.83819 3.36369 1.70151 3.43484C1.56741 3.50599 1.42557 3.54311 1.27858 3.5462C1.13158 3.55239 0.987162 3.52145 0.850482 3.45649C0.713801 3.39153 0.590015 3.29872 0.484281 3.17499L0.450755 3.13786L0.303759 2.95535C0.208341 2.82852 0.133553 2.68313 0.0845542 2.52227C0.0329766 2.3645 0.00976702 2.19745 0.0149244 2.02731C0.0175038 1.85408 0.0484501 1.69012 0.102606 1.53236C0.159341 1.37459 0.239287 1.23538 0.339863 1.11474C0.44044 0.994094 0.556489 0.898197 0.688012 0.833235C0.819535 0.765179 0.956216 0.728057 1.09805 0.724963C1.24247 0.72187 1.37915 0.749711 1.51325 0.808487C1.64736 0.870356 1.76598 0.956973 1.87172 1.07143Z" fill="white"/>
</svg>
