<svg width="4" height="5" viewBox="0 0 4 5" fill="none" xmlns="http://www.w3.org/2000/svg">
<path d="M1.11226 1.28597L0.962686 1.46539C0.823427 1.62934 0.717692 1.82114 0.640326 2.03459C0.565538 2.25113 0.529434 2.47695 0.526855 2.70896C0.526855 2.94406 0.562959 3.16679 0.637747 3.38334C0.712535 3.59988 0.818269 3.79167 0.95495 3.95563C1.09163 4.12267 1.25152 4.24951 1.42946 4.33922C1.60999 4.42893 1.79824 4.47533 1.99166 4.47533C2.18765 4.47533 2.37591 4.43202 2.55386 4.34231C2.73438 4.2526 2.89427 4.12577 3.03095 3.96181L3.18052 3.7793C3.3172 3.61535 3.42294 3.42355 3.49773 3.2101C3.57251 2.99356 3.60862 2.77083 3.60862 2.53573C3.60862 2.30372 3.56993 2.07789 3.49773 1.86445C3.42294 1.6479 3.3172 1.4592 3.17794 1.29525C3.04126 1.1282 2.88395 1.00137 2.70343 0.91166C2.52549 0.825043 2.33723 0.778641 2.14381 0.778641C1.94782 0.778641 1.76214 0.821949 1.58162 0.91166C1.40368 1.00137 1.24378 1.1282 1.1071 1.29216L1.11226 1.28597Z" fill="white"/>
</svg>
