<svg width="4" height="5" viewBox="0 0 4 5" fill="none" xmlns="http://www.w3.org/2000/svg">
<path d="M3.41417 3.63092L3.25944 3.81034C3.13307 3.96192 2.98608 4.07947 2.82103 4.16299C2.6534 4.24652 2.48062 4.28673 2.30009 4.28673C2.11957 4.28673 1.94679 4.24652 1.78174 4.16299C1.61411 4.07947 1.46969 3.96192 1.34075 3.81034C1.21439 3.65876 1.11639 3.48243 1.04676 3.28136C0.979708 3.08338 0.943604 2.87611 0.943604 2.65957C0.943604 2.44303 0.979708 2.23577 1.04676 2.03779C1.11639 1.83671 1.21439 1.66038 1.34075 1.5088L1.49033 1.3232C1.61669 1.16852 1.76111 1.04788 1.92616 0.964355C2.09121 0.877738 2.26141 0.831336 2.44193 0.828242C2.62246 0.825149 2.79524 0.86227 2.96287 0.9427C3.13049 1.02313 3.27749 1.13759 3.40643 1.28607C3.53538 1.43765 3.63595 1.61089 3.70816 1.80887C3.77779 2.00685 3.81648 2.21411 3.81906 2.42756C3.82163 2.6441 3.78811 2.85137 3.72106 3.05244C3.65659 3.25352 3.56117 3.42984 3.4348 3.58452L3.41417 3.63092Z" fill="white"/>
</svg>
