<svg width="3" height="4" viewBox="0 0 3 4" fill="none" xmlns="http://www.w3.org/2000/svg">
<path d="M2.27131 0.634334L2.42604 0.810661C2.53951 0.94368 2.62977 1.09835 2.69167 1.27468C2.75614 1.44791 2.78966 1.63043 2.79224 1.82222C2.79482 2.01402 2.76645 2.19963 2.70972 2.37595C2.6504 2.55537 2.5653 2.71314 2.45441 2.84925C2.34352 2.98537 2.21715 3.09364 2.07016 3.17097C1.92316 3.24522 1.77101 3.28543 1.6137 3.29162C1.4538 3.29471 1.29907 3.26068 1.15208 3.18953C1.0025 3.12148 0.870977 3.01939 0.757507 2.88637L0.723981 2.85235L0.576985 2.66674C0.466093 2.53372 0.378411 2.37905 0.316518 2.20272C0.257204 2.02639 0.226257 1.84078 0.226257 1.65208C0.226257 1.46029 0.257204 1.27777 0.316518 1.10145C0.378411 0.92512 0.466093 0.770446 0.576985 0.634334C0.690456 0.501315 0.8194 0.396137 0.966396 0.321894C1.11339 0.250744 1.26555 0.213623 1.42544 0.213623C1.58275 0.213623 1.73748 0.250744 1.88448 0.321894C2.02889 0.396137 2.16042 0.501315 2.27131 0.634334Z" fill="white"/>
</svg>
