<svg width="4" height="6" viewBox="0 0 4 6" fill="none" xmlns="http://www.w3.org/2000/svg">
<path d="M2.99714 1.38202L3.14672 1.56454C3.30661 1.75633 3.4304 1.97906 3.51808 2.22963C3.60576 2.4802 3.6496 2.74315 3.6496 3.01537C3.6496 3.2876 3.60576 3.55054 3.52066 3.80111C3.43297 4.05168 3.30919 4.27441 3.1493 4.4693C2.98941 4.66109 2.80373 4.80958 2.59484 4.91476C2.38595 5.01993 2.16674 5.07252 1.9398 5.07252C1.71286 5.07252 1.49366 5.01994 1.28477 4.91785C1.07588 4.81267 0.890198 4.66419 0.727729 4.47239L0.578153 4.29297C0.415684 4.10118 0.291898 3.87845 0.204216 3.62788C0.116534 3.37731 0.0726929 3.11436 0.0726929 2.84214C0.0726929 2.56991 0.116534 2.30697 0.201637 2.0533C0.289319 1.80273 0.413105 1.58 0.572996 1.38821C0.732887 1.19332 0.918566 1.04484 1.12745 0.939657C1.33892 0.834479 1.55555 0.781891 1.78507 0.781891C2.01201 0.781891 2.22864 0.834479 2.44011 0.936564C2.649 1.04174 2.83467 1.19023 2.99714 1.38202Z" fill="white"/>
</svg>
