<svg width="5" height="5" viewBox="0 0 5 5" fill="none" xmlns="http://www.w3.org/2000/svg">
<path d="M3.49842 0.918509L3.65057 1.09793C3.83625 1.299 3.98325 1.53411 4.08898 1.80324C4.19471 2.07546 4.25145 2.36006 4.25661 2.66013C4.26434 2.96019 4.22308 3.24789 4.13024 3.5263C4.0374 3.80471 3.9033 4.04909 3.72794 4.25945C3.55257 4.4729 3.34626 4.63376 3.11416 4.74512C2.88206 4.85339 2.64223 4.90598 2.39208 4.8967C2.1445 4.88742 1.90725 4.81937 1.6803 4.69253C1.45336 4.5657 1.25737 4.39247 1.09232 4.16664L0.940166 3.98722C0.780276 3.77996 0.659068 3.54486 0.573965 3.28191C0.488862 3.02206 0.450179 2.74984 0.452757 2.46833C0.457915 2.18374 0.504335 1.9146 0.597175 1.65475C0.687436 1.3949 0.816379 1.16599 0.984007 0.968005C1.14906 0.770023 1.33989 0.615349 1.55652 0.503985C1.77314 0.395714 1.99751 0.336938 2.23219 0.333845C2.46686 0.327658 2.6938 0.377153 2.91301 0.476144C3.13222 0.578229 3.32821 0.726715 3.49842 0.918509Z" fill="white"/>
</svg>
