<svg width="3" height="4" viewBox="0 0 3 4" fill="none" xmlns="http://www.w3.org/2000/svg">
<path d="M2.20289 2.63622L2.05074 2.81255C1.97079 2.90535 1.88053 2.9765 1.77996 3.02909C1.6768 3.07859 1.57107 3.10334 1.46018 3.10334C1.34928 3.10334 1.24355 3.07859 1.14039 3.02909C1.03982 2.9765 0.949558 2.90535 0.869612 2.81255C0.792246 2.71665 0.732931 2.60838 0.68909 2.48774C0.647828 2.364 0.627197 2.23717 0.627197 2.10415C0.627197 1.97113 0.647828 1.8443 0.68909 1.72056C0.732931 1.59991 0.792246 1.49164 0.869612 1.39884L1.01919 1.21323C1.09397 1.11733 1.18424 1.04309 1.28481 0.987408C1.38797 0.934819 1.4937 0.906977 1.60459 0.903884C1.71549 0.900791 1.82122 0.922445 1.92437 0.97194C2.03011 1.01834 2.12037 1.08949 2.20031 1.1792C2.28284 1.27201 2.34473 1.37718 2.38857 1.50092C2.43499 1.62157 2.4582 1.7484 2.46078 1.88142C2.46336 2.01444 2.44531 2.14436 2.40662 2.2681C2.36794 2.39184 2.30863 2.5032 2.23384 2.5991L2.20289 2.63622Z" fill="white"/>
</svg>
