<svg width="4" height="5" viewBox="0 0 4 5" fill="none" xmlns="http://www.w3.org/2000/svg">
<path d="M2.73761 3.48389L2.58545 3.66022C2.44361 3.79633 2.28372 3.89841 2.11094 3.96338C1.93557 4.02834 1.75763 4.05618 1.57453 4.04071C1.39401 4.02834 1.21864 3.97884 1.05102 3.88913C0.885969 3.79633 0.738973 3.67568 0.60745 3.52101C0.478505 3.36634 0.377929 3.18692 0.303142 2.98894C0.228354 2.78786 0.184513 2.5806 0.174198 2.36096C0.163882 2.14133 0.184514 1.92788 0.23867 1.72062C0.295406 1.51026 0.377929 1.31847 0.4914 1.14833L0.638396 0.965811C0.772498 0.774017 0.92981 0.622437 1.11807 0.511072C1.30375 0.402802 1.49974 0.337839 1.70605 0.325465C1.91494 0.313091 2.11609 0.350213 2.30951 0.439923C2.50293 0.526541 2.67571 0.659559 2.82529 0.832793C2.97228 1.00603 3.08575 1.2071 3.1657 1.43911C3.24307 1.67112 3.27917 1.90932 3.27401 2.15989C3.26885 2.40736 3.22243 2.64556 3.13475 2.87138C3.04707 3.09721 2.92586 3.2921 2.77113 3.45605L2.73761 3.48389Z" fill="white"/>
</svg>
