<svg width="3" height="4" viewBox="0 0 3 4" fill="none" xmlns="http://www.w3.org/2000/svg">
<path d="M1.0308 2.72175L1.18554 2.89807C1.28869 2.99088 1.40216 3.05893 1.52595 3.10224C1.64716 3.14555 1.77352 3.16102 1.90246 3.15174C2.02883 3.13936 2.15262 3.10224 2.26867 3.04037C2.38471 2.97541 2.48787 2.88879 2.58071 2.78052C2.67097 2.67225 2.74318 2.54851 2.79476 2.40621C2.84891 2.26701 2.87986 2.12161 2.89018 1.96694C2.89791 1.81227 2.88502 1.66378 2.84891 1.5153C2.81281 1.36681 2.75607 1.23379 2.67871 1.11005L2.53171 0.921351C2.43113 0.813079 2.32024 0.729557 2.19388 0.673874C2.06751 0.615098 1.93857 0.587257 1.80189 0.59035C1.66779 0.59035 1.53884 0.624378 1.41248 0.683154C1.28869 0.745024 1.1778 0.83164 1.0798 0.943005C0.981804 1.05128 0.904437 1.1812 0.847702 1.32659C0.790967 1.47508 0.76002 1.62666 0.749705 1.79061C0.741968 1.95147 0.76002 2.10924 0.801283 2.26082C0.842545 2.41549 0.904438 2.5547 0.989541 2.67844C1.00244 2.6939 1.01533 2.70937 1.0308 2.72175Z" fill="white"/>
</svg>
