<svg width="3" height="3" viewBox="0 0 3 3" fill="none" xmlns="http://www.w3.org/2000/svg">
<path d="M2.04528 2.05801L1.89313 2.23433C1.79771 2.33642 1.69197 2.41685 1.57077 2.46944C1.45214 2.52512 1.32835 2.54987 1.20199 2.54677C1.07304 2.54368 0.949255 2.51275 0.833205 2.45088C0.714577 2.3921 0.611422 2.30858 0.521161 2.20031C0.4309 2.08894 0.36127 1.9652 0.309693 1.826C0.260694 1.6837 0.234905 1.5383 0.229747 1.38363C0.227169 1.22896 0.250378 1.08047 0.294219 0.938173C0.340639 0.795874 0.405111 0.665948 0.492793 0.554583L0.639789 0.368976C0.732629 0.260704 0.838363 0.180275 0.956992 0.121499C1.07562 0.0658158 1.19941 0.0348816 1.32835 0.0348816C1.45729 0.0348816 1.58108 0.0658158 1.69971 0.121499C1.81834 0.180275 1.92407 0.260704 2.01691 0.368976C2.10975 0.474154 2.18196 0.597892 2.23612 0.737098C2.29027 0.876303 2.31864 1.02479 2.3238 1.17946C2.33153 1.33104 2.3109 1.48262 2.26964 1.62801C2.22838 1.77341 2.16391 1.90333 2.0788 2.01779C2.06849 2.03326 2.05817 2.04563 2.04528 2.05801Z" fill="white"/>
</svg>
