<svg width="3" height="5" viewBox="0 0 3 5" fill="none" xmlns="http://www.w3.org/2000/svg">
<path d="M0.46174 3.71559L0.613894 3.89501C0.73768 4.0435 0.879519 4.15486 1.03941 4.23529C1.1993 4.31572 1.36435 4.35285 1.53971 4.35285C1.7125 4.35285 1.87755 4.31572 2.04002 4.23529C2.19991 4.15486 2.33917 4.0435 2.46295 3.89501C2.58416 3.74962 2.67958 3.57948 2.74663 3.38769C2.81368 3.19589 2.84463 2.99482 2.84463 2.78755C2.84463 2.58029 2.81368 2.37922 2.74663 2.18742C2.67958 1.99563 2.58416 1.82549 2.46295 1.677L2.31338 1.49449C2.19475 1.33363 2.05549 1.20989 1.89302 1.12018C1.73313 1.02737 1.56292 0.980972 1.38498 0.971692C1.20704 0.965505 1.03425 0.999533 0.869203 1.07378C0.701576 1.15111 0.55458 1.26557 0.425636 1.41406C0.299271 1.55945 0.198695 1.73268 0.129065 1.93067C0.0594347 2.12555 0.0259094 2.33282 0.0259094 2.54626C0.0259094 2.75971 0.0620136 2.96388 0.131644 3.16186C0.201273 3.35675 0.30185 3.52999 0.428215 3.67847L0.46174 3.71559Z" fill="white"/>
</svg>
