<svg width="4" height="4" viewBox="0 0 4 4" fill="none" xmlns="http://www.w3.org/2000/svg">
<path d="M2.67964 1.27605L2.83437 1.45238C2.92979 1.57303 3.00458 1.71223 3.05616 1.87C3.10773 2.02467 3.13352 2.18553 3.13352 2.35258C3.13352 2.52272 3.10773 2.68358 3.05358 2.83825C3.002 2.99292 2.92721 3.13213 2.82921 3.25278C2.7338 3.37342 2.62032 3.46932 2.49396 3.53737C2.36759 3.60543 2.23349 3.64255 2.09423 3.65183C1.95497 3.65802 1.81829 3.63327 1.68677 3.57759C1.55525 3.52191 1.43662 3.43838 1.33088 3.32702C1.32057 3.31465 1.31025 3.30536 1.30252 3.2899L1.15552 3.10738C1.05236 2.98674 0.974998 2.84444 0.920842 2.68667C0.866685 2.52891 0.838318 2.36495 0.838318 2.19172C0.838318 2.02158 0.866685 1.85453 0.920842 1.69676C0.974998 1.539 1.05236 1.3967 1.15552 1.27605C1.2561 1.15541 1.37215 1.06261 1.50367 0.994548C1.63777 0.929586 1.77445 0.898651 1.91887 0.898651C2.06071 0.898651 2.19739 0.929586 2.33149 0.994548C2.46301 1.06261 2.57906 1.15541 2.67964 1.27605Z" fill="white"/>
</svg>
