<svg width="3" height="4" viewBox="0 0 3 4" fill="none" xmlns="http://www.w3.org/2000/svg">
<path d="M2.50793 3.16356L2.35319 3.34298C2.23714 3.47909 2.10304 3.58736 1.95089 3.6616C1.79873 3.73585 1.64142 3.77297 1.47895 3.77297C1.3139 3.77297 1.15659 3.73585 1.00444 3.6616C0.852283 3.58427 0.720761 3.47909 0.604711 3.33988C0.488662 3.20068 0.398401 3.03982 0.336507 2.8573C0.272036 2.67479 0.241089 2.48609 0.241089 2.2912C0.241089 2.09322 0.272035 1.90452 0.333929 1.722C0.395822 1.53949 0.486083 1.37863 0.602132 1.23942L0.749128 1.05691C0.8626 0.905328 0.996701 0.790871 1.14885 0.707347C1.30101 0.620731 1.4609 0.577422 1.63111 0.571235C1.79873 0.565048 1.9612 0.595983 2.11851 0.670226C2.27325 0.741375 2.41251 0.849647 2.53371 0.988852C2.65492 1.13115 2.74776 1.29201 2.81223 1.47762C2.87928 1.66323 2.91023 1.85812 2.91281 2.05919C2.91281 2.26027 2.87928 2.45515 2.81481 2.64076C2.74776 2.82637 2.65492 2.99032 2.53371 3.12953C2.52598 3.1419 2.51566 3.15118 2.50793 3.16356Z" fill="white"/>
</svg>
