<svg width="4" height="4" viewBox="0 0 4 4" fill="none" xmlns="http://www.w3.org/2000/svg">
<path d="M1.41608 0.731234L1.26651 0.910655C1.13498 1.05914 1.03183 1.23238 0.957041 1.43036C0.884832 1.63143 0.846149 1.83869 0.84357 2.05524C0.838412 2.27178 0.869359 2.48213 0.93641 2.68321C1.00346 2.88428 1.09888 3.0637 1.22524 3.21838C1.35161 3.37305 1.49861 3.4937 1.66623 3.58031C1.83128 3.66384 2.00665 3.70715 2.18717 3.70715C2.36769 3.70715 2.54047 3.66693 2.7081 3.58341C2.87573 3.49988 3.02272 3.38233 3.14909 3.22766L3.17488 3.19982L3.32187 3.0173C3.44824 2.86572 3.54624 2.69249 3.61587 2.49451C3.68292 2.29653 3.71644 2.08927 3.71644 1.87582C3.71644 1.65927 3.68292 1.4551 3.61587 1.25712C3.54624 1.05914 3.44824 0.882814 3.32187 0.731234C3.19551 0.579655 3.05109 0.462103 2.88604 0.381673C2.721 0.298149 2.54821 0.257935 2.37027 0.257935C2.19232 0.257935 2.01954 0.298149 1.85449 0.381673C1.68944 0.462103 1.54245 0.579655 1.41608 0.731234Z" fill="white"/>
</svg>
