<svg width="5" height="5" viewBox="0 0 5 5" fill="none" xmlns="http://www.w3.org/2000/svg">
<path d="M3.83996 3.42407L3.68781 3.60349C3.53566 3.7891 3.35771 3.9314 3.15656 4.03039C2.95799 4.12938 2.7491 4.17887 2.53247 4.17887C2.31584 4.17887 2.10696 4.12938 1.9058 4.03039C1.70465 3.9314 1.52929 3.7891 1.37455 3.60349C1.2224 3.42097 1.10377 3.20753 1.02125 2.96624C0.938723 2.72804 0.897461 2.47747 0.897461 2.21762C0.897461 1.95777 0.938723 1.7072 1.02125 1.46591C1.10377 1.22462 1.2224 1.01426 1.37455 0.828653L1.52671 0.649233C1.67886 0.463626 1.8568 0.321325 2.05796 0.222335C2.25653 0.123344 2.46542 0.070755 2.68205 0.070755C2.89867 0.070755 3.10756 0.12025 3.30871 0.219241C3.50987 0.318232 3.68523 0.460531 3.83996 0.643046C3.99212 0.82556 4.11075 1.03901 4.19585 1.2803C4.27837 1.5185 4.31964 1.76907 4.31964 2.02892C4.32221 2.28877 4.28095 2.53934 4.19843 2.78063C4.1159 3.02192 3.99728 3.23227 3.84512 3.41788L3.83996 3.42407Z" fill="white"/>
</svg>
