<svg width="5" height="6" viewBox="0 0 5 6" fill="none" xmlns="http://www.w3.org/2000/svg">
<path d="M3.52731 1.56205L3.67689 1.74457C3.83678 1.93945 3.95798 2.16218 4.04567 2.41585C4.13077 2.66951 4.17203 2.93245 4.17203 3.20468C4.16945 3.4769 4.12561 3.73985 4.04051 3.99351C3.95283 4.24408 3.82904 4.46681 3.66915 4.6617C3.50926 4.85659 3.32358 5.00507 3.11469 5.11335C2.90322 5.21852 2.6866 5.27421 2.45708 5.2773C2.23013 5.28039 2.01093 5.23399 1.79946 5.13191C1.58799 5.03292 1.39973 4.88752 1.23469 4.69882L1.08253 4.51631C0.92522 4.32142 0.804012 4.0956 0.71891 3.84193C0.636385 3.58827 0.595123 3.32532 0.595123 3.0531C0.597702 2.78088 0.644122 2.51793 0.731804 2.26736C0.819486 2.0137 0.943272 1.79097 1.10574 1.59917C1.26563 1.40738 1.45131 1.2558 1.6602 1.15062C1.87167 1.04544 2.0883 0.992854 2.31782 0.98976C2.54476 0.986667 2.76396 1.03616 2.97543 1.13825C3.1869 1.24033 3.37258 1.38572 3.53763 1.57442L3.52731 1.56205Z" fill="white"/>
</svg>
