<svg width="4" height="5" viewBox="0 0 4 5" fill="none" xmlns="http://www.w3.org/2000/svg">
<path d="M3.16141 3.48634L3.01183 3.66576C2.85452 3.85446 2.67658 3.99676 2.47285 4.09575C2.26912 4.19784 2.05765 4.24733 1.83844 4.24733C1.61924 4.24733 1.40777 4.19784 1.20404 4.09575C1.00288 3.99367 0.822363 3.85137 0.66763 3.66576C0.512897 3.47706 0.39169 3.26361 0.309165 3.01923C0.224062 2.77794 0.1828 2.52427 0.1828 2.26133C0.1828 1.99529 0.224062 1.74163 0.306587 1.50034C0.39169 1.25596 0.510318 1.04251 0.665051 0.853805L0.817205 0.674384C0.971938 0.485683 1.14988 0.337197 1.35361 0.235113C1.55476 0.133028 1.76623 0.0804393 1.98802 0.0773461C2.20722 0.074252 2.41869 0.123748 2.62242 0.222739C2.82873 0.32173 3.00925 0.464029 3.16657 0.649637C3.3213 0.832151 3.44251 1.04869 3.53019 1.28998C3.61529 1.53437 3.65913 1.78803 3.66171 2.05098C3.66171 2.31701 3.62303 2.57068 3.5405 2.81506C3.4554 3.05944 3.33677 3.27599 3.18204 3.46469L3.16141 3.48634Z" fill="white"/>
</svg>
