<svg width="4" height="4" viewBox="0 0 4 4" fill="none" xmlns="http://www.w3.org/2000/svg">
<path d="M2.99049 3.11989L2.83833 3.29931C2.70423 3.45399 2.5495 3.57463 2.37414 3.65815C2.19877 3.74168 2.01825 3.78189 1.82999 3.7788C1.64173 3.77571 1.46121 3.7324 1.28585 3.64578C1.11306 3.55916 0.960909 3.43543 0.826807 3.27457C0.695284 3.11371 0.592129 2.93119 0.517341 2.72393C0.445133 2.51667 0.409028 2.29703 0.406449 2.07121C0.40387 1.84848 0.437396 1.62884 0.507026 1.41849C0.576655 1.21123 0.677231 1.02252 0.808755 0.861665L0.955751 0.67915C1.08985 0.515197 1.24459 0.385272 1.41995 0.295561C1.59531 0.202758 1.77841 0.156355 1.96925 0.153262C2.16267 0.147074 2.34577 0.190384 2.52371 0.273907C2.70165 0.357431 2.85896 0.481169 2.99565 0.642029C3.1349 0.802889 3.24064 0.988497 3.31543 1.19885C3.39021 1.40921 3.4289 1.62884 3.43148 1.86085C3.43405 2.08977 3.39795 2.30941 3.32832 2.52285C3.25611 2.7363 3.15296 2.925 3.01886 3.08896L2.99049 3.11989Z" fill="white"/>
</svg>
