<svg width="4" height="5" viewBox="0 0 4 5" fill="none" xmlns="http://www.w3.org/2000/svg">
<path d="M0.572964 4.17726L0.722539 4.35977C0.874693 4.53919 1.05006 4.68149 1.25121 4.78048C1.44978 4.87638 1.65609 4.92587 1.87272 4.92587C2.08677 4.92587 2.29308 4.87638 2.49165 4.77739C2.69022 4.6784 2.86559 4.53919 3.01774 4.35668C3.1699 4.17416 3.28853 3.96381 3.37105 3.72561C3.45357 3.48432 3.49484 3.23684 3.49484 2.98009C3.49484 2.72024 3.45357 2.47276 3.37105 2.23456C3.2911 1.99636 3.17248 1.78601 3.02032 1.6004L2.87075 1.42098C2.71859 1.23847 2.54323 1.09617 2.34208 0.997176C2.1435 0.898185 1.93719 0.84869 1.72057 0.845596C1.50652 0.845596 1.29763 0.895092 1.09906 0.994083C0.900481 1.09307 0.725118 1.23228 0.572964 1.41479C0.418231 1.59731 0.302182 1.80766 0.219657 2.04586C0.134554 2.28406 0.0932922 2.53463 0.0932922 2.79138C0.0932922 3.05123 0.134554 3.29871 0.217078 3.54C0.297024 3.7782 0.415653 3.98855 0.567806 4.17107L0.572964 4.17726Z" fill="white"/>
</svg>
