<svg width="4" height="5" viewBox="0 0 4 5" fill="none" xmlns="http://www.w3.org/2000/svg">
<path d="M1.18536 1.13289L1.0332 1.30921C0.896521 1.46079 0.788208 1.64021 0.708262 1.84438C0.630896 2.05164 0.589633 2.26509 0.584476 2.49092C0.579318 2.71674 0.610264 2.93637 0.677316 3.14364C0.746946 3.35399 0.844943 3.54269 0.976466 3.70355C1.10799 3.86441 1.26014 3.99125 1.43293 4.07786C1.60571 4.16448 1.78623 4.20779 1.97449 4.20779C2.16275 4.20779 2.34327 4.16448 2.51864 4.07786C2.69142 3.98815 2.84358 3.86441 2.97252 3.70355L3.00089 3.66953L3.14788 3.48701C3.27941 3.33234 3.37998 3.14982 3.44961 2.94566C3.51924 2.74458 3.55535 2.53113 3.55535 2.3115C3.55535 2.08877 3.51924 1.87841 3.44961 1.67424C3.3774 1.47007 3.27683 1.29065 3.14788 1.13289C3.01894 0.978213 2.86679 0.857567 2.69658 0.770951C2.52895 0.687428 2.35101 0.644119 2.16791 0.644119C1.98223 0.644119 1.80687 0.687428 1.63666 0.770951C1.46645 0.857567 1.3143 0.97512 1.18536 1.13289Z" fill="white"/>
</svg>
