<svg width="4" height="5" viewBox="0 0 4 5" fill="none" xmlns="http://www.w3.org/2000/svg">
<path d="M0.645182 0.871716L0.493028 1.05114C0.356347 1.212 0.250613 1.3976 0.173247 1.60796C0.0984593 1.82141 0.0597758 2.04104 0.0571971 2.26996C0.0546177 2.49888 0.0907223 2.72161 0.160352 2.93506C0.232561 3.1485 0.335717 3.33721 0.467239 3.50116C0.601342 3.66511 0.756073 3.79194 0.934016 3.88165C1.10938 3.97137 1.29248 4.01777 1.48332 4.02086C1.67416 4.02395 1.85983 3.98374 2.03778 3.89712C2.21572 3.8136 2.37303 3.68986 2.50971 3.529L2.53292 3.49807L2.6825 3.31864C2.8166 3.15469 2.91975 2.96908 2.99196 2.75563C3.06417 2.54528 3.10028 2.32564 3.10028 2.09673C3.10028 1.86781 3.06159 1.64818 2.98938 1.43782C2.91718 1.22746 2.81144 1.03876 2.67734 0.877903C2.54324 0.717043 2.3885 0.593304 2.21056 0.503594C2.0352 0.416977 1.8521 0.373668 1.66126 0.370575C1.47042 0.370575 1.28732 0.413883 1.11196 0.5005C0.936595 0.587117 0.779284 0.710856 0.645182 0.871716Z" fill="white"/>
</svg>
