<svg width="4" height="5" viewBox="0 0 4 5" fill="none" xmlns="http://www.w3.org/2000/svg">
<path d="M3.03884 3.4055L2.88668 3.58492C2.74227 3.75816 2.57464 3.89118 2.3838 3.98398C2.19554 4.07988 1.99697 4.12628 1.79324 4.12628C1.58693 4.12628 1.39093 4.07679 1.2001 3.98398C1.01184 3.88808 0.844211 3.75507 0.699794 3.58183C0.555376 3.4086 0.441905 3.20752 0.364539 2.97861C0.284594 2.75278 0.245911 2.51459 0.245911 2.2702C0.245911 2.02273 0.284594 1.78762 0.36196 1.55871C0.441906 1.33288 0.552797 1.13181 0.697215 0.958575L0.84679 0.776061C0.991207 0.596639 1.15883 0.457434 1.34967 0.358443C1.54051 0.262546 1.73908 0.209957 1.94539 0.206863C2.15428 0.206863 2.35286 0.250172 2.54627 0.346069C2.73969 0.438873 2.90732 0.574985 3.05431 0.751313C3.20131 0.924547 3.31478 1.12871 3.39472 1.35763C3.47467 1.58964 3.51335 1.82784 3.51077 2.07841C3.51077 2.32589 3.46951 2.56718 3.38699 2.79609C3.30704 3.02501 3.19099 3.22608 3.04142 3.39932L3.03884 3.4055Z" fill="white"/>
</svg>
