<svg width="4" height="4" viewBox="0 0 4 4" fill="none" xmlns="http://www.w3.org/2000/svg">
<path d="M1.46632 1.14004L1.31159 1.31636C1.19554 1.46485 1.10528 1.6319 1.04339 1.8206C0.978914 2.0093 0.947968 2.20419 0.947968 2.40526C0.950546 2.60943 0.981493 2.80432 1.04596 2.99302C1.10786 3.18172 1.19812 3.34567 1.31675 3.49416C1.4328 3.63955 1.56948 3.75401 1.72421 3.83753C1.87894 3.91796 2.03883 3.96437 2.20904 3.97055C2.37667 3.97983 2.54172 3.9489 2.70161 3.88084C2.85892 3.81279 3.00334 3.7107 3.1297 3.57459L3.16323 3.53747L3.31022 3.35186C3.42627 3.20337 3.51395 3.03633 3.57327 2.84763C3.63516 2.65583 3.66353 2.46094 3.66095 2.25678C3.65837 2.0557 3.62227 1.86081 3.55779 1.67211C3.49074 1.4865 3.3979 1.32255 3.27928 1.17716C3.15807 1.03486 3.02139 0.923493 2.86665 0.843063C2.70934 0.765727 2.54687 0.722419 2.37925 0.719325C2.20904 0.716231 2.04657 0.750259 1.88668 0.824502C1.72937 0.895652 1.59011 1.00392 1.46632 1.14004Z" fill="white"/>
</svg>
