<svg width="4" height="4" viewBox="0 0 4 4" fill="none" xmlns="http://www.w3.org/2000/svg">
<path d="M1.06248 3.04874L1.21206 3.22816C1.32553 3.36427 1.45705 3.46945 1.60405 3.54369C1.75104 3.61484 1.90578 3.65196 2.06567 3.65196C2.22556 3.65196 2.38029 3.61484 2.52729 3.54369C2.67428 3.46945 2.80581 3.36427 2.91928 3.22816C3.03017 3.09205 3.11785 2.93737 3.17974 2.76105C3.24164 2.58163 3.27 2.39911 3.27 2.20732C3.27 2.01552 3.24164 1.82991 3.17974 1.65359C3.11785 1.47417 3.03017 1.31949 2.91928 1.18338L2.7697 1.00087C2.65881 0.864754 2.52987 0.756483 2.38287 0.68224C2.23845 0.604903 2.08372 0.564688 1.92641 0.561595C1.76652 0.558502 1.61179 0.592529 1.46479 0.660586C1.31521 0.731736 1.18369 0.83382 1.07022 0.966838C0.95417 1.09986 0.866488 1.25453 0.802016 1.42776C0.740123 1.60409 0.706598 1.78661 0.704019 1.9784C0.701439 2.1702 0.729807 2.35271 0.786543 2.53213C0.845857 2.70846 0.93096 2.86622 1.04185 3.00543L1.06248 3.04874Z" fill="white"/>
</svg>
