<svg width="3" height="3" viewBox="0 0 3 3" fill="none" xmlns="http://www.w3.org/2000/svg">
<path d="M2.25296 0.763041L2.40512 0.939368C2.50053 1.04764 2.57274 1.17138 2.62432 1.31368C2.6759 1.45598 2.70427 1.60446 2.70685 1.76223C2.70942 1.9169 2.68879 2.06539 2.64237 2.21078C2.59337 2.35617 2.52632 2.4861 2.43606 2.59746C2.3458 2.70883 2.24265 2.79545 2.12402 2.86041C2.00539 2.92228 1.8816 2.95321 1.75266 2.9594C1.62114 2.96249 1.49735 2.93465 1.37614 2.87897C1.25494 2.82329 1.1492 2.73976 1.05378 2.63149C1.04347 2.62221 1.03573 2.60984 1.02542 2.59746L0.878419 2.41186C0.785578 2.30358 0.71595 2.17675 0.666951 2.03445C0.617952 1.89216 0.592163 1.74367 0.592163 1.589C0.592163 1.43432 0.617952 1.28584 0.666951 1.14044C0.71595 0.998144 0.785578 0.874405 0.878419 0.763041C0.968679 0.654769 1.07441 0.571246 1.19304 0.509377C1.31167 0.450601 1.43546 0.42276 1.5644 0.42276C1.69334 0.42276 1.81713 0.450601 1.93834 0.509377C2.05697 0.571246 2.1627 0.654769 2.25296 0.763041Z" fill="white"/>
</svg>
