<svg width="5" height="6" viewBox="0 0 5 6" fill="none" xmlns="http://www.w3.org/2000/svg">
<path d="M3.82033 1.31934L3.96991 1.50185C4.14011 1.70293 4.27164 1.93803 4.36448 2.20407C4.45732 2.46701 4.50374 2.74542 4.50374 3.03002C4.50631 3.31772 4.4599 3.59613 4.36963 3.86216C4.27937 4.12511 4.14785 4.36021 3.98022 4.56438C3.81002 4.76855 3.6166 4.92632 3.39482 5.03768C3.17303 5.14595 2.94351 5.20163 2.70368 5.20163C2.46384 5.20473 2.23432 5.14905 2.01254 5.03768C1.79075 4.92941 1.59476 4.77474 1.42713 4.57057L1.27498 4.38805C1.10735 4.18698 0.978406 3.95187 0.888146 3.68893C0.797885 3.42289 0.751465 3.14757 0.751465 2.86298C0.751465 2.57838 0.797885 2.30306 0.890724 2.03702C0.980985 1.77408 1.11251 1.54207 1.28014 1.3379C1.44776 1.13682 1.64118 0.982151 1.86296 0.870786C2.08217 0.762516 2.31169 0.706833 2.54894 0.706833C2.78878 0.706833 3.0183 0.759422 3.23751 0.867693C3.45929 0.975964 3.65271 1.13064 3.82291 1.33171L3.82033 1.31934Z" fill="white"/>
</svg>
