<svg width="3" height="3" viewBox="0 0 3 3" fill="none" xmlns="http://www.w3.org/2000/svg">
<path d="M2.64475 2.39251L2.48744 2.56884C2.38944 2.68948 2.27597 2.7792 2.14702 2.84416C2.01808 2.90912 1.8814 2.94006 1.74214 2.94006C1.60288 2.94006 1.46878 2.90912 1.33983 2.84416C1.20831 2.7792 1.09484 2.68948 0.996844 2.56884C0.896267 2.45129 0.82148 2.31518 0.767323 2.1605C0.713167 2.00583 0.687378 1.84188 0.687378 1.67483C0.687378 1.50778 0.713167 1.34692 0.767323 1.19225C0.82148 1.03448 0.896267 0.89837 0.996844 0.780819L1.14384 0.595211C1.24442 0.493127 1.35531 0.415791 1.47909 0.363202C1.6003 0.310613 1.72925 0.288958 1.85819 0.292052C1.98971 0.295145 2.11608 0.32608 2.23729 0.387949C2.35591 0.446725 2.46423 0.530249 2.55965 0.635426C2.65506 0.743698 2.73243 0.867436 2.78917 1.00974C2.8459 1.14894 2.88201 1.29743 2.89232 1.45519C2.90522 1.60987 2.89232 1.76454 2.8588 1.91303C2.82269 2.06461 2.76596 2.20381 2.68859 2.33064L2.64475 2.39251Z" fill="white"/>
</svg>
