<svg width="4" height="5" viewBox="0 0 4 5" fill="none" xmlns="http://www.w3.org/2000/svg">
<path d="M0.649907 0.924857L0.500332 1.10428C0.348178 1.28989 0.22955 1.50024 0.147026 1.74153C0.061922 1.97973 0.0206604 2.2303 0.0206604 2.49015C0.0206604 2.75 0.0619225 3.00057 0.144447 3.24186C0.226971 3.48006 0.345599 3.69351 0.497753 3.87602C0.649907 4.06163 0.82785 4.20393 1.02642 4.30292C1.22758 4.405 1.43647 4.4545 1.65309 4.4545C1.86972 4.4545 2.07861 4.405 2.27718 4.30601C2.47833 4.21011 2.65628 4.06782 2.80843 3.8853L2.96058 3.70588C3.11016 3.52027 3.22621 3.30992 3.30615 3.06863C3.3861 2.83043 3.42478 2.57986 3.4222 2.3231C3.4222 2.06635 3.37836 1.81887 3.29584 1.58067C3.21331 1.34248 3.09469 1.13212 2.94253 0.949605C2.79038 0.767091 2.61759 0.624792 2.41902 0.525801C2.22045 0.42681 2.01414 0.377314 1.79751 0.374221C1.58346 0.371128 1.37457 0.420624 1.176 0.51652C0.977425 0.612418 0.799482 0.74853 0.64475 0.927951L0.649907 0.924857Z" fill="white"/>
</svg>
