<svg width="4" height="5" viewBox="0 0 4 5" fill="none" xmlns="http://www.w3.org/2000/svg">
<path d="M2.96093 1.16493L3.11308 1.34125C3.24203 1.49283 3.3426 1.66607 3.41481 1.86714C3.48702 2.06512 3.5257 2.27548 3.52828 2.49202C3.53086 2.70856 3.49991 2.91892 3.43286 3.11999C3.36581 3.32107 3.27039 3.50049 3.14403 3.65826C3.01766 3.81293 2.87324 3.93358 2.70562 4.02019C2.54057 4.10681 2.36521 4.15321 2.18468 4.1563C2.00416 4.1594 1.8288 4.11918 1.66117 4.04185C1.49354 3.96142 1.34397 3.84386 1.21245 3.69229L1.18408 3.65516L1.03708 3.47265C0.92619 3.31798 0.846245 3.14165 0.792089 2.94985C0.737932 2.75497 0.714723 2.55698 0.722459 2.35282C0.730196 2.14865 0.7663 1.95376 0.83593 1.76815C0.905559 1.58254 0.998399 1.4155 1.11961 1.2732C1.23823 1.1278 1.37749 1.01335 1.53223 0.932917C1.68954 0.849393 1.85201 0.802992 2.02221 0.793711C2.18984 0.78443 2.35747 0.812272 2.51736 0.880328C2.67725 0.945291 2.82425 1.04119 2.95577 1.17111L2.96093 1.16493Z" fill="white"/>
</svg>
