<svg width="3" height="3" viewBox="0 0 3 3" fill="none" xmlns="http://www.w3.org/2000/svg">
<path d="M0.965094 0.388935L0.81294 0.565262C0.702048 0.692094 0.614366 0.84058 0.552473 1.01072C0.493158 1.17777 0.459633 1.3541 0.457054 1.53661C0.454476 1.72222 0.480264 1.89855 0.537 2.06869C0.591156 2.24192 0.67368 2.3935 0.779414 2.52652C0.885148 2.65644 1.00893 2.76162 1.14819 2.83586C1.29003 2.90701 1.43703 2.94723 1.58918 2.95032C1.74392 2.95342 1.89091 2.91939 2.03275 2.85442C2.17717 2.78637 2.30353 2.68738 2.41185 2.56055L2.44279 2.52342L2.58979 2.33782C2.69294 2.20789 2.77031 2.0594 2.82705 1.89236C2.8812 1.72531 2.90699 1.55208 2.90441 1.37266C2.90183 1.19323 2.87347 1.02 2.81415 0.852954C2.75742 0.689001 2.67489 0.543608 2.56916 0.413683C2.46342 0.28685 2.33964 0.190954 2.20296 0.119804C2.0637 0.048654 1.92186 0.0146259 1.77228 0.0115326C1.62013 0.00843936 1.47571 0.0393734 1.33645 0.10743C1.19719 0.172392 1.07341 0.265197 0.965094 0.388935Z" fill="white"/>
</svg>
