<svg width="4" height="5" viewBox="0 0 4 5" fill="none" xmlns="http://www.w3.org/2000/svg">
<path d="M3.11699 1.43488L3.26914 1.6112C3.42387 1.79372 3.54508 2.00717 3.63018 2.24536C3.71786 2.48665 3.76171 2.73723 3.76428 2.99708C3.76686 3.26002 3.7256 3.51059 3.64566 3.75497C3.56313 3.99626 3.44708 4.20971 3.29493 4.39841C3.14277 4.58402 2.96741 4.72941 2.76626 4.8315C2.5651 4.93358 2.35622 4.98617 2.13959 4.98927C1.92038 4.99236 1.71149 4.94286 1.50776 4.84697C1.30661 4.74798 1.12867 4.60877 0.973936 4.42626L0.950726 4.39841L0.801151 4.2159C0.648997 4.03029 0.530368 3.81684 0.450423 3.57865C0.367899 3.33736 0.326637 3.08679 0.329215 2.82694C0.329215 2.57018 0.370477 2.31961 0.453002 2.07832C0.538105 1.84012 0.654154 1.62977 0.808887 1.44416C0.961041 1.26164 1.13641 1.11934 1.33756 1.02035C1.53613 0.921362 1.74502 0.868774 1.96165 0.868774C2.17569 0.86568 2.38458 0.915176 2.58574 1.01417C2.78689 1.11006 2.96225 1.25236 3.11699 1.43488Z" fill="white"/>
</svg>
