<svg width="3" height="3" viewBox="0 0 3 3" fill="none" xmlns="http://www.w3.org/2000/svg">
<path d="M1.08082 0.675509L0.926083 0.851837C0.846138 0.938454 0.781666 1.04054 0.737825 1.16118C0.691405 1.27873 0.665617 1.40247 0.663037 1.5324C0.65788 1.66232 0.675931 1.78916 0.712036 1.9098C0.750719 2.03045 0.807455 2.13872 0.882242 2.23461C0.954451 2.33051 1.04213 2.40476 1.14013 2.45734C1.24071 2.50993 1.34386 2.53777 1.45217 2.54396C1.56049 2.54705 1.66622 2.5254 1.7668 2.479C1.86737 2.4295 1.95764 2.36145 2.035 2.27174L2.07111 2.22533L2.2181 2.03973C2.28773 1.94692 2.34189 1.84484 2.37799 1.72729C2.4141 1.60974 2.43215 1.49218 2.42957 1.36535C2.42699 1.24161 2.40378 1.12406 2.3651 1.0096C2.32384 0.895145 2.2671 0.793062 2.19231 0.706444C2.1201 0.616734 2.035 0.548677 1.93958 0.499182C1.84416 0.45278 1.74617 0.424939 1.64301 0.421845C1.53728 0.418751 1.4367 0.440407 1.34128 0.483715C1.24329 0.527024 1.15818 0.591986 1.08082 0.675509Z" fill="white"/>
</svg>
