<svg width="4" height="5" viewBox="0 0 4 5" fill="none" xmlns="http://www.w3.org/2000/svg">
<path d="M0.489824 3.50825L0.641978 3.68767C0.776081 3.84853 0.930812 3.97227 1.10618 4.05888C1.28154 4.1455 1.46464 4.18881 1.6529 4.18881C1.84374 4.18881 2.02426 4.1455 2.19962 4.05888C2.37499 3.96917 2.52972 3.84543 2.66382 3.68457C2.79792 3.52371 2.90108 3.3412 2.97329 3.13084C3.0455 2.92049 3.0816 2.70085 3.0816 2.47503C3.0816 2.24611 3.0455 2.02957 2.97329 1.81922C2.90108 1.60886 2.79792 1.42325 2.6664 1.26239L2.51682 1.07988C2.3853 0.909737 2.23057 0.779812 2.05263 0.683915C1.87726 0.591111 1.69158 0.541615 1.49817 0.535429C1.30475 0.532335 1.11907 0.57255 0.941128 0.656074C0.760606 0.74269 0.603295 0.866429 0.464035 1.03038C0.327355 1.19124 0.221621 1.37994 0.146833 1.59339C0.0720457 1.80994 0.0359413 2.03266 0.03852 2.26467C0.03852 2.49668 0.0772034 2.71632 0.151991 2.92977C0.229357 3.14322 0.337671 3.33192 0.47693 3.49278L0.489824 3.50825Z" fill="white"/>
</svg>
