<svg width="4" height="4" viewBox="0 0 4 4" fill="none" xmlns="http://www.w3.org/2000/svg">
<path d="M0.721607 3.16295L0.873761 3.34237C0.997547 3.47848 1.13938 3.58057 1.2967 3.65481C1.45143 3.72596 1.6139 3.75999 1.78411 3.7538C1.95173 3.75071 2.11162 3.71049 2.26636 3.63006C2.42109 3.55273 2.55777 3.44136 2.6764 3.29906C2.79503 3.15676 2.88787 2.99281 2.95492 2.8072C3.01939 2.62159 3.05549 2.42671 3.05807 2.22563C3.06065 2.02456 3.03228 1.82967 2.97297 1.64097C2.91366 1.45226 2.82597 1.28522 2.7125 1.13673L2.56293 0.951123C2.4443 0.802637 2.30504 0.688178 2.14515 0.604655C1.98784 0.524225 1.82021 0.480918 1.64742 0.477823C1.47464 0.47473 1.30959 0.508758 1.1497 0.586095C0.987232 0.663431 0.845393 0.771702 0.721607 0.917095C0.59782 1.06249 0.499823 1.22954 0.432772 1.41824C0.363142 1.60694 0.327038 1.80801 0.324459 2.01527C0.32188 2.22254 0.352827 2.42052 0.417299 2.61231C0.479192 2.8072 0.572031 2.97734 0.69066 3.12583L0.721607 3.16295Z" fill="white"/>
</svg>
