<svg width="4" height="5" viewBox="0 0 4 5" fill="none" xmlns="http://www.w3.org/2000/svg">
<path d="M0.5249 4.09291L0.677054 4.27233C0.836945 4.46412 1.02005 4.60951 1.23151 4.71469C1.4404 4.81678 1.65703 4.86936 1.88397 4.86936C2.11091 4.86936 2.32754 4.81678 2.53643 4.7116C2.74532 4.60951 2.931 4.46103 3.09089 4.26923C3.25078 4.07744 3.37456 3.85471 3.46224 3.60414C3.54735 3.35357 3.59119 3.09062 3.59119 2.82149C3.59119 2.54927 3.54993 2.28632 3.46224 2.03575C3.37714 1.78518 3.25336 1.56245 3.09347 1.37066L2.94389 1.19124C2.784 0.99635 2.59832 0.847864 2.38943 0.742686C2.17796 0.640602 1.96134 0.588013 1.7344 0.588013C1.50745 0.588013 1.28825 0.637508 1.07936 0.742686C0.867892 0.847864 0.682212 0.99635 0.522321 1.18814C0.362431 1.37994 0.238645 1.60267 0.150963 1.85324C0.063281 2.10381 0.0194397 2.36675 0.0194397 2.63898C0.0194397 2.9112 0.0632808 3.17415 0.148384 3.42472C0.236066 3.67838 0.359852 3.89802 0.519742 4.09291H0.5249Z" fill="white"/>
</svg>
