<svg width="3" height="3" viewBox="0 0 3 3" fill="none" xmlns="http://www.w3.org/2000/svg">
<path d="M2.13931 2.4142L1.98457 2.59053C1.884 2.70499 1.77311 2.79161 1.64674 2.85348C1.52038 2.91225 1.38885 2.94319 1.25217 2.94009C1.11549 2.94009 0.983969 2.90606 0.860182 2.8442C0.733817 2.77923 0.622925 2.68952 0.527507 2.57506C0.42951 2.46061 0.354721 2.32759 0.303144 2.17601C0.251566 2.02443 0.223199 1.86666 0.223199 1.7058C0.22062 1.54185 0.246409 1.38408 0.295407 1.2325C0.346985 1.08092 0.419194 0.94481 0.512033 0.827258L0.65903 0.64165C0.754448 0.517912 0.86534 0.41892 0.991705 0.347771C1.12065 0.276621 1.25475 0.239501 1.39401 0.233313C1.53585 0.227127 1.66995 0.251874 1.80147 0.313743C1.933 0.372519 2.05163 0.459136 2.1522 0.576688C2.25536 0.691145 2.33272 0.827258 2.38946 0.978838C2.44619 1.13351 2.47714 1.29437 2.47972 1.46451C2.4823 1.63156 2.45651 1.79551 2.40493 1.95328C2.35335 2.10795 2.27857 2.24716 2.18057 2.3678L2.13931 2.4142Z" fill="white"/>
</svg>
