<svg width="3" height="3" viewBox="0 0 3 3" fill="none" xmlns="http://www.w3.org/2000/svg">
<path d="M0.896215 0.828764L0.741482 1.00509C0.664116 1.0948 0.604801 1.19689 0.56096 1.31134C0.51712 1.42889 0.493909 1.55263 0.491331 1.67947C0.488752 1.8063 0.506804 1.93004 0.545487 2.05068C0.58417 2.16823 0.638326 2.2765 0.713114 2.36931C0.785323 2.46211 0.870426 2.53326 0.968424 2.58585C1.06642 2.63844 1.167 2.66628 1.27531 2.66937C1.38104 2.67247 1.4842 2.65081 1.5822 2.60441C1.68277 2.55801 1.77046 2.49305 1.84782 2.40334C1.85814 2.39406 1.86845 2.38168 1.87877 2.36931L2.02576 2.1837C2.09539 2.09399 2.14955 1.98881 2.18823 1.87435C2.22434 1.7568 2.24239 1.63925 2.23981 1.51242C2.23723 1.38868 2.2166 1.27113 2.17534 1.15667C2.13666 1.04221 2.07992 0.940129 2.00513 0.853511C1.93292 0.763801 1.84782 0.695745 1.7524 0.649343C1.65698 0.599847 1.55899 0.5751 1.45583 0.572006C1.3501 0.568913 1.2521 0.590567 1.1541 0.636969C1.05868 0.680277 0.971002 0.745241 0.896215 0.828764Z" fill="white"/>
</svg>
