<svg width="4" height="4" viewBox="0 0 4 4" fill="none" xmlns="http://www.w3.org/2000/svg">
<path d="M2.48137 0.404945L2.63353 0.584366C2.75732 0.723572 2.85531 0.884431 2.92494 1.07004C2.99457 1.25255 3.03326 1.44744 3.03583 1.65161C3.04099 1.85578 3.01262 2.05067 2.95073 2.23937C2.88884 2.42807 2.80116 2.59821 2.68253 2.7436C2.5639 2.889 2.42722 3.00345 2.27249 3.08079C2.11517 3.16122 1.9527 3.20144 1.78508 3.20453C1.61487 3.20453 1.4524 3.16741 1.29509 3.08698C1.13778 3.00964 1.0011 2.89828 0.882469 2.75598L0.854101 2.71885L0.704526 2.53634C0.593634 2.39404 0.505953 2.23318 0.449217 2.04757C0.389902 1.86506 0.361535 1.67636 0.364114 1.48147C0.366693 1.28349 0.397639 1.09788 0.462111 0.915366C0.526583 0.735946 0.616843 0.575086 0.730315 0.435879C0.846364 0.299768 0.980467 0.191496 1.13004 0.114159C1.2822 0.0368229 1.43693 -0.00029901 1.60198 -0.00339227C1.76445 -0.00648554 1.92176 0.0275427 2.07649 0.0955985C2.22864 0.166748 2.36275 0.271926 2.48137 0.404945Z" fill="white"/>
</svg>
