<svg width="3" height="3" viewBox="0 0 3 3" fill="none" xmlns="http://www.w3.org/2000/svg">
<path d="M1.65326 0.409677L1.80799 0.582911C1.89825 0.684995 1.97046 0.802546 2.02204 0.935566C2.07361 1.06858 2.10198 1.21088 2.10714 1.35628C2.1123 1.50476 2.09166 1.64706 2.0504 1.78627C2.00656 1.92238 1.94467 2.04612 1.85957 2.15439C1.77704 2.26266 1.67904 2.34618 1.56815 2.40805C1.45726 2.46992 1.33863 2.50395 1.21485 2.51014C1.09364 2.51633 0.975009 2.49158 0.85896 2.44208C0.74291 2.38949 0.642333 2.31216 0.552073 2.21317C0.534021 2.19461 0.518547 2.17295 0.503074 2.1513L0.356078 1.96569C0.273554 1.86051 0.209082 1.74296 0.165241 1.60994C0.1214 1.47383 0.100769 1.33772 0.100769 1.19232C0.103348 1.04693 0.126558 0.910818 0.172978 0.777799C0.219398 0.644781 0.28387 0.527228 0.368973 0.425144C0.454075 0.32306 0.552074 0.245724 0.662965 0.190041C0.773857 0.134358 0.889906 0.103424 1.00853 0.103424C1.12974 0.103424 1.24579 0.128172 1.35668 0.180761C1.46758 0.233349 1.56815 0.310686 1.65326 0.409677Z" fill="white"/>
</svg>
