<svg width="4" height="5" viewBox="0 0 4 5" fill="none" xmlns="http://www.w3.org/2000/svg">
<path d="M2.62111 3.54618L2.46895 3.7256C2.34001 3.8679 2.19301 3.97617 2.03054 4.05041C1.8655 4.12466 1.69529 4.15868 1.52251 4.15559C1.34714 4.1494 1.17951 4.10609 1.01704 4.02257C0.857154 3.94214 0.715316 3.82459 0.591529 3.6761C0.467743 3.52762 0.372325 3.35748 0.302695 3.16568C0.233065 2.97389 0.19696 2.76972 0.194382 2.56246C0.189224 2.3521 0.217592 2.14793 0.279485 1.95304C0.341378 1.75506 0.431638 1.57874 0.550267 1.42406L0.699842 1.24464C0.826208 1.08997 0.973204 0.969324 1.14083 0.8858C1.30588 0.802276 1.48124 0.758968 1.66176 0.755875C1.84229 0.755875 2.01765 0.79609 2.18528 0.87652C2.35291 0.960043 2.4999 1.07759 2.62884 1.22917C2.75779 1.38075 2.85837 1.55708 2.92799 1.75816C2.99763 1.95923 3.03373 2.16649 3.03631 2.38304C3.03631 2.60267 3.00278 2.80993 2.93315 3.01101C2.8661 3.21208 2.7681 3.39151 2.64174 3.54618H2.62111Z" fill="white"/>
</svg>
