<svg width="3" height="3" viewBox="0 0 3 3" fill="none" xmlns="http://www.w3.org/2000/svg">
<path d="M2.58816 1.93372L2.43085 2.10695C2.35091 2.20285 2.25807 2.27709 2.15491 2.32968C2.04918 2.38227 1.93829 2.40702 1.82482 2.40702C1.71135 2.40702 1.60303 2.37918 1.4973 2.32968C1.39414 2.27709 1.3013 2.20285 1.21878 2.10386C1.13883 2.00796 1.07694 1.8966 1.03568 1.77286C0.991837 1.64603 0.968628 1.51301 0.968628 1.3769C0.968628 1.24078 0.991837 1.11086 1.03568 0.984027C1.07952 0.860289 1.14141 0.748923 1.22136 0.653027L1.3632 0.464325C1.44056 0.362241 1.5334 0.284905 1.63656 0.226129C1.74229 0.167354 1.85061 0.136419 1.96665 0.130232C2.08013 0.124045 2.1936 0.145699 2.30191 0.192101C2.41022 0.238502 2.50564 0.309653 2.59074 0.402456C2.67585 0.49526 2.7429 0.606625 2.78932 0.730363C2.83832 0.857195 2.86668 0.987121 2.86926 1.12633C2.87442 1.26244 2.85895 1.39546 2.81769 1.52538C2.779 1.65531 2.71969 1.77286 2.64232 1.87494L2.58816 1.93372Z" fill="white"/>
</svg>
