<svg width="4" height="5" viewBox="0 0 4 5" fill="none" xmlns="http://www.w3.org/2000/svg">
<path d="M2.6153 1.19982L2.76746 1.37924C2.89898 1.52772 3.00214 1.70096 3.07434 1.89894C3.14913 2.09692 3.18781 2.30418 3.19039 2.52382C3.19555 2.74036 3.16203 2.94762 3.09755 3.15179C3.0305 3.35287 2.93251 3.53229 2.80614 3.68696C2.67977 3.84163 2.53536 3.96228 2.36773 4.0458C2.2001 4.13242 2.02732 4.17263 1.8468 4.17573C1.66627 4.17573 1.49091 4.13551 1.32328 4.05199C1.15824 3.96847 1.01124 3.84782 0.882295 3.69624L0.859085 3.6684L0.70951 3.48589C0.583145 3.33431 0.485148 3.15798 0.418097 2.96C0.348467 2.76202 0.314941 2.55785 0.314941 2.3413C0.314941 2.12785 0.348467 1.92059 0.418097 1.72261C0.485148 1.52463 0.583145 1.3514 0.70951 1.19982C0.835876 1.04824 0.982871 0.930686 1.14792 0.850255C1.31297 0.766732 1.48317 0.726517 1.6637 0.726517C1.84164 0.726517 2.01442 0.766732 2.17947 0.850255C2.34452 0.930686 2.48894 1.04824 2.6153 1.19982Z" fill="white"/>
</svg>
