<svg width="4" height="5" viewBox="0 0 4 5" fill="none" xmlns="http://www.w3.org/2000/svg">
<path d="M2.84211 3.45866L2.68995 3.63808C2.55327 3.78657 2.39854 3.90412 2.22575 3.98145C2.05297 4.06188 1.87245 4.099 1.68677 4.09282C1.50367 4.08973 1.32572 4.04332 1.15552 3.95671C0.982733 3.87009 0.833157 3.74635 0.701634 3.58858C0.570112 3.43391 0.469535 3.2514 0.397326 3.04723C0.325118 2.84306 0.286434 2.62961 0.281277 2.40688C0.278697 2.18415 0.309645 1.9707 0.374116 1.76344C0.441168 1.55309 0.536586 1.36748 0.662951 1.20662L0.812526 1.02101C0.946628 0.866336 1.09878 0.748786 1.27415 0.668355C1.44693 0.584832 1.62487 0.544617 1.81055 0.544617C1.99623 0.547711 2.17675 0.591018 2.34954 0.674542C2.51974 0.758065 2.67448 0.87871 2.806 1.03648C2.9401 1.19115 3.04326 1.37057 3.11805 1.57474C3.19283 1.77891 3.2341 1.99545 3.23925 2.21818C3.24441 2.44091 3.21604 2.65745 3.15157 2.86471C3.0871 3.07507 2.99168 3.26377 2.86532 3.42772L2.84211 3.45866Z" fill="white"/>
</svg>
