<svg width="4" height="5" viewBox="0 0 4 5" fill="none" xmlns="http://www.w3.org/2000/svg">
<path d="M0.995144 3.93693L1.1473 4.11635C1.29172 4.28959 1.45934 4.42261 1.6476 4.5185C1.83844 4.61131 2.03443 4.65771 2.24074 4.65771C2.44448 4.65771 2.64305 4.61131 2.83131 4.51541C3.02214 4.42261 3.18977 4.28649 3.33419 4.11326C3.47861 3.94003 3.5895 3.73895 3.66944 3.51313C3.74681 3.28421 3.78807 3.04911 3.78807 2.80163C3.78807 2.55725 3.74939 2.31905 3.66944 2.09323C3.59208 1.86431 3.48118 1.66324 3.33677 1.49L3.18719 1.30749C3.04278 1.12807 2.87515 0.991957 2.68431 0.892966C2.49347 0.793975 2.2949 0.74448 2.08601 0.741387C1.8797 0.738293 1.67855 0.784695 1.48771 0.877499C1.29429 0.973396 1.12409 1.10642 0.977092 1.28274C0.830095 1.45907 0.716625 1.66015 0.639258 1.89215C0.559313 2.12107 0.52063 2.36236 0.52063 2.60984C0.523209 2.86041 0.564471 3.09861 0.644416 3.32752C0.72694 3.55644 0.84299 3.75751 0.989986 3.93384L0.995144 3.93693Z" fill="white"/>
</svg>
