<svg width="5" height="5" viewBox="0 0 5 5" fill="none" xmlns="http://www.w3.org/2000/svg">
<path d="M1.46999 3.87822L1.62214 4.05764C1.78461 4.25252 1.97287 4.40101 2.18691 4.50928C2.40096 4.61446 2.62275 4.66705 2.85227 4.66705C3.08437 4.66705 3.30615 4.61446 3.51762 4.50619C3.73166 4.40101 3.91992 4.24943 4.08239 4.05454C4.24486 3.85965 4.37123 3.63383 4.46149 3.37707C4.54917 3.12341 4.59301 2.85737 4.59301 2.57896C4.59301 2.30364 4.54917 2.03761 4.46149 1.78085C4.3738 1.52409 4.25002 1.29827 4.08497 1.10338L3.93797 0.917772C3.77293 0.71979 3.58467 0.568211 3.37062 0.459939C3.15657 0.354762 2.93221 0.299079 2.70011 0.299079C2.46801 0.295986 2.24623 0.348574 2.0296 0.453752C1.81556 0.55893 1.62472 0.71051 1.45967 0.908491C1.2972 1.10338 1.16826 1.3292 1.078 1.58596C0.990314 1.84272 0.943894 2.11185 0.943894 2.39026C0.941315 2.66867 0.985157 2.9378 1.07284 3.19456C1.1631 3.45132 1.28689 3.68023 1.45193 3.87822H1.46999Z" fill="white"/>
</svg>
