<svg width="2" height="3" viewBox="0 0 2 3" fill="none" xmlns="http://www.w3.org/2000/svg">
<path d="M0.543639 1.95067L0.700951 2.12081C0.819579 2.25383 0.958839 2.31879 1.12131 2.3157C1.28378 2.3126 1.42304 2.24146 1.53909 2.10534C1.65514 1.96614 1.71187 1.79909 1.71445 1.6042C1.71703 1.40931 1.66287 1.24227 1.55198 1.09997L1.41014 0.908173C1.35599 0.83393 1.29151 0.772061 1.21931 0.725659C1.14452 0.682351 1.06715 0.654509 0.982049 0.648322C0.899525 0.642136 0.819579 0.654509 0.739634 0.688537C0.662267 0.719472 0.592638 0.768968 0.530745 0.837023C0.468852 0.901986 0.419853 0.982416 0.383749 1.07213C0.347645 1.16184 0.329592 1.25773 0.327013 1.35673C0.324434 1.45572 0.337329 1.55161 0.365696 1.64751C0.396643 1.74031 0.440484 1.82074 0.497219 1.89499C0.510113 1.91355 0.525587 1.93211 0.543639 1.95067Z" fill="white"/>
</svg>
