<svg width="3" height="3" viewBox="0 0 3 3" fill="none" xmlns="http://www.w3.org/2000/svg">
<path d="M0.960675 1.80093L1.11799 1.97416C1.24693 2.11646 1.40166 2.18761 1.57703 2.18142C1.75497 2.17833 1.90712 2.10099 2.03091 1.94941C2.15728 1.80093 2.22175 1.61841 2.22433 1.40806C2.22948 1.19461 2.17017 1.01209 2.05154 0.854328L1.90712 0.66872C1.84523 0.591384 1.7756 0.529514 1.69308 0.486206C1.61313 0.442898 1.52803 0.41815 1.44035 0.415056C1.35267 0.411963 1.26498 0.427429 1.18246 0.467645C1.09993 0.504766 1.02515 0.560449 0.960675 0.631598C0.896203 0.705841 0.847205 0.789366 0.8111 0.885262C0.774996 0.984253 0.754365 1.08324 0.751786 1.19152C0.749206 1.29669 0.762101 1.39878 0.793048 1.49777C0.826573 1.59985 0.870414 1.68647 0.932307 1.76381C0.940044 1.77927 0.95036 1.78855 0.960675 1.80093Z" fill="white"/>
</svg>
