<svg width="4" height="5" viewBox="0 0 4 5" fill="none" xmlns="http://www.w3.org/2000/svg">
<path d="M2.80571 0.802033L2.96045 0.97836C3.11002 1.15469 3.22349 1.35886 3.30344 1.58777C3.38596 1.81978 3.42722 2.06107 3.4298 2.30855C3.4298 2.55912 3.39112 2.80041 3.31375 3.03242C3.23381 3.26443 3.12292 3.4686 2.97592 3.64802C2.82892 3.82435 2.6613 3.96355 2.46788 4.06254C2.27704 4.15844 2.07589 4.20794 1.867 4.21103C1.65811 4.21412 1.45954 4.16772 1.26612 4.07182C1.07271 3.97902 0.899921 3.846 0.752925 3.66967L0.734872 3.64802L0.585297 3.4655C0.443459 3.28608 0.335146 3.08501 0.260358 2.853C0.185571 2.62408 0.149467 2.38898 0.152045 2.1415C0.152045 1.89403 0.193307 1.65892 0.273253 1.4331C0.353198 1.20418 0.466669 1.0062 0.611086 0.829874C0.755503 0.65664 0.92313 0.520528 1.11139 0.427724C1.30223 0.331827 1.49822 0.282332 1.70453 0.279238C1.90826 0.276145 2.10684 0.319453 2.29767 0.409163C2.48851 0.498874 2.65872 0.631892 2.80571 0.802033Z" fill="white"/>
</svg>
