<svg width="5" height="5" viewBox="0 0 5 5" fill="none" xmlns="http://www.w3.org/2000/svg">
<path d="M3.95373 4.18557L3.80158 4.36499C3.63395 4.56606 3.43796 4.72074 3.21875 4.82901C2.99955 4.93728 2.77003 4.99296 2.53277 4.99296C2.29551 4.99296 2.06857 4.93728 1.84679 4.82901C1.62758 4.71764 1.43417 4.56297 1.26654 4.3619C1.09891 4.16082 0.969968 3.92881 0.877129 3.66587C0.786868 3.40292 0.740448 3.1276 0.740448 2.84301C0.740448 2.55841 0.786868 2.28309 0.877129 2.02014C0.967389 1.7572 1.09633 1.52519 1.26396 1.32102L1.41354 1.1416C1.58374 0.946713 1.77716 0.795133 1.99378 0.693049C2.21299 0.587871 2.43993 0.538376 2.67461 0.538376C2.90929 0.54147 3.13365 0.597151 3.35028 0.705423C3.5669 0.816787 3.75774 0.968367 3.92537 1.16944C4.09041 1.36742 4.21936 1.59634 4.3122 1.85619C4.40246 2.11604 4.44888 2.38517 4.45146 2.66668C4.45404 2.94818 4.41277 3.22041 4.32767 3.48335C4.23999 3.7432 4.1162 3.97831 3.95373 4.17938V4.18557Z" fill="white"/>
</svg>
