<svg width="5" height="5" viewBox="0 0 5 5" fill="none" xmlns="http://www.w3.org/2000/svg">
<path d="M1.21372 0.85385L1.06157 1.03327C0.891363 1.23744 0.75984 1.46945 0.667 1.73549C0.576739 2.00152 0.530319 2.27684 0.52774 2.56453C0.52774 2.85223 0.571581 3.12755 0.664421 3.39358C0.754681 3.65962 0.883626 3.89472 1.05383 4.09889C1.22146 4.29997 1.41745 4.45773 1.63924 4.5691C1.85844 4.68046 2.09054 4.73615 2.33038 4.73615C2.56764 4.73615 2.79973 4.68046 3.02152 4.57219C3.2433 4.46083 3.43672 4.30615 3.60692 4.10199L3.75908 3.92256C3.9267 3.7184 4.05565 3.48329 4.14591 3.22035C4.23617 2.9574 4.28259 2.68209 4.28001 2.39439C4.28001 2.1098 4.23359 1.83448 4.14333 1.57153C4.05049 1.3055 3.92155 1.07349 3.75392 0.872411C3.58371 0.671335 3.3903 0.513569 3.17109 0.405298C2.95189 0.293933 2.72237 0.238251 2.48253 0.238251C2.24528 0.238251 2.01575 0.293933 1.79655 0.402204C1.57477 0.510476 1.38135 0.665149 1.21114 0.866224L1.21372 0.85385Z" fill="white"/>
</svg>
