<svg width="4" height="5" viewBox="0 0 4 5" fill="none" xmlns="http://www.w3.org/2000/svg">
<path d="M1.22452 3.98854L1.37668 4.16796C1.5211 4.32263 1.68872 4.44019 1.87182 4.52062C2.05492 4.60105 2.24576 4.63507 2.44176 4.62889C2.63775 4.6227 2.82343 4.5732 3.00395 4.47731C3.18447 4.3845 3.34179 4.25458 3.48105 4.08753C3.6203 3.92358 3.72604 3.73178 3.80341 3.51524C3.88077 3.2987 3.92203 3.07597 3.92719 2.84087C3.93493 2.60576 3.90398 2.37685 3.83693 2.15721C3.7673 1.93757 3.6693 1.73959 3.54036 1.56327L3.39078 1.38075C3.24637 1.2168 3.08132 1.09306 2.89564 1.00644C2.70996 0.919825 2.51654 0.876516 2.31797 0.87961C2.1194 0.882704 1.92598 0.929106 1.74288 1.02191C1.55978 1.11471 1.39731 1.24464 1.25547 1.41169C1.11363 1.57873 1.00274 1.77362 0.925374 1.99326C0.845429 2.21289 0.804167 2.44181 0.799009 2.68001C0.793851 2.9182 0.827376 3.15021 0.897006 3.37294C0.966636 3.59567 1.06979 3.79674 1.20647 3.97307L1.22452 3.98854Z" fill="white"/>
</svg>
