<svg width="4" height="4" viewBox="0 0 4 4" fill="none" xmlns="http://www.w3.org/2000/svg">
<path d="M2.74219 2.65751L2.59004 2.83693C2.4843 2.95139 2.36309 3.0411 2.22899 3.09988C2.09747 3.15865 1.95821 3.18649 1.81637 3.1834C1.67195 3.1803 1.53527 3.14318 1.40375 3.07513C1.27223 3.01016 1.15618 2.91427 1.0556 2.79362C0.955025 2.67298 0.877658 2.53377 0.820923 2.376C0.764187 2.21824 0.733241 2.05429 0.730662 1.88414C0.728083 1.71091 0.751293 1.54696 0.800292 1.3861C0.85187 1.22524 0.924078 1.08294 1.0195 0.956106L1.16907 0.770498C1.27223 0.643666 1.39086 0.541582 1.52496 0.470432C1.66164 0.399282 1.80348 0.362161 1.95047 0.359067C2.09747 0.355974 2.24189 0.386909 2.37857 0.448778C2.51783 0.513741 2.63903 0.609638 2.74477 0.730283C2.85308 0.854021 2.93561 0.996321 2.99492 1.16027C3.05423 1.32113 3.08518 1.49128 3.08776 1.6707C3.09034 1.84702 3.06455 2.01716 3.01039 2.18421C2.95624 2.34816 2.87629 2.49356 2.77571 2.62348L2.74219 2.65751Z" fill="white"/>
</svg>
