<svg width="4" height="5" viewBox="0 0 4 5" fill="none" xmlns="http://www.w3.org/2000/svg">
<path d="M3.21831 1.15504L3.37046 1.33137C3.53551 1.52935 3.66445 1.75827 3.75471 2.01812C3.84497 2.27488 3.89139 2.5471 3.89397 2.82551C3.89397 3.10702 3.85013 3.37615 3.76245 3.636C3.67219 3.89585 3.54582 4.12786 3.38078 4.32584C3.21831 4.52692 3.02747 4.6785 2.81084 4.78677C2.59422 4.89504 2.36985 4.95072 2.13518 4.95072C1.90308 4.95381 1.67614 4.90123 1.45951 4.79295C1.24288 4.68778 1.05205 4.5362 0.886998 4.33822L0.876682 4.32584L0.727107 4.14333C0.569796 3.94225 0.448588 3.71334 0.366064 3.45967C0.28354 3.20292 0.244857 2.93688 0.247435 2.66156C0.252593 2.38624 0.299013 2.1233 0.386695 1.86963C0.476956 1.61597 0.60332 1.39324 0.763211 1.19835C0.925681 1.00346 1.11394 0.854977 1.32283 0.746705C1.5343 0.638434 1.7535 0.582752 1.98302 0.579658C2.21254 0.576565 2.43433 0.622967 2.64837 0.721958C2.86242 0.820949 3.05068 0.966341 3.21831 1.15504Z" fill="white"/>
</svg>
