<svg width="3" height="3" viewBox="0 0 3 3" fill="none" xmlns="http://www.w3.org/2000/svg">
<path d="M0.676129 2.36021L0.830862 2.53653C0.931438 2.6448 1.04749 2.72523 1.17385 2.77782C1.30022 2.8335 1.43174 2.85825 1.56842 2.85207C1.70252 2.84588 1.83147 2.81185 1.95525 2.74689C2.07904 2.68193 2.18993 2.59221 2.28535 2.47776C2.38077 2.3633 2.45556 2.23028 2.50971 2.08179C2.56129 1.93331 2.59224 1.77863 2.59482 1.61468C2.59997 1.45382 2.57934 1.29605 2.5355 1.14447C2.48908 0.992895 2.42203 0.853689 2.33177 0.733044L2.18477 0.547436C2.08678 0.423698 1.97331 0.327801 1.84436 0.259744C1.71284 0.191688 1.57874 0.154566 1.4369 0.151473C1.29506 0.145286 1.1558 0.176221 1.02428 0.23809C0.892755 0.29996 0.774126 0.38967 0.670971 0.507221C0.567816 0.624773 0.48787 0.760885 0.431135 0.915558C0.3744 1.07332 0.343453 1.23728 0.340874 1.40742C0.338296 1.57756 0.364084 1.74151 0.415662 1.89928C0.467239 2.06014 0.542027 2.19935 0.640024 2.32308L0.676129 2.36021Z" fill="white"/>
</svg>
