<svg width="5" height="6" viewBox="0 0 5 6" fill="none" xmlns="http://www.w3.org/2000/svg">
<path d="M3.8596 4.5895L3.70745 4.76892C3.53982 4.97309 3.34383 5.12776 3.12204 5.23913C2.90026 5.3474 2.67074 5.40308 2.4309 5.40308C2.19107 5.40308 1.96155 5.3474 1.73976 5.23603C1.51798 5.12776 1.32198 4.96999 1.15178 4.76583C0.984151 4.56475 0.852628 4.32965 0.762367 4.06361C0.669528 3.79757 0.623108 3.52225 0.623108 3.23456C0.623108 2.94687 0.669528 2.67155 0.759789 2.40551C0.85005 2.13948 0.981573 1.90437 1.15178 1.7002L1.30135 1.52078C1.47156 1.31661 1.66755 1.15885 1.88934 1.04748C2.11112 0.939212 2.34064 0.88353 2.58048 0.88353C2.82031 0.88353 3.05241 0.939212 3.2742 1.04748C3.49598 1.15885 3.69198 1.31661 3.86218 1.51769C4.02981 1.72186 4.16133 1.95696 4.25417 2.223C4.34443 2.48904 4.39085 2.76745 4.39085 3.05514C4.39085 3.34283 4.34443 3.61815 4.25159 3.88419C4.16133 4.15023 4.02981 4.38533 3.8596 4.5895Z" fill="white"/>
</svg>
