<svg width="4" height="4" viewBox="0 0 4 4" fill="none" xmlns="http://www.w3.org/2000/svg">
<path d="M2.56771 0.608618L2.71987 0.784945C2.8385 0.930338 2.92876 1.09738 2.99065 1.28609C3.05254 1.47479 3.08349 1.66967 3.08349 1.87384C3.08349 2.07492 3.05254 2.2729 2.98807 2.45851C2.9236 2.64721 2.83334 2.81426 2.71729 2.95965C2.59866 3.10504 2.46456 3.2195 2.30983 3.30302C2.15509 3.38655 1.99262 3.43295 1.825 3.43914C1.65479 3.44532 1.49232 3.41748 1.33243 3.34633C1.17254 3.27828 1.0307 3.17619 0.904335 3.04317L0.87081 3.00296L0.723814 2.82044C0.607764 2.67196 0.520082 2.50182 0.458189 2.31312C0.398875 2.12441 0.370507 1.92953 0.373086 1.72536C0.375665 1.52119 0.40919 1.3263 0.476241 1.14069C0.540713 0.955086 0.633553 0.788038 0.75476 0.645739C0.873389 0.500346 1.01265 0.388982 1.16738 0.311646C1.32211 0.231215 1.48458 0.191 1.65479 0.187907C1.82242 0.184813 1.98747 0.218841 2.14478 0.289991C2.30209 0.364234 2.44393 0.469412 2.56771 0.608618Z" fill="white"/>
</svg>
