<svg width="4" height="4" viewBox="0 0 4 4" fill="none" xmlns="http://www.w3.org/2000/svg">
<path d="M3.5416 2.97682L3.38945 3.15624C3.25535 3.3171 3.10062 3.44084 2.92783 3.52746C2.75247 3.61408 2.56937 3.65739 2.37853 3.65739C2.19027 3.65429 2.00717 3.61098 1.83181 3.52437C1.65902 3.43775 1.50429 3.31401 1.37019 3.15315C1.23608 2.99229 1.13293 2.80668 1.06072 2.59633C0.985934 2.38597 0.949829 2.16943 0.949829 1.94051C0.949829 1.71469 0.985933 1.49506 1.05814 1.2847C1.13035 1.07434 1.23351 0.888736 1.36761 0.727876L1.51718 0.548456C1.64871 0.378316 1.80344 0.245297 1.9788 0.152492C2.15675 0.0565955 2.33985 0.00710013 2.53326 0.00400607C2.72668 -0.00218045 2.91236 0.0380342 3.09288 0.124651C3.2734 0.211268 3.43071 0.335007 3.56739 0.495867C3.70665 0.65982 3.81239 0.848522 3.88717 1.06197C3.95938 1.27542 3.99549 1.49815 3.99549 1.73016C3.99549 1.96217 3.9568 2.1849 3.87944 2.39835C3.80465 2.61179 3.69634 2.7974 3.55708 2.95826L3.5416 2.97682Z" fill="white"/>
</svg>
