<svg width="3" height="3" viewBox="0 0 3 3" fill="none" xmlns="http://www.w3.org/2000/svg">
<path d="M1.8042 2.33902L1.64689 2.51535C1.56436 2.60816 1.46895 2.67931 1.36321 2.7288C1.25748 2.7783 1.14659 2.80304 1.03311 2.79995C0.919644 2.79995 0.808752 2.77211 0.705597 2.71952C0.599862 2.66384 0.507023 2.5896 0.427078 2.4937C0.344553 2.3978 0.28266 2.28644 0.238819 2.1596C0.194978 2.03277 0.171768 1.90285 0.169189 1.76673C0.169189 1.62753 0.187242 1.4976 0.228504 1.36768C0.269766 1.24085 0.331659 1.12948 0.409025 1.0274L0.553443 0.841789C0.635967 0.752078 0.731385 0.684023 0.834541 0.63762C0.937696 0.588125 1.04601 0.56647 1.1569 0.569564C1.27037 0.569564 1.37611 0.597405 1.47926 0.646901C1.58242 0.696396 1.67526 0.767546 1.7552 0.86035C1.83773 0.953153 1.9022 1.05833 1.94862 1.17898C1.99504 1.29962 2.0234 1.42955 2.02856 1.56257C2.0363 1.69558 2.0234 1.82551 1.98988 1.95234C1.95635 2.07917 1.9022 2.19673 1.83257 2.29881L1.8042 2.33902Z" fill="white"/>
</svg>
