<svg width="4" height="5" viewBox="0 0 4 5" fill="none" xmlns="http://www.w3.org/2000/svg">
<path d="M0.914464 0.966296L0.764889 1.14572C0.607577 1.32823 0.486369 1.53859 0.401267 1.77988C0.316164 2.01807 0.272322 2.26864 0.269744 2.53159C0.267165 2.79144 0.305848 3.0451 0.388372 3.28639C0.468318 3.52768 0.584368 3.74423 0.7391 3.92983C0.891254 4.11853 1.06662 4.26083 1.26777 4.36292C1.46634 4.465 1.67781 4.51759 1.89444 4.52068C2.11106 4.52378 2.32253 4.47738 2.52368 4.37839C2.72484 4.28249 2.90536 4.14019 3.06009 3.95767L3.0833 3.92983L3.23288 3.74732C3.38503 3.56481 3.50108 3.35136 3.58361 3.11007C3.66613 2.86877 3.70481 2.6213 3.70481 2.36145C3.70481 2.1016 3.66355 1.85103 3.57845 1.61283C3.49592 1.37154 3.37729 1.16118 3.22514 0.97867C3.07299 0.793063 2.89504 0.650763 2.69647 0.551772C2.4979 0.452781 2.28901 0.403286 2.07238 0.400192C1.85575 0.400192 1.64687 0.449687 1.44829 0.545585C1.24714 0.644576 1.0692 0.783781 0.914464 0.966296Z" fill="white"/>
</svg>
