<svg width="4" height="5" viewBox="0 0 4 5" fill="none" xmlns="http://www.w3.org/2000/svg">
<path d="M0.471934 4.0185L0.621509 4.19792C0.763347 4.36806 0.925817 4.49799 1.10892 4.5877C1.29202 4.6805 1.48285 4.72381 1.68143 4.72381C1.88 4.72381 2.07084 4.6805 2.25394 4.5877C2.43962 4.49799 2.59951 4.36806 2.74135 4.19792C2.88061 4.03088 2.98892 3.83599 3.06629 3.61635C3.14107 3.39671 3.17976 3.16471 3.17976 2.92651C3.17976 2.68831 3.14107 2.4594 3.06629 2.23976C2.98892 2.02012 2.88061 1.82524 2.74135 1.65819L2.59177 1.47567C2.45251 1.30553 2.29004 1.17561 2.10694 1.08281C1.92384 0.990002 1.73301 0.943599 1.53443 0.940506C1.33586 0.940506 1.14502 0.983815 0.959342 1.07352C0.776241 1.16633 0.613772 1.29316 0.471934 1.46021C0.330095 1.63035 0.221783 1.82214 0.144416 2.04178C0.0670498 2.26141 0.0283661 2.49033 0.0257874 2.72853C0.0257874 2.96982 0.0618912 3.19873 0.136679 3.41837C0.214045 3.6411 0.31978 3.83599 0.459039 4.00303L0.471934 4.0185Z" fill="white"/>
</svg>
