<svg width="4" height="4" viewBox="0 0 4 4" fill="none" xmlns="http://www.w3.org/2000/svg">
<path d="M2.97332 2.79388L2.81859 2.97021C2.69996 3.10323 2.56586 3.20222 2.4137 3.27337C2.26155 3.34142 2.10682 3.37545 1.94435 3.37236C1.78188 3.36927 1.62456 3.32905 1.47499 3.25171C1.32799 3.17747 1.19389 3.0692 1.08042 2.93309C0.964371 2.79388 0.876689 2.63612 0.812217 2.45669C0.750324 2.27727 0.716798 2.09167 0.714219 1.89678C0.709061 1.70189 0.737429 1.51319 0.796744 1.33067C0.853479 1.15125 0.938582 0.9873 1.04689 0.845001L1.19647 0.662486C1.30994 0.510907 1.44404 0.393355 1.59878 0.309832C1.75093 0.226308 1.9134 0.179907 2.08361 0.173719C2.25123 0.167533 2.41628 0.20156 2.57359 0.27271C2.7309 0.346953 2.87274 0.452131 2.99395 0.59443C3.11516 0.733637 3.21058 0.89759 3.27763 1.08629C3.34468 1.2719 3.3782 1.46679 3.3782 1.67096C3.38078 1.87203 3.34984 2.07001 3.28536 2.25562C3.22089 2.44432 3.12805 2.61137 3.00684 2.75367L2.97332 2.79388Z" fill="white"/>
</svg>
