<svg width="4" height="4" viewBox="0 0 4 4" fill="none" xmlns="http://www.w3.org/2000/svg">
<path d="M1.06066 3.32531L1.21282 3.50164C1.33144 3.63466 1.46812 3.73674 1.6177 3.8048C1.76985 3.87595 1.92717 3.90689 2.08963 3.90379C2.2521 3.9007 2.40684 3.86048 2.55641 3.78624C2.70599 3.7089 2.83751 3.60373 2.95356 3.46452C3.06703 3.32841 3.15729 3.16755 3.21918 2.98813C3.28366 2.8118 3.31718 2.6231 3.31976 2.42821C3.32234 2.23332 3.29655 2.04771 3.23724 1.8652C3.1805 1.68269 3.0954 1.52183 2.98451 1.37643L2.83751 1.19392C2.72404 1.04543 2.58994 0.92788 2.4352 0.841264C2.28047 0.75774 2.12058 0.711338 1.95038 0.705151C1.78017 0.698964 1.6177 0.732992 1.46039 0.807235C1.3005 0.878385 1.16124 0.986656 1.04003 1.12586C0.916244 1.26816 0.823405 1.43212 0.756353 1.61772C0.689302 1.80333 0.655777 1.99822 0.653198 2.20239C0.653198 2.40656 0.684145 2.60144 0.748617 2.79014C0.813089 2.97575 0.905929 3.1428 1.02456 3.2851L1.06066 3.32531Z" fill="white"/>
</svg>
