<svg width="4" height="5" viewBox="0 0 4 5" fill="none" xmlns="http://www.w3.org/2000/svg">
<path d="M2.66099 1.07391L2.81572 1.25333C2.9524 1.4111 3.05814 1.59671 3.13292 1.80397C3.20771 2.01432 3.2464 2.23087 3.24897 2.45978C3.25155 2.6887 3.21803 2.90834 3.1484 3.11869C3.07877 3.32905 2.97819 3.51775 2.84409 3.6817C2.71257 3.84565 2.55783 3.96939 2.38505 4.0622C2.20969 4.15191 2.02658 4.19831 1.83833 4.2014C1.64749 4.2045 1.46439 4.16119 1.28902 4.07766C1.11108 3.99414 0.956349 3.8704 0.819669 3.71264L0.791301 3.67861L0.644305 3.49609C0.51794 3.33214 0.419942 3.14963 0.352891 2.94236C0.28584 2.73201 0.254894 2.51856 0.257473 2.29583C0.260052 2.0731 0.298735 1.85965 0.370944 1.65548C0.443152 1.45131 0.546307 1.27189 0.675251 1.11413C0.806775 0.95636 0.958928 0.835715 1.12913 0.749099C1.29934 0.659388 1.47728 0.61608 1.66296 0.612986C1.84864 0.6068 2.02659 0.647014 2.19937 0.727444C2.37215 0.804781 2.52689 0.922333 2.66099 1.07391Z" fill="white"/>
</svg>
