<svg width="3" height="4" viewBox="0 0 3 4" fill="none" xmlns="http://www.w3.org/2000/svg">
<path d="M0.368803 3.34561L0.523536 3.52193C0.637006 3.65186 0.76595 3.74776 0.910368 3.81581C1.05736 3.88387 1.20694 3.9148 1.36167 3.91171C1.51641 3.90862 1.66598 3.8715 1.8104 3.80035C1.95224 3.7261 2.0786 3.62402 2.18949 3.49409C2.29781 3.36107 2.38291 3.20949 2.4448 3.03626C2.50412 2.86612 2.53764 2.6867 2.54022 2.50109C2.5428 2.31239 2.51443 2.13297 2.4577 1.95974C2.40354 1.7865 2.32102 1.63183 2.21528 1.49572L2.06828 1.31011C1.95739 1.1709 1.82845 1.06263 1.68403 0.988388C1.53704 0.911052 1.38488 0.870837 1.22499 0.86465C1.06768 0.861556 0.912947 0.895585 0.763371 0.963641C0.616375 1.03479 0.484853 1.13378 0.368803 1.2668C0.255332 1.39982 0.165071 1.5514 0.100599 1.72773C0.0361272 1.90096 0.00260212 2.08657 2.27401e-05 2.27527C-0.00255598 2.46706 0.0232332 2.65267 0.0825469 2.829C0.139283 3.00842 0.224385 3.16619 0.335277 3.3023L0.368803 3.34561Z" fill="white"/>
</svg>
