<svg width="5" height="5" viewBox="0 0 5 5" fill="none" xmlns="http://www.w3.org/2000/svg">
<path d="M3.38413 1.39034L3.5337 1.57285C3.68586 1.75537 3.80449 1.96882 3.88701 2.20701C3.96953 2.4483 4.0108 2.69887 4.0108 2.95872C4.0108 3.21858 3.97211 3.46915 3.88701 3.70734C3.80449 3.94863 3.68844 4.16208 3.5337 4.3446C3.38155 4.5302 3.20619 4.66941 3.00503 4.77149C2.80646 4.87048 2.59757 4.91998 2.38094 4.92307C2.16432 4.92307 1.95543 4.87358 1.75428 4.77459C1.5557 4.6756 1.37776 4.53639 1.22303 4.35078L1.07345 4.17446C0.923876 3.98885 0.807826 3.7754 0.727881 3.5372C0.647936 3.29591 0.609253 3.04844 0.609253 2.79168C0.611832 2.53183 0.653094 2.28435 0.738197 2.04615C0.820721 1.80796 0.936771 1.5976 1.08892 1.41509C1.24108 1.23257 1.41644 1.09337 1.61502 0.994376C1.81359 0.895385 2.0199 0.842796 2.23395 0.842796C2.45057 0.839703 2.65688 0.886105 2.85804 0.982002C3.05661 1.0779 3.23455 1.21711 3.38671 1.39653L3.38413 1.39034Z" fill="white"/>
</svg>
