<svg width="4" height="5" viewBox="0 0 4 5" fill="none" xmlns="http://www.w3.org/2000/svg">
<path d="M0.873957 3.3732L1.02611 3.54953C1.15763 3.7073 1.30979 3.82794 1.47999 3.91147C1.65278 3.99808 1.83072 4.04139 2.0164 4.04139C2.20208 4.04139 2.38002 3.99808 2.55281 3.91147C2.72301 3.82794 2.87517 3.7073 3.00669 3.54953C3.13563 3.39177 3.23879 3.20925 3.30842 3.00508C3.38063 2.79782 3.41415 2.58437 3.41415 2.36164C3.41415 2.13891 3.38063 1.92546 3.30842 1.7213C3.23879 1.51403 3.13563 1.33152 3.00669 1.17685L2.85969 0.991239C2.72817 0.830378 2.5786 0.70664 2.40839 0.620023C2.23561 0.530312 2.05766 0.483911 1.87198 0.480818C1.6863 0.477724 1.50578 0.517939 1.333 0.601463C1.16021 0.684986 1.00806 0.802537 0.873957 0.957211C0.739855 1.11498 0.6367 1.2944 0.564491 1.49857C0.489704 1.70274 0.45102 1.91928 0.448441 2.14201C0.445862 2.36474 0.479388 2.58128 0.549018 2.78854C0.616069 2.9958 0.716645 3.17832 0.845589 3.33918L0.873957 3.3732Z" fill="white"/>
</svg>
