<svg width="5" height="5" viewBox="0 0 5 5" fill="none" xmlns="http://www.w3.org/2000/svg">
<path d="M1.50669 1.09348L1.35454 1.276C1.19722 1.47089 1.07344 1.69671 0.988334 1.94728C0.903231 2.20094 0.861969 2.46389 0.861969 2.73611C0.861969 3.01143 0.90581 3.27438 0.993492 3.52495C1.08117 3.77861 1.20496 4.00134 1.36485 4.19623C1.52474 4.38802 1.71042 4.5396 1.91931 4.64478C2.1282 4.75305 2.3474 4.80873 2.57435 4.81183C2.80387 4.81492 3.02307 4.76542 3.23454 4.66643C3.44601 4.56435 3.63427 4.42205 3.79674 4.23026L3.94889 4.05084C4.1062 3.85285 4.22741 3.63012 4.31251 3.37646C4.39761 3.1228 4.43888 2.85985 4.4363 2.58453C4.43372 2.31231 4.38988 2.04936 4.3022 1.79879C4.21451 1.54822 4.08815 1.32549 3.92826 1.13061C3.76837 0.938811 3.58269 0.790325 3.37122 0.685148C3.16233 0.57997 2.94313 0.524289 2.71618 0.521194C2.48924 0.521194 2.27004 0.57069 2.05857 0.669681C1.8471 0.771766 1.65884 0.917157 1.49637 1.10586L1.50669 1.09348Z" fill="white"/>
</svg>
