<svg width="3" height="3" viewBox="0 0 3 3" fill="none" xmlns="http://www.w3.org/2000/svg">
<path d="M0.929138 1.9584L1.08129 2.13782C1.1535 2.22443 1.23603 2.2894 1.33144 2.3358C1.42686 2.3822 1.52486 2.40695 1.62544 2.40695C1.72859 2.40695 1.82659 2.3822 1.92201 2.3358C2.01485 2.2894 2.09737 2.22443 2.16958 2.13782C2.24179 2.0512 2.29852 1.94912 2.33721 1.83775C2.37589 1.72329 2.39652 1.60574 2.39652 1.482C2.39652 1.36136 2.37589 1.24381 2.33721 1.12935C2.29852 1.01489 2.24179 0.9159 2.16958 0.829283L2.02258 0.646768C1.95553 0.547778 1.87301 0.473534 1.77759 0.417852C1.68217 0.36217 1.58159 0.328142 1.47586 0.321955C1.37013 0.315768 1.26697 0.334328 1.1664 0.380731C1.0684 0.424039 0.978137 0.489002 0.90077 0.575619C0.825983 0.665329 0.76409 0.767413 0.722828 0.881871C0.681566 0.999423 0.660934 1.12316 0.658356 1.24999C0.658356 1.37683 0.678987 1.50056 0.720249 1.61502C0.761511 1.73257 0.820825 1.83466 0.898192 1.92437L0.929138 1.9584Z" fill="white"/>
</svg>
