<svg width="4" height="4" viewBox="0 0 4 4" fill="none" xmlns="http://www.w3.org/2000/svg">
<path d="M0.838248 0.82019L0.686094 0.999611C0.554571 1.145 0.453994 1.31205 0.379207 1.50694C0.306998 1.70183 0.268315 1.906 0.263157 2.11944C0.258 2.33289 0.288946 2.53706 0.353418 2.73504C0.41789 2.93612 0.51073 3.11245 0.634516 3.26403C0.758302 3.4187 0.902719 3.53625 1.06519 3.61977C1.23024 3.7033 1.40044 3.74351 1.57839 3.74661C1.75633 3.74661 1.92654 3.70639 2.09158 3.62596C2.25405 3.54244 2.39847 3.42489 2.52484 3.27331L2.5532 3.23928L2.70278 3.05367C2.82399 2.90518 2.9194 2.73504 2.98646 2.54325C3.05351 2.34836 3.08703 2.14729 3.08703 1.93693C3.08703 1.72657 3.05351 1.5255 2.98646 1.3337C2.9194 1.13882 2.82399 0.968676 2.70278 0.82019C2.57899 0.671704 2.43458 0.557245 2.27468 0.476816C2.11222 0.396386 1.94459 0.356171 1.76922 0.356171C1.59644 0.356171 1.42623 0.396386 1.26634 0.476816C1.10387 0.557245 0.962034 0.671704 0.838248 0.82019Z" fill="white"/>
</svg>
