<svg width="5" height="6" viewBox="0 0 5 6" fill="none" xmlns="http://www.w3.org/2000/svg">
<path d="M1.57314 1.49988L1.42099 1.6824C1.2611 1.87419 1.13989 2.09383 1.05221 2.3413C0.964526 2.59187 0.920685 2.85172 0.920685 3.12086C0.920685 3.38999 0.961947 3.64984 1.04963 3.90041C1.13473 4.15098 1.25594 4.37061 1.41583 4.56241C1.57314 4.7542 1.75624 4.8996 1.96513 5.00477C2.17144 5.10995 2.38807 5.16254 2.61501 5.16254C2.83937 5.16254 3.056 5.11305 3.26489 5.00787C3.4712 4.90578 3.65688 4.76039 3.81419 4.5686V4.55622L3.96634 4.3768C4.1185 4.18191 4.23713 3.96228 4.31707 3.71789C4.39959 3.47042 4.43828 3.21366 4.4357 2.94762C4.43312 2.68158 4.38928 2.42792 4.3016 2.18354C4.21649 1.93915 4.09529 1.72261 3.93798 1.53391C3.78324 1.34521 3.60272 1.19982 3.39899 1.09773C3.19526 0.995647 2.98121 0.943058 2.75943 0.939964C2.54022 0.936871 2.32617 0.983273 2.11986 1.07917C1.91355 1.17816 1.73045 1.31737 1.57056 1.49988H1.57314Z" fill="white"/>
</svg>
