<svg width="3" height="4" viewBox="0 0 3 4" fill="none" xmlns="http://www.w3.org/2000/svg">
<path d="M0.580244 2.99917L0.732398 3.1755C0.843289 3.30233 0.969655 3.39823 1.11407 3.46628C1.25591 3.53124 1.40291 3.56527 1.55764 3.56218C1.70979 3.55909 1.85679 3.52506 1.99863 3.45081C2.14047 3.37966 2.26425 3.28067 2.37257 3.15075C2.48088 3.02082 2.56598 2.86924 2.6253 2.7022C2.68461 2.53206 2.71556 2.35573 2.71814 2.17012C2.71814 1.98761 2.69235 1.81128 2.63561 1.63805C2.58146 1.46791 2.49893 1.31633 2.3932 1.18331L2.2462 0.997699C2.13789 0.861586 2.01152 0.756409 1.86968 0.682165C1.72527 0.604829 1.57569 0.564614 1.42096 0.56152C1.26365 0.558427 1.11149 0.589361 0.967076 0.657418C0.82008 0.725474 0.691136 0.824465 0.577665 0.95439C0.464195 1.08432 0.376512 1.2328 0.314619 1.40604C0.250147 1.57618 0.216622 1.7556 0.214043 1.9443C0.211464 2.133 0.237253 2.31242 0.293988 2.48875C0.350723 2.66198 0.433247 2.81975 0.541561 2.95277L0.580244 2.99917Z" fill="white"/>
</svg>
