<svg width="4" height="4" viewBox="0 0 4 4" fill="none" xmlns="http://www.w3.org/2000/svg">
<path d="M2.59714 0.731658L2.75445 0.907985C2.85503 1.01626 2.93755 1.14618 2.99687 1.29467C3.05618 1.44625 3.08713 1.60401 3.09229 1.76797C3.09744 1.93192 3.07681 2.09278 3.02781 2.24745C2.97882 2.40213 2.90919 2.54133 2.81377 2.65889C2.71835 2.77953 2.60746 2.87233 2.48109 2.9373C2.35473 3.00226 2.22063 3.03629 2.08394 3.03629C1.94726 3.03938 1.81316 3.00845 1.6868 2.94348C1.55785 2.88161 1.44696 2.78881 1.35154 2.67126L1.31544 2.63104L1.16844 2.44234C1.08076 2.32788 1.01113 2.19796 0.96471 2.05257C0.915711 1.90408 0.895081 1.7525 0.895081 1.59473C0.897659 1.43697 0.923448 1.28539 0.975026 1.14309C1.0266 0.997696 1.09881 0.86777 1.19165 0.756406C1.28449 0.645041 1.39023 0.558424 1.51143 0.499648C1.63264 0.437779 1.75901 0.403751 1.89053 0.403751C2.02205 0.400658 2.14842 0.428498 2.26962 0.484181C2.39341 0.539863 2.50172 0.623387 2.59714 0.731658Z" fill="white"/>
</svg>
