<svg width="2" height="3" viewBox="0 0 2 3" fill="none" xmlns="http://www.w3.org/2000/svg">
<path d="M1.32954 0.918318L1.48428 1.09464C1.54101 1.14105 1.58485 1.19982 1.62096 1.27097C1.65448 1.34212 1.67511 1.41946 1.68285 1.49989C1.69059 1.58032 1.68285 1.66075 1.65964 1.73809C1.63901 1.81542 1.60548 1.88657 1.55906 1.94535C1.51264 2.00722 1.45849 2.05362 1.39401 2.08455C1.33212 2.11549 1.26507 2.13095 1.19802 2.13095C1.12839 2.12786 1.06392 2.1093 1.00202 2.07218C0.940132 2.03815 0.888554 1.98866 0.844713 1.92369L0.824082 1.89585L0.677086 1.71024C0.584246 1.60197 0.540405 1.46895 0.540405 1.31428C0.540405 1.15961 0.584246 1.02659 0.677086 0.918318C0.767346 0.806953 0.878238 0.754364 1.00718 0.754364C1.13613 0.754364 1.24702 0.806953 1.33728 0.918318H1.32954Z" fill="white"/>
</svg>
