<svg width="4" height="5" viewBox="0 0 4 5" fill="none" xmlns="http://www.w3.org/2000/svg">
<path d="M2.91689 0.570368L3.06904 0.749788C3.22636 0.935395 3.34756 1.15194 3.43267 1.39632C3.51777 1.64071 3.55903 1.89437 3.56161 2.16041C3.56161 2.42335 3.52035 2.68011 3.43782 2.92449C3.35272 3.16888 3.23409 3.38542 3.07936 3.57412C2.92205 3.76282 2.74411 3.90821 2.54037 4.0103C2.33664 4.11238 2.12517 4.16497 1.90339 4.16497C1.68419 4.16497 1.47014 4.11857 1.26641 4.01648C1.06268 3.91749 0.882154 3.77519 0.724842 3.58959H0.711948L0.562372 3.40707C0.428271 3.21528 0.330273 3.00183 0.263222 2.76363C0.196171 2.52853 0.167803 2.28724 0.178119 2.03667C0.185855 1.78919 0.234855 1.55099 0.317379 1.32208C0.402482 1.09316 0.515953 0.892087 0.662949 0.71576C0.809945 0.539432 0.980151 0.400227 1.16841 0.301236C1.35925 0.199152 1.55782 0.143469 1.76671 0.131096C1.97302 0.121815 2.17417 0.155844 2.37275 0.236274C2.56874 0.31361 2.74668 0.434255 2.90657 0.595115L2.91689 0.570368Z" fill="white"/>
</svg>
