<svg width="5" height="5" viewBox="0 0 5 5" fill="none" xmlns="http://www.w3.org/2000/svg">
<path d="M1.40219 4.12092L1.55177 4.30343C1.72197 4.50451 1.91797 4.66228 2.13975 4.77364C2.36153 4.88191 2.59105 4.93759 2.83089 4.93759C3.07073 4.93759 3.30283 4.88191 3.52203 4.77055C3.74381 4.66228 3.93981 4.50451 4.11002 4.30034C4.28022 4.09927 4.40917 3.86416 4.50201 3.59812C4.59227 3.33209 4.63869 3.05677 4.63869 2.76908C4.63869 2.48138 4.59484 2.20297 4.50201 1.93694C4.41174 1.6709 4.28022 1.43889 4.11002 1.23472L3.96044 1.0522C3.79023 0.848037 3.59424 0.693363 3.37246 0.581999C3.15067 0.473728 2.92115 0.418045 2.68132 0.418045C2.44148 0.418045 2.20938 0.473728 1.9876 0.581999C1.76581 0.693363 1.56982 0.848037 1.40219 1.0522C1.23198 1.25637 1.10046 1.49148 1.0102 1.75751C0.917361 2.02355 0.870941 2.29887 0.870941 2.58656C0.870941 2.87425 0.917361 3.15267 1.0102 3.4187C1.10046 3.68165 1.23198 3.91675 1.40219 4.12092Z" fill="white"/>
</svg>
