<svg width="5" height="5" viewBox="0 0 5 5" fill="none" xmlns="http://www.w3.org/2000/svg">
<path d="M3.39245 0.885202L3.54461 1.06462C3.70192 1.23786 3.82571 1.43893 3.91339 1.67404C4.00107 1.90605 4.04749 2.15043 4.05523 2.40719C4.06038 2.66085 4.02428 2.90833 3.94433 3.14652C3.86697 3.38472 3.7535 3.59508 3.60392 3.77759C3.45435 3.9601 3.28156 4.1024 3.08557 4.1983C2.88699 4.29729 2.68326 4.34679 2.46921 4.34369C2.25517 4.34369 2.05144 4.2911 1.85544 4.19211C1.65945 4.09003 1.48924 3.94773 1.33966 3.76212L1.31903 3.73428L1.16946 3.55177C1.03278 3.37235 0.927044 3.16818 0.852256 2.94235C0.780048 2.71344 0.746522 2.47524 0.7491 2.23086C0.754259 1.98957 0.79552 1.75447 0.875466 1.52864C0.95541 1.30282 1.0663 1.10484 1.21072 0.931604C1.35514 0.75837 1.52019 0.625352 1.70844 0.529454C1.89412 0.433557 2.09012 0.384061 2.29385 0.380968C2.49758 0.374781 2.69358 0.41809 2.88441 0.504706C3.07525 0.591323 3.24546 0.718156 3.39245 0.885202Z" fill="white"/>
</svg>
