<svg width="2" height="3" viewBox="0 0 2 3" fill="none" xmlns="http://www.w3.org/2000/svg">
<path d="M1.46033 1.70443L1.3056 1.87767C1.18697 2.0045 1.05029 2.06637 0.890399 2.06018C0.733088 2.05709 0.598986 1.98594 0.485515 1.85292C0.374623 1.7199 0.317888 1.55595 0.31273 1.36725C0.307572 1.17854 0.35915 1.0115 0.464884 0.872292L0.61188 0.683591C0.666037 0.612441 0.730508 0.553666 0.802717 0.51345C0.877504 0.473235 0.954872 0.448487 1.03482 0.445394C1.11734 0.4423 1.19471 0.457769 1.27207 0.491796C1.34686 0.525824 1.41391 0.575319 1.47323 0.643376C1.53254 0.708338 1.57896 0.788768 1.60991 0.878479C1.64343 0.965096 1.65891 1.06099 1.66148 1.15689C1.66148 1.25588 1.64601 1.34869 1.61506 1.4384C1.5867 1.52811 1.54028 1.60854 1.48354 1.67659L1.46033 1.70443Z" fill="white"/>
</svg>
