<svg width="4" height="5" viewBox="0 0 4 5" fill="none" xmlns="http://www.w3.org/2000/svg">
<path d="M0.668872 0.716078L0.51414 0.895499C0.369722 1.07801 0.25883 1.28837 0.181464 1.52347C0.104097 1.75857 0.0679932 2.00296 0.0679932 2.25353C0.0705725 2.50719 0.111835 2.75158 0.191779 2.98359C0.274304 3.2156 0.387775 3.42286 0.537349 3.60228C0.684345 3.78479 0.854552 3.924 1.04797 4.02299C1.24138 4.12507 1.44254 4.17766 1.654 4.18385C1.86547 4.19004 2.0692 4.14982 2.2652 4.06011C2.46377 3.9704 2.63914 3.84048 2.79387 3.67033L2.81192 3.64868L2.95892 3.46307C3.11107 3.28365 3.2297 3.0733 3.31223 2.8351C3.39475 2.5969 3.43601 2.34633 3.43601 2.08958C3.43601 1.83282 3.39475 1.58534 3.31223 1.34714C3.2297 1.10895 3.11107 0.898593 2.95892 0.716078C2.80934 0.533565 2.63398 0.394358 2.43541 0.295367C2.23683 0.196377 2.03052 0.146881 1.8139 0.146881C1.59985 0.146881 1.39354 0.196377 1.19496 0.295367C0.99639 0.394358 0.821027 0.533565 0.668872 0.716078Z" fill="white"/>
</svg>
