<svg width="5" height="5" viewBox="0 0 5 5" fill="none" xmlns="http://www.w3.org/2000/svg">
<path d="M3.50911 3.55841L3.35696 3.73783C3.19707 3.92962 3.01139 4.07811 2.8025 4.18019C2.59361 4.28537 2.37441 4.33796 2.15004 4.33796C1.9231 4.33486 1.7039 4.28537 1.49501 4.18019C1.28612 4.07501 1.10302 3.92653 0.943128 3.73473C0.783238 3.54294 0.659452 3.3233 0.571769 3.07273C0.484088 2.82216 0.442825 2.55922 0.440247 2.28699C0.440247 2.01786 0.484088 1.75492 0.571769 1.50435C0.656872 1.25378 0.780658 1.03105 0.940549 0.839252L1.09012 0.656738C1.25002 0.464943 1.43569 0.316456 1.64458 0.211279C1.85347 0.106102 2.07268 0.0535126 2.29962 0.0535126C2.52656 0.0535126 2.74577 0.106102 2.95466 0.211279C3.16355 0.313363 3.34922 0.461849 3.51169 0.653644C3.67158 0.848533 3.79537 1.06817 3.88305 1.32183C3.97073 1.5724 4.012 1.83535 4.01458 2.10757C4.01458 2.3798 3.97073 2.63965 3.88305 2.89331C3.79795 3.14388 3.67416 3.36661 3.51169 3.55841H3.50911Z" fill="white"/>
</svg>
