<svg width="4" height="5" viewBox="0 0 4 5" fill="none" xmlns="http://www.w3.org/2000/svg">
<path d="M1.19056 1.24348L1.0384 1.426C0.883669 1.59614 0.76504 1.79721 0.679938 2.02922C0.594835 2.25814 0.548414 2.49943 0.545836 2.75309C0.540678 3.00366 0.579361 3.24805 0.656728 3.48006C0.736672 3.71516 0.850144 3.91933 0.99714 4.09875C1.14671 4.27817 1.31692 4.41428 1.51292 4.51018C1.70633 4.60608 1.91006 4.64938 2.11895 4.64629C2.33042 4.6432 2.53157 4.59061 2.72241 4.48852C2.91583 4.38644 3.08345 4.24414 3.22787 4.06163L3.37745 3.87911C3.51671 3.70279 3.62244 3.50171 3.69465 3.27589C3.76686 3.05007 3.80038 2.81805 3.7978 2.57677C3.79523 2.33547 3.75396 2.10347 3.67402 1.88074C3.59665 1.65801 3.48576 1.46003 3.34392 1.28988C3.20208 1.11974 3.03703 0.986725 2.85136 0.893922C2.66568 0.798024 2.47226 0.748529 2.27111 0.745435C2.06995 0.742342 1.87654 0.782557 1.68828 0.869174C1.50002 0.955791 1.33239 1.08262 1.1854 1.24967L1.19056 1.24348Z" fill="white"/>
</svg>
