<svg width="4" height="5" viewBox="0 0 4 5" fill="none" xmlns="http://www.w3.org/2000/svg">
<path d="M2.67055 1.34173L2.82013 1.52115C2.96455 1.68819 3.07544 1.87999 3.1528 2.09962C3.23275 2.31926 3.27401 2.54818 3.27401 2.78637C3.27659 3.02766 3.24307 3.25658 3.16828 3.47931C3.09349 3.70204 2.98776 3.89693 2.8485 4.06707C2.70924 4.2403 2.54677 4.37023 2.36367 4.46612C2.18057 4.55893 1.98973 4.60842 1.79116 4.61152C1.59 4.61152 1.39917 4.56821 1.21349 4.4785C1.03039 4.39188 0.865338 4.26195 0.723499 4.09491L0.697711 4.06088L0.548136 3.88146C0.408876 3.71132 0.300563 3.51643 0.225775 3.29679C0.148409 3.07716 0.112305 2.84824 0.112305 2.61005C0.112305 2.37185 0.150988 2.14293 0.225775 1.9202C0.303142 1.70057 0.411454 1.50877 0.550714 1.33863C0.692552 1.17159 0.852443 1.04166 1.03812 0.948856C1.22122 0.859146 1.41206 0.812744 1.61063 0.812744C1.80921 0.812744 2.00005 0.856052 2.18315 0.948856C2.36625 1.03857 2.52872 1.16849 2.67055 1.33554V1.34173Z" fill="white"/>
</svg>
