<svg width="4" height="4" viewBox="0 0 4 4" fill="none" xmlns="http://www.w3.org/2000/svg">
<path d="M2.80645 0.528037L2.9586 0.707457C3.09271 0.877598 3.19586 1.07249 3.26807 1.29212C3.34028 1.50866 3.37638 1.73449 3.3738 1.96959C3.37123 2.20469 3.33254 2.43052 3.25775 2.64706C3.18297 2.86669 3.07723 3.05849 2.94055 3.22554C2.80387 3.39258 2.64398 3.52251 2.46604 3.61841C2.28552 3.71121 2.09726 3.76071 1.90384 3.76689C1.70785 3.77308 1.51701 3.73596 1.33391 3.65243C1.15081 3.572 0.985761 3.45136 0.841343 3.29359L0.823291 3.26884L0.673716 3.08942C0.544772 2.91619 0.444195 2.7213 0.377145 2.50167C0.310093 2.28512 0.279148 2.0593 0.284305 1.82729C0.289463 1.59528 0.330725 1.37255 0.405512 1.1591C0.482879 0.945654 0.588613 0.756953 0.725294 0.592999C0.861974 0.429046 1.01929 0.302214 1.19723 0.20941C1.37517 0.119699 1.56085 0.0702038 1.75427 0.0640173C1.94768 0.0578308 2.13594 0.0949515 2.31904 0.175382C2.49956 0.255812 2.66203 0.376457 2.80645 0.53113V0.528037Z" fill="white"/>
</svg>
