<svg width="2" height="2" viewBox="0 0 2 2" fill="none" xmlns="http://www.w3.org/2000/svg">
<path d="M1.47386 0.786364L1.63375 0.956504C1.70595 1.03075 1.74722 1.12355 1.75237 1.23801C1.76011 1.35247 1.72916 1.45455 1.66727 1.53808C1.6028 1.62469 1.52285 1.668 1.42744 1.67109C1.33202 1.67419 1.24949 1.63707 1.17986 1.55664C1.17213 1.54736 1.16439 1.53808 1.15665 1.52879L1.01481 1.337C0.958079 1.25966 0.929712 1.16995 0.93229 1.06787C0.934869 0.962692 0.965816 0.876074 1.02771 0.801831C1.0896 0.727588 1.16181 0.690467 1.24949 0.687373C1.3346 0.68428 1.40938 0.718308 1.47386 0.786364Z" fill="white"/>
</svg>
