<svg width="20" height="20" viewBox="0 0 20 20" fill="none" xmlns="http://www.w3.org/2000/svg">
<path d="M18.393 8.39469H11.6053V1.60363C11.6053 0.719449 10.8859 0 9.99832 0C9.11414 0 8.39469 0.719449 8.39469 1.60363V8.39469H1.60363C0.719448 8.39469 0 9.11414 0 9.99832C0 10.8859 0.719448 11.6053 1.60363 11.6053H8.39469V18.393C8.39469 19.2806 9.11414 20 9.99832 20C10.8859 20 11.6053 19.2806 11.6053 18.393V11.6053H18.393C19.2806 11.6053 20 10.8859 20 9.99832C20 9.11414 19.2806 8.39469 18.393 8.39469Z" fill="#274761"/>
</svg>
