<svg width="4" height="5" viewBox="0 0 4 5" fill="none" xmlns="http://www.w3.org/2000/svg">
<path d="M3.21638 0.725057L3.36853 0.904478C3.51811 1.07771 3.63158 1.27879 3.7141 1.5077C3.79405 1.73662 3.83531 1.97791 3.83789 2.22539C3.83789 2.47286 3.80178 2.71415 3.72442 2.94616C3.64447 3.17508 3.53358 3.37925 3.38916 3.55867C3.24217 3.735 3.07454 3.87111 2.8837 3.9701C2.69286 4.066 2.49429 4.11549 2.2854 4.11859C2.07909 4.12168 1.87794 4.07528 1.6871 3.98247C1.49369 3.88967 1.32348 3.75356 1.17648 3.58032L1.15585 3.55867L1.00886 3.37306C0.869596 3.19673 0.763861 2.99257 0.691653 2.76674C0.619444 2.54092 0.583339 2.30582 0.588498 2.06143C0.591076 1.82014 0.632338 1.58504 0.712284 1.36231C0.78965 1.13958 0.903121 0.9416 1.04496 0.768366C1.18938 0.598225 1.35185 0.465206 1.5401 0.369309C1.72578 0.273412 1.9192 0.223916 2.12293 0.220823C2.32666 0.217729 2.52008 0.257945 2.71092 0.344561C2.89917 0.431178 3.0668 0.55801 3.21638 0.725057Z" fill="white"/>
</svg>
