<svg width="4" height="6" viewBox="0 0 4 6" fill="none" xmlns="http://www.w3.org/2000/svg">
<path d="M3.42627 4.35458L3.27412 4.5371C3.11938 4.7227 2.93886 4.8681 2.73513 4.96709C2.53398 5.06917 2.32251 5.11867 2.10073 5.11867C1.88152 5.11867 1.67005 5.06917 1.46632 4.96709C1.26517 4.8681 1.08465 4.7227 0.929913 4.5371C0.772602 4.35149 0.653973 4.13495 0.56887 3.89056C0.486346 3.64927 0.442505 3.39561 0.442505 3.12957C0.442505 2.86663 0.486346 2.61296 0.56887 2.36858C0.653973 2.1242 0.772602 1.91075 0.929913 1.72514L1.07949 1.54262C1.23164 1.33536 1.40959 1.17141 1.6159 1.05386C1.82221 0.936306 2.04141 0.871343 2.27093 0.862063C2.49787 0.852782 2.71966 0.899184 2.9337 0.998175C3.14517 1.09717 3.33343 1.24565 3.4959 1.43745C3.65837 1.63234 3.78216 1.85816 3.86726 2.11182C3.95236 2.36549 3.99104 2.63152 3.98589 2.90684C3.97815 3.18216 3.92657 3.44201 3.82858 3.69258C3.73058 3.94006 3.59648 4.1566 3.42627 4.33602V4.35458Z" fill="white"/>
</svg>
