<svg width="3" height="4" viewBox="0 0 3 4" fill="none" xmlns="http://www.w3.org/2000/svg">
<path d="M1.05507 2.68602L1.20722 2.86544C1.30006 2.96753 1.4058 3.04486 1.52443 3.10054C1.64306 3.15313 1.76684 3.18097 1.89321 3.17788C2.01957 3.17479 2.14078 3.14385 2.25683 3.08508C2.37288 3.02321 2.47603 2.93968 2.5663 2.83451C2.65656 2.72624 2.72619 2.6025 2.77518 2.46329C2.82418 2.32408 2.85255 2.17869 2.85513 2.02711C2.85771 1.87553 2.83708 1.72705 2.79066 1.58475C2.74682 1.44245 2.68234 1.31562 2.59724 1.20425L2.44767 1.02174C2.35741 0.90728 2.25167 0.820663 2.13304 0.758793C2.01184 0.693831 1.88805 0.662896 1.75653 0.659803C1.62758 0.656709 1.50122 0.681457 1.38001 0.740233C1.2588 0.795915 1.15049 0.879439 1.05765 0.98771C0.962231 1.09598 0.890023 1.22281 0.838445 1.36511C0.784289 1.50741 0.7585 1.65899 0.755921 1.81366C0.753342 1.97143 0.773973 2.12301 0.822972 2.2684C0.869391 2.4138 0.939021 2.54063 1.02928 2.65509L1.05507 2.68602Z" fill="white"/>
</svg>
