<svg width="4" height="4" viewBox="0 0 4 4" fill="none" xmlns="http://www.w3.org/2000/svg">
<path d="M3.11412 0.606689L3.26628 0.78611C3.40554 0.94697 3.51127 1.13567 3.58864 1.34912C3.66342 1.56257 3.70211 1.7853 3.70469 2.01731C3.70727 2.24932 3.67116 2.47205 3.59895 2.6855C3.52674 2.90204 3.42359 3.09383 3.28691 3.25779C3.15281 3.42483 2.99549 3.55167 2.81755 3.64138C2.63961 3.73418 2.45393 3.78058 2.26051 3.78058C2.0671 3.78368 1.88142 3.74037 1.70348 3.65375C1.52295 3.56713 1.36564 3.44339 1.22638 3.28253L1.20833 3.25469L1.05876 3.07527C0.922075 2.91132 0.81634 2.72262 0.744132 2.50917C0.669344 2.29263 0.63324 2.07299 0.63324 1.84098C0.63324 1.60897 0.669344 1.38624 0.744132 1.17279C0.81892 0.959344 0.922075 0.770642 1.05876 0.606689C1.19544 0.442736 1.35275 0.318998 1.53069 0.229287C1.70863 0.139576 1.89431 0.0962677 2.08773 0.0962677C2.27857 0.0962677 2.46425 0.139576 2.64219 0.229287C2.82271 0.315904 2.98002 0.442736 3.11412 0.606689Z" fill="white"/>
</svg>
