<svg width="2" height="2" viewBox="0 0 2 2" fill="none" xmlns="http://www.w3.org/2000/svg">
<path d="M0.55761 0.317782L0.400298 0.491016C0.328089 0.562165 0.286827 0.658063 0.281669 0.772521C0.273933 0.886979 0.302301 0.98597 0.366773 1.06949C0.431244 1.15611 0.51119 1.19942 0.606608 1.20251C0.702027 1.20561 0.784552 1.16848 0.851602 1.08805C0.861918 1.07877 0.869655 1.06949 0.874812 1.06021L1.01923 0.871512C1.07596 0.794175 1.10433 0.701372 1.10175 0.599287C1.09917 0.497203 1.06565 0.407492 1.00633 0.333249C0.944442 0.262099 0.869654 0.221884 0.784551 0.218791C0.696869 0.215698 0.622082 0.249725 0.55761 0.317782Z" fill="white"/>
</svg>
