<svg width="4" height="4" viewBox="0 0 4 4" fill="none" xmlns="http://www.w3.org/2000/svg">
<path d="M2.91919 0.754566L3.07135 0.933987C3.21061 1.09794 3.31634 1.28664 3.39113 1.50318C3.46592 1.71973 3.5046 1.94246 3.5046 2.17756C3.5046 2.40957 3.46849 2.63539 3.39629 2.85193C3.3215 3.06848 3.21576 3.25718 3.07908 3.42422C2.93982 3.58818 2.78251 3.7181 2.60199 3.80781C2.42147 3.89752 2.23579 3.94083 2.03979 3.94393C1.84638 3.94393 1.65812 3.89752 1.4776 3.81091C1.29708 3.7212 1.13976 3.59436 1.00051 3.42732L0.85093 3.2479C0.71425 3.08085 0.608516 2.89215 0.536307 2.67561C0.461519 2.46216 0.425415 2.23633 0.425415 2.00432C0.425415 1.76922 0.461519 1.54649 0.536307 1.32995C0.611094 1.1165 0.716829 0.924707 0.853509 0.760753C0.99019 0.5968 1.15008 0.469967 1.32802 0.380257C1.50855 0.290546 1.6968 0.247238 1.89022 0.247238C2.08364 0.247238 2.27189 0.290546 2.44984 0.380257C2.63036 0.466873 2.78767 0.593706 2.92693 0.757659L2.91919 0.754566Z" fill="white"/>
</svg>
