<svg width="4" height="5" viewBox="0 0 4 5" fill="none" xmlns="http://www.w3.org/2000/svg">
<path d="M1.03689 0.913451L0.887312 1.09597C0.727421 1.28776 0.603634 1.51049 0.515953 1.76106C0.428271 2.01163 0.38443 2.27457 0.38443 2.5468C0.38443 2.81902 0.425692 3.08197 0.513374 3.33254C0.598478 3.5862 0.722264 3.80893 0.882154 4.00073C1.04204 4.19252 1.22772 4.34101 1.43661 4.44619C1.64808 4.55136 1.86471 4.60395 2.09423 4.60395C2.32117 4.60395 2.5378 4.55446 2.74926 4.44928C2.95815 4.34719 3.14383 4.19871 3.30372 4.00691L3.45588 3.82749C3.61577 3.6357 3.74213 3.41297 3.82724 3.15931C3.91492 2.90873 3.95876 2.64579 3.96134 2.37357C3.96134 2.10134 3.9175 1.8384 3.82981 1.58783C3.74471 1.33416 3.62093 1.11143 3.46103 0.919638C3.29856 0.727843 3.11546 0.576264 2.904 0.47418C2.69511 0.369002 2.4759 0.316413 2.24896 0.316413C2.02202 0.31332 1.80281 0.365908 1.59392 0.471086C1.38246 0.57317 1.19678 0.721657 1.03689 0.913451Z" fill="white"/>
</svg>
