<svg width="4" height="5" viewBox="0 0 4 5" fill="none" xmlns="http://www.w3.org/2000/svg">
<path d="M1.29382 4.01841L1.44597 4.19474C1.59039 4.33085 1.7477 4.42984 1.92306 4.4948C2.09585 4.55977 2.27637 4.58761 2.45689 4.57523C2.63999 4.56286 2.81536 4.51027 2.98041 4.42056C3.14803 4.33085 3.29503 4.20711 3.42397 4.05244C3.55292 3.89777 3.65607 3.72144 3.73086 3.52036C3.80565 3.32238 3.84691 3.11203 3.8598 2.89239C3.87012 2.67585 3.84691 2.4624 3.79275 2.25204C3.7386 2.04169 3.65349 1.85299 3.5426 1.67975L3.39561 1.50033C3.2615 1.30854 3.10161 1.15696 2.91593 1.04559C2.73025 0.934229 2.53426 0.87236 2.32537 0.859986C2.11906 0.847612 1.91791 0.884734 1.72449 0.971351C1.5285 1.06106 1.35829 1.19099 1.20871 1.36422C1.05914 1.53745 0.945668 1.74162 0.868302 1.97054C0.788357 2.20255 0.752252 2.44075 0.75741 2.69132C0.762568 2.94189 0.808988 3.17699 0.89667 3.40281C0.984352 3.62863 1.10814 3.82352 1.26287 3.99057L1.29382 4.01841Z" fill="white"/>
</svg>
