<svg width="2" height="3" viewBox="0 0 2 3" fill="none" xmlns="http://www.w3.org/2000/svg">
<path d="M0.406228 1.05155L0.248916 1.22787C0.181865 1.30212 0.130287 1.39183 0.0916044 1.49082C0.0554998 1.5929 0.0348689 1.69808 0.0322902 1.80635C0.0297114 1.91772 0.0451846 2.02289 0.0761311 2.12807C0.109656 2.23016 0.156077 2.32296 0.220548 2.40339C0.282442 2.48382 0.357229 2.54569 0.439753 2.59209C0.524857 2.6354 0.612538 2.66015 0.705378 2.66324C0.795639 2.66633 0.885899 2.65087 0.971003 2.61065C1.05611 2.57044 1.13347 2.51475 1.20052 2.43742C1.21084 2.42814 1.22115 2.41576 1.23147 2.40339L1.37847 2.21778C1.49967 2.05383 1.55641 1.86203 1.55125 1.6424C1.54609 1.42586 1.47904 1.23716 1.3501 1.08248C1.22115 0.927809 1.06642 0.847379 0.883321 0.841192C0.70022 0.835004 0.542908 0.906154 0.406228 1.05155Z" fill="white"/>
</svg>
