<svg width="4" height="4" viewBox="0 0 4 4" fill="none" xmlns="http://www.w3.org/2000/svg">
<path d="M1.4343 1.26306L1.27957 1.43939C1.17641 1.55075 1.09647 1.68068 1.03715 1.82916C0.977839 1.97765 0.946893 2.13542 0.939156 2.29937C0.933999 2.46642 0.95463 2.62728 1.00363 2.78195C1.05263 2.93662 1.12483 3.07274 1.22025 3.19338C1.31567 3.31093 1.42656 3.40374 1.55293 3.4687C1.67929 3.53676 1.81082 3.56769 1.95008 3.57078C2.08676 3.57078 2.21828 3.53985 2.34722 3.47489C2.47359 3.41302 2.58706 3.32331 2.68248 3.20266L2.716 3.16245L2.863 2.97684C2.95326 2.86238 3.02289 2.72936 3.06931 2.58397C3.11573 2.43858 3.13894 2.2839 3.13636 2.12614C3.13378 1.97146 3.10799 1.81988 3.05642 1.67449C3.00484 1.5291 2.93521 1.40227 2.84237 1.2909C2.74953 1.17954 2.64122 1.09292 2.52001 1.03105C2.3988 0.969183 2.27502 0.938247 2.14349 0.935154C2.01197 0.93206 1.88561 0.959902 1.76182 1.01558C1.64061 1.07436 1.52972 1.15479 1.4343 1.26306Z" fill="white"/>
</svg>
