<svg width="4" height="4" viewBox="0 0 4 4" fill="none" xmlns="http://www.w3.org/2000/svg">
<path d="M2.6141 0.657343L2.76625 0.839857C2.90035 1.01618 3.00093 1.21417 3.07056 1.4369C3.14019 1.65962 3.17372 1.88854 3.16856 2.12674C3.1634 2.36184 3.12214 2.59076 3.04477 2.81039C2.9674 3.02693 2.85909 3.22182 2.71983 3.38887C2.58057 3.55901 2.4181 3.68894 2.23758 3.78174C2.05448 3.87454 1.86364 3.92404 1.66765 3.93023C1.46908 3.93641 1.27566 3.89929 1.09256 3.81577C0.90688 3.73225 0.739252 3.6116 0.592256 3.45074L0.442681 3.26823C0.300843 3.09499 0.192529 2.89701 0.115163 2.67119C0.0403753 2.44536 0.0016927 2.21026 0.00427142 1.96897C0.00427142 1.72459 0.0429551 1.48948 0.1229 1.26676C0.200267 1.04093 0.311159 0.842951 0.452997 0.67281C0.597414 0.499577 0.762462 0.366558 0.950721 0.273754C1.1364 0.180949 1.3324 0.131454 1.53355 0.131454C1.73728 0.131454 1.9307 0.174763 2.11895 0.267567C2.30721 0.357277 2.47484 0.487202 2.61926 0.657343H2.6141Z" fill="white"/>
</svg>
