<svg width="4" height="5" viewBox="0 0 4 5" fill="none" xmlns="http://www.w3.org/2000/svg">
<path d="M0.993788 3.67008L1.14594 3.8495C1.31099 4.02273 1.49667 4.14956 1.7004 4.23618C1.90671 4.3228 2.11818 4.36301 2.33481 4.35373C2.55401 4.34136 2.7629 4.28568 2.96147 4.1805C3.16005 4.07532 3.33799 3.92993 3.49014 3.74741C3.64488 3.5618 3.76351 3.34836 3.85119 3.11016C3.93629 2.86887 3.98529 2.6183 3.99045 2.35845C3.99818 2.0955 3.96466 1.84184 3.89245 1.59746C3.82024 1.34998 3.71193 1.13034 3.56751 0.932361L3.41794 0.749847C3.25805 0.558053 3.07237 0.409566 2.8609 0.304388C2.64943 0.19921 2.43022 0.146622 2.20328 0.146622C1.97376 0.146622 1.75456 0.19921 1.54567 0.304388C1.3342 0.406472 1.14852 0.554959 0.986051 0.749847C0.82616 0.941641 0.699796 1.16437 0.612114 1.41803C0.524432 1.66861 0.480591 1.93155 0.480591 2.20687C0.480591 2.47909 0.524432 2.74204 0.609535 2.9957C0.697217 3.24936 0.821003 3.47209 0.980894 3.66698L0.993788 3.67008Z" fill="white"/>
</svg>
