<svg width="3" height="3" viewBox="0 0 3 3" fill="none" xmlns="http://www.w3.org/2000/svg">
<path d="M1.91647 0.782063L2.0712 0.958391C2.16404 1.06357 2.23367 1.18421 2.28525 1.32342C2.33683 1.46262 2.36261 1.60802 2.36519 1.76269C2.36777 1.91427 2.34456 2.05966 2.30072 2.20196C2.2543 2.34117 2.18725 2.468 2.09957 2.57627C2.01189 2.68764 1.90873 2.77116 1.79268 2.83303C1.67663 2.8949 1.55542 2.92583 1.42906 2.92893C1.30269 2.93202 1.17891 2.90727 1.06286 2.85159C0.944229 2.79591 0.838496 2.71548 0.748235 2.6103L0.719867 2.57937L0.572871 2.39376C0.490347 2.28239 0.428454 2.16175 0.387191 2.02254C0.343351 1.88643 0.325298 1.74413 0.327877 1.59874C0.330456 1.45335 0.356245 1.31105 0.402665 1.17803C0.451663 1.04191 0.518715 0.924363 0.606396 0.819185C0.6915 0.717101 0.792076 0.636671 0.902968 0.577895C1.01644 0.519119 1.13249 0.488185 1.2537 0.485091C1.37748 0.481998 1.49611 0.506745 1.60958 0.556241C1.72305 0.608829 1.82621 0.683073 1.91647 0.782063Z" fill="white"/>
</svg>
