<svg width="4" height="4" viewBox="0 0 4 4" fill="none" xmlns="http://www.w3.org/2000/svg">
<path d="M2.97151 2.51731L2.81936 2.69673C2.70847 2.83284 2.57695 2.93802 2.42995 3.00917C2.28037 3.08341 2.12822 3.12053 1.96833 3.12053C1.80844 3.12053 1.65371 3.08341 1.50671 3.00917C1.35713 2.93802 1.22819 2.83284 1.11472 2.69673C1.00125 2.56062 0.913568 2.40594 0.854253 2.22652C0.79236 2.05019 0.761414 1.86459 0.761414 1.67279C0.761414 1.481 0.79236 1.29848 0.854253 1.11906C0.913568 0.942736 1.00125 0.788062 1.11472 0.651951L1.2643 0.469436C1.37519 0.330231 1.50413 0.225053 1.64855 0.147716C1.79554 0.0734731 1.9477 0.0332587 2.10759 0.0301647C2.26748 0.0239781 2.41963 0.0580064 2.56921 0.129155C2.7162 0.200305 2.84773 0.299296 2.96378 0.432315C3.07725 0.565333 3.16751 0.720007 3.2294 0.896334C3.29387 1.07266 3.3274 1.25518 3.32998 1.44697C3.33256 1.63567 3.30419 1.82128 3.24488 1.99761C3.18556 2.17703 3.10304 2.33479 2.98957 2.47091L2.97151 2.51731Z" fill="white"/>
</svg>
