<svg width="3" height="4" viewBox="0 0 3 4" fill="none" xmlns="http://www.w3.org/2000/svg">
<path d="M0.511366 0.533369L0.359212 0.712789C0.243163 0.855088 0.155481 1.01904 0.0935875 1.20156C0.0316944 1.38407 -0.00183105 1.57587 -0.00183105 1.77385C-0.00183105 1.97183 0.0291155 2.16053 0.0910086 2.34614C0.152902 2.52865 0.243163 2.69261 0.356633 2.8349C0.472683 2.9772 0.604206 3.08548 0.75636 3.1659C0.905935 3.24633 1.06583 3.28964 1.23087 3.29583C1.39334 3.30202 1.55323 3.27108 1.70797 3.19993C1.8627 3.13188 2.00196 3.02979 2.12317 2.89677C2.13348 2.88749 2.1438 2.87512 2.15153 2.86275L2.30111 2.68023C2.41974 2.53793 2.51 2.37398 2.57447 2.18837C2.63894 2.00276 2.66989 1.80787 2.66989 1.6068C2.66989 1.40573 2.63894 1.21393 2.57447 1.02832C2.51 0.842715 2.41716 0.678761 2.30111 0.536462C2.18248 0.394162 2.0458 0.282798 1.89107 0.205462C1.73376 0.131218 1.57386 0.0910034 1.40624 0.0910034C1.23861 0.0910034 1.07614 0.128124 0.921408 0.205462C0.766675 0.282798 0.629995 0.39107 0.511366 0.533369Z" fill="white"/>
</svg>
