<svg width="4" height="4" viewBox="0 0 4 4" fill="none" xmlns="http://www.w3.org/2000/svg">
<path d="M2.93828 0.807514L3.08785 0.986935C3.22969 1.14161 3.34058 1.32412 3.41795 1.53448C3.49789 1.74174 3.53916 1.96138 3.54431 2.19029C3.54947 2.4223 3.51852 2.64194 3.44889 2.85539C3.37927 3.07193 3.27611 3.26063 3.14459 3.42458C3.01049 3.58854 2.85575 3.71537 2.67781 3.80508C2.50245 3.89479 2.31677 3.9381 2.12593 3.9381C1.93509 3.9381 1.75199 3.8917 1.57405 3.80199C1.39868 3.71228 1.24395 3.58544 1.10985 3.42149L1.08406 3.39056L0.937065 3.20804C0.805543 3.05027 0.704966 2.86467 0.635336 2.6574C0.563127 2.45014 0.529602 2.2336 0.529602 2.01087C0.529602 1.78814 0.568285 1.5716 0.637915 1.36434C0.710124 1.16017 0.813279 0.977655 0.944802 0.816795C1.07632 0.659028 1.22848 0.538384 1.40126 0.451766C1.57405 0.36515 1.75199 0.321841 1.94025 0.321841C2.12593 0.318747 2.30645 0.362055 2.47924 0.445579C2.65202 0.529103 2.80417 0.649747 2.93828 0.807514Z" fill="white"/>
</svg>
