<svg width="4" height="5" viewBox="0 0 4 5" fill="none" xmlns="http://www.w3.org/2000/svg">
<path d="M1.22497 1.05944L1.07281 1.23886C0.938714 1.409 0.835558 1.60389 0.763349 1.82353C0.69372 2.04316 0.657615 2.26899 0.660194 2.50409C0.660194 2.73919 0.698877 2.96502 0.773665 3.18156C0.848452 3.3981 0.954187 3.58989 1.09345 3.75694C1.23013 3.92399 1.38744 4.05701 1.56796 4.14981C1.7459 4.24262 1.93416 4.29211 2.13016 4.2983C2.32615 4.30448 2.51441 4.26736 2.70009 4.18693C2.88319 4.10341 3.04566 3.98276 3.19008 3.825L3.21071 3.80334L3.36028 3.62083C3.48923 3.4476 3.58722 3.25271 3.65427 3.03617C3.72132 2.81653 3.75227 2.5938 3.74969 2.36179C3.74454 2.12978 3.70327 1.90705 3.62591 1.6936C3.55112 1.48015 3.44281 1.29145 3.30613 1.1275C3.16944 0.960452 3.01213 0.833621 2.83419 0.74391C2.65625 0.651106 2.47057 0.601611 2.27715 0.595423C2.08374 0.589237 1.89548 0.629451 1.71496 0.709881C1.53443 0.790311 1.37196 0.907863 1.22755 1.06254L1.22497 1.05944Z" fill="white"/>
</svg>
