<svg width="4" height="5" viewBox="0 0 4 5" fill="none" xmlns="http://www.w3.org/2000/svg">
<path d="M3.31241 3.62845L3.15768 3.80787C3.03389 3.94398 2.89463 4.04916 2.73732 4.12031C2.58001 4.19146 2.41754 4.22549 2.24991 4.22239C2.08228 4.2193 1.91981 4.17599 1.76508 4.09866C1.61035 4.01823 1.47367 3.90686 1.35504 3.76456C1.23641 3.62226 1.14615 3.45831 1.0791 3.2727C1.01463 3.08709 0.978523 2.8953 0.975944 2.69422C0.973365 2.49315 0.999154 2.29826 1.06105 2.10956C1.12036 1.92086 1.20546 1.75072 1.32151 1.60533L1.46851 1.41972C1.58972 1.27123 1.72898 1.15677 1.88887 1.07325C2.04618 0.989726 2.21123 0.946418 2.38401 0.943324C2.5568 0.940231 2.72443 0.977352 2.88432 1.05469C3.04421 1.12893 3.18862 1.2403 3.31241 1.38569C3.4362 1.52799 3.53161 1.69504 3.60124 1.88683C3.6683 2.07553 3.7044 2.27351 3.70698 2.48077C3.70956 2.68804 3.68119 2.88911 3.61672 3.08091C3.55225 3.2727 3.46198 3.44594 3.34078 3.59442L3.31241 3.62845Z" fill="white"/>
</svg>
