<svg width="3" height="4" viewBox="0 0 3 4" fill="none" xmlns="http://www.w3.org/2000/svg">
<path d="M0.986162 2.58943L1.1409 2.76576C1.23373 2.87093 1.34205 2.94827 1.46068 3.00395C1.58188 3.05654 1.70567 3.08129 1.83204 3.0782C1.96098 3.0751 2.08219 3.04417 2.20082 2.98539C2.31686 2.92352 2.4226 2.84 2.51286 2.73173C2.60312 2.62346 2.67275 2.49972 2.72175 2.35742C2.77333 2.21512 2.79912 2.06973 2.80169 1.91505C2.80427 1.76347 2.78364 1.61499 2.7398 1.47269C2.69338 1.3273 2.62891 1.20046 2.54123 1.08601L2.39423 0.900397C2.30139 0.795219 2.19566 0.711696 2.07703 0.656014C1.9584 0.597238 1.83461 0.569397 1.70567 0.569397C1.57673 0.569397 1.45294 0.597238 1.33431 0.656014C1.21568 0.711696 1.10737 0.795219 1.01711 0.900397C0.924269 1.00557 0.849481 1.12931 0.797904 1.26852C0.743747 1.41082 0.71538 1.55621 0.707643 1.71088C0.702485 1.86556 0.720538 2.01404 0.764379 2.15944C0.805641 2.30483 0.870113 2.43476 0.952637 2.55231C0.962953 2.56468 0.975847 2.58015 0.986162 2.58943Z" fill="white"/>
</svg>
