<svg width="5" height="5" viewBox="0 0 5 5" fill="none" xmlns="http://www.w3.org/2000/svg">
<path d="M1.06375 3.491L1.21332 3.67042C1.37321 3.86222 1.55374 4.00761 1.76263 4.1097C1.96894 4.21178 2.18298 4.26437 2.40735 4.26437C2.63171 4.26437 2.84576 4.21178 3.05207 4.1097C3.25838 4.00761 3.44148 3.86222 3.59879 3.67042C3.75868 3.48172 3.87989 3.26209 3.96499 3.01461C4.05009 2.76713 4.09393 2.51038 4.09393 2.24124C4.09393 1.97211 4.05009 1.71536 3.96499 1.46788C3.87989 1.21731 3.75868 1.00077 3.59879 0.808971L3.44921 0.629551C3.2919 0.437756 3.1088 0.292364 2.90249 0.187186C2.69618 0.0820082 2.48213 0.0294189 2.25777 0.0294189C2.03341 0.0294189 1.81936 0.0789145 1.61047 0.180999C1.40416 0.283083 1.22106 0.428476 1.06375 0.617177C0.903858 0.805878 0.780072 1.02242 0.694969 1.2699C0.607287 1.51737 0.563446 1.77413 0.563446 2.04326C0.563446 2.31239 0.604708 2.56915 0.689811 2.81972C0.774915 3.0672 0.893543 3.28684 1.05085 3.47863L1.06375 3.491Z" fill="white"/>
</svg>
