<svg width="3" height="5" viewBox="0 0 3 5" fill="none" xmlns="http://www.w3.org/2000/svg">
<path d="M0.482704 3.39719L0.634858 3.57971C0.763802 3.73438 0.913378 3.85502 1.08358 3.93855C1.25121 4.02207 1.42915 4.06538 1.61225 4.06538C1.79535 4.06229 1.97072 4.02207 2.14092 3.93855C2.30855 3.85193 2.45813 3.73438 2.58965 3.57661C2.71859 3.42194 2.81917 3.24252 2.8888 3.04144C2.95843 2.83727 2.99453 2.62692 2.99453 2.40419C2.99453 2.18455 2.95843 1.9742 2.8888 1.77003C2.81917 1.56895 2.72117 1.38953 2.58965 1.23177L2.44007 1.05235C2.31113 0.89458 2.16156 0.773934 1.99135 0.690411C1.82114 0.603794 1.64578 0.560486 1.46268 0.560486C1.27958 0.560486 1.10164 0.600701 0.93143 0.684224C0.761223 0.767748 0.611648 0.888393 0.482704 1.04307C0.351181 1.19774 0.250605 1.37716 0.180975 1.58133C0.111345 1.7824 0.0752411 1.99585 0.0726624 2.21549C0.0726624 2.43512 0.108767 2.64857 0.178396 2.84965C0.248026 3.05382 0.346024 3.23324 0.474968 3.391L0.482704 3.39719Z" fill="white"/>
</svg>
