<svg width="4" height="5" viewBox="0 0 4 5" fill="none" xmlns="http://www.w3.org/2000/svg">
<path d="M3.46103 3.64274L3.30887 3.82526C3.15672 4.00777 2.98135 4.14698 2.78278 4.24597C2.58421 4.34496 2.3779 4.39446 2.16127 4.39446C1.94722 4.39446 1.73833 4.34496 1.53976 4.24597C1.34119 4.14698 1.16582 4.00468 1.01367 3.82216C0.861515 3.63965 0.745465 3.4293 0.66294 3.1911C0.580416 2.9529 0.539154 2.70543 0.539154 2.44557C0.539154 2.18882 0.577837 1.94134 0.660361 1.70005C0.742886 1.46185 0.858936 1.2515 1.01109 1.06898L1.16324 0.886469C1.3154 0.703955 1.49076 0.564749 1.68933 0.462665C1.88791 0.363674 2.0968 0.314178 2.31085 0.314178C2.52747 0.314178 2.73378 0.363674 2.93236 0.462665C3.13351 0.558561 3.30887 0.700861 3.46103 0.883376C3.61318 1.06589 3.73181 1.27625 3.81433 1.51444C3.89686 1.75264 3.93812 2.00012 3.93812 2.25997C3.9407 2.51672 3.89944 2.76729 3.81691 3.00549C3.73439 3.24369 3.61834 3.45714 3.46618 3.63965L3.46103 3.64274Z" fill="white"/>
</svg>
