<svg width="3" height="3" viewBox="0 0 3 3" fill="none" xmlns="http://www.w3.org/2000/svg">
<path d="M1.63462 0.753813L1.78936 0.930141C1.87962 1.03223 1.94667 1.14668 1.99825 1.2797C2.04725 1.41272 2.07303 1.55193 2.07561 1.70041C2.08077 1.84581 2.06014 1.98501 2.0163 2.12112C1.97246 2.25724 1.90799 2.37788 1.82546 2.48615C1.74294 2.59133 1.64494 2.67176 1.53405 2.73363C1.42316 2.79241 1.30711 2.82334 1.1859 2.82643C1.06211 2.82953 0.946064 2.80478 0.832593 2.75219C0.719122 2.70269 0.618546 2.62536 0.530864 2.52327L0.497339 2.48306L0.350342 2.29745C0.205925 2.07782 0.138874 1.83343 0.151769 1.55502C0.164663 1.27661 0.254924 1.04151 0.417393 0.843524C0.582442 0.648636 0.778437 0.543458 1.01054 0.527991C1.24006 0.50943 1.44637 0.58986 1.62689 0.763094L1.63462 0.753813Z" fill="white"/>
</svg>
