<svg width="3" height="4" viewBox="0 0 3 4" fill="none" xmlns="http://www.w3.org/2000/svg">
<path d="M2.15418 0.880187L2.30891 1.05342C2.40691 1.16169 2.4817 1.28852 2.53585 1.43392C2.59001 1.57931 2.61838 1.7278 2.62353 1.88866C2.62611 2.04642 2.60548 2.198 2.55906 2.34649C2.51264 2.49497 2.44301 2.62799 2.35275 2.74245C2.26249 2.85691 2.15676 2.94971 2.03813 3.01468C1.91692 3.07964 1.79056 3.11367 1.65903 3.11985C1.52751 3.12604 1.39857 3.10129 1.27478 3.04561C1.15099 2.98993 1.04268 2.9095 0.944683 2.80123L0.898263 2.74554L0.753846 2.55994C0.666164 2.44857 0.601692 2.31865 0.555272 2.17635C0.511431 2.03095 0.4908 1.88247 0.493379 1.73089C0.495958 1.57622 0.521747 1.43082 0.573324 1.28852C0.622323 1.14932 0.691953 1.02249 0.782214 0.914215C0.872475 0.805943 0.978209 0.72242 1.09426 0.663644C1.21289 0.601775 1.33409 0.57084 1.46304 0.567747C1.5894 0.564654 1.71319 0.589401 1.8344 0.645083C1.95302 0.697673 2.05876 0.775009 2.15418 0.880187Z" fill="white"/>
</svg>
