<svg width="2" height="3" viewBox="0 0 2 3" fill="none" xmlns="http://www.w3.org/2000/svg">
<path d="M0.430203 2.17536L0.587515 2.34859C0.724195 2.47852 0.878928 2.54039 1.05171 2.52801C1.22708 2.51873 1.37665 2.4383 1.50044 2.29291C1.62422 2.14442 1.69128 1.965 1.70417 1.75774C1.71449 1.54739 1.66549 1.36178 1.55717 1.19783L1.41534 1.00603C1.35344 0.922507 1.27865 0.857544 1.19355 0.808049C1.11103 0.761647 1.02077 0.733805 0.927927 0.727619C0.835087 0.724525 0.744826 0.739993 0.657145 0.777114C0.569462 0.817329 0.489517 0.873012 0.422466 0.950348C0.352836 1.02459 0.29868 1.1143 0.259997 1.21639C0.221314 1.31847 0.200683 1.42365 0.198104 1.53501C0.195525 1.64947 0.20842 1.75774 0.241945 1.85983C0.27547 1.965 0.324468 2.05781 0.388941 2.14133L0.430203 2.17536Z" fill="white"/>
</svg>
