<svg width="5" height="5" viewBox="0 0 5 5" fill="none" xmlns="http://www.w3.org/2000/svg">
<path d="M3.97028 3.95651L3.81812 4.13903C3.66081 4.32773 3.47771 4.47622 3.2714 4.5783C3.06509 4.68038 2.85104 4.73297 2.62668 4.73297C2.40232 4.73297 2.18827 4.68038 1.98196 4.5783C1.77307 4.47622 1.59255 4.32773 1.43266 4.13903C1.27535 3.95033 1.15414 3.73069 1.06904 3.48321C0.981356 3.23574 0.940094 2.97589 0.940094 2.70985C0.940094 2.44072 0.981356 2.18087 1.06904 1.93339C1.15414 1.68591 1.27535 1.46628 1.43266 1.27758L1.58481 1.09506C1.74213 0.90636 1.92523 0.757874 2.13154 0.65579C2.33785 0.550613 2.55189 0.498023 2.77626 0.498023C2.99804 0.49493 3.21467 0.547519 3.42098 0.64651C3.62729 0.748594 3.81039 0.893987 3.97028 1.08269C4.13017 1.27139 4.25138 1.49102 4.33906 1.7385C4.42416 1.98598 4.468 2.24274 4.47058 2.51187C4.47058 2.781 4.42932 3.03776 4.34422 3.28523C4.25911 3.5358 4.13791 3.75544 3.98059 3.94414L3.97028 3.95651Z" fill="white"/>
</svg>
