<svg width="4" height="5" viewBox="0 0 4 5" fill="none" xmlns="http://www.w3.org/2000/svg">
<path d="M3.06919 3.8645L2.91962 4.04392C2.76746 4.20478 2.59468 4.32233 2.40384 4.40276C2.21558 4.48629 2.01959 4.52031 1.81844 4.51413C1.6147 4.50485 1.42129 4.45226 1.23819 4.35636C1.05251 4.26046 0.887459 4.12744 0.745621 3.9573C0.601204 3.78716 0.490312 3.58918 0.407788 3.36955C0.327842 3.14682 0.284002 2.91481 0.276265 2.67352C0.268528 2.43223 0.296895 2.19712 0.363947 1.96821C0.430997 1.73929 0.528996 1.53203 0.660518 1.34952L0.812672 1.167C0.959669 0.981394 1.13245 0.836 1.32845 0.733916C1.52702 0.628738 1.73075 0.57615 1.9448 0.573056C2.16143 0.56687 2.36774 0.613271 2.56631 0.709169C2.76488 0.805065 2.94025 0.944272 3.09498 1.12679C3.24714 1.30621 3.36318 1.51656 3.44571 1.75476C3.52823 1.99296 3.56692 2.24043 3.56692 2.49719C3.56434 2.75395 3.52308 3.00142 3.43797 3.23962C3.35545 3.47472 3.23424 3.68508 3.07951 3.8645H3.06919Z" fill="white"/>
</svg>
