<svg width="3" height="4" viewBox="0 0 3 4" fill="none" xmlns="http://www.w3.org/2000/svg">
<path d="M2.57223 3.18417L2.4175 3.3636C2.29629 3.50899 2.15445 3.62345 1.99456 3.70388C1.83467 3.78121 1.66705 3.82143 1.49426 3.82143C1.32148 3.82143 1.15385 3.78121 0.993957 3.70388C0.834066 3.62345 0.692228 3.50899 0.571021 3.3636C0.447235 3.21511 0.354394 3.04497 0.287344 2.85317C0.220293 2.66138 0.186768 2.4634 0.186768 2.25304C0.186768 2.04578 0.220293 1.8447 0.287344 1.65291C0.354394 1.46112 0.447235 1.29407 0.571021 1.14558L0.720596 0.963068C0.839224 0.802208 0.978484 0.67847 1.13837 0.585666C1.30084 0.495956 1.47105 0.44646 1.64899 0.440273C1.82694 0.430993 1.99972 0.465021 2.16477 0.542358C2.3324 0.619694 2.47939 0.731059 2.60576 0.879545C2.7347 1.02803 2.8327 1.20126 2.90233 1.39615C2.97196 1.59413 3.00806 1.7983 3.00806 2.01485C3.00548 2.22829 2.97196 2.43246 2.90233 2.62735C2.8327 2.82533 2.73212 2.99857 2.60318 3.14396L2.57223 3.18417Z" fill="white"/>
</svg>
