<svg width="4" height="4" viewBox="0 0 4 4" fill="none" xmlns="http://www.w3.org/2000/svg">
<path d="M2.65221 3.19876L2.50264 3.37508C2.37885 3.51429 2.23959 3.62256 2.0797 3.6968C1.92239 3.77105 1.75992 3.80817 1.58971 3.80507C1.42209 3.80198 1.25704 3.76177 1.10231 3.68134C0.944994 3.604 0.808313 3.49264 0.687106 3.34724C0.568478 3.20494 0.475637 3.0379 0.411166 2.85229C0.344114 2.66359 0.310589 2.4687 0.30801 2.26762C0.305431 2.06346 0.336378 1.86857 0.398271 1.67677C0.460164 1.48807 0.550425 1.32102 0.666475 1.17254L0.813471 0.993117C0.934678 0.847724 1.07394 0.733267 1.23125 0.652837C1.38856 0.5755 1.55361 0.532191 1.72382 0.532191C1.89402 0.529097 2.05907 0.56622 2.21896 0.643556C2.37627 0.717799 2.51811 0.829164 2.6419 0.971463C2.7631 1.11376 2.85852 1.28081 2.92815 1.46642C2.9952 1.65512 3.03131 1.8531 3.03647 2.05727C3.03904 2.26144 3.01068 2.45942 2.94878 2.65121C2.88689 2.84301 2.79921 3.01315 2.68058 3.16163L2.65221 3.19876Z" fill="white"/>
</svg>
