<svg width="4" height="4" viewBox="0 0 4 4" fill="none" xmlns="http://www.w3.org/2000/svg">
<path d="M1.29185 3.18894L1.44401 3.36836C1.54974 3.48592 1.66837 3.57253 1.80247 3.63131C1.93657 3.69318 2.07583 3.72102 2.21767 3.71483C2.35951 3.71174 2.49619 3.67771 2.62771 3.60965C2.75924 3.5416 2.87528 3.44879 2.97586 3.32506C3.07902 3.20441 3.15638 3.0652 3.21312 2.90744C3.26985 2.74967 3.29822 2.58572 3.3008 2.41558C3.30596 2.24544 3.28275 2.07839 3.23117 1.91753C3.18217 1.75667 3.10996 1.61437 3.01197 1.48754L2.86497 1.30193C2.76181 1.1751 2.64319 1.07611 2.5065 1.00496C2.3724 0.933808 2.23056 0.893593 2.08357 0.8905C1.93399 0.887407 1.79215 0.918342 1.6529 0.983304C1.51621 1.04827 1.39501 1.14107 1.28669 1.26481C1.18096 1.38545 1.09844 1.53085 1.03912 1.69171C0.979807 1.85566 0.94886 2.0258 0.946282 2.20213C0.943703 2.37846 0.969491 2.55169 1.02365 2.71564C1.0778 2.8796 1.15517 3.02808 1.25833 3.15491L1.29185 3.18894Z" fill="white"/>
</svg>
