<svg width="3" height="3" viewBox="0 0 3 3" fill="none" xmlns="http://www.w3.org/2000/svg">
<path d="M1.62899 0.460849L1.78372 0.637177C1.86882 0.726887 1.93845 0.832065 1.98745 0.955803C2.03903 1.07954 2.06739 1.20947 2.07255 1.34558C2.08029 1.48169 2.06224 1.61471 2.02355 1.74464C1.98229 1.87147 1.92556 1.98593 1.84561 2.08492C1.76824 2.187 1.67541 2.26434 1.56967 2.31693C1.46652 2.37261 1.35562 2.40045 1.24215 2.40045C1.12868 2.40045 1.01779 2.37261 0.912056 2.32002C0.806323 2.26743 0.716062 2.19009 0.636116 2.0911L0.60517 2.05089L0.455595 1.86528C0.380807 1.77248 0.324072 1.66421 0.285388 1.54356C0.244126 1.42292 0.226074 1.29918 0.226074 1.16925C0.228654 1.03933 0.249284 0.912495 0.290546 0.79185C0.334387 0.674298 0.393702 0.566028 0.468489 0.476317C0.545856 0.383513 0.633537 0.312363 0.734114 0.262868C0.83469 0.210279 0.937846 0.185531 1.04616 0.185531C1.15447 0.182437 1.26021 0.207185 1.36078 0.253587C1.46136 0.303083 1.55162 0.371139 1.62899 0.460849Z" fill="white"/>
</svg>
