<svg width="4" height="5" viewBox="0 0 4 5" fill="none" xmlns="http://www.w3.org/2000/svg">
<path d="M0.815712 0.68646L0.663558 0.865881C0.495931 1.06386 0.369566 1.28969 0.276726 1.54954C0.186466 1.80939 0.140045 2.07852 0.140045 2.36002C0.140045 2.63843 0.181307 2.91066 0.271568 3.17051C0.35925 3.43036 0.485615 3.65928 0.650664 3.85726C0.815712 4.05833 1.00655 4.21301 1.22318 4.32128C1.43722 4.42955 1.66416 4.48214 1.89626 4.48523C2.13094 4.48523 2.3553 4.43264 2.57193 4.32747C2.78856 4.21919 2.97939 4.06761 3.14702 3.86963L3.15734 3.85726L3.30691 3.67474C3.46422 3.47676 3.58285 3.24785 3.66537 2.99109C3.7479 2.73433 3.78916 2.4683 3.784 2.19298C3.78142 1.92075 3.735 1.65471 3.64474 1.40414C3.55706 1.15048 3.4307 0.924657 3.26823 0.732862C3.10576 0.537975 2.92008 0.386394 2.70861 0.278123C2.49714 0.172945 2.27794 0.117264 2.04842 0.111076C1.82148 0.107983 1.59969 0.154385 1.38564 0.256469C1.1716 0.35546 0.98076 0.497759 0.815712 0.68646Z" fill="white"/>
</svg>
