<svg width="5" height="6" viewBox="0 0 5 6" fill="none" xmlns="http://www.w3.org/2000/svg">
<path d="M1.51614 1.32393L1.36656 1.50644C1.20409 1.70133 1.0803 1.92406 0.992622 2.17772C0.904941 2.42829 0.858521 2.69433 0.858521 2.96656C0.858521 3.24188 0.902362 3.50482 0.990043 3.75848C1.07515 4.01215 1.20151 4.23488 1.3614 4.42976C1.52387 4.62465 1.70955 4.77314 1.92102 4.87832C2.12991 4.98349 2.35169 5.03608 2.57863 5.03608C2.80815 5.03918 3.02736 4.98659 3.23883 4.88141C3.4503 4.77623 3.63597 4.62775 3.79844 4.43595L3.9506 4.25344C4.11049 4.05855 4.23427 3.83582 4.32196 3.58216C4.40964 3.33159 4.45348 3.06864 4.45348 2.79332C4.45348 2.5211 4.40964 2.25815 4.32196 2.00449C4.23685 1.75083 4.11307 1.5281 3.9506 1.33321C3.79071 1.14141 3.60503 0.989835 3.39356 0.884656C3.18209 0.779478 2.96289 0.72689 2.73595 0.72689C2.50643 0.723797 2.28722 0.776385 2.07575 0.881563C1.86686 0.983647 1.6786 1.13213 1.51614 1.32393Z" fill="white"/>
</svg>
