<svg width="4" height="5" viewBox="0 0 4 5" fill="none" xmlns="http://www.w3.org/2000/svg">
<path d="M3.56207 3.4871L3.40992 3.66652C3.27066 3.83357 3.10819 3.96349 2.92509 4.0563C2.74199 4.14601 2.55115 4.19241 2.35258 4.19241C2.154 4.19241 1.96059 4.14601 1.77749 4.0563C1.59439 3.96349 1.43192 3.83357 1.29266 3.66652C1.15082 3.49638 1.04251 3.30458 0.967719 3.08185C0.890352 2.86222 0.854248 2.6333 0.854248 2.39511C0.854248 2.15691 0.890352 1.92799 0.967719 1.70836C1.04251 1.48872 1.15082 1.29383 1.29266 1.12369L1.44223 0.944272C1.58149 0.774133 1.74138 0.641113 1.92448 0.548309C2.11016 0.458599 2.301 0.409103 2.49957 0.409103C2.69815 0.409103 2.88898 0.452412 3.07209 0.542122C3.25776 0.631832 3.42023 0.761759 3.56207 0.928805C3.70133 1.09585 3.81222 1.29074 3.88959 1.51038C3.96696 1.73001 4.00564 1.95893 4.00564 2.19712C4.00822 2.43532 3.96954 2.66424 3.89475 2.88697C3.81996 3.1066 3.71165 3.30149 3.57239 3.47163L3.56207 3.4871Z" fill="white"/>
</svg>
