<svg width="4" height="5" viewBox="0 0 4 5" fill="none" xmlns="http://www.w3.org/2000/svg">
<path d="M2.72531 3.59188L2.57058 3.7713C2.42616 3.92907 2.26369 4.05281 2.07801 4.13633C1.89491 4.21985 1.70408 4.26007 1.50808 4.25698C1.31209 4.25079 1.12383 4.20129 0.940727 4.11158C0.760205 4.01878 0.600314 3.88885 0.461055 3.72181C0.321795 3.55476 0.213483 3.36296 0.136116 3.14642C0.0587499 2.92679 0.0200667 2.70096 0.0149086 2.46586C0.0123299 2.23076 0.0458557 2.00184 0.115485 1.77911C0.185115 1.55948 0.28827 1.3615 0.419793 1.18826L0.569368 1.00575C0.711207 0.832513 0.873676 0.696401 1.06193 0.600503C1.24761 0.507699 1.44103 0.458204 1.64218 0.455111C1.84591 0.452017 2.03933 0.495326 2.22759 0.585036C2.41585 0.674746 2.58347 0.804672 2.72789 0.974812C2.87231 1.14495 2.9832 1.33984 3.06315 1.56257C3.14309 1.78839 3.18435 2.0204 3.18693 2.26169C3.18951 2.50608 3.15341 2.73809 3.07862 2.96391C3.00125 3.18973 2.89294 3.38771 2.75368 3.56404L2.72531 3.59188Z" fill="white"/>
</svg>
