<svg width="4" height="5" viewBox="0 0 4 5" fill="none" xmlns="http://www.w3.org/2000/svg">
<path d="M0.771707 3.80543L0.921282 3.98485C1.06312 4.15499 1.22559 4.28492 1.41127 4.37772C1.59695 4.46743 1.78779 4.51383 1.98894 4.51383C2.18751 4.51383 2.38093 4.46743 2.56403 4.37772C2.74971 4.28492 2.91218 4.15499 3.05402 3.98485C3.19585 3.81471 3.30417 3.61982 3.38153 3.39709C3.45632 3.17746 3.495 2.94545 3.495 2.70725C3.495 2.46596 3.45632 2.23395 3.38153 2.01432C3.30417 1.79159 3.19585 1.5967 3.05402 1.42656L2.90444 1.24714C2.76518 1.0739 2.60271 0.940886 2.41961 0.848081C2.23651 0.755278 2.0431 0.705782 1.84452 0.705782C1.64337 0.702689 1.45253 0.745997 1.26685 0.835708C1.08117 0.925419 0.918703 1.05534 0.774286 1.22239C0.632448 1.38944 0.521556 1.58433 0.444189 1.80396C0.366823 2.02669 0.328139 2.25561 0.32556 2.4969C0.322982 2.73509 0.361664 2.9671 0.436452 3.18674C0.51124 3.40947 0.616974 3.60745 0.758812 3.77759L0.771707 3.80543Z" fill="white"/>
</svg>
