<svg width="4" height="5" viewBox="0 0 4 5" fill="none" xmlns="http://www.w3.org/2000/svg">
<path d="M3.16042 3.42329L3.00568 3.59962C2.89479 3.73264 2.76585 3.83781 2.61885 3.90896C2.47186 3.98011 2.3197 4.01724 2.16239 4.01724C2.00508 4.01724 1.85292 3.98011 1.70851 3.90896C1.56151 3.83472 1.43257 3.73264 1.32168 3.59962C1.2082 3.46351 1.1231 3.30883 1.06379 3.1356C1.00189 2.95927 0.970947 2.77676 0.970947 2.58806C0.970947 2.39935 1.00189 2.21684 1.06121 2.04051C1.1231 1.86728 1.2082 1.71261 1.3191 1.57649L1.46609 1.39089C1.57698 1.25787 1.70593 1.15269 1.85035 1.08154C1.99476 1.0073 2.14434 0.970176 2.30165 0.967082C2.45896 0.963989 2.61112 0.998017 2.75553 1.06607C2.90253 1.13722 3.03147 1.23621 3.14494 1.36614C3.25841 1.49606 3.34868 1.64764 3.41057 1.82088C3.47504 1.99411 3.50857 2.17353 3.51372 2.36223C3.51888 2.55093 3.49309 2.73345 3.43894 2.90978C3.3822 3.0861 3.30225 3.24078 3.19652 3.37998L3.16042 3.42329Z" fill="white"/>
</svg>
