<svg width="4" height="4" viewBox="0 0 4 4" fill="none" xmlns="http://www.w3.org/2000/svg">
<path d="M0.721927 3.04229L0.871502 3.22172C1.00818 3.38258 1.16549 3.50941 1.34086 3.59602C1.5188 3.68264 1.7019 3.72904 1.89274 3.72904C2.08615 3.72904 2.26925 3.68264 2.4472 3.59602C2.62256 3.50941 2.77987 3.38258 2.91398 3.22172C3.05066 3.05776 3.15381 2.87215 3.2286 2.65871C3.30081 2.44526 3.33691 2.22562 3.33691 1.9967C3.33691 1.76469 3.30081 1.54506 3.2286 1.33161C3.15381 1.12125 3.05066 0.932553 2.91398 0.771693L2.7644 0.589179C2.63288 0.415945 2.47814 0.27674 2.3002 0.180842C2.11968 0.0818513 1.93142 0.0292626 1.73543 0.019982C1.53943 0.0137955 1.3486 0.0540101 1.16549 0.140627C0.982394 0.227244 0.819925 0.350983 0.680665 0.518029C0.541406 0.681984 0.433092 0.873777 0.355726 1.09032C0.280938 1.30996 0.244834 1.53578 0.247413 1.77398C0.247413 2.00908 0.288675 2.2349 0.36862 2.45144C0.445987 2.66799 0.556878 2.85669 0.698717 3.01755L0.721927 3.04229Z" fill="white"/>
</svg>
