<svg width="4" height="4" viewBox="0 0 4 4" fill="none" xmlns="http://www.w3.org/2000/svg">
<path d="M1.07312 0.696355L0.920966 0.872682C0.789444 1.02426 0.688867 1.20059 0.616658 1.39857C0.544449 1.59965 0.508345 1.80691 0.505766 2.02345C0.500609 2.23999 0.534134 2.45035 0.601185 2.65142C0.665657 2.85559 0.763655 3.03501 0.890019 3.18969C1.01381 3.34436 1.1608 3.4681 1.32843 3.55471C1.49348 3.63824 1.66626 3.68464 1.84936 3.68773C2.02988 3.69083 2.20267 3.65371 2.37288 3.57327C2.5405 3.49284 2.69008 3.37839 2.81902 3.22681L2.84997 3.18659L2.99696 3.00717C3.10528 2.8494 3.1878 2.67617 3.24196 2.48128C3.29611 2.28949 3.31932 2.08841 3.31159 1.88734C3.30385 1.68317 3.26517 1.48828 3.19812 1.29958C3.12849 1.11397 3.03307 0.950019 2.91444 0.804626C2.79323 0.659234 2.65655 0.547868 2.49924 0.464345C2.34451 0.383914 2.18204 0.337513 2.01183 0.328232C1.84163 0.318952 1.67658 0.346793 1.51669 0.411756C1.35422 0.476718 1.2098 0.57571 1.07828 0.705635L1.07312 0.696355Z" fill="white"/>
</svg>
