<svg width="4" height="5" viewBox="0 0 4 5" fill="none" xmlns="http://www.w3.org/2000/svg">
<path d="M0.662143 1.1588L0.512568 1.33822C0.383625 1.50836 0.288206 1.70325 0.221155 1.91979C0.156683 2.13324 0.125737 2.35597 0.130894 2.58798C0.136052 2.8169 0.177314 3.03653 0.252101 3.24689C0.329468 3.46033 0.432623 3.64594 0.569304 3.8099C0.703406 3.97076 0.858138 4.10068 1.0335 4.19039C1.20887 4.2832 1.39197 4.33269 1.58538 4.34197C1.77622 4.34816 1.9619 4.31413 2.14242 4.23679C2.32294 4.15946 2.48541 4.045 2.62725 3.89342L2.78972 3.69853C2.93156 3.52839 3.03987 3.3335 3.11466 3.11077C3.19202 2.89114 3.22813 2.65913 3.22813 2.42093C3.22813 2.17964 3.18945 1.95073 3.11466 1.728C3.03729 1.50836 2.92898 1.31347 2.78714 1.14333C2.6453 0.973191 2.48283 0.843266 2.29973 0.753555C2.11405 0.660752 1.92322 0.614349 1.72464 0.614349C1.52349 0.614349 1.33265 0.660752 1.14697 0.750462C0.963872 0.840172 0.798824 0.973191 0.659565 1.14024L0.662143 1.1588Z" fill="white"/>
</svg>
