<svg width="3" height="4" viewBox="0 0 3 4" fill="none" xmlns="http://www.w3.org/2000/svg">
<path d="M0.894713 2.94875L1.04945 3.12507C1.14744 3.23644 1.26091 3.32306 1.38728 3.38492C1.51364 3.4437 1.64517 3.47464 1.78185 3.47154C1.91595 3.47154 2.04747 3.43751 2.17384 3.37564C2.3002 3.31378 2.41109 3.22407 2.50651 3.10651C2.60193 2.99206 2.67672 2.85904 2.73088 2.70746C2.78245 2.55897 2.81082 2.4012 2.81082 2.23725C2.8134 2.0733 2.78761 1.91553 2.73861 1.76395C2.68703 1.61237 2.61483 1.47935 2.51941 1.35871L2.37241 1.1731C2.27957 1.04936 2.16868 0.95037 2.03974 0.87922C1.91337 0.811164 1.77927 0.770949 1.63743 0.764762C1.49817 0.758575 1.36149 0.786416 1.22997 0.845192C1.09844 0.903968 0.982395 0.990585 0.881818 1.10814C0.778663 1.2226 0.698718 1.35871 0.641982 1.51338C0.585247 1.66805 0.556879 1.82891 0.5543 1.99596C0.551722 2.1661 0.574932 2.32696 0.629088 2.48473C0.680666 2.64249 0.755453 2.77861 0.853451 2.89925L0.894713 2.94875Z" fill="white"/>
</svg>
