<svg width="4" height="4" viewBox="0 0 4 4" fill="none" xmlns="http://www.w3.org/2000/svg">
<path d="M1.35179 0.810565L1.19963 0.986892C1.10163 1.10754 1.02943 1.24674 0.977849 1.40142C0.923692 1.55609 0.900482 1.72004 0.900482 1.88709C0.900482 2.05414 0.926271 2.215 0.977849 2.36967C1.032 2.52744 1.10679 2.66355 1.20221 2.78419C1.30021 2.90484 1.4111 3.00074 1.54004 3.06879C1.66641 3.13994 1.80051 3.17706 1.93977 3.18325C2.07903 3.18944 2.21571 3.16469 2.34723 3.10901C2.47876 3.05332 2.59739 2.9698 2.70054 2.85844C2.71086 2.84916 2.72117 2.83678 2.73149 2.82441L2.87848 2.6388C2.97906 2.51816 3.05643 2.37895 3.11316 2.22118C3.16732 2.06032 3.19569 1.89637 3.19569 1.72314C3.19569 1.553 3.16732 1.38904 3.11316 1.22818C3.05643 1.07042 2.97906 0.93121 2.87848 0.810565C2.77791 0.686826 2.66186 0.594022 2.52776 0.52906C2.39623 0.464097 2.25955 0.430069 2.11513 0.430069C1.9733 0.430069 1.83404 0.464097 1.70251 0.52906C1.57099 0.594022 1.45236 0.686826 1.35179 0.810565Z" fill="white"/>
</svg>
