<svg width="4" height="5" viewBox="0 0 4 5" fill="none" xmlns="http://www.w3.org/2000/svg">
<path d="M0.917346 1.13811L0.765192 1.31753C0.628511 1.48148 0.520199 1.66709 0.445411 1.88054C0.370624 2.09399 0.329362 2.31672 0.329362 2.54873C0.326783 2.78074 0.360308 3.00346 0.432517 3.22001C0.504726 3.43346 0.610459 3.62525 0.744561 3.7892C0.881242 3.95625 1.03598 4.08308 1.21392 4.17589C1.39186 4.2656 1.57754 4.312 1.77096 4.31509C1.96437 4.31819 2.15005 4.27488 2.33057 4.18826C2.5111 4.10164 2.66841 3.97481 2.80509 3.81395L2.82572 3.7892L2.97529 3.60669C3.11197 3.44274 3.21513 3.25403 3.28992 3.04059C3.36213 2.82714 3.40081 2.60441 3.40081 2.3724C3.40081 2.14039 3.36213 1.92075 3.28992 1.70421C3.21513 1.49076 3.10939 1.30206 2.97271 1.1412C2.83861 0.977246 2.6813 0.850415 2.50336 0.760704C2.32542 0.674087 2.13974 0.627686 1.94632 0.627686C1.7529 0.627686 1.56722 0.674087 1.38928 0.760704C1.21134 0.850415 1.05403 0.974154 0.917346 1.13811Z" fill="white"/>
</svg>
