<svg width="4" height="5" viewBox="0 0 4 5" fill="none" xmlns="http://www.w3.org/2000/svg">
<path d="M3.38881 1.3403L3.54096 1.51972C3.67764 1.68058 3.78338 1.86619 3.85817 2.07654C3.93295 2.2869 3.97164 2.50653 3.97422 2.73854C3.97679 2.96746 3.94327 3.1871 3.87106 3.40054C3.80143 3.61399 3.69828 3.80269 3.56417 3.96665C3.43007 4.1306 3.27534 4.26053 3.09998 4.35024C2.92461 4.43995 2.74151 4.48635 2.54809 4.48944C2.35726 4.49254 2.17416 4.44923 1.99621 4.3657C1.81827 4.27909 1.66096 4.15844 1.52428 3.99758L1.50107 3.96665L1.35149 3.78413C1.21739 3.62327 1.11424 3.43457 1.04203 3.22422C0.96982 3.01386 0.933716 2.79113 0.933716 2.56531C0.933716 2.33639 0.96982 2.11676 1.04461 1.90331C1.11682 1.69295 1.21997 1.50735 1.35407 1.34648C1.49075 1.18253 1.64549 1.05879 1.82085 0.972176C1.99621 0.882466 2.17932 0.839157 2.37015 0.839157C2.56099 0.839157 2.74409 0.882466 2.92203 0.969083C3.0974 1.0557 3.25213 1.17944 3.38881 1.3403Z" fill="white"/>
</svg>
