<svg width="4" height="4" viewBox="0 0 4 4" fill="none" xmlns="http://www.w3.org/2000/svg">
<path d="M0.77837 3.17622L0.933103 3.35564C1.05947 3.50722 1.20389 3.62477 1.36893 3.7052C1.53398 3.78872 1.70419 3.82894 1.88213 3.82894C2.06007 3.82894 2.23286 3.78872 2.39533 3.7052C2.56038 3.62477 2.70479 3.50722 2.83116 3.35564C2.95752 3.20406 3.05552 3.03082 3.12257 2.83284C3.1922 2.63486 3.22573 2.43069 3.22573 2.21724C3.22573 2.0038 3.1922 1.79653 3.12257 1.60165C3.05552 1.40366 2.95752 1.23043 2.83116 1.07885L2.68158 0.893242C2.5578 0.741663 2.41338 0.621018 2.25091 0.537494C2.08586 0.450877 1.91566 0.407568 1.73771 0.404475C1.55977 0.401381 1.38699 0.438503 1.22194 0.518933C1.05431 0.59627 0.907314 0.710728 0.780949 0.859214C0.652004 1.0077 0.551428 1.18093 0.481799 1.37892C0.412169 1.5738 0.373485 1.77797 0.370907 1.99451C0.368328 2.20796 0.399274 2.41523 0.466325 2.61321C0.533376 2.81119 0.626215 2.98752 0.752581 3.14219L0.77837 3.17622Z" fill="white"/>
</svg>
