<svg width="4" height="4" viewBox="0 0 4 4" fill="none" xmlns="http://www.w3.org/2000/svg">
<path d="M1.15972 0.605942L1.00757 0.782269C0.901831 0.902914 0.816728 1.04521 0.757414 1.20917C0.6981 1.37003 0.667153 1.54017 0.664574 1.7165C0.661996 1.89282 0.687784 2.06606 0.739362 2.23001C0.793518 2.39396 0.870885 2.54245 0.97404 2.66928C1.0772 2.79611 1.19582 2.8982 1.32993 2.96935C1.46661 3.0405 1.60587 3.07762 1.75544 3.08071C1.90244 3.08381 2.04428 3.05287 2.18353 2.98791C2.32022 2.92604 2.44142 2.83014 2.54974 2.7095L2.58326 2.66928L2.73026 2.48677C2.82568 2.35994 2.89788 2.21764 2.94946 2.05678C2.99846 1.89592 3.02167 1.72887 3.01909 1.55873C3.01651 1.38859 2.98557 1.22154 2.92883 1.06687C2.87468 0.909102 2.79473 0.769896 2.69415 0.646157C2.59358 0.525513 2.47753 0.432708 2.346 0.364652C2.21448 0.296596 2.0778 0.262568 1.93338 0.256381C1.79154 0.253288 1.65229 0.281129 1.52076 0.342998C1.38666 0.401774 1.26545 0.488391 1.15972 0.605942Z" fill="white"/>
</svg>
