<svg width="4" height="4" viewBox="0 0 4 4" fill="none" xmlns="http://www.w3.org/2000/svg">
<path d="M3.26231 3.27401L3.11016 3.45033C2.96832 3.62048 2.80585 3.7504 2.62275 3.8432C2.43707 3.93601 2.24366 3.98241 2.04508 3.98241C1.84393 3.98241 1.65309 3.93601 1.46741 3.8432C1.28431 3.7504 1.11926 3.62048 0.980005 3.45033C0.838167 3.28329 0.729854 3.08531 0.652488 2.86567C0.575122 2.64294 0.536438 2.41402 0.536438 2.17273C0.536438 1.93454 0.575122 1.70253 0.652488 1.4798C0.729854 1.26016 0.838167 1.06527 0.980005 0.895135L1.127 0.712621C1.26884 0.54248 1.42873 0.409461 1.61441 0.316657C1.79751 0.22076 1.98835 0.174358 2.1895 0.171265C2.38807 0.171265 2.58149 0.214573 2.76717 0.304284C2.95027 0.393994 3.11532 0.520826 3.25716 0.690966C3.399 0.858013 3.50989 1.0529 3.58725 1.27254C3.6672 1.49217 3.70588 1.72418 3.70846 1.96238C3.70846 2.20367 3.67236 2.43259 3.59757 2.65531C3.52278 2.87804 3.41447 3.07293 3.27521 3.24307L3.26231 3.27401Z" fill="white"/>
</svg>
