<svg width="3" height="4" viewBox="0 0 3 4" fill="none" xmlns="http://www.w3.org/2000/svg">
<path d="M0.908666 1.14338L0.756512 1.32281C0.673988 1.4187 0.606938 1.53007 0.560517 1.65381C0.514098 1.78064 0.490888 1.91366 0.488309 2.05286C0.48573 2.18897 0.503782 2.32199 0.545044 2.45192C0.586306 2.58184 0.6482 2.69321 0.728145 2.79529C0.80809 2.89428 0.898351 2.97162 1.00408 3.0273C1.10982 3.08299 1.22071 3.11392 1.33418 3.11701C1.45023 3.12011 1.56112 3.09536 1.66944 3.04586C1.77517 2.99637 1.87059 2.92522 1.95311 2.82932L1.98148 2.7922L2.12848 2.60969C2.211 2.51069 2.27289 2.39933 2.31674 2.2725C2.36058 2.14567 2.38121 2.01574 2.38121 1.87654C2.38121 1.74042 2.36058 1.6074 2.31674 1.48057C2.27289 1.35374 2.211 1.24238 2.13106 1.14648C2.04853 1.04749 1.95569 0.973244 1.84996 0.920655C1.74422 0.868066 1.63333 0.840225 1.51986 0.840225C1.40639 0.840225 1.2955 0.868066 1.18976 0.920655C1.08403 0.973244 0.99119 1.04749 0.908666 1.14338Z" fill="white"/>
</svg>
