<svg width="4" height="5" viewBox="0 0 4 5" fill="none" xmlns="http://www.w3.org/2000/svg">
<path d="M3.26795 4.13866L3.1158 4.31808C2.95075 4.48822 2.76507 4.61814 2.56134 4.70476C2.35503 4.79138 2.14356 4.8285 1.92693 4.81922C1.70773 4.80994 1.49884 4.75426 1.30027 4.64908C1.10169 4.5439 0.923749 4.39851 0.771596 4.2129C0.616862 4.02729 0.495656 3.81694 0.410552 3.57565C0.32287 3.33745 0.276451 3.08688 0.271293 2.82394C0.263556 2.56409 0.297082 2.31042 0.36929 2.06294C0.441499 1.81856 0.549812 1.59583 0.694229 1.40094L0.843804 1.21843C1.00369 1.02663 1.18937 0.875055 1.40084 0.769877C1.61231 0.667793 1.83152 0.615204 2.05846 0.615204C2.2854 0.615204 2.50718 0.6647 2.71607 0.769877C2.92754 0.875055 3.11322 1.02354 3.27569 1.21534C3.43558 1.41022 3.56194 1.63295 3.64705 1.88352C3.73473 2.13719 3.78115 2.40013 3.78115 2.67236C3.78115 2.94767 3.73731 3.21062 3.64963 3.46428C3.56452 3.71485 3.44074 3.94068 3.27827 4.13247L3.26795 4.13866Z" fill="white"/>
</svg>
