<svg width="3" height="3" viewBox="0 0 3 3" fill="none" xmlns="http://www.w3.org/2000/svg">
<path d="M1.98447 1.1834L2.13662 1.35973C2.26299 1.51131 2.32746 1.69382 2.32746 1.90727C2.33004 2.12072 2.27073 2.30633 2.14694 2.461C2.02573 2.61567 1.87616 2.6992 1.69821 2.70848C1.51769 2.71776 1.36296 2.65279 1.22886 2.5105C1.22112 2.50121 1.21338 2.48884 1.20307 2.47956L1.05607 2.29395C0.940023 2.13928 0.883288 1.95677 0.888445 1.74641C0.893602 1.53915 0.958075 1.35973 1.07928 1.21124C1.20307 1.06275 1.35264 0.985418 1.52801 0.979231C1.70337 0.976138 1.85553 1.0411 1.98447 1.1834Z" fill="white"/>
</svg>
