<svg width="4" height="5" viewBox="0 0 4 5" fill="none" xmlns="http://www.w3.org/2000/svg">
<path d="M0.817676 1.25646L0.662943 1.43588C0.515947 1.60911 0.399898 1.81328 0.319952 2.0422C0.240007 2.27112 0.198745 2.50931 0.196166 2.75679C0.193587 3.00736 0.23227 3.24556 0.309637 3.47757C0.387003 3.70957 0.497895 3.91374 0.644891 4.09007C0.789308 4.2664 0.956936 4.4056 1.14777 4.5015C1.34119 4.60049 1.53976 4.64999 1.74607 4.64999C1.95496 4.65308 2.15354 4.60668 2.34695 4.51388C2.53779 4.42107 2.708 4.28805 2.85757 4.11173L2.87562 4.09007L3.0252 3.90446C3.16446 3.72814 3.27019 3.52706 3.3424 3.29815C3.41461 3.07232 3.44813 2.83722 3.44556 2.59593C3.44298 2.35155 3.40171 2.11954 3.32177 1.89371C3.24182 1.67098 3.13093 1.473 2.98909 1.30286C2.84468 1.12963 2.67963 0.996609 2.49395 0.900712C2.30827 0.807908 2.11227 0.758413 1.91112 0.752225C1.70739 0.749132 1.51139 0.789347 1.32314 0.875964C1.13488 0.965674 0.964672 1.09251 0.817676 1.25646Z" fill="white"/>
</svg>
