<svg width="5" height="4" viewBox="0 0 5 4" fill="none" xmlns="http://www.w3.org/2000/svg">
<path d="M3.6317 3.117L3.48212 3.29952C3.34544 3.46347 3.18555 3.5903 3.00761 3.68001C2.82966 3.76972 2.6414 3.81303 2.44799 3.81303C2.25457 3.81303 2.06889 3.76972 1.88837 3.68001C1.71043 3.5903 1.55312 3.46347 1.41644 3.29952C1.27976 3.13556 1.17402 2.94686 1.09923 2.73032C1.02445 2.51687 0.988342 2.29414 0.988342 2.06213C0.988342 1.82703 1.02445 1.6043 1.09923 1.39085C1.17402 1.17431 1.27976 0.985608 1.41644 0.821655L1.56601 0.63914C1.70269 0.475187 1.86258 0.348355 2.04053 0.258644C2.21847 0.168933 2.40415 0.125626 2.60014 0.125626C2.79356 0.125626 2.97924 0.168933 3.15718 0.255551C3.3377 0.345261 3.49501 0.472094 3.6317 0.636047C3.77095 0.800001 3.87669 0.988702 3.9489 1.20215C4.02368 1.41869 4.06237 1.64142 4.06237 1.87343C4.06237 2.10544 4.02626 2.32817 3.95148 2.54471C3.87927 2.75816 3.77353 2.94996 3.63685 3.11391L3.6317 3.117Z" fill="white"/>
</svg>
