<svg width="3" height="3" viewBox="0 0 3 3" fill="none" xmlns="http://www.w3.org/2000/svg">
<path d="M1.95318 1.14101L2.10792 1.31733C2.18786 1.40704 2.24976 1.50913 2.29618 1.62668C2.34259 1.74423 2.36581 1.86797 2.37096 1.9979C2.37354 2.13091 2.35807 2.25465 2.31939 2.37839C2.2807 2.49904 2.22655 2.60731 2.15176 2.7032C2.07697 2.79601 1.99187 2.87025 1.89129 2.92593C1.79329 2.97852 1.69014 3.00636 1.58183 3.00946C1.47351 3.01255 1.36778 2.9909 1.2672 2.94449C1.16663 2.89809 1.07636 2.83004 0.996419 2.74033L0.960315 2.69392L0.813319 2.50832C0.743689 2.41551 0.692111 2.31034 0.656007 2.19588C0.619903 2.07833 0.601851 1.95768 0.604429 1.83394C0.607008 1.7102 0.627639 1.58956 0.668901 1.4751C0.710163 1.36064 0.766899 1.26165 0.839108 1.17194C0.913895 1.08532 0.996419 1.01727 1.09184 0.967772C1.18726 0.918277 1.28783 0.893529 1.39099 0.890435C1.49414 0.887342 1.59472 0.905903 1.69272 0.952305C1.78814 0.995614 1.87582 1.05748 1.95318 1.14101Z" fill="white"/>
</svg>
