<svg width="3" height="4" viewBox="0 0 3 4" fill="none" xmlns="http://www.w3.org/2000/svg">
<path d="M2.06891 0.857517L2.22107 1.03384C2.33196 1.16068 2.41706 1.30916 2.47895 1.47621C2.54085 1.64635 2.57437 1.82268 2.57695 2.00519C2.57953 2.18771 2.55374 2.36713 2.49701 2.53727C2.44027 2.70741 2.36032 2.85899 2.25459 2.99201C2.14628 3.12502 2.02507 3.22711 1.88323 3.30135C1.74397 3.3756 1.59698 3.41272 1.44224 3.41581C1.29009 3.4189 1.14309 3.38797 0.998676 3.31991C0.856837 3.25495 0.730472 3.15596 0.61958 3.02913L0.591213 2.98891L0.444216 2.8064C0.341061 2.67647 0.261116 2.52799 0.206959 2.36094C0.152803 2.1908 0.127014 2.01757 0.127014 1.83815C0.129594 1.65872 0.160539 1.48549 0.217275 1.32154C0.276589 1.15449 0.359114 1.0091 0.464848 0.882265C0.570581 0.755433 0.691789 0.656443 0.831049 0.588386C0.967729 0.517237 1.11215 0.480115 1.26172 0.480115C1.4113 0.477022 1.55571 0.507956 1.69497 0.572919C1.83423 0.637881 1.95802 0.733779 2.06891 0.857517Z" fill="white"/>
</svg>
