<svg width="4" height="5" viewBox="0 0 4 5" fill="none" xmlns="http://www.w3.org/2000/svg">
<path d="M3.2308 1.43489L3.38037 1.61122C3.52479 1.77826 3.63568 1.97315 3.71563 2.19279C3.79299 2.41552 3.83425 2.64443 3.83683 2.88572C3.83941 3.12392 3.80331 3.35593 3.72852 3.57866C3.65373 3.80139 3.548 3.99628 3.40616 4.16951C3.2669 4.33965 3.10443 4.47267 2.92133 4.56857C2.73823 4.66137 2.54481 4.71087 2.34624 4.71087C2.14509 4.71396 1.95425 4.67065 1.76857 4.58094C1.58289 4.49123 1.41784 4.3644 1.27601 4.19426L1.2528 4.16642L1.10322 3.9839C0.961381 3.81685 0.853069 3.61887 0.775702 3.39924C0.700915 3.17651 0.662231 2.94759 0.662231 2.7063C0.662231 2.4681 0.700915 2.2361 0.778281 2.01646C0.853069 1.79373 0.961381 1.59884 1.10322 1.4287C1.24506 1.25856 1.40753 1.12864 1.59321 1.03893C1.77631 0.946122 1.96972 0.899719 2.1683 0.899719C2.36945 0.899719 2.56029 0.946121 2.74597 1.03583C2.92907 1.12864 3.09412 1.25856 3.23338 1.4287L3.2308 1.43489Z" fill="white"/>
</svg>
