<svg width="4" height="6" viewBox="0 0 4 6" fill="none" xmlns="http://www.w3.org/2000/svg">
<path d="M0.771276 4.30377L0.920851 4.48319C1.08848 4.67808 1.27931 4.82657 1.49594 4.92865C1.70999 5.03073 1.93435 5.08023 2.16645 5.07714C2.39855 5.07714 2.62291 5.02145 2.83696 4.91318C3.04843 4.80491 3.23926 4.65333 3.40173 4.45535C3.56678 4.26046 3.69315 4.03155 3.78341 3.77479C3.87367 3.52112 3.92009 3.25199 3.92267 2.97358C3.92267 2.69517 3.88141 2.42604 3.7963 2.16928C3.7112 1.90943 3.58741 1.68051 3.42494 1.47944L3.27537 1.29692C3.10774 1.10513 2.9169 0.956644 2.70286 0.851466C2.48623 0.746288 2.26445 0.696793 2.03235 0.696793C1.80025 0.699887 1.57589 0.752475 1.36184 0.860746C1.14779 0.965923 0.956955 1.1175 0.791907 1.31239C0.626858 1.51037 0.500493 1.7362 0.410232 1.99295C0.319972 2.24662 0.270973 2.51575 0.268394 2.79416C0.265814 3.07257 0.307077 3.3417 0.39218 3.59846C0.477283 3.85831 0.598491 4.09032 0.758381 4.2914L0.771276 4.30377Z" fill="white"/>
</svg>
