<svg width="3" height="4" viewBox="0 0 3 4" fill="none" xmlns="http://www.w3.org/2000/svg">
<path d="M2.43602 2.815L2.28387 2.99442C2.15234 3.13363 2.00277 3.2388 1.83772 3.30995C1.67267 3.3811 1.50247 3.41513 1.3271 3.40894C1.15174 3.39966 0.984112 3.35635 0.821642 3.27283C0.661751 3.18621 0.517334 3.07176 0.393548 2.92327C0.269762 2.77169 0.174343 2.60155 0.104713 2.40666C0.0350841 2.21487 -0.0010211 2.0107 -0.00617853 1.80034C-0.0113366 1.58999 0.0170312 1.38582 0.0763457 1.18784C0.138239 0.989856 0.22592 0.813529 0.34197 0.655762L0.491545 0.473248C0.623069 0.330949 0.770064 0.222678 0.932534 0.151528C1.09758 0.0772847 1.26779 0.0401627 1.44315 0.04635C1.61852 0.0494433 1.78614 0.0927516 1.94861 0.173182C2.1085 0.253612 2.25292 0.364977 2.37929 0.513463C2.50307 0.658856 2.60365 0.828996 2.67586 1.02079C2.74807 1.21258 2.78675 1.41366 2.79449 1.62092C2.80222 1.83128 2.77901 2.03545 2.72228 2.23652C2.66554 2.4345 2.58044 2.61392 2.46697 2.77478L2.43602 2.815Z" fill="white"/>
</svg>
