<svg width="5" height="5" viewBox="0 0 5 5" fill="none" xmlns="http://www.w3.org/2000/svg">
<path d="M1.41991 1.19187L1.26775 1.37129C1.13365 1.54762 1.03307 1.7456 0.963443 1.96833C0.893814 2.19106 0.860288 2.41997 0.865446 2.65817C0.868025 2.89637 0.909287 3.12528 0.986653 3.34183C1.06402 3.56146 1.17491 3.75326 1.31417 3.9234C1.45343 4.09044 1.61332 4.22037 1.79642 4.31627C1.97952 4.40907 2.16778 4.45857 2.36635 4.46475C2.56493 4.47094 2.75577 4.43073 2.94144 4.3472C3.12712 4.26368 3.29217 4.14303 3.43917 3.98217L3.59132 3.80275C3.73316 3.62642 3.84147 3.42844 3.91626 3.20262C3.99363 2.9768 4.02973 2.74479 4.02973 2.5004C4.02973 2.25602 3.98847 2.02401 3.9111 1.79819C3.83374 1.57546 3.72285 1.37748 3.57843 1.20424C3.43659 1.0341 3.27154 0.901084 3.08328 0.805187C2.8976 0.712383 2.70161 0.665981 2.49788 0.662888C2.29672 0.662888 2.10073 0.70929 1.91247 0.799C1.72679 0.88871 1.55916 1.02173 1.41475 1.19187H1.41991Z" fill="white"/>
</svg>
