<svg width="5" height="5" viewBox="0 0 5 5" fill="none" xmlns="http://www.w3.org/2000/svg">
<path d="M3.82086 0.996933L3.97043 1.17635C4.1329 1.36506 4.25669 1.5816 4.34695 1.82907C4.43463 2.07965 4.48105 2.3364 4.48363 2.60863C4.48621 2.87776 4.44495 3.13761 4.35984 3.38818C4.27732 3.63875 4.15611 3.85839 3.99622 4.05018C3.83891 4.24198 3.65581 4.39046 3.4495 4.49564C3.24061 4.60082 3.02656 4.65341 2.79962 4.65341C2.57526 4.6565 2.35863 4.60391 2.15232 4.50183C1.94343 4.39974 1.76033 4.25126 1.60044 4.05946L1.58497 4.0409L1.43539 3.85839C1.2755 3.66968 1.15429 3.45005 1.06919 3.20257C0.984088 2.9551 0.940247 2.69524 0.940247 2.42921C0.940247 2.16008 0.984088 1.90332 1.06919 1.65584C1.15429 1.40836 1.27808 1.18873 1.43539 1.00003C1.5927 0.808232 1.7758 0.66284 1.98211 0.560755C2.18842 0.458671 2.40505 0.406082 2.62683 0.406082C2.8512 0.406082 3.06524 0.455578 3.27155 0.560755C3.48044 0.66284 3.66097 0.808232 3.82086 0.996933Z" fill="white"/>
</svg>
