<svg width="4" height="4" viewBox="0 0 4 4" fill="none" xmlns="http://www.w3.org/2000/svg">
<path d="M2.84863 0.598375L2.9982 0.774702C3.13746 0.929376 3.24578 1.1088 3.32314 1.31296C3.40309 1.51713 3.44435 1.73368 3.44951 1.9595C3.45467 2.18532 3.42372 2.40186 3.35409 2.61222C3.28704 2.82257 3.18646 3.00818 3.05494 3.16904C2.926 3.333 2.77384 3.45673 2.59848 3.54335C2.42569 3.63306 2.24517 3.67637 2.05691 3.67637C1.86865 3.67637 1.68813 3.63306 1.51535 3.54335C1.34256 3.45673 1.19041 3.3299 1.05889 3.16904L1.03052 3.13501L0.883522 2.95559C0.754578 2.79783 0.654002 2.61841 0.584372 2.41424C0.514742 2.21007 0.478638 1.99971 0.478638 1.77698C0.478638 1.55735 0.514742 1.3439 0.584372 1.13973C0.654002 0.935562 0.754578 0.756142 0.886101 0.601468C1.01505 0.443702 1.16462 0.323057 1.33483 0.239533C1.50503 0.15601 1.68298 0.112701 1.86608 0.112701C2.04918 0.112701 2.22712 0.15601 2.39732 0.239533C2.56753 0.323057 2.71711 0.443702 2.84863 0.598375Z" fill="white"/>
</svg>
