<svg width="4" height="5" viewBox="0 0 4 5" fill="none" xmlns="http://www.w3.org/2000/svg">
<path d="M3.44465 4.03912L3.2925 4.21854C3.14292 4.39796 2.97271 4.53407 2.77672 4.62997C2.5833 4.72587 2.37957 4.77227 2.17068 4.77227C1.95921 4.77227 1.75806 4.72277 1.56207 4.62688C1.36865 4.53098 1.19587 4.39177 1.04887 4.21545C0.899295 4.03602 0.783245 3.82876 0.7033 3.59675C0.623354 3.36474 0.582092 3.12036 0.582092 2.86979C0.582092 2.61613 0.620775 2.37174 0.700721 2.13973C0.780666 1.90463 0.896716 1.70046 1.04371 1.52104L1.19329 1.33852C1.34286 1.16529 1.51307 1.03227 1.70648 0.939468C1.89732 0.846665 2.09847 0.800262 2.30478 0.800262C2.51367 0.800262 2.71225 0.849757 2.90566 0.942562C3.0965 1.03846 3.26671 1.17148 3.41628 1.34781C3.56328 1.52104 3.67933 1.72211 3.76185 1.95103C3.84438 2.17995 3.88822 2.41814 3.89337 2.66562C3.89853 2.91619 3.86501 3.15439 3.79022 3.38949C3.71543 3.6215 3.6097 3.82876 3.46786 4.01128L3.44465 4.03912Z" fill="white"/>
</svg>
