<svg width="3" height="3" viewBox="0 0 3 3" fill="none" xmlns="http://www.w3.org/2000/svg">
<path d="M0.445826 2.46512L0.600558 2.63836C0.680504 2.73425 0.773344 2.8085 0.879077 2.86109C0.984812 2.91367 1.09312 2.93842 1.2066 2.93842C1.32007 2.93842 1.43096 2.91367 1.53411 2.86109C1.63985 2.8085 1.73269 2.73425 1.81263 2.63836C1.89258 2.54246 1.95447 2.43109 1.99831 2.30426C2.04215 2.17743 2.06278 2.04751 2.06278 1.91139C2.06278 1.77528 2.04215 1.64226 1.99831 1.51852C1.95447 1.39169 1.89258 1.28033 1.81263 1.18443L1.66822 0.998822C1.59085 0.896738 1.50059 0.816308 1.39485 0.757532C1.2917 0.698756 1.18081 0.667822 1.06734 0.661634C0.951286 0.655447 0.840395 0.677101 0.732081 0.723504C0.623768 0.772999 0.52835 0.841056 0.443247 0.936952C0.358144 1.02976 0.291092 1.13803 0.242094 1.26177C0.193095 1.3886 0.167306 1.51852 0.162149 1.65773C0.156991 1.79693 0.175043 1.92995 0.213726 2.05988C0.254988 2.1898 0.311723 2.30426 0.38909 2.40635L0.445826 2.46512Z" fill="white"/>
</svg>
