<svg width="4" height="5" viewBox="0 0 4 5" fill="none" xmlns="http://www.w3.org/2000/svg">
<path d="M3.0026 1.15621L3.15475 1.33873C3.30691 1.52124 3.42553 1.7316 3.50806 1.96979C3.59058 2.20799 3.63184 2.45856 3.63184 2.71532C3.63184 2.97517 3.59058 3.22264 3.51064 3.46084C3.42811 3.70213 3.30948 3.91249 3.15733 4.095C3.00518 4.27751 2.82981 4.41981 2.63124 4.5188C2.43266 4.6178 2.22635 4.66729 2.00973 4.66729C1.79568 4.66729 1.58679 4.62089 1.38822 4.5219C1.18964 4.42291 1.01428 4.2837 0.859548 4.10119L0.709973 3.91867C0.557818 3.73616 0.43919 3.5258 0.356666 3.28761C0.274142 3.04632 0.23288 2.79884 0.23288 2.53899C0.23288 2.28223 0.274142 2.03475 0.356666 1.79346C0.43919 1.55527 0.557818 1.34491 0.709973 1.1624C0.862127 0.979883 1.03749 0.840678 1.23606 0.741687C1.43464 0.642696 1.64353 0.593201 1.85757 0.593201C2.0742 0.593201 2.28051 0.642696 2.47908 0.738593C2.67766 0.837584 2.8556 0.979883 3.00776 1.1624L3.0026 1.15621Z" fill="white"/>
</svg>
