<svg width="5" height="6" viewBox="0 0 5 6" fill="none" xmlns="http://www.w3.org/2000/svg">
<path d="M1.11958 1.25468L0.97 1.43719C0.802373 1.63827 0.673429 1.87028 0.580589 2.13322C0.490328 2.39616 0.443909 2.67148 0.443909 2.95608C0.443909 3.24068 0.490328 3.516 0.580589 3.77894C0.67085 4.04189 0.799794 4.2739 0.967421 4.47497C1.13505 4.67914 1.32846 4.83381 1.54767 4.94208C1.76687 5.05345 1.99639 5.10913 2.23365 5.10913C2.47091 5.10913 2.70043 5.05654 2.91963 4.94827C3.13884 4.84 3.33226 4.68533 3.50246 4.48425L3.65204 4.30483C3.81451 4.10066 3.93829 3.86865 4.02339 3.60571C4.1085 3.34586 4.14976 3.07363 4.14718 2.79522C4.1446 2.51372 4.09818 2.24459 4.00792 1.98473C3.91508 1.72798 3.78872 1.49906 3.62367 1.30108C3.45604 1.1 3.26778 0.948424 3.05116 0.840153C2.83453 0.728788 2.61017 0.673106 2.37549 0.670013C2.14339 0.666919 1.91645 0.716414 1.69982 0.818499C1.48062 0.920583 1.2872 1.06907 1.11958 1.26396V1.25468Z" fill="white"/>
</svg>
