<svg width="4" height="5" viewBox="0 0 4 5" fill="none" xmlns="http://www.w3.org/2000/svg">
<path d="M0.955704 1.25672L0.80355 1.43614C0.682342 1.58772 0.589503 1.75786 0.525031 1.95275C0.460559 2.14764 0.427034 2.34871 0.429612 2.55598C0.429612 2.76633 0.463138 2.96741 0.52761 3.1592C0.59466 3.35409 0.687501 3.52423 0.808708 3.67272C0.932494 3.8243 1.07175 3.93875 1.23164 4.02228C1.39154 4.1058 1.55658 4.1522 1.73195 4.15839C1.90473 4.16458 2.07494 4.13055 2.23741 4.0594C2.39988 3.98515 2.54687 3.87688 2.67324 3.73768L2.69903 3.70674L2.8486 3.52423C2.97239 3.37265 3.06523 3.19632 3.1297 3.00143C3.19417 2.80655 3.2277 2.60238 3.22512 2.39202C3.22512 2.18167 3.18901 1.98059 3.12196 1.7857C3.05233 1.59081 2.95692 1.42067 2.83313 1.27219C2.70934 1.1237 2.56493 1.00615 2.40503 0.92572C2.24257 0.845291 2.07236 0.801982 1.897 0.801982C1.72163 0.798889 1.554 0.83601 1.38896 0.91644C1.22649 0.993777 1.08207 1.10514 0.955704 1.25053V1.25672Z" fill="white"/>
</svg>
