<svg width="3" height="4" viewBox="0 0 3 4" fill="none" xmlns="http://www.w3.org/2000/svg">
<path d="M0.760169 1.16885L0.608015 1.34517C0.491965 1.47819 0.404283 1.62977 0.339811 1.8061C0.277918 1.98243 0.244392 2.16494 0.241814 2.35673C0.239235 2.54544 0.265023 2.73104 0.324338 2.90737C0.383652 3.08679 0.466176 3.24456 0.577068 3.38067C0.687959 3.51988 0.816904 3.62505 0.9639 3.70239C1.10832 3.77973 1.26047 3.81994 1.42036 3.82304C1.58025 3.82613 1.73241 3.7921 1.88198 3.72405C2.03156 3.6529 2.16308 3.5539 2.27655 3.42089L2.3075 3.38376L2.45449 3.20125C2.56796 3.06514 2.65565 2.91046 2.71496 2.73414C2.77685 2.55781 2.8078 2.3753 2.8078 2.1835C2.8078 1.9948 2.77685 1.80919 2.71496 1.63286C2.65565 1.45654 2.56796 1.30186 2.45449 1.16885C2.3436 1.03273 2.21466 0.927555 2.06766 0.856406C1.92067 0.782162 1.76851 0.745041 1.60862 0.745041C1.44873 0.745041 1.29658 0.782162 1.14958 0.856406C1.00258 0.927555 0.873639 1.03273 0.760169 1.16885Z" fill="white"/>
</svg>
