<svg width="3" height="3" viewBox="0 0 3 3" fill="none" xmlns="http://www.w3.org/2000/svg">
<path d="M2.1049 2.427L1.95274 2.60333C1.88053 2.68994 1.79543 2.758 1.70259 2.8044C1.60717 2.8508 1.50917 2.87555 1.40602 2.87555C1.30544 2.87555 1.20745 2.8508 1.11203 2.8044C1.01661 2.758 0.934083 2.68994 0.861875 2.60333C0.789666 2.51671 0.73551 2.41772 0.694248 2.30326C0.655564 2.1919 0.637512 2.07435 0.637512 1.95061C0.637512 1.82687 0.655564 1.70932 0.694248 1.59795C0.73551 1.48349 0.789666 1.3845 0.861875 1.29789L1.00887 1.11228C1.0785 1.01638 1.16103 0.939045 1.25644 0.883362C1.35186 0.82768 1.45244 0.796745 1.55817 0.790558C1.66391 0.784371 1.76706 0.802933 1.86506 0.846241C1.96564 0.88955 2.05332 0.957605 2.13068 1.04422C2.20805 1.13084 2.26736 1.23292 2.30863 1.35048C2.35247 1.46803 2.3731 1.58867 2.3731 1.7155C2.3731 1.84543 2.35247 1.96607 2.31121 2.08363C2.26994 2.20118 2.21063 2.30326 2.13584 2.39297L2.1049 2.427Z" fill="white"/>
</svg>
