<svg width="4" height="5" viewBox="0 0 4 5" fill="none" xmlns="http://www.w3.org/2000/svg">
<path d="M1.0314 0.690707L0.879245 0.870128C0.727091 1.05264 0.608463 1.263 0.525939 1.50119C0.443414 1.74248 0.402152 1.98996 0.402152 2.24672C0.399574 2.50657 0.440836 2.75405 0.52336 2.99534C0.605884 3.23353 0.721933 3.44389 0.874088 3.6264C1.02624 3.81201 1.20161 3.95122 1.40018 4.05021C1.60133 4.1492 1.80764 4.20179 2.02169 4.20179C2.23832 4.20179 2.44463 4.15229 2.64578 4.0533C2.84435 3.95431 3.01972 3.8151 3.17187 3.63259L3.32402 3.45008C3.47618 3.26756 3.59223 3.05721 3.67475 2.81901C3.75728 2.58081 3.79854 2.33024 3.79854 2.07348C3.79854 1.81363 3.75728 1.56616 3.67475 1.32796C3.59223 1.08976 3.47618 0.879407 3.32402 0.696894C3.17187 0.514379 2.99393 0.37208 2.79535 0.273089C2.59678 0.174099 2.39047 0.124603 2.17384 0.124603C1.9598 0.124603 1.75091 0.174099 1.55233 0.273089C1.35376 0.37208 1.17839 0.511286 1.02624 0.6938L1.0314 0.690707Z" fill="white"/>
</svg>
