<svg width="2" height="3" viewBox="0 0 2 3" fill="none" xmlns="http://www.w3.org/2000/svg">
<path d="M0.229785 1.87352L0.384518 2.04675C0.469621 2.13956 0.562461 2.2138 0.668195 2.2633C0.776508 2.31279 0.884821 2.33445 1.00087 2.33445C1.11434 2.33135 1.22265 2.30351 1.32839 2.25092C1.43412 2.19833 1.52696 2.12409 1.60691 2.0251C1.68685 1.9292 1.74875 1.81784 1.79517 1.69101C1.83901 1.56727 1.86222 1.43425 1.86222 1.29814C1.8648 1.16202 1.84416 1.02901 1.8029 0.902174C1.76164 0.775341 1.70233 0.660884 1.62496 0.561893L1.47796 0.373192C1.39544 0.283481 1.3026 0.215424 1.19944 0.169023C1.09371 0.122621 0.985397 0.0978736 0.874505 0.100967C0.763613 0.10406 0.655301 0.128808 0.552145 0.178303C0.44899 0.227799 0.358729 0.302041 0.276205 0.391752C0.19626 0.484556 0.131788 0.592827 0.085368 0.713472C0.0363691 0.834117 0.0105806 0.96095 0.00284378 1.09397C-0.00489302 1.22699 0.0105806 1.35691 0.0441059 1.48684C0.0776312 1.61367 0.129209 1.72813 0.198839 1.83331L0.229785 1.87352Z" fill="white"/>
</svg>
