<svg width="5" height="5" viewBox="0 0 5 5" fill="none" xmlns="http://www.w3.org/2000/svg">
<path d="M1.30873 4.12328L1.46089 4.30271C1.6053 4.46357 1.77035 4.58421 1.95345 4.66773C2.13655 4.75435 2.32739 4.79147 2.52597 4.78838C2.72196 4.78219 2.91022 4.73579 3.09074 4.64299C3.27126 4.55018 3.43373 4.42026 3.57299 4.25321C3.70967 4.08616 3.81798 3.89437 3.89535 3.67783C3.97272 3.46128 4.01398 3.23237 4.01656 2.99726C4.02172 2.76216 3.98819 2.53324 3.91856 2.31361C3.84893 2.09088 3.74578 1.89599 3.61167 1.72276L3.4621 1.53715C3.32284 1.36392 3.15779 1.2309 2.97211 1.135C2.78643 1.0391 2.59302 0.989607 2.38928 0.986513C2.18813 0.983419 1.99214 1.02673 1.80388 1.11644C1.6182 1.20924 1.45057 1.33917 1.30615 1.50622C1.16174 1.67635 1.04827 1.87434 0.968321 2.09707C0.890955 2.3198 0.849693 2.55181 0.847114 2.79619C0.844535 3.03748 0.880639 3.27258 0.955427 3.4984C1.03021 3.72113 1.13853 3.92221 1.28037 4.09544L1.30873 4.12328Z" fill="white"/>
</svg>
