<svg width="4" height="4" viewBox="0 0 4 4" fill="none" xmlns="http://www.w3.org/2000/svg">
<path d="M0.619846 3.16234L0.772 3.34176C0.900944 3.49644 1.04794 3.61399 1.21299 3.69442C1.38062 3.77794 1.5534 3.81816 1.73134 3.81816C1.91187 3.81816 2.08465 3.77794 2.25228 3.69442C2.41733 3.61399 2.56432 3.49644 2.69069 3.34176C2.81963 3.19018 2.91763 3.01386 2.98468 2.81587C3.05431 2.6148 3.08783 2.40754 3.08783 2.19099C3.08783 1.97755 3.05431 1.76719 2.98468 1.56921C2.91763 1.37123 2.81963 1.1949 2.69069 1.04023L2.54369 0.857712C2.41733 0.703038 2.27291 0.582394 2.10786 0.495777C1.94281 0.40916 1.77003 0.365851 1.59208 0.362758C1.41156 0.359665 1.23878 0.396786 1.07115 0.474122C0.903523 0.554552 0.756527 0.669011 0.627583 0.82059C0.498638 0.969076 0.398062 1.14231 0.325854 1.34029C0.253644 1.53827 0.217541 1.74554 0.214962 1.96208C0.212383 2.17862 0.24333 2.38588 0.310381 2.58696C0.377431 2.78494 0.47285 2.96436 0.599215 3.11903L0.619846 3.16234Z" fill="white"/>
</svg>
