<svg width="3" height="4" viewBox="0 0 3 4" fill="none" xmlns="http://www.w3.org/2000/svg">
<path d="M2.55132 2.86576L2.39917 3.04827C2.27022 3.20294 2.12065 3.3205 1.95044 3.40711C1.78023 3.49064 1.60487 3.53085 1.42177 3.53085C1.23867 3.53085 1.06073 3.48754 0.893099 3.40402C0.722893 3.3205 0.573318 3.19985 0.444374 3.04518C0.31543 2.89051 0.214854 2.71109 0.145224 2.50692C0.0755939 2.30275 0.0394897 2.09239 0.0394897 1.87276C0.0394897 1.65312 0.073015 1.44277 0.142645 1.2386C0.212275 1.03443 0.312851 0.855008 0.441795 0.700334L0.593949 0.51782C0.722893 0.363147 0.872469 0.242502 1.04267 0.155885C1.2103 0.072361 1.38824 0.0290527 1.57134 0.0290527C1.75444 0.0290527 1.92981 0.0692675 2.10002 0.152791C2.27022 0.236315 2.4198 0.356959 2.55132 0.511633C2.68026 0.666306 2.78084 0.845727 2.85305 1.0468C2.92268 1.25097 2.95878 1.46133 2.95878 1.68406C2.95878 1.90369 2.92526 2.11405 2.85563 2.31821C2.786 2.52238 2.68542 2.7018 2.55648 2.85648L2.55132 2.86576Z" fill="white"/>
</svg>
