<svg width="4" height="5" viewBox="0 0 4 5" fill="none" xmlns="http://www.w3.org/2000/svg">
<path d="M1.20494 1.41687L1.05279 1.59629C0.921264 1.76024 0.823267 1.94894 0.753637 2.1593C0.684008 2.36965 0.650482 2.58929 0.650482 2.81511C0.653062 3.04094 0.689165 3.26057 0.761374 3.46783C0.833583 3.67819 0.936738 3.8638 1.06826 4.02466C1.20236 4.18552 1.35452 4.31235 1.5273 4.40206C1.70266 4.49177 1.88319 4.53817 2.07145 4.54436C2.2597 4.54745 2.4428 4.51033 2.62075 4.4299C2.79611 4.34947 2.95342 4.23501 3.09268 4.08034L3.10816 4.06178L3.25773 3.87926C3.38667 3.71531 3.48725 3.52661 3.5543 3.31625C3.62135 3.1059 3.65488 2.88626 3.6523 2.66044C3.64972 2.43152 3.61104 2.21498 3.53625 2.00772C3.46404 1.79736 3.36089 1.61485 3.22678 1.45399C3.09268 1.29313 2.94053 1.16939 2.76516 1.08277C2.59238 0.993063 2.40928 0.946662 2.22102 0.943568C2.03276 0.940475 1.84966 0.977596 1.6743 1.06112C1.49893 1.14155 1.34162 1.2591 1.20494 1.41687Z" fill="white"/>
</svg>
