<svg width="5" height="5" viewBox="0 0 5 5" fill="none" xmlns="http://www.w3.org/2000/svg">
<path d="M3.91187 0.723274L4.06403 0.905789C4.23166 1.10686 4.3606 1.33887 4.45086 1.60182C4.5437 1.86476 4.58754 2.14008 4.58754 2.42468C4.58754 2.70928 4.5437 2.9815 4.45344 3.24754C4.3606 3.51048 4.23166 3.74249 4.06403 3.94357C3.8964 4.14464 3.70299 4.30241 3.48378 4.41068C3.26458 4.51895 3.03763 4.57464 2.80038 4.57773C2.56312 4.57773 2.3336 4.52514 2.11439 4.41687C1.89519 4.3086 1.6992 4.15392 1.53157 3.95285L1.37941 3.77033C1.21952 3.56926 1.09574 3.33416 1.01063 3.07431C0.922952 2.81446 0.88169 2.54223 0.884269 2.26073C0.889427 1.98231 0.935846 1.71009 1.02611 1.45333C1.11637 1.19348 1.24531 0.964564 1.41036 0.766583C1.57541 0.568601 1.76625 0.413928 1.98287 0.305657C2.19692 0.197386 2.42128 0.141703 2.65596 0.13861C2.89064 0.135517 3.115 0.185012 3.33421 0.287096C3.55083 0.38918 3.74425 0.537666 3.91445 0.729461L3.91187 0.723274Z" fill="white"/>
</svg>
