<svg width="5" height="6" viewBox="0 0 5 6" fill="none" xmlns="http://www.w3.org/2000/svg">
<path d="M1.53302 1.44994L1.38344 1.63246C1.19519 1.83044 1.05077 2.06554 0.945035 2.33777C0.839301 2.6069 0.782565 2.89459 0.774829 3.19156C0.767092 3.49163 0.810933 3.77932 0.901194 4.05773C0.994034 4.33614 1.12814 4.58053 1.30608 4.79397C1.48144 5.00433 1.68517 5.16519 1.91727 5.27656C2.14937 5.38792 2.38921 5.43742 2.63936 5.42813C2.88951 5.41885 3.12677 5.35389 3.35371 5.22706C3.57807 5.10023 3.77407 4.9239 3.94169 4.70117L4.09127 4.51866C4.25374 4.31449 4.37495 4.07938 4.46005 3.81644C4.54257 3.5535 4.58384 3.28127 4.58126 2.99977C4.5761 2.71826 4.52968 2.44604 4.43684 2.18928C4.344 1.92943 4.21506 1.70051 4.05001 1.49944C3.88496 1.30146 3.69412 1.14678 3.4775 1.03542C3.26087 0.927146 3.03651 0.868371 2.80183 0.865277C2.56715 0.859091 2.34021 0.908586 2.121 1.01067C1.9018 1.10966 1.7058 1.25815 1.53302 1.44994Z" fill="white"/>
</svg>
