<svg width="4" height="5" viewBox="0 0 4 5" fill="none" xmlns="http://www.w3.org/2000/svg">
<path d="M3.26274 3.76926L3.11059 3.95178C2.94554 4.14357 2.75212 4.29206 2.53808 4.39414C2.32145 4.49932 2.09709 4.54882 1.86499 4.54572C1.63547 4.54263 1.41111 4.48695 1.19706 4.38177C0.983012 4.2735 0.794754 4.12192 0.629705 3.92394C0.467236 3.72596 0.338292 3.50013 0.25061 3.24338C0.160349 2.98662 0.113929 2.72058 0.11135 2.44217C0.108771 2.16376 0.150033 1.89463 0.237715 1.63478C0.322818 1.37802 0.446604 1.1491 0.606495 0.948028L0.758649 0.765513C0.923698 0.570626 1.11453 0.42214 1.33116 0.320055C1.54521 0.214877 1.76957 0.162288 2.00167 0.165382C2.23377 0.165382 2.45813 0.221064 2.67218 0.326242C2.88623 0.434513 3.07448 0.586092 3.23953 0.780981C3.40458 0.975869 3.53352 1.20169 3.62379 1.45845C3.71405 1.71521 3.76047 1.98124 3.76305 2.25966C3.7682 2.53807 3.72694 2.8072 3.64184 3.06705C3.55673 3.3269 3.43295 3.55582 3.27306 3.75689L3.26274 3.76926Z" fill="white"/>
</svg>
