<svg width="4" height="5" viewBox="0 0 4 5" fill="none" xmlns="http://www.w3.org/2000/svg">
<path d="M0.803279 0.966291L0.651125 1.14571C0.509286 1.31276 0.398395 1.50765 0.318449 1.72728C0.238505 1.94692 0.199821 2.17583 0.197242 2.41712C0.194663 2.65532 0.230768 2.88733 0.305555 3.11006C0.380342 3.33279 0.486077 3.53077 0.625336 3.70091C0.767175 3.87415 0.927065 4.00716 1.11274 4.09997C1.29585 4.19277 1.48668 4.24227 1.68783 4.24536C1.88641 4.24846 2.07982 4.20515 2.2655 4.11544C2.45118 4.02573 2.61365 3.8958 2.75807 3.72875L2.78128 3.70091L2.93086 3.5184C3.07269 3.34826 3.18101 3.15337 3.25579 2.93064C3.33316 2.711 3.37184 2.47899 3.37184 2.2408C3.37184 1.99951 3.33316 1.77059 3.25579 1.54786C3.17843 1.32823 3.07012 1.13024 2.92828 0.963197C2.78902 0.793058 2.62655 0.663131 2.44087 0.570328C2.25519 0.477523 2.06435 0.431122 1.8632 0.431122C1.66463 0.431122 1.47121 0.477523 1.28811 0.570328C1.10243 0.660038 0.93996 0.793057 0.798121 0.960104L0.803279 0.966291Z" fill="white"/>
</svg>
