<svg width="3" height="3" viewBox="0 0 3 3" fill="none" xmlns="http://www.w3.org/2000/svg">
<path d="M1.73653 2.13717L1.58438 2.3135C1.4967 2.41249 1.39612 2.48983 1.28265 2.54242C1.17176 2.59501 1.05313 2.62285 0.931921 2.61975C0.810714 2.61975 0.694664 2.58882 0.583772 2.53314C0.47288 2.47745 0.374883 2.39703 0.287201 2.29494C0.202098 2.19286 0.137626 2.07221 0.0886271 1.93919C0.0422076 1.80617 0.0189972 1.66697 0.0164185 1.52157C0.0164185 1.37618 0.0370497 1.23698 0.0808905 1.10086C0.124732 0.964751 0.189203 0.847199 0.271728 0.742022L0.418724 0.556414C0.501248 0.435769 0.599246 0.339871 0.715295 0.268722C0.831345 0.197573 0.952552 0.157357 1.0815 0.148077C1.21302 0.135704 1.33681 0.157357 1.46059 0.209947C1.5818 0.265629 1.69011 0.342966 1.78295 0.451237C1.87837 0.559508 1.95058 0.683246 1.99958 0.828639C2.05116 0.970938 2.07437 1.11942 2.07437 1.2741C2.07179 1.43186 2.046 1.58035 1.99184 1.72265C1.93768 1.86495 1.8629 1.98559 1.76748 2.09077C1.75974 2.10624 1.74943 2.12171 1.73653 2.13717Z" fill="white"/>
</svg>
