<svg width="3" height="4" viewBox="0 0 3 4" fill="none" xmlns="http://www.w3.org/2000/svg">
<path d="M0.704642 1.15697L0.549909 1.3333C0.439017 1.45704 0.356493 1.60553 0.2946 1.77257C0.232706 1.93653 0.20176 2.11285 0.199181 2.29537C0.196602 2.47479 0.222391 2.65112 0.276547 2.82126C0.330704 2.9914 0.410649 3.13988 0.516383 3.2729C0.622117 3.40283 0.743325 3.50491 0.882584 3.57915C1.01926 3.6534 1.16626 3.69052 1.31842 3.69671C1.46799 3.6998 1.61499 3.66887 1.75682 3.6039C1.89866 3.53894 2.02245 3.44304 2.13334 3.31621L2.16687 3.276L2.31386 3.09039C2.41702 2.96046 2.49696 2.81198 2.55112 2.64802C2.60528 2.48098 2.63107 2.30774 2.63107 2.13141C2.62849 1.95199 2.59754 1.78185 2.5408 1.61481C2.48407 1.45085 2.40154 1.30546 2.29581 1.17863C2.19266 1.05489 2.07145 0.955899 1.93219 0.887843C1.79551 0.816694 1.65367 0.782665 1.50409 0.779572C1.3571 0.779572 1.21268 0.810506 1.07342 0.875469C0.93674 0.940431 0.812954 1.03633 0.704642 1.15697Z" fill="white"/>
</svg>
