<svg width="3" height="4" viewBox="0 0 3 4" fill="none" xmlns="http://www.w3.org/2000/svg">
<path d="M0.550043 0.936378L0.397889 1.1158C0.274103 1.255 0.178684 1.41586 0.109054 1.60147C0.0368456 1.78708 0.000741617 1.98197 -0.00441647 2.18304C-0.00699519 2.38721 0.0213722 2.5821 0.0806866 2.77389C0.14258 2.9626 0.23284 3.12964 0.351469 3.27504C0.467519 3.42043 0.604199 3.53489 0.761511 3.61532C0.916243 3.69575 1.07871 3.73596 1.24892 3.73596C1.41913 3.73596 1.5816 3.69884 1.73891 3.6215C1.89364 3.54417 2.0329 3.4328 2.15153 3.28741L2.1799 3.25029L2.32947 3.07087C2.44036 2.92857 2.52547 2.76461 2.58478 2.5821C2.64409 2.39959 2.67246 2.21088 2.66988 2.0129C2.6673 1.81801 2.63378 1.62931 2.56931 1.44989C2.50741 1.26738 2.41715 1.10961 2.3011 0.970406C2.18505 0.8312 2.05353 0.722929 1.90138 0.645592C1.7518 0.571349 1.59449 0.531134 1.43202 0.528041C1.26697 0.524947 1.10966 0.558975 0.957506 0.630125C0.805353 0.701275 0.668671 0.803359 0.550043 0.936378Z" fill="white"/>
</svg>
