<svg width="4" height="4" viewBox="0 0 4 4" fill="none" xmlns="http://www.w3.org/2000/svg">
<path d="M2.5201 1.00194L2.67483 1.18136C2.7883 1.32366 2.87856 1.48452 2.94045 1.67012C3.00235 1.85264 3.03329 2.04134 3.03329 2.23932C3.03329 2.4373 3.00235 2.6291 2.94045 2.81161C2.87856 2.99722 2.79088 3.15808 2.67483 3.30038C2.56136 3.44268 2.42726 3.55404 2.27768 3.63447C2.12553 3.7149 1.96821 3.75821 1.80317 3.7644C1.63812 3.76749 1.47823 3.73656 1.32349 3.6685C1.16876 3.60044 1.03208 3.49836 0.908295 3.36534C0.900558 3.35297 0.890243 3.34369 0.882506 3.33131L0.732931 3.1488C0.614302 3.0065 0.524042 2.84255 0.45957 2.65384C0.395098 2.46824 0.361572 2.27644 0.361572 2.07537C0.361572 1.87429 0.395098 1.6794 0.45957 1.4938C0.524042 1.30819 0.614302 1.14423 0.732931 1.00194C0.851559 0.859636 0.98824 0.751365 1.14297 0.674028C1.29771 0.596692 1.46018 0.55957 1.6278 0.55957C1.79543 0.55957 1.95532 0.596692 2.11005 0.674028C2.26479 0.751365 2.40147 0.859636 2.5201 1.00194Z" fill="white"/>
</svg>
