<svg width="4" height="5" viewBox="0 0 4 5" fill="none" xmlns="http://www.w3.org/2000/svg">
<path d="M3.03761 4.13866L2.88804 4.31808C2.72299 4.48822 2.53731 4.61814 2.331 4.70476C2.12727 4.79138 1.9158 4.8285 1.6966 4.81922C1.47997 4.80994 1.27108 4.75426 1.07251 4.64908C0.871354 4.5439 0.695991 4.39851 0.541258 4.2129C0.389104 4.02729 0.267897 3.81694 0.182794 3.57565C0.095112 3.33745 0.0486913 3.08688 0.0409552 2.82394C0.0357971 2.56409 0.0667441 2.31042 0.141532 2.06294C0.21374 1.81856 0.322053 1.59583 0.46647 1.40094L0.613467 1.21843C0.775936 1.02663 0.961616 0.875055 1.17308 0.769877C1.38197 0.667793 1.60118 0.615204 1.8307 0.615204C2.05764 0.615204 2.27684 0.6647 2.48831 0.769877C2.69978 0.875055 2.88546 1.02354 3.04535 1.21534C3.20782 1.41022 3.33161 1.63295 3.41929 1.88352C3.50697 2.13719 3.55081 2.40013 3.55081 2.67236C3.55339 2.94767 3.50955 3.21062 3.42187 3.46428C3.33676 3.71485 3.21298 3.94068 3.05051 4.13247L3.03761 4.13866Z" fill="white"/>
</svg>
