<svg width="4" height="4" viewBox="0 0 4 4" fill="none" xmlns="http://www.w3.org/2000/svg">
<path d="M2.71227 0.54775L2.86442 0.727171C2.97789 0.863283 3.06557 1.02105 3.12747 1.19738C3.18936 1.3768 3.22031 1.56241 3.22289 1.7542C3.22289 1.94599 3.19452 2.1347 3.1352 2.31412C3.07589 2.49044 2.99079 2.6513 2.87989 2.79051C2.769 2.92972 2.64006 3.03799 2.49306 3.11842C2.34607 3.19575 2.19133 3.23906 2.03144 3.24525C1.86897 3.25144 1.71424 3.2205 1.56467 3.15245C1.41251 3.08748 1.27841 2.98849 1.15978 2.85857L1.12368 2.81526L0.97668 2.62965C0.868367 2.49044 0.785843 2.33268 0.729108 2.15326C0.672372 1.97693 0.646584 1.79132 0.649162 1.60262C0.651741 1.41083 0.685267 1.22831 0.74716 1.05198C0.809053 0.878751 0.896735 0.724078 1.00763 0.587965C1.1211 0.451854 1.25004 0.349769 1.39704 0.275525C1.54146 0.198189 1.69361 0.161067 1.8535 0.157974C2.01081 0.151787 2.16554 0.185815 2.31512 0.253871C2.46212 0.321927 2.59364 0.420918 2.71227 0.54775Z" fill="white"/>
</svg>
