<svg width="3" height="5" viewBox="0 0 3 5" fill="none" xmlns="http://www.w3.org/2000/svg">
<path d="M2.48021 1.38908L2.63494 1.5685C2.74583 1.70771 2.82835 1.86548 2.88767 2.0449C2.94698 2.22122 2.97793 2.40683 2.97793 2.59863C2.97535 2.79042 2.94698 2.97603 2.88509 3.15236C2.82578 3.32868 2.74067 3.48645 2.62978 3.62566C2.51889 3.76177 2.38994 3.87004 2.24295 3.94738C2.09853 4.02781 1.9438 4.06802 1.78391 4.0773C1.6266 4.08349 1.46928 4.05255 1.31971 3.98759C1.17013 3.92263 1.03603 3.82673 0.917404 3.6999L0.886457 3.66587L0.736882 3.48336C0.620833 3.34415 0.533151 3.18329 0.471258 3.00387C0.409365 2.82136 0.378418 2.63265 0.378418 2.43777C0.378418 2.23978 0.409365 2.05418 0.471258 1.87166C0.533151 1.69224 0.623412 1.53138 0.739461 1.39218C0.855511 1.25297 0.987034 1.14779 1.13919 1.07355C1.28876 0.996212 1.44607 0.959091 1.60854 0.959091C1.77359 0.959091 1.9309 0.996213 2.08048 1.07046C2.23263 1.1447 2.36416 1.25297 2.48021 1.38908Z" fill="white"/>
</svg>
