<svg width="3" height="4" viewBox="0 0 3 4" fill="none" xmlns="http://www.w3.org/2000/svg">
<path d="M0.52607 2.69497L0.680802 2.87439C0.796853 3.01359 0.930954 3.11877 1.08053 3.19611C1.23268 3.27035 1.38999 3.30747 1.55504 3.30747C1.72009 3.30747 1.8774 3.26726 2.02956 3.19301C2.17913 3.11877 2.31323 3.0105 2.42928 2.87129C2.54533 2.73209 2.63559 2.57123 2.69749 2.38871C2.75938 2.20929 2.79291 2.02059 2.79291 1.82261C2.79291 1.62463 2.76196 1.43593 2.70007 1.25341C2.63559 1.07399 2.54791 0.913132 2.43186 0.773925L2.28229 0.588318C2.16882 0.439831 2.03729 0.32228 1.88514 0.238756C1.73041 0.155233 1.57052 0.10883 1.40289 0.102644C1.23526 0.0964574 1.07279 0.130485 0.915481 0.201635C0.758169 0.275878 0.618909 0.381055 0.500281 0.523355C0.379073 0.66256 0.286233 0.826513 0.219183 1.01212C0.154711 1.19773 0.121185 1.38952 0.121185 1.5906C0.121185 1.79477 0.154711 1.98656 0.219183 2.17217C0.283655 2.35778 0.379073 2.52173 0.497702 2.66094C0.508017 2.67331 0.515753 2.68568 0.52607 2.69497Z" fill="white"/>
</svg>
