<svg width="4" height="5" viewBox="0 0 4 5" fill="none" xmlns="http://www.w3.org/2000/svg">
<path d="M3.13964 0.723274L3.2918 0.905789C3.45942 1.10686 3.59095 1.33887 3.68121 1.60182C3.77147 1.86476 3.81789 2.14008 3.81789 2.42468C3.81789 2.70928 3.77405 2.9846 3.68379 3.24754C3.59353 3.51048 3.46458 3.74559 3.29438 3.94666C3.12675 4.14774 2.93333 4.3055 2.71413 4.41377C2.49492 4.52205 2.2654 4.57773 2.02814 4.57773C1.79089 4.58082 1.56137 4.52514 1.34216 4.41687C1.12296 4.3086 0.926963 4.15392 0.759335 3.95285L0.607181 3.77033C0.447291 3.56926 0.323505 3.33416 0.238402 3.07431C0.153298 2.81446 0.112036 2.54223 0.114616 2.26073C0.117194 1.98231 0.163615 1.71009 0.253875 1.45333C0.344136 1.19348 0.47308 0.964564 0.638129 0.766583C0.803177 0.568601 0.994014 0.413928 1.21064 0.305657C1.42469 0.197386 1.65163 0.141703 1.88373 0.13861C2.11841 0.135517 2.34535 0.185012 2.56197 0.287096C2.78118 0.38918 2.97459 0.537666 3.14222 0.729461L3.13964 0.723274Z" fill="white"/>
</svg>
