<svg width="5" height="5" viewBox="0 0 5 5" fill="none" xmlns="http://www.w3.org/2000/svg">
<path d="M1.39974 3.65152L1.5519 3.83094C1.68858 3.99798 1.84589 4.12172 2.02641 4.21143C2.20435 4.30114 2.39003 4.34445 2.58345 4.34445C2.77944 4.34445 2.96512 4.30114 3.14307 4.21143C3.32359 4.12172 3.4809 3.99798 3.61758 3.83094C3.75426 3.66698 3.85999 3.47828 3.93478 3.26483C4.00699 3.04829 4.04567 2.82556 4.04567 2.59355C4.04567 2.36154 4.00699 2.13881 3.93478 1.92227C3.85999 1.70882 3.75426 1.52012 3.61758 1.35307L3.46543 1.17365C3.32874 1.0097 3.17143 0.882867 2.99349 0.793156C2.81297 0.703446 2.62729 0.657043 2.43387 0.657043C2.24046 0.657043 2.05478 0.700352 1.87426 0.790062C1.69631 0.876679 1.53642 1.00351 1.39974 1.16746C1.26306 1.33142 1.15733 1.52012 1.08254 1.73666C1.00775 1.95011 0.971648 2.17284 0.971648 2.40485C0.969069 2.63686 1.00775 2.86268 1.07996 3.07613C1.15475 3.29267 1.26048 3.48137 1.39716 3.64533L1.39974 3.65152Z" fill="white"/>
</svg>
