<svg width="3" height="3" viewBox="0 0 3 3" fill="none" xmlns="http://www.w3.org/2000/svg">
<path d="M1.81257 1.92642L1.65526 2.10275C1.57274 2.20174 1.47732 2.27908 1.36901 2.33167C1.26069 2.38735 1.14722 2.4121 1.03117 2.4121C0.912545 2.4121 0.799074 2.38735 0.690761 2.33167C0.582448 2.27908 0.487029 2.20174 0.404505 2.10275C0.321981 2.00376 0.257509 1.88621 0.213668 1.75628C0.167249 1.62636 0.144038 1.49334 0.146617 1.35104C0.144038 1.21183 0.167249 1.07572 0.213668 0.945796C0.257509 0.81587 0.321981 0.701413 0.404505 0.602422L0.551501 0.413721C0.631446 0.311636 0.726866 0.228113 0.835178 0.169337C0.940912 0.110561 1.05438 0.0796272 1.17301 0.0734399C1.29164 0.0703466 1.40769 0.0920006 1.51858 0.141496C1.62947 0.190991 1.72747 0.265235 1.81257 0.364225C1.90026 0.460122 1.96731 0.574581 2.01631 0.704506C2.0653 0.831338 2.09109 0.967451 2.09367 1.10975C2.09883 1.25205 2.0782 1.39126 2.03694 1.52427C1.99567 1.6542 1.93378 1.77484 1.85126 1.87693L1.81257 1.92642Z" fill="white"/>
</svg>
