<svg width="3" height="3" viewBox="0 0 3 3" fill="none" xmlns="http://www.w3.org/2000/svg">
<path d="M1.22145 2.45782L1.37618 2.63415C1.46128 2.73314 1.5567 2.81047 1.66502 2.86616C1.77333 2.91875 1.8868 2.94659 2.00285 2.94659C2.12148 2.94659 2.23237 2.91875 2.34068 2.86616C2.44899 2.81047 2.54441 2.73314 2.62952 2.63415C2.71204 2.53516 2.77651 2.4207 2.82035 2.29077C2.8642 2.16085 2.8874 2.02473 2.8874 1.88553C2.8874 1.74323 2.8642 1.60712 2.82035 1.47719C2.77651 1.34727 2.71204 1.23281 2.62952 1.13382L2.48252 0.94821C2.4 0.843032 2.30716 0.762601 2.19884 0.703826C2.09053 0.64505 1.97706 0.611022 1.85843 0.607929C1.7398 0.601742 1.62633 0.62649 1.51544 0.675985C1.40455 0.72548 1.30655 0.799724 1.21887 0.895621C1.13377 0.991518 1.06671 1.10598 1.01772 1.2359C0.968717 1.36583 0.942928 1.50194 0.937771 1.64424C0.935192 1.78654 0.953244 1.92265 0.997085 2.05567C1.03835 2.18869 1.10024 2.30624 1.18019 2.40832L1.22145 2.45782Z" fill="white"/>
</svg>
