<svg width="2" height="3" viewBox="0 0 2 3" fill="none" xmlns="http://www.w3.org/2000/svg">
<path d="M0.460554 0.437008L0.303242 0.610242C0.236191 0.684485 0.182035 0.771102 0.140772 0.870093C0.10209 0.972177 0.0814585 1.07735 0.0763004 1.18872C0.071143 1.29699 0.0840371 1.40526 0.114984 1.51044C0.14593 1.61562 0.19235 1.70842 0.254243 1.78885C0.316136 1.87237 0.390924 1.93734 0.473448 1.98374C0.555972 2.03323 0.646234 2.05798 0.736494 2.06417C0.829334 2.07036 0.919595 2.05489 1.00728 2.01777C1.09238 1.98065 1.17232 1.92496 1.23938 1.84763L1.28837 1.78885L1.43279 1.60015C1.55658 1.43929 1.61589 1.24749 1.61331 1.02477C1.61073 0.80513 1.54368 0.616429 1.41216 0.461755C1.28322 0.303989 1.1259 0.223559 0.940225 0.220465C0.757125 0.214278 0.597234 0.288522 0.460554 0.437008Z" fill="white"/>
</svg>
