<svg width="3" height="4" viewBox="0 0 3 4" fill="none" xmlns="http://www.w3.org/2000/svg">
<path d="M0.578248 1.30455L0.423515 1.48397C0.304887 1.61699 0.214625 1.77166 0.147575 1.94799C0.083103 2.12741 0.0469983 2.31302 0.0444196 2.50481C0.0392615 2.6997 0.0676294 2.8884 0.126944 3.06782C0.183679 3.25034 0.268783 3.4112 0.382253 3.5504C0.493145 3.68961 0.624668 3.79788 0.774243 3.87522C0.92124 3.95255 1.07597 3.99277 1.23844 3.99586C1.40091 3.99895 1.55564 3.96493 1.7078 3.89068C1.85737 3.81953 1.9889 3.71436 2.10495 3.58134L2.13847 3.53803L2.28805 3.35551C2.38862 3.21631 2.46341 3.06164 2.51499 2.8884C2.56656 2.71517 2.58977 2.53575 2.58462 2.35323C2.57946 2.16762 2.54593 1.9913 2.48404 1.82425C2.42473 1.6572 2.33962 1.50562 2.23131 1.3757C2.123 1.24577 1.99921 1.14369 1.85737 1.07254C1.71811 0.998295 1.57112 0.95808 1.41638 0.951894C1.26423 0.945706 1.11466 0.973548 0.970238 1.03542C0.82582 1.09729 0.696876 1.187 0.580827 1.31074L0.578248 1.30455Z" fill="white"/>
</svg>
