<svg width="4" height="5" viewBox="0 0 4 5" fill="none" xmlns="http://www.w3.org/2000/svg">
<path d="M3.30992 4.11674L3.16034 4.29616C3.01335 4.4694 2.84572 4.60551 2.65488 4.69831C2.46662 4.79421 2.26805 4.84061 2.06174 4.84061C1.85543 4.84061 1.65944 4.79112 1.4686 4.69831C1.27776 4.60242 1.11013 4.4694 0.965716 4.29307C0.821298 4.11984 0.707827 3.91876 0.627882 3.68985C0.550516 3.46402 0.511833 3.22583 0.511833 2.97835C0.509253 2.73397 0.550516 2.49577 0.627882 2.26685C0.705248 2.03794 0.81872 1.83686 0.963137 1.66363L1.11271 1.48111C1.25713 1.30479 1.42476 1.16867 1.61301 1.06968C1.80385 0.973786 1.99985 0.92429 2.20616 0.921196C2.41247 0.918103 2.61104 0.964505 2.80188 1.05422C2.99272 1.14702 3.16292 1.28004 3.30992 1.45327C3.45691 1.62651 3.57296 1.82758 3.65291 2.0534C3.73285 2.28232 3.77412 2.51742 3.7767 2.7649C3.77927 3.01238 3.74317 3.25057 3.6658 3.47949C3.58844 3.7115 3.47755 3.91257 3.33313 4.0889L3.30992 4.11674Z" fill="white"/>
</svg>
