<svg width="3" height="4" viewBox="0 0 3 4" fill="none" xmlns="http://www.w3.org/2000/svg">
<path d="M2.51959 2.93523L2.36743 3.11465C2.25912 3.24148 2.13791 3.34047 1.99865 3.41162C1.85939 3.47968 1.7124 3.51371 1.56282 3.51371C1.41325 3.51371 1.26625 3.47968 1.12699 3.41162C0.987733 3.34047 0.866525 3.24148 0.758213 3.11465C0.652478 2.98782 0.569954 2.83933 0.513219 2.67228C0.453905 2.50524 0.425537 2.332 0.425537 2.14949C0.425537 1.97007 0.453905 1.79683 0.513219 1.62979C0.569954 1.46274 0.652478 1.31425 0.758213 1.18742L0.907788 1.00181C1.01352 0.88117 1.13731 0.785272 1.27399 0.717216C1.41067 0.652253 1.55251 0.618225 1.6995 0.618225C1.84908 0.618225 1.99092 0.652253 2.1276 0.717216C2.26428 0.782179 2.38549 0.878076 2.49122 1.00181C2.59953 1.12555 2.68206 1.26785 2.74137 1.42871C2.80326 1.58957 2.83421 1.75971 2.84195 1.93604C2.84711 2.11237 2.8239 2.2856 2.77232 2.45265C2.72332 2.6197 2.64853 2.76818 2.55053 2.9012L2.51959 2.93523Z" fill="white"/>
</svg>
