<svg width="5" height="5" viewBox="0 0 5 5" fill="none" xmlns="http://www.w3.org/2000/svg">
<path d="M1.08028 3.71696L1.23243 3.89638C1.40006 4.09745 1.59348 4.25213 1.81268 4.36349C2.03447 4.47176 2.26141 4.52435 2.49867 4.52435C2.73592 4.52435 2.96544 4.46867 3.18465 4.3604C3.40385 4.25213 3.59727 4.09745 3.7649 3.89329C3.9351 3.69221 4.06405 3.4602 4.15431 3.19726C4.24457 2.93431 4.29099 2.65899 4.29099 2.3744C4.29099 2.0898 4.24715 1.81448 4.15689 1.55153C4.06405 1.28859 3.9351 1.05658 3.76747 0.855506L3.62048 0.672991C3.45027 0.478104 3.25686 0.329618 3.03765 0.224439C2.82103 0.119262 2.59408 0.0697665 2.35941 0.0728598C2.12473 0.075953 1.89779 0.131635 1.68116 0.239907C1.46453 0.348177 1.2737 0.502851 1.10865 0.700833C0.941021 0.898814 0.812078 1.12773 0.721817 1.38758C0.631556 1.64743 0.582557 1.91966 0.579978 2.20116C0.577399 2.48267 0.618662 2.7518 0.706343 3.01474C0.791447 3.27769 0.915233 3.5097 1.0777 3.71387L1.08028 3.71696Z" fill="white"/>
</svg>
