<svg width="2" height="3" viewBox="0 0 2 3" fill="none" xmlns="http://www.w3.org/2000/svg">
<path d="M0.747399 0.369704L0.592666 0.542938C0.520458 0.62646 0.463722 0.719265 0.42246 0.827536C0.381198 0.935807 0.357988 1.05027 0.355409 1.16782C0.352831 1.28537 0.368304 1.39983 0.401829 1.51119C0.437933 1.62256 0.489511 1.72155 0.556562 1.80816C0.623613 1.89478 0.70098 1.96284 0.79124 2.01233C0.881501 2.06183 0.976919 2.08967 1.07492 2.09276C1.17549 2.09586 1.27091 2.0773 1.36375 2.03708C1.45659 1.99377 1.53912 1.935 1.61132 1.85457C1.62422 1.8391 1.63453 1.82672 1.64743 1.80816L1.79185 1.62256C1.92337 1.44623 1.98526 1.24206 1.9801 1.00696C1.97495 0.771854 1.90274 0.570779 1.76348 0.403732C1.62422 0.236685 1.45659 0.150068 1.2606 0.143881C1.0646 0.137694 0.894395 0.211937 0.747399 0.369704Z" fill="white"/>
</svg>
