<svg width="4" height="5" viewBox="0 0 4 5" fill="none" xmlns="http://www.w3.org/2000/svg">
<path d="M0.721477 3.65125L0.873631 3.83067C1.02063 4.0039 1.18825 4.13692 1.37651 4.23282C1.56735 4.32562 1.76592 4.37202 1.97223 4.37202C2.17597 4.37202 2.37454 4.32562 2.56538 4.22972C2.75363 4.13692 2.92126 4.00081 3.06826 3.82757C3.21268 3.65125 3.32615 3.45017 3.40351 3.22435C3.48346 2.99543 3.52214 2.75724 3.52214 2.51285C3.52214 2.26538 3.48346 2.02718 3.40609 1.79826C3.32615 1.57244 3.21525 1.37136 3.06826 1.19504L2.92126 1.01562C2.77684 0.836196 2.60922 0.700083 2.42096 0.604186C2.23012 0.505195 2.03155 0.455699 1.82524 0.452606C1.61893 0.452606 1.42035 0.495914 1.22952 0.588719C1.03868 0.681523 0.871052 0.814541 0.721477 0.984682C0.57448 1.15792 0.46101 1.35899 0.381065 1.58791C0.298541 1.81373 0.257278 2.05193 0.2547 2.2994C0.2547 2.54688 0.290804 2.78508 0.36817 3.01399C0.445537 3.24291 0.55385 3.44708 0.698267 3.62341L0.721477 3.65125Z" fill="white"/>
</svg>
