<svg width="5" height="5" viewBox="0 0 5 5" fill="none" xmlns="http://www.w3.org/2000/svg">
<path d="M4.18149 4.18557L4.02933 4.36499C3.8617 4.56606 3.66829 4.72074 3.4465 4.8321C3.2273 4.94037 3.00036 4.99606 2.76052 4.99606C2.52327 4.99606 2.29375 4.94037 2.07454 4.8321C1.85534 4.72074 1.66192 4.56606 1.49171 4.36499C1.32409 4.16391 1.19514 3.9319 1.10488 3.66587C1.01204 3.40292 0.968201 3.1276 0.968201 2.84301C0.968201 2.55841 1.01204 2.28309 1.10488 2.02014C1.19514 1.7572 1.32409 1.52519 1.49171 1.32102L1.64129 1.1416C1.81149 0.946713 2.00491 0.795133 2.22411 0.693049C2.44074 0.587871 2.66768 0.538376 2.90236 0.538376C3.13704 0.54147 3.36398 0.597151 3.58061 0.705423C3.79465 0.816787 3.98807 0.968367 4.15312 1.16944C4.32074 1.36742 4.44711 1.59634 4.53995 1.85619C4.63021 2.11604 4.67663 2.38517 4.68179 2.66668C4.68437 2.94818 4.64053 3.22041 4.55542 3.48335C4.47032 3.7432 4.34653 3.97831 4.18406 4.17938L4.18149 4.18557Z" fill="white"/>
</svg>
