<svg width="3" height="4" viewBox="0 0 3 4" fill="none" xmlns="http://www.w3.org/2000/svg">
<path d="M1.38073 0.944173L1.22342 1.11741C1.13316 1.2164 1.06353 1.33395 1.01195 1.46697C0.960376 1.59999 0.932008 1.74229 0.926851 1.89077C0.921693 2.03617 0.939745 2.17846 0.983586 2.31767C1.02485 2.45688 1.08932 2.58061 1.17184 2.68579C1.25695 2.79406 1.35237 2.88068 1.46584 2.94255C1.57673 3.00442 1.69536 3.03535 1.81656 3.04154C1.94035 3.04773 2.05898 3.02607 2.17503 2.97348C2.2885 2.92089 2.39166 2.84665 2.48192 2.74457C2.49997 2.72601 2.51544 2.70745 2.53091 2.68579L2.67533 2.49709C2.75786 2.39501 2.82233 2.27436 2.86617 2.14134C2.91259 2.00832 2.93322 1.86912 2.93064 1.72373C2.93064 1.58143 2.90743 1.44222 2.86101 1.3092C2.81459 1.17618 2.74754 1.05863 2.66244 0.956547C2.57733 0.857556 2.48192 0.777126 2.37102 0.721444C2.26013 0.665761 2.14408 0.637921 2.02288 0.634827C1.90425 0.634827 1.7882 0.659574 1.67731 0.712163C1.56641 0.767845 1.46584 0.842088 1.38073 0.944173Z" fill="white"/>
</svg>
