<svg width="4" height="5" viewBox="0 0 4 5" fill="none" xmlns="http://www.w3.org/2000/svg">
<path d="M2.8291 0.882356L2.98125 1.06487C3.1102 1.22882 3.21077 1.41443 3.2804 1.62788C3.35003 1.83824 3.38356 2.05478 3.38098 2.28369C3.38098 2.50952 3.3423 2.72606 3.27009 2.93642C3.19788 3.14368 3.0973 3.32929 2.9632 3.49324C2.83168 3.6541 2.67694 3.77784 2.50416 3.86755C2.33137 3.95726 2.15085 4.00675 1.96259 4.00985C1.77176 4.01603 1.59124 3.97891 1.41329 3.89848C1.23793 3.81805 1.07804 3.7005 0.941357 3.54583L0.925884 3.53036L0.77373 3.34785C0.644786 3.18389 0.546789 2.99519 0.479738 2.78174C0.410108 2.57139 0.379162 2.35175 0.38174 2.12593C0.384319 1.90011 0.423002 1.68356 0.495211 1.47321C0.569998 1.26595 0.673154 1.08034 0.807256 0.922571C0.941357 0.761711 1.09351 0.637973 1.2663 0.548262C1.44166 0.461645 1.62218 0.415243 1.81044 0.41215C2.00128 0.405963 2.1818 0.446178 2.35974 0.526608C2.53511 0.610132 2.69242 0.727684 2.8291 0.882356Z" fill="white"/>
</svg>
