<svg width="2" height="3" viewBox="0 0 2 3" fill="none" xmlns="http://www.w3.org/2000/svg">
<path d="M1.57089 0.9056L1.7282 1.07574C1.79783 1.14998 1.85199 1.2366 1.89067 1.33868C1.92935 1.43768 1.95256 1.54285 1.95772 1.65422C1.96288 1.76558 1.94741 1.87385 1.91646 1.97594C1.88551 2.08112 1.83909 2.17392 1.7772 2.25744C1.71531 2.34097 1.6431 2.40593 1.56057 2.45233C1.47547 2.49873 1.38779 2.52657 1.29495 2.53276C1.20211 2.53585 1.11443 2.52039 1.02674 2.48327C0.939063 2.44614 0.861697 2.39046 0.792067 2.31622L0.743068 2.25744L0.60123 2.06874C0.477443 1.90479 0.415551 1.71299 0.420708 1.49336C0.423287 1.27372 0.490338 1.08502 0.621861 0.927254C0.750804 0.772581 0.908116 0.692151 1.09122 0.685964C1.2769 0.682871 1.43679 0.754019 1.57089 0.9056Z" fill="white"/>
</svg>
