<svg width="3" height="3" viewBox="0 0 3 3" fill="none" xmlns="http://www.w3.org/2000/svg">
<path d="M2.00326 2.19034L1.84594 2.36666C1.74279 2.45947 1.6319 2.52752 1.50811 2.57083C1.38432 2.61414 1.26054 2.62961 1.13159 2.62033C1.00265 2.60795 0.881443 2.57083 0.765393 2.50587C0.646765 2.444 0.54361 2.35738 0.453349 2.24911C0.363088 2.13775 0.290879 2.01401 0.236723 1.8748C0.185145 1.7356 0.154198 1.58711 0.143883 1.43553C0.136146 1.28086 0.149041 1.12928 0.185145 0.983886C0.221249 0.8354 0.277984 0.699287 0.355351 0.575549L0.502347 0.389941C0.600344 0.28167 0.713816 0.198147 0.840181 0.139371C0.966546 0.0836887 1.09549 0.0558472 1.22959 0.0558472C1.36369 0.0589404 1.49522 0.0898745 1.619 0.151744C1.74537 0.21052 1.85626 0.297137 1.95168 0.408502C2.04968 0.519867 2.12704 0.649792 2.18378 0.795185C2.24051 0.940577 2.27404 1.09525 2.28178 1.25611C2.29209 1.41697 2.27404 1.57474 2.23278 1.72941C2.19151 1.88099 2.12704 2.0202 2.04194 2.14703C2.02904 2.16249 2.01615 2.17796 2.00326 2.19034Z" fill="white"/>
</svg>
