<svg width="3" height="4" viewBox="0 0 3 4" fill="none" xmlns="http://www.w3.org/2000/svg">
<path d="M0.511801 2.46975L0.666534 2.64608C0.772268 2.77601 0.896054 2.875 1.03531 2.94305C1.17457 3.01111 1.31899 3.04823 1.47114 3.04823C1.62072 3.04823 1.76514 3.01111 1.9044 2.94305C2.04366 2.875 2.16744 2.77601 2.27318 2.64608C2.38149 2.51925 2.46143 2.37076 2.52075 2.20681C2.57748 2.03976 2.60585 1.86344 2.60585 1.68402C2.60585 1.5015 2.57748 1.32827 2.52075 1.16122C2.46143 0.994174 2.38149 0.84878 2.27318 0.718855L2.1236 0.536341C2.01787 0.412603 1.89666 0.316705 1.75998 0.251742C1.6233 0.183687 1.48146 0.149658 1.33189 0.149658C1.18489 0.149658 1.04305 0.183686 0.90637 0.248649C0.769689 0.316705 0.645903 0.409509 0.540169 0.533248C0.434434 0.656986 0.351911 0.799285 0.290018 0.960145C0.230704 1.1241 0.197178 1.29115 0.19202 1.47057C0.186862 1.64689 0.210072 1.81703 0.259071 1.98408C0.310648 2.15113 0.385436 2.29961 0.483434 2.43263L0.511801 2.46975Z" fill="white"/>
</svg>
