<svg width="4" height="5" viewBox="0 0 4 5" fill="none" xmlns="http://www.w3.org/2000/svg">
<path d="M1.0957 1.33895L0.943551 1.51837C0.804291 1.67613 0.693399 1.85865 0.613454 2.06591C0.536087 2.27626 0.492247 2.4959 0.487089 2.72482C0.481931 2.95373 0.515456 3.17646 0.585086 3.38991C0.654716 3.60336 0.755292 3.79206 0.889394 3.95601C1.0235 4.11997 1.17823 4.2468 1.35359 4.33651C1.53154 4.42622 1.71464 4.46953 1.90547 4.46953C2.09889 4.46953 2.28199 4.42622 2.45735 4.33651C2.6353 4.2468 2.79003 4.11687 2.92155 3.95292L3.09692 3.74257C3.22844 3.58171 3.32902 3.39919 3.39865 3.19193C3.46827 2.98467 3.50438 2.76812 3.5018 2.5423C3.5018 2.31957 3.4657 2.10612 3.39349 1.89886C3.32128 1.6916 3.2207 1.50909 3.08918 1.35132C2.95766 1.19355 2.8055 1.06981 2.63272 0.983197C2.45993 0.89658 2.27941 0.853271 2.09373 0.853271C1.90805 0.853271 1.72753 0.893487 1.55475 0.97701C1.38196 1.06363 1.22981 1.18427 1.0957 1.33895Z" fill="white"/>
</svg>
