<svg width="3" height="3" viewBox="0 0 3 3" fill="none" xmlns="http://www.w3.org/2000/svg">
<path d="M2.12281 0.611967L2.27754 0.791387C2.36007 0.884191 2.42454 0.995556 2.47096 1.12239C2.51738 1.24922 2.54317 1.38224 2.54575 1.51835C2.54833 1.65756 2.52769 1.79058 2.48643 1.9205C2.44517 2.04733 2.38586 2.16179 2.30591 2.26078C2.22596 2.36287 2.13312 2.4402 2.02739 2.49589C1.92424 2.55157 1.81334 2.57941 1.69729 2.5825C1.58382 2.58869 1.47293 2.56394 1.36462 2.51445C1.25631 2.46495 1.16089 2.39071 1.07836 2.2979L1.05 2.26078L0.902999 2.07517C0.823053 1.97928 0.76116 1.86791 0.717319 1.74108C0.673479 1.61425 0.650269 1.48123 0.650269 1.34512C0.650269 1.209 0.673479 1.07599 0.717319 0.949154C0.758582 0.822322 0.823053 0.710957 0.902999 0.611967C0.982944 0.516069 1.07578 0.441826 1.18152 0.389237C1.28725 0.336649 1.39814 0.308807 1.51419 0.308807C1.62766 0.308807 1.73856 0.333554 1.84429 0.386144C1.95002 0.438733 2.04286 0.512976 2.12281 0.611967Z" fill="white"/>
</svg>
