<svg width="2" height="3" viewBox="0 0 2 3" fill="none" xmlns="http://www.w3.org/2000/svg">
<path d="M0.573683 2.23896L0.728416 2.41219C0.847044 2.53903 0.983726 2.5978 1.14104 2.59471C1.30093 2.58852 1.43503 2.52046 1.54592 2.38435C1.65939 2.25133 1.71613 2.09047 1.72129 1.89868C1.72386 1.70998 1.67487 1.54602 1.56913 1.40372L1.42214 1.21812C1.36798 1.14387 1.30351 1.08819 1.22872 1.04488C1.15651 1.00467 1.07914 0.983014 0.99662 0.976827C0.916674 0.973734 0.839308 0.989201 0.761942 1.02323C0.687154 1.05726 0.617524 1.10675 0.560789 1.17481C0.501475 1.24287 0.455055 1.3202 0.421529 1.40991C0.390583 1.49962 0.372531 1.59243 0.372531 1.68832C0.369952 1.78731 0.385425 1.88012 0.416372 1.96983C0.447318 2.06263 0.491159 2.13997 0.550473 2.20803L0.573683 2.23896Z" fill="white"/>
</svg>
