<svg width="4" height="5" viewBox="0 0 4 5" fill="none" xmlns="http://www.w3.org/2000/svg">
<path d="M1.04354 3.65131L1.19312 3.83073C1.3298 3.98849 1.48453 4.10605 1.6599 4.18957C1.83526 4.27309 2.01578 4.31331 2.20404 4.31331C2.3923 4.31021 2.57282 4.26381 2.7456 4.17719C2.91839 4.09058 3.07312 3.96684 3.20465 3.80598C3.33875 3.64821 3.4419 3.4626 3.51411 3.25534C3.58632 3.04808 3.625 2.83154 3.62758 2.60572C3.62758 2.37989 3.59406 2.16335 3.52443 1.95299C3.4548 1.74264 3.3568 1.55703 3.22528 1.39308L3.0757 1.21366C2.94418 1.04661 2.78945 0.919778 2.61408 0.826974C2.43872 0.73417 2.25304 0.687769 2.0622 0.684675C1.87136 0.681582 1.68568 0.721796 1.50774 0.80532C1.3298 0.891937 1.17249 1.01258 1.03581 1.17344C0.899126 1.3343 0.793392 1.51991 0.718605 1.73027C0.641238 1.94062 0.602555 2.16335 0.602555 2.39227C0.599976 2.62118 0.633501 2.84391 0.70571 3.05736C0.777918 3.26772 0.881074 3.45642 1.01518 3.62037L1.04354 3.65131Z" fill="white"/>
</svg>
