<svg width="4" height="3" viewBox="0 0 4 3" fill="none" xmlns="http://www.w3.org/2000/svg">
<path d="M1.33449 0.491576L1.17976 0.667903C1.06887 0.788548 0.981184 0.927754 0.916711 1.08861C0.85224 1.25257 0.816135 1.42271 0.810977 1.59904C0.805819 1.77846 0.82645 1.95169 0.880607 2.11874C0.932185 2.28888 1.00955 2.43736 1.11271 2.56729C1.21586 2.69721 1.33449 2.79621 1.47117 2.86735C1.60785 2.9416 1.75227 2.97563 1.90184 2.97872C2.04884 2.98181 2.19326 2.94779 2.33252 2.87973C2.4692 2.81167 2.59041 2.71268 2.69614 2.58585L2.7374 2.53635L2.8844 2.35075C2.98497 2.22701 3.06492 2.08471 3.11908 1.92385C3.17581 1.76299 3.20418 1.59594 3.20418 1.42271C3.20418 1.24638 3.17581 1.07933 3.11908 0.918474C3.06492 0.757613 2.98497 0.615314 2.88182 0.494669C2.77866 0.370931 2.66003 0.275034 2.52593 0.210071C2.39183 0.142015 2.25257 0.107986 2.10815 0.107986C1.96374 0.107986 1.82448 0.142015 1.69038 0.206977C1.55627 0.275034 1.43765 0.367837 1.33449 0.491576Z" fill="white"/>
</svg>
