<svg width="3" height="3" viewBox="0 0 3 3" fill="none" xmlns="http://www.w3.org/2000/svg">
<path d="M1.04957 0.714813L0.894833 0.891141C0.771047 1.04272 0.706575 1.22523 0.703996 1.44178C0.701417 1.65523 0.76331 1.83774 0.884518 1.99551C1.0083 2.15018 1.15788 2.23061 1.33582 2.23989C1.51376 2.24917 1.67108 2.18421 1.8026 2.04191C1.81291 2.03263 1.82065 2.02335 1.82839 2.01097L1.97538 1.82846C2.09401 1.67069 2.14817 1.48818 2.14559 1.28092C2.14043 1.07056 2.07596 0.891141 1.95217 0.742655C1.82839 0.594168 1.67881 0.516832 1.50603 0.513738C1.33066 0.507551 1.17851 0.575608 1.04957 0.714813Z" fill="white"/>
</svg>
