<svg width="4" height="5" viewBox="0 0 4 5" fill="none" xmlns="http://www.w3.org/2000/svg">
<path d="M3.31208 3.50778L3.15993 3.68721C3.02583 3.85116 2.86852 3.9749 2.69315 4.06461C2.51521 4.15122 2.32953 4.19453 2.13869 4.19453C1.94786 4.19453 1.76475 4.15122 1.58681 4.06461C1.40887 3.9749 1.25414 3.85116 1.11746 3.68721C0.983353 3.52635 0.87762 3.33764 0.805411 3.12729C0.730624 2.91384 0.694519 2.6942 0.694519 2.46219C0.694519 2.23328 0.730624 2.01364 0.805411 1.80019C0.87762 1.58674 0.983353 1.40114 1.11746 1.23718L1.26703 1.05776C1.39855 0.881435 1.55587 0.745323 1.73381 0.646332C1.91175 0.547341 2.10001 0.494752 2.296 0.488565C2.49458 0.482378 2.68284 0.522593 2.86594 0.606117C3.04904 0.692734 3.21151 0.819565 3.35334 0.983519C3.4926 1.15057 3.60092 1.34236 3.6757 1.5589C3.75049 1.77854 3.78918 2.00436 3.7866 2.23946C3.78402 2.47457 3.74533 2.70348 3.66539 2.92003C3.58802 3.13348 3.47713 3.32527 3.33271 3.48613L3.31208 3.50778Z" fill="white"/>
</svg>
