<svg width="3" height="4" viewBox="0 0 3 4" fill="none" xmlns="http://www.w3.org/2000/svg">
<path d="M1.95937 0.681697L2.1141 0.858025C2.21726 0.978669 2.2972 1.11478 2.35652 1.27255C2.41325 1.42722 2.44162 1.59118 2.4442 1.76441C2.44936 1.93455 2.42357 2.1016 2.37199 2.25936C2.32041 2.42022 2.24305 2.55943 2.14505 2.68317C2.04705 2.80691 1.931 2.9028 1.79948 2.97086C1.67054 3.04201 1.53386 3.07604 1.38944 3.07913C1.2476 3.08222 1.11092 3.05438 0.976817 2.99251C0.842716 2.93064 0.726666 2.83784 0.623511 2.72029L0.589985 2.68317L0.442989 2.49447C0.344991 2.37382 0.267625 2.23461 0.213469 2.07994C0.159312 1.92218 0.130945 1.75822 0.133523 1.58808C0.133523 1.41794 0.159312 1.25708 0.213469 1.09931C0.267625 0.941549 0.344991 0.802342 0.445568 0.684791C0.546144 0.564145 0.659615 0.471342 0.791138 0.406379C0.92266 0.341417 1.05934 0.307388 1.20118 0.307388C1.34044 0.307388 1.47712 0.341417 1.60864 0.406379C1.74017 0.471342 1.85622 0.561053 1.95421 0.681697H1.95937Z" fill="white"/>
</svg>
