<svg width="4" height="4" viewBox="0 0 4 4" fill="none" xmlns="http://www.w3.org/2000/svg">
<path d="M1.28122 3.02799L1.43595 3.20741C1.55716 3.34971 1.69384 3.46108 1.85115 3.53841C2.00846 3.61575 2.17351 3.65596 2.34372 3.65596C2.51392 3.65596 2.67639 3.61575 2.83371 3.53841C2.99102 3.45798 3.13028 3.34971 3.24891 3.20432C3.37011 3.05893 3.46295 2.89188 3.52742 2.70627C3.59448 2.51757 3.62542 2.31959 3.62542 2.11542C3.62542 1.91125 3.59448 1.71636 3.53 1.52766C3.46553 1.33896 3.37269 1.17191 3.25148 1.02652L3.10449 0.844007C2.98586 0.69552 2.84918 0.581063 2.69187 0.500632C2.53456 0.417109 2.37209 0.3738 2.20188 0.370707C2.02909 0.367613 1.86405 0.401641 1.70673 0.478978C1.54684 0.553221 1.40501 0.661492 1.2838 0.803792C1.16001 0.946091 1.06459 1.11004 0.997542 1.29875C0.927913 1.48745 0.891808 1.68234 0.889229 1.8865C0.886651 2.09377 0.915018 2.29175 0.97949 2.48045C1.04138 2.67224 1.13164 2.84238 1.25027 2.98778C1.26059 3.00324 1.2709 3.01562 1.28122 3.02799Z" fill="white"/>
</svg>
