<svg width="2" height="3" viewBox="0 0 2 3" fill="none" xmlns="http://www.w3.org/2000/svg">
<path d="M0.575195 1.78283L0.727349 1.95916C0.7944 2.0365 0.869187 2.09527 0.95429 2.13549C1.03681 2.1757 1.12707 2.19736 1.21734 2.19427C1.3076 2.19427 1.39528 2.17261 1.48038 2.1324C1.56548 2.08909 1.64027 2.03031 1.70474 1.95297C1.76922 1.87254 1.81822 1.78593 1.85432 1.68384C1.89042 1.58176 1.90848 1.47658 1.90848 1.36831C1.90848 1.25695 1.89042 1.15177 1.8569 1.04968C1.82337 0.947599 1.77437 0.857889 1.7099 0.780553L1.56548 0.591851C1.50101 0.508328 1.42623 0.443365 1.34112 0.396963C1.2586 0.350561 1.16834 0.325814 1.0755 0.32272C0.982658 0.319627 0.889818 0.338188 0.804715 0.375309C0.717033 0.415525 0.637087 0.4743 0.570037 0.548543C0.502986 0.625879 0.44883 0.71559 0.410146 0.817674C0.371464 0.919758 0.350832 1.02803 0.345674 1.13939C0.343096 1.25076 0.358569 1.35903 0.392094 1.46421C0.423041 1.56939 0.472039 1.66219 0.536511 1.74262L0.575195 1.78283Z" fill="white"/>
</svg>
