<svg width="4" height="5" viewBox="0 0 4 5" fill="none" xmlns="http://www.w3.org/2000/svg">
<path d="M3.03374 3.50682L2.88159 3.68624C2.75264 3.83782 2.60307 3.95228 2.43544 4.03271C2.27039 4.11004 2.09503 4.15026 1.91451 4.14716C1.73656 4.14716 1.56378 4.10386 1.39615 4.02033C1.2311 3.93681 1.08411 3.81616 0.957741 3.66458C0.828797 3.513 0.730799 3.33668 0.661169 3.1356C0.591539 2.93762 0.555435 2.73036 0.552856 2.51382C0.552856 2.29727 0.583803 2.09001 0.650854 1.88894C0.717905 1.68786 0.813323 1.51153 0.93711 1.35377L1.08668 1.17435C1.21563 1.02586 1.36262 0.911402 1.52767 0.830972C1.6953 0.750542 1.86809 0.710327 2.04603 0.710327C2.22397 0.710327 2.39676 0.753635 2.5618 0.834066C2.72685 0.914495 2.87385 1.02895 3.00279 1.17744C3.13174 1.32902 3.22973 1.49916 3.30194 1.69714C3.37415 1.89203 3.41283 2.09929 3.41799 2.31274C3.42573 2.52619 3.39736 2.73345 3.33547 2.93453C3.27358 3.1356 3.18074 3.31502 3.06211 3.47588C3.05179 3.48516 3.04405 3.49754 3.03374 3.50682Z" fill="white"/>
</svg>
