<svg width="2" height="2" viewBox="0 0 2 2" fill="none" xmlns="http://www.w3.org/2000/svg">
<path d="M0.704455 0.449735L0.549722 0.626063C0.492987 0.675558 0.446567 0.734334 0.413042 0.805484C0.379516 0.87354 0.358885 0.950877 0.351148 1.03131C0.343412 1.11483 0.351148 1.19526 0.37178 1.2726C0.39499 1.34993 0.428515 1.41799 0.474935 1.47986C0.521355 1.53863 0.575511 1.58504 0.637404 1.61597C0.701876 1.65 0.766349 1.66547 0.835978 1.66237C0.903029 1.65928 0.967501 1.64072 1.02939 1.60669C1.09129 1.56957 1.14544 1.52007 1.18928 1.4582L1.20992 1.43036L1.35691 1.24166C1.44717 1.13339 1.49359 1.00037 1.49359 0.845699C1.49359 0.691025 1.44717 0.561099 1.35691 0.449735C1.26407 0.341464 1.15576 0.285782 1.02682 0.285782C0.897871 0.285782 0.786979 0.341464 0.696718 0.449735H0.704455Z" fill="white"/>
</svg>
