<svg width="4" height="4" viewBox="0 0 4 4" fill="none" xmlns="http://www.w3.org/2000/svg">
<path d="M1.30281 0.569402L1.15066 0.748823C1.01913 0.906589 0.918558 1.0891 0.848929 1.29637C0.779299 1.50053 0.743195 1.71708 0.743195 1.93981C0.743195 2.16253 0.779299 2.37598 0.848929 2.58325C0.918558 2.78741 1.01913 2.96993 1.15066 3.1277C1.2796 3.28856 1.43176 3.4092 1.60196 3.49891C1.77217 3.58553 1.95011 3.62884 2.13579 3.63502C2.32147 3.63812 2.50199 3.5979 2.67478 3.51747C2.84756 3.43395 2.99972 3.3164 3.13382 3.16172L3.14929 3.14626L3.29887 2.96374C3.42523 2.80288 3.52323 2.62037 3.59286 2.4162C3.65991 2.20894 3.69343 1.99549 3.69086 1.77276C3.68828 1.55312 3.65217 1.33967 3.57996 1.13551C3.50775 0.931336 3.40718 0.751916 3.27823 0.594149C3.14671 0.439476 2.99714 0.318831 2.82693 0.232214C2.65672 0.145597 2.47878 0.102289 2.29568 0.0991954C2.11 0.0961021 1.93206 0.136317 1.75927 0.216747C1.58907 0.300271 1.43691 0.417822 1.30281 0.569402Z" fill="white"/>
</svg>
