<svg width="5" height="5" viewBox="0 0 5 5" fill="none" xmlns="http://www.w3.org/2000/svg">
<path d="M3.46088 0.968466L3.61046 1.15098C3.77035 1.33968 3.89414 1.55932 3.98182 1.80989C4.06692 2.05736 4.11076 2.31722 4.11076 2.58944C4.11334 2.85857 4.0695 3.11842 3.9844 3.36899C3.89929 3.61647 3.77551 3.8392 3.6182 4.0279C3.4583 4.2197 3.2752 4.36818 3.06889 4.47336C2.86 4.57544 2.64338 4.62803 2.41902 4.62803C2.19465 4.63113 1.97803 4.57854 1.76914 4.47645C1.56025 4.37437 1.37715 4.22898 1.21726 4.03718V4.02481L1.06768 3.84229C0.912949 3.6505 0.7969 3.43086 0.714376 3.18339C0.634431 2.93591 0.595748 2.68224 0.598326 2.41621C0.600905 2.15017 0.644746 1.89341 0.729849 1.64903C0.814952 1.40464 0.93616 1.1881 1.09347 1.00249C1.25078 0.813793 1.43131 0.6684 1.63504 0.566316C1.83877 0.461138 2.05024 0.408549 2.27202 0.405456C2.4938 0.402363 2.70785 0.451858 2.91416 0.547755C3.12047 0.643653 3.30357 0.785951 3.46346 0.968466H3.46088Z" fill="white"/>
</svg>
