<svg width="3" height="4" viewBox="0 0 3 4" fill="none" xmlns="http://www.w3.org/2000/svg">
<path d="M0.551267 0.923609L0.399113 1.10303C0.288222 1.24224 0.203118 1.4 0.143804 1.57633C0.0844893 1.75575 0.0561218 1.94136 0.0561218 2.13006C0.0561218 2.32185 0.0870682 2.50746 0.146383 2.68379C0.208276 2.86321 0.293379 3.02098 0.404271 3.15709C0.515163 3.29629 0.644107 3.40457 0.788524 3.4819C0.93552 3.55924 1.08767 3.60255 1.24756 3.60873C1.40746 3.61492 1.56219 3.58708 1.71176 3.52212C1.86392 3.45715 1.99802 3.36126 2.11665 3.23133L2.14759 3.2004L2.29459 3.01479C2.41064 2.87558 2.5009 2.71472 2.56279 2.5353C2.62469 2.35279 2.65563 2.16409 2.65563 1.9692C2.65563 1.77431 2.62469 1.58561 2.56021 1.4031C2.49832 1.22367 2.41064 1.06281 2.29459 0.923609C2.17854 0.787497 2.04444 0.679226 1.89486 0.604982C1.74271 0.530739 1.58798 0.493618 1.42293 0.490524C1.26046 0.490524 1.10315 0.527646 0.950993 0.604982C0.801418 0.679226 0.667316 0.784403 0.551267 0.923609Z" fill="white"/>
</svg>
