<svg width="4" height="4" viewBox="0 0 4 4" fill="none" xmlns="http://www.w3.org/2000/svg">
<path d="M0.597982 3.34643L0.750136 3.52585C0.881659 3.66506 1.03123 3.77024 1.19628 3.84139C1.36133 3.91563 1.53154 3.94656 1.7069 3.94038C1.88226 3.93419 2.04989 3.88779 2.21236 3.80427C2.37225 3.72074 2.51409 3.60319 2.63788 3.4547C2.76166 3.30622 2.85966 3.13298 2.92929 2.94119C2.99634 2.7463 3.03502 2.54523 3.04018 2.33487C3.04534 2.12452 3.01697 1.92035 2.95508 1.72237C2.89577 1.52438 2.80808 1.34496 2.68945 1.19029L2.53988 1.00468C2.41094 0.862382 2.26394 0.757205 2.09889 0.682962C1.93642 0.608719 1.76622 0.574691 1.59085 0.577784C1.41549 0.580878 1.24786 0.624186 1.08539 0.704616C0.922921 0.785046 0.781082 0.899504 0.654717 1.0449C0.528352 1.19338 0.430355 1.36043 0.358146 1.55222C0.285937 1.74402 0.247254 1.94509 0.236939 2.15545C0.229202 2.36581 0.254991 2.56997 0.311726 2.76796C0.368462 2.96594 0.453565 3.14536 0.567035 3.30622L0.597982 3.34643Z" fill="white"/>
</svg>
