<svg width="5" height="6" viewBox="0 0 5 6" fill="none" xmlns="http://www.w3.org/2000/svg">
<path d="M3.56144 4.34368L3.41186 4.5231C3.24682 4.71799 3.05856 4.86957 2.84709 4.97474C2.63304 5.07992 2.41126 5.13251 2.18174 5.13251C1.94964 5.13251 1.72786 5.07992 1.51381 4.97474C1.30234 4.86957 1.11408 4.71799 0.949034 4.5231C0.786564 4.32821 0.660199 4.10239 0.572517 3.84563C0.484835 3.58887 0.440995 3.32283 0.438416 3.04752C0.438416 2.7691 0.482257 2.50307 0.569938 2.2494C0.660199 1.99265 0.783985 1.76682 0.946455 1.56884L1.09603 1.38633C1.26108 1.18835 1.44934 1.03677 1.66338 0.928495C1.87743 0.820224 2.09922 0.767636 2.33131 0.764542C2.56341 0.764542 2.78778 0.817131 3.00182 0.922308C3.21845 1.02749 3.40671 1.17907 3.57176 1.37395C3.7368 1.57194 3.86317 1.79776 3.95343 2.05452C4.04369 2.31127 4.09011 2.57731 4.09011 2.85882C4.09011 3.13723 4.04627 3.40327 3.95859 3.66002C3.87091 3.91987 3.74454 4.1457 3.58207 4.34368H3.56144Z" fill="white"/>
</svg>
