<svg width="4" height="5" viewBox="0 0 4 5" fill="none" xmlns="http://www.w3.org/2000/svg">
<path d="M2.7312 1.03798L2.88335 1.2174C3.01488 1.37517 3.11287 1.55769 3.18508 1.76185C3.25471 1.96912 3.29082 2.18256 3.29082 2.40529C3.29082 2.62802 3.25471 2.84457 3.18508 3.04873C3.11287 3.256 3.0123 3.43851 2.88335 3.59628C2.75183 3.75404 2.60226 3.87778 2.43205 3.9644C2.25926 4.05102 2.08132 4.09742 1.89564 4.10051C1.70996 4.10361 1.53202 4.06339 1.35923 3.98296C1.18645 3.90253 1.03172 3.78498 0.897615 3.63031L0.884721 3.61484L0.735146 3.42923C0.606201 3.27146 0.508205 3.08895 0.441153 2.88169C0.374102 2.67752 0.340577 2.46407 0.343156 2.24134C0.343156 2.01861 0.381839 1.80826 0.451469 1.60409C0.523678 1.39992 0.624254 1.2205 0.755777 1.06273C0.887299 0.904966 1.03688 0.78432 1.20708 0.697703C1.37729 0.614179 1.55523 0.567778 1.73833 0.567778C1.92401 0.564684 2.10195 0.604899 2.27216 0.685329C2.44494 0.765759 2.5971 0.883311 2.7312 1.03798Z" fill="white"/>
</svg>
