<svg width="4" height="4" viewBox="0 0 4 4" fill="none" xmlns="http://www.w3.org/2000/svg">
<path d="M3.36927 0.62428L3.52142 0.803701C3.64779 0.976935 3.74579 1.16873 3.81026 1.38527C3.87731 1.60181 3.90568 1.82454 3.90052 2.05346C3.89536 2.28238 3.85668 2.50511 3.77931 2.71546C3.70452 2.92582 3.59879 3.11452 3.46469 3.27538C3.33059 3.43933 3.17585 3.56616 2.99791 3.65897C2.82255 3.75177 2.63945 3.80127 2.44861 3.80745C2.25777 3.81673 2.07209 3.78271 1.89157 3.70537C1.71105 3.62803 1.54858 3.51357 1.40416 3.36199L1.39127 3.34653L1.24169 3.16401C1.10243 2.99387 0.994121 2.79898 0.916754 2.57935C0.841967 2.35662 0.803284 2.1277 0.803284 1.88641C0.803284 1.64822 0.841967 1.41621 0.919333 1.19657C0.996699 0.976935 1.10501 0.778954 1.24427 0.611906C1.38611 0.441766 1.54858 0.31184 1.73426 0.219036C1.91736 0.126232 2.11078 0.082924 2.30935 0.082924C2.50792 0.0798308 2.70134 0.126232 2.88444 0.219036C3.07012 0.308747 3.23259 0.438672 3.37443 0.608813L3.36927 0.62428Z" fill="white"/>
</svg>
