<svg width="5" height="5" viewBox="0 0 5 5" fill="none" xmlns="http://www.w3.org/2000/svg">
<path d="M1.42069 1.47205L1.26854 1.64838C1.11896 1.8278 1.00291 2.03506 0.920387 2.27017C0.837862 2.50527 0.7966 2.74966 0.7966 3.00332C0.7966 3.25698 0.835283 3.50137 0.915229 3.73647C0.995174 3.97157 1.11122 4.17883 1.25822 4.36135C1.40779 4.54077 1.58058 4.67998 1.77657 4.77897C1.96999 4.87796 2.17372 4.92745 2.38777 4.92745C2.59924 4.93055 2.80297 4.88414 2.99896 4.78825C3.19496 4.69235 3.36774 4.55314 3.5199 4.37682L3.53021 4.36135L3.67979 4.18193C3.81905 3.99941 3.92736 3.79215 4.00215 3.56014C4.07694 3.32813 4.11046 3.08684 4.10788 2.83937C4.1053 2.59189 4.06146 2.35369 3.98152 2.12478C3.89899 1.89586 3.78552 1.69478 3.63853 1.51846C3.49411 1.34213 3.3239 1.20602 3.13307 1.10703C2.94223 1.01113 2.74366 0.961633 2.53734 0.955447C2.33103 0.952353 2.12988 0.995662 1.93647 1.08228C1.74305 1.17199 1.57026 1.30191 1.42069 1.47205Z" fill="white"/>
</svg>
