<svg width="4" height="5" viewBox="0 0 4 5" fill="none" xmlns="http://www.w3.org/2000/svg">
<path d="M0.87 4.01774L1.02215 4.20026C1.17689 4.38587 1.35741 4.52817 1.56114 4.63025C1.76229 4.72924 1.97376 4.77874 2.19554 4.77874C2.41475 4.77874 2.62622 4.72924 2.82737 4.62716C3.0311 4.52817 3.20904 4.38277 3.36636 4.19717C3.52109 4.01156 3.63972 3.79502 3.72482 3.55372C3.80734 3.30934 3.85119 3.05568 3.85119 2.79273C3.85119 2.52979 3.80992 2.27612 3.72482 2.03174C3.6423 1.78736 3.52109 1.57391 3.36636 1.3883L3.21678 1.20579C3.06205 1.01709 2.88411 0.871693 2.68037 0.766515C2.47664 0.664431 2.26517 0.611843 2.04597 0.608749C1.82676 0.605655 1.61272 0.655151 1.40899 0.754141C1.20525 0.853132 1.02473 0.995431 0.867421 1.18104C0.710109 1.36665 0.588901 1.5801 0.503799 1.82448C0.418695 2.06577 0.374854 2.31943 0.372276 2.58547C0.369697 2.84842 0.410959 3.10208 0.493483 3.34956C0.576007 3.59394 0.694636 3.81048 0.849369 3.99918L0.87 4.01774Z" fill="white"/>
</svg>
