<svg width="3" height="4" viewBox="0 0 3 4" fill="none" xmlns="http://www.w3.org/2000/svg">
<path d="M0.781058 1.29757L0.626325 1.47389C0.533485 1.57907 0.461276 1.7059 0.40712 1.8482C0.355542 1.9905 0.327174 2.13899 0.324596 2.29366C0.322016 2.44834 0.345227 2.59992 0.391647 2.74531C0.438066 2.88761 0.507696 3.01753 0.597957 3.1289C0.685639 3.24336 0.791373 3.32997 0.910002 3.39184C1.02863 3.45371 1.15242 3.48774 1.28136 3.49083C1.4103 3.49393 1.53667 3.46608 1.65788 3.4104C1.77651 3.35472 1.88482 3.27429 1.97766 3.16602C1.98797 3.15364 1.99829 3.14127 2.0086 3.1289L2.1556 2.94638C2.24586 2.83502 2.31549 2.71128 2.36707 2.56589C2.41607 2.42359 2.43928 2.2751 2.43928 2.12043C2.43928 1.96575 2.41607 1.81727 2.36707 1.67497C2.31549 1.53267 2.24586 1.40584 2.1556 1.29757C2.06276 1.1862 1.95961 1.10268 1.8384 1.0439C1.71977 0.985128 1.59598 0.954193 1.46704 0.954193C1.3381 0.954193 1.21431 0.985128 1.09568 1.0439C0.977053 1.10268 0.871318 1.1862 0.781058 1.29757Z" fill="white"/>
</svg>
