<svg width="4" height="5" viewBox="0 0 4 5" fill="none" xmlns="http://www.w3.org/2000/svg">
<path d="M0.607717 3.8891L0.759871 4.06852C0.914604 4.25723 1.09255 4.39953 1.29628 4.50161C1.50001 4.6006 1.71148 4.65319 1.93068 4.65319C2.14989 4.65319 2.36393 4.6006 2.56509 4.50161C2.76882 4.39953 2.94934 4.25723 3.10407 4.06852C3.25881 3.88292 3.38001 3.66637 3.46254 3.42508C3.54764 3.1807 3.5889 2.92704 3.5889 2.66409C3.5889 2.39805 3.54764 2.14439 3.46254 1.9031C3.38001 1.65872 3.25881 1.44217 3.10407 1.25657L2.95192 1.07405C2.80235 0.866791 2.6244 0.70593 2.41551 0.588379C2.2092 0.467733 1.99258 0.405864 1.76306 0.396584C1.53354 0.384209 1.31433 0.430612 1.10028 0.529603C0.886236 0.631687 0.697978 0.77708 0.535509 0.971968C0.373039 1.16376 0.249253 1.38959 0.16415 1.64325C0.0816257 1.90001 0.0403634 2.16604 0.0481002 2.43827C0.0558364 2.71359 0.107415 2.97653 0.205412 3.22401C0.30083 3.47149 0.434932 3.68803 0.607717 3.87054V3.8891Z" fill="white"/>
</svg>
