<svg width="4" height="5" viewBox="0 0 4 5" fill="none" xmlns="http://www.w3.org/2000/svg">
<path d="M0.962239 3.39593L1.11439 3.57844C1.26655 3.73621 1.43675 3.85685 1.62759 3.93728C1.81843 4.01771 2.01442 4.05484 2.21557 4.04556C2.41673 4.03937 2.61014 3.98678 2.79582 3.89088C2.9815 3.79499 3.14655 3.65887 3.28839 3.48873C3.43023 3.31859 3.5437 3.1237 3.62364 2.90097C3.70617 2.67825 3.75001 2.44624 3.75775 2.20495C3.76548 1.96366 3.73711 1.72855 3.67006 1.49964C3.60301 1.27072 3.50244 1.06655 3.37091 0.880944L3.22134 0.701523C3.07176 0.512822 2.90156 0.367429 2.70298 0.265345C2.50699 0.163261 2.30068 0.107578 2.08663 0.104485C1.87258 0.101391 1.66627 0.147793 1.4677 0.24369C1.26655 0.339588 1.09118 0.478793 0.939029 0.658214C0.786875 0.840728 0.668247 1.05108 0.588301 1.28619C0.505777 1.52438 0.464515 1.77186 0.467094 2.03171C0.467094 2.28847 0.510935 2.53595 0.593459 2.77105C0.678563 3.00925 0.797191 3.21651 0.951923 3.39593H0.962239Z" fill="white"/>
</svg>
