<svg width="4" height="4" viewBox="0 0 4 4" fill="none" xmlns="http://www.w3.org/2000/svg">
<path d="M2.69952 0.960143L2.85168 1.13647C2.96515 1.25402 3.05283 1.39632 3.1173 1.55718C3.17919 1.71804 3.2153 1.88818 3.22304 2.0676C3.22819 2.24702 3.20498 2.42026 3.15341 2.5873C3.10183 2.75435 3.02446 2.90284 2.92131 3.03276C2.81815 3.16269 2.69952 3.26477 2.56284 3.33592C2.42358 3.40707 2.28174 3.44419 2.13217 3.44729C1.98259 3.44729 1.84076 3.41635 1.7015 3.3483C1.56482 3.28024 1.44103 3.18125 1.33787 3.05442L1.29661 3.00183L1.14962 2.81931C1.04646 2.69558 0.969093 2.55328 0.912358 2.39242C0.858201 2.23156 0.829834 2.06451 0.829834 1.88818C0.829834 1.71495 0.858201 1.5479 0.912358 1.38704C0.969093 1.22618 1.04904 1.08388 1.15219 0.960143C1.25277 0.839498 1.3714 0.7436 1.5055 0.675544C1.6396 0.610581 1.77886 0.576553 1.92586 0.576553C2.07028 0.576553 2.20954 0.610581 2.34364 0.675544C2.47774 0.740507 2.59637 0.836404 2.69952 0.960143Z" fill="white"/>
</svg>
