<svg width="4" height="5" viewBox="0 0 4 5" fill="none" xmlns="http://www.w3.org/2000/svg">
<path d="M2.75021 3.49348L2.59805 3.6729C2.47685 3.81829 2.33759 3.92966 2.18028 4.00699C2.02296 4.08433 1.86049 4.12145 1.69029 4.12145C1.52008 4.12145 1.35503 4.08433 1.19772 4.0039C1.04299 3.92656 0.903729 3.8152 0.782522 3.66981C0.663894 3.52751 0.571055 3.36046 0.504003 3.17176C0.439531 2.98306 0.406006 2.78817 0.406006 2.584C0.406006 2.37983 0.439531 2.18185 0.504003 1.99315C0.568476 1.80445 0.661315 1.6405 0.782522 1.4951L0.929519 1.30949C1.04815 1.1641 1.18483 1.04964 1.34214 0.96612C1.49687 0.88569 1.66192 0.842381 1.83213 0.839288C2.00233 0.833102 2.16738 0.870223 2.32727 0.944466C2.48716 1.01871 2.62642 1.13007 2.75021 1.27237C2.87399 1.41467 2.96941 1.57863 3.03646 1.76733C3.10609 1.95293 3.13962 2.15092 3.14478 2.35508C3.14736 2.55925 3.11641 2.75723 3.05452 2.94903C2.99262 3.14082 2.90236 3.30787 2.78373 3.45636C2.77342 3.46873 2.7631 3.4842 2.75021 3.49348Z" fill="white"/>
</svg>
