<svg width="4" height="4" viewBox="0 0 4 4" fill="none" xmlns="http://www.w3.org/2000/svg">
<path d="M1.29487 2.66861L1.44961 2.84494C1.53729 2.94703 1.63786 3.02127 1.74876 3.07695C1.86223 3.12954 1.97828 3.15429 2.09948 3.15429C2.22069 3.15119 2.33674 3.12335 2.45021 3.06458C2.5611 3.00889 2.6591 2.92846 2.7442 2.82638C2.82931 2.7243 2.89636 2.60674 2.94278 2.47373C2.99178 2.33761 3.01499 2.19841 3.01499 2.05301C3.01757 1.90762 2.99693 1.76842 2.95309 1.6323C2.90667 1.49928 2.84478 1.37864 2.75968 1.27346L2.61268 1.08785C2.53016 0.96721 2.43216 0.871312 2.31869 0.800162C2.20264 0.729012 2.07885 0.688798 1.94991 0.679517C1.82096 0.670237 1.6946 0.69189 1.57339 0.74448C1.45218 0.797068 1.34387 0.877498 1.24845 0.982676C1.15561 1.09095 1.0834 1.21778 1.03183 1.36008C0.982828 1.50238 0.95704 1.65396 0.959618 1.80863C0.959618 1.9633 0.987986 2.11179 1.04214 2.25409C1.09372 2.39639 1.16851 2.52013 1.26651 2.62221C1.27424 2.64077 1.28456 2.65624 1.29487 2.66861Z" fill="white"/>
</svg>
