<svg width="5" height="5" viewBox="0 0 5 5" fill="none" xmlns="http://www.w3.org/2000/svg">
<path d="M1.16099 3.45259L1.31314 3.63201C1.47561 3.79906 1.65871 3.9228 1.86244 4.00632C2.0636 4.08984 2.27249 4.12697 2.48653 4.11768C2.70058 4.10531 2.90431 4.04963 3.10031 3.94754C3.2963 3.84237 3.46909 3.70007 3.62124 3.52065C3.77339 3.33813 3.89202 3.13087 3.97713 2.89577C4.06481 2.66066 4.11123 2.41319 4.11896 2.15952C4.12928 1.90277 4.09833 1.6522 4.0287 1.41091C3.95907 1.16652 3.85592 0.946885 3.71924 0.751997L3.56966 0.56639C3.40719 0.393156 3.22409 0.26323 3.02036 0.17352C2.81663 0.0838098 2.60774 0.043595 2.39111 0.0497815C2.17449 0.0559681 1.9656 0.108558 1.76702 0.210642C1.56845 0.312726 1.39051 0.455025 1.23578 0.637539C1.08362 0.820053 0.962413 1.03041 0.874732 1.26861C0.78705 1.5068 0.738051 1.75428 0.730314 2.01413C0.722578 2.27398 0.753524 2.52455 0.825733 2.77203C0.895363 3.01641 1.00368 3.23605 1.14551 3.43403L1.16099 3.45259Z" fill="white"/>
</svg>
