<svg width="4" height="4" viewBox="0 0 4 4" fill="none" xmlns="http://www.w3.org/2000/svg">
<path d="M1.37044 0.605315L1.21829 0.784736C1.08161 0.945596 0.975872 1.12811 0.901085 1.33847C0.826297 1.54573 0.785035 1.76536 0.782456 1.99119C0.779877 2.2201 0.813403 2.43974 0.885611 2.65009C0.955241 2.86354 1.05582 3.04915 1.18734 3.2131C1.32144 3.37706 1.4736 3.50389 1.64896 3.5936C1.82432 3.68331 2.00485 3.72971 2.19568 3.73281C2.38394 3.7359 2.56704 3.69568 2.74498 3.60907C2.92035 3.52554 3.07766 3.4049 3.21176 3.24404L3.24013 3.2131L3.3897 3.0275C3.51607 2.86664 3.61407 2.68103 3.67854 2.47377C3.74559 2.2665 3.77911 2.04996 3.77396 1.83033C3.77138 1.6076 3.73527 1.39415 3.66049 1.18998C3.58828 0.982717 3.4877 0.803296 3.35618 0.64553C3.22466 0.487763 3.07508 0.367118 2.90487 0.280501C2.73467 0.193884 2.55673 0.147482 2.37105 0.144389C2.18537 0.141296 2.00742 0.178418 1.83206 0.258847C1.65928 0.339278 1.50712 0.453736 1.37044 0.605315Z" fill="white"/>
</svg>
