<svg width="4" height="5" viewBox="0 0 4 5" fill="none" xmlns="http://www.w3.org/2000/svg">
<path d="M1.11455 1.10489L0.964978 1.28122C0.807667 1.46992 0.686459 1.68337 0.601356 1.92775C0.516253 2.17214 0.472412 2.4258 0.472412 2.69184C0.472412 2.95788 0.513674 3.21154 0.596198 3.45592C0.678723 3.70031 0.79993 3.91685 0.954663 4.10555C1.1094 4.29425 1.28992 4.43965 1.49365 4.54173C1.69738 4.64381 1.90885 4.6964 2.12805 4.6964C2.34984 4.6995 2.56131 4.65 2.76762 4.55101C2.97135 4.44893 3.15187 4.30663 3.30918 4.12102H3.32208L3.47165 3.93851C3.60317 3.74671 3.70375 3.53326 3.7708 3.29816C3.83527 3.06306 3.86364 2.81867 3.8559 2.57119C3.84559 2.32062 3.79917 2.08243 3.71664 1.85351C3.63154 1.62769 3.51549 1.42352 3.36849 1.24719C3.2215 1.07087 3.05387 0.934753 2.86303 0.832669C2.67478 0.733678 2.4762 0.674902 2.26731 0.665622C2.061 0.653248 1.85727 0.687276 1.66128 0.767706C1.4627 0.848136 1.28476 0.965687 1.12487 1.12655L1.11455 1.10489Z" fill="white"/>
</svg>
