<svg width="5" height="5" viewBox="0 0 5 5" fill="none" xmlns="http://www.w3.org/2000/svg">
<path d="M1.44146 0.853853L1.28931 1.03327C1.12168 1.23744 0.990156 1.46945 0.897316 1.73549C0.804476 2.00153 0.758057 2.27684 0.758057 2.56454C0.758057 2.84914 0.804476 3.12755 0.894737 3.39049C0.984998 3.65653 1.11394 3.89163 1.28415 4.0958C1.45178 4.29997 1.64777 4.45464 1.86698 4.56601C2.08876 4.67737 2.31828 4.73305 2.55812 4.73305C2.79795 4.73305 3.02747 4.68047 3.24926 4.5691C3.47104 4.46083 3.66703 4.30616 3.83466 4.10199L3.98682 3.92257C4.15444 3.7184 4.28597 3.4833 4.37623 3.21726C4.46649 2.95122 4.51291 2.6759 4.51033 2.38821C4.51033 2.10361 4.46391 1.82829 4.37107 1.56226C4.28081 1.29622 4.14928 1.06421 3.97908 0.86004C3.81145 0.658965 3.61546 0.504292 3.39367 0.392927C3.17189 0.284656 2.94237 0.228973 2.70253 0.228973C2.46528 0.232067 2.23318 0.284656 2.01397 0.39602C1.79219 0.507385 1.59877 0.662059 1.42857 0.866227L1.44146 0.853853Z" fill="white"/>
</svg>
