<svg width="2" height="2" viewBox="0 0 2 2" fill="none" xmlns="http://www.w3.org/2000/svg">
<path d="M1.49037 1.41616L1.33306 1.58939C1.21443 1.72241 1.07259 1.78737 0.910125 1.78428C0.747655 1.78119 0.608395 1.71004 0.494925 1.57083C0.378875 1.43472 0.319561 1.26767 0.316982 1.07278C0.314404 0.877895 0.36856 0.707754 0.479452 0.565455L0.623869 0.376754C0.675447 0.299418 0.739919 0.240642 0.814706 0.19424C0.889494 0.147838 0.96686 0.12309 1.04938 0.116903C1.13191 0.110716 1.21443 0.123091 1.2918 0.154025C1.37174 0.188053 1.44137 0.237549 1.50327 0.302511C1.56516 0.370568 1.61416 0.447903 1.64768 0.537614C1.68379 0.630418 1.70442 0.723221 1.707 0.825306C1.70958 0.924297 1.69668 1.02019 1.66574 1.113C1.63737 1.2058 1.59353 1.28933 1.53421 1.36048C1.52132 1.38213 1.50585 1.40069 1.49037 1.41616Z" fill="white"/>
</svg>
