<svg width="3" height="4" viewBox="0 0 3 4" fill="none" xmlns="http://www.w3.org/2000/svg">
<path d="M2.35531 2.82879L2.20316 3.00511C2.1 3.11029 1.98653 3.19072 1.86017 3.2464C1.73122 3.29899 1.5997 3.32374 1.4656 3.32065C1.3315 3.31446 1.19997 3.27734 1.07619 3.21238C0.952402 3.15051 0.844089 3.0608 0.74867 2.94634C0.653251 2.82879 0.578464 2.69886 0.524308 2.55038C0.470151 2.40189 0.441783 2.24412 0.436626 2.08326C0.431468 1.9224 0.452099 1.76464 0.498519 1.61306C0.544938 1.45838 0.611989 1.32227 0.699672 1.19853L0.846668 1.01602C0.944666 0.89228 1.05814 0.796382 1.18966 0.728326C1.3186 0.657176 1.45528 0.623148 1.59712 0.616961C1.73896 0.613867 1.87564 0.641709 2.00974 0.703578C2.14127 0.765448 2.25989 0.855158 2.36047 0.97271C2.46363 1.09026 2.54357 1.22947 2.60031 1.38414C2.65962 1.54191 2.68799 1.70277 2.69057 1.87291C2.69315 2.04305 2.66994 2.2101 2.61836 2.36786C2.56678 2.52563 2.49199 2.66793 2.394 2.79167L2.35531 2.82879Z" fill="white"/>
</svg>
