<svg width="5" height="5" viewBox="0 0 5 5" fill="none" xmlns="http://www.w3.org/2000/svg">
<path d="M3.74313 0.792495L3.89528 0.97501C4.05775 1.1668 4.18154 1.38953 4.26922 1.6432C4.3569 1.89686 4.40075 2.15981 4.40075 2.43512C4.40075 2.70735 4.35948 2.97029 4.2718 3.22396C4.18412 3.47762 4.06033 3.70344 3.89786 3.89524C3.73797 4.09013 3.55229 4.23861 3.34083 4.34379C3.12936 4.44897 2.91015 4.50465 2.68321 4.50465C2.45369 4.50465 2.23449 4.45206 2.02302 4.34688C1.81155 4.2448 1.62587 4.09631 1.4634 3.90142L1.31125 3.71891C1.15136 3.52712 1.02499 3.30439 0.937308 3.05072C0.849627 2.79706 0.805786 2.53412 0.805786 2.2588C0.805786 1.98657 0.849627 1.72363 0.93473 1.46996C1.02241 1.2163 1.1462 0.99357 1.30867 0.798682C1.46856 0.603795 1.65424 0.455308 1.86571 0.35013C2.07717 0.244953 2.29638 0.192364 2.5259 0.18927C2.75284 0.18927 2.97205 0.241859 3.18351 0.347037C3.39498 0.449121 3.58324 0.6007 3.74313 0.792495Z" fill="white"/>
</svg>
