<svg width="3" height="3" viewBox="0 0 3 3" fill="none" xmlns="http://www.w3.org/2000/svg">
<path d="M0.831143 2.16763L0.983297 2.34395C1.06066 2.43676 1.15092 2.511 1.25408 2.5605C1.35466 2.61309 1.46297 2.63783 1.57386 2.63783C1.68217 2.63783 1.79049 2.61309 1.89106 2.5605C1.99422 2.511 2.08448 2.43676 2.16185 2.34395C2.23921 2.25115 2.3011 2.14288 2.34237 2.01914C2.38621 1.89849 2.40684 1.76857 2.40684 1.63864C2.40684 1.50562 2.38621 1.3757 2.34237 1.25505C2.3011 1.13132 2.23921 1.02304 2.16185 0.930241L2.01485 0.744633C1.93748 0.648736 1.8498 0.574493 1.74665 0.521904C1.64607 0.466221 1.54033 0.43838 1.42944 0.435287C1.31855 0.432193 1.21024 0.456941 1.10708 0.503343C1.00393 0.549745 0.911088 0.620895 0.831143 0.713699C0.751197 0.803409 0.689304 0.91168 0.642884 1.03233C0.599044 1.15297 0.573254 1.2829 0.570676 1.41591C0.568097 1.54893 0.586149 1.67577 0.627411 1.7995C0.666094 1.92324 0.72283 2.03461 0.800196 2.1305L0.831143 2.16763Z" fill="white"/>
</svg>
