<svg width="5" height="5" viewBox="0 0 5 5" fill="none" xmlns="http://www.w3.org/2000/svg">
<path d="M1.16203 4.27171L1.31418 4.45113C1.46634 4.62436 1.63912 4.75738 1.83512 4.85019C2.03111 4.94299 2.23227 4.9863 2.44116 4.98321C2.65262 4.98011 2.85378 4.93062 3.04719 4.83163C3.24061 4.73573 3.41082 4.59652 3.56039 4.42019C3.70739 4.24077 3.82344 4.03661 3.90338 3.8046C3.98591 3.57259 4.02717 3.3313 4.02975 3.08073C4.03232 2.82706 3.99622 2.58577 3.91885 2.35067C3.84149 2.11556 3.7306 1.9083 3.58618 1.72579L3.4366 1.54327C3.28961 1.35767 3.11682 1.20918 2.91825 1.1071C2.71967 1.00192 2.51336 0.946236 2.29674 0.943143C2.08011 0.936956 1.8738 0.983358 1.67265 1.07926C1.4715 1.17515 1.29355 1.31436 1.13882 1.49687C0.986667 1.67939 0.868038 1.88974 0.782935 2.12794C0.700411 2.36614 0.659149 2.61671 0.659149 2.87656C0.659149 3.13331 0.70299 3.38389 0.785514 3.62208C0.870617 3.86028 0.989246 4.07063 1.14398 4.25315L1.16203 4.27171Z" fill="white"/>
</svg>
