<svg width="5" height="6" viewBox="0 0 5 6" fill="none" xmlns="http://www.w3.org/2000/svg">
<path d="M3.63184 4.5895L3.47968 4.76892C3.30948 4.97309 3.11606 5.13085 2.89428 5.23913C2.67249 5.35049 2.44039 5.40308 2.20056 5.40308C1.96072 5.40308 1.7312 5.35049 1.50942 5.23913C1.28763 5.12776 1.09164 4.97309 0.924011 4.76892C0.753804 4.56475 0.622282 4.32965 0.532021 4.0667C0.439181 3.80066 0.392761 3.52225 0.392761 3.23456C0.392761 2.94687 0.439181 2.67155 0.532021 2.40551C0.622282 2.13948 0.753805 1.90437 0.921432 1.7002L1.07359 1.52078C1.24379 1.31661 1.43979 1.15885 1.66157 1.05058C1.88335 0.939212 2.11287 0.88353 2.35271 0.88353C2.59255 0.88353 2.82207 0.939212 3.04385 1.05058C3.26563 1.15885 3.46163 1.31661 3.63184 1.52078C3.80204 1.72495 3.93099 1.95696 4.02383 2.223C4.11666 2.48904 4.16051 2.76745 4.16051 3.05514C4.16051 3.34283 4.11666 3.61815 4.02383 3.88419C3.93099 4.15023 3.80204 4.38533 3.63184 4.5895Z" fill="white"/>
</svg>
