<svg width="3" height="3" viewBox="0 0 3 3" fill="none" xmlns="http://www.w3.org/2000/svg">
<path d="M1.40502 0.992267L1.25028 1.16859C1.1626 1.2583 1.09555 1.36348 1.04397 1.48722C0.994975 1.61096 0.966608 1.74089 0.958871 1.877C0.953713 2.0162 0.971765 2.14922 1.01045 2.27605C1.04913 2.40598 1.10845 2.52044 1.18581 2.61943C1.26576 2.71842 1.3586 2.79576 1.46175 2.85144C1.56749 2.90403 1.6758 2.93187 1.79185 2.93187C1.90532 2.93187 2.01621 2.90712 2.11937 2.85453C2.2251 2.79885 2.31794 2.72461 2.39789 2.62562L2.42883 2.58231L2.57583 2.39979C2.65062 2.3039 2.70735 2.19872 2.74861 2.07807C2.7873 1.95743 2.80793 1.8306 2.80535 1.70067C2.80535 1.57074 2.78472 1.44701 2.74088 1.32636C2.69962 1.20572 2.6403 1.10054 2.56293 1.00773C2.48815 0.91493 2.39789 0.843781 2.29989 0.794285C2.19931 0.74479 2.09358 0.716949 1.98527 0.716949C1.87695 0.713856 1.7738 0.738603 1.67322 0.785005C1.57264 0.8345 1.48238 0.902556 1.40502 0.992267Z" fill="white"/>
</svg>
