<svg width="4" height="5" viewBox="0 0 4 5" fill="none" xmlns="http://www.w3.org/2000/svg">
<path d="M1.36346 0.873129L1.21131 1.05255C1.06947 1.2196 0.958576 1.41139 0.87863 1.63103C0.801264 1.85066 0.760001 2.07958 0.757423 2.32087C0.754843 2.55907 0.790948 2.79108 0.865736 3.01071C0.937944 3.23344 1.04626 3.43142 1.18552 3.60156C1.32478 3.7717 1.48467 3.90472 1.66777 3.99753C1.85087 4.09342 2.04428 4.13983 2.24286 4.14292C2.44143 4.14601 2.63485 4.1027 2.81795 4.01299C3.00363 3.92328 3.1661 3.79645 3.31051 3.62631L3.33372 3.59538L3.4833 3.41286C3.62514 3.24272 3.73087 3.04783 3.80824 2.8282C3.88303 2.60856 3.92171 2.37964 3.92171 2.14145C3.92171 1.90325 3.88303 1.67434 3.80566 1.4547C3.73087 1.23506 3.62256 1.04018 3.48072 0.873129C3.34146 0.702988 3.17899 0.573063 2.99589 0.483353C2.81279 0.390548 2.62195 0.344147 2.42338 0.344147C2.22481 0.344147 2.03397 0.390549 1.85087 0.480259C1.66519 0.569969 1.50272 0.699895 1.36346 0.870035V0.873129Z" fill="white"/>
</svg>
