<svg width="4" height="4" viewBox="0 0 4 4" fill="none" xmlns="http://www.w3.org/2000/svg">
<path d="M2.65004 0.828164L2.79962 1.00758C2.92856 1.16226 3.02914 1.33858 3.09877 1.53966C3.17098 1.74073 3.2045 1.95109 3.2045 2.17073C3.20708 2.38727 3.17098 2.59762 3.10393 2.7987C3.0343 3.00287 2.9363 3.17919 2.80736 3.33387C2.67841 3.48854 2.53142 3.60919 2.36379 3.69271C2.19616 3.77623 2.0208 3.81954 1.8377 3.81954C1.65718 3.82264 1.48181 3.77933 1.31418 3.6958C1.14398 3.61537 0.996982 3.49473 0.868037 3.34315L0.715883 3.16063C0.592097 3.00596 0.499258 2.82654 0.434785 2.62856C0.370314 2.42748 0.339366 2.22332 0.341946 2.00677C0.341946 1.79332 0.37805 1.58916 0.44768 1.39117C0.517309 1.19319 0.615307 1.01996 0.741672 0.868379C0.868037 0.716799 1.01245 0.599248 1.1775 0.515724C1.34255 0.4322 1.51534 0.388892 1.69328 0.385798C1.87122 0.382704 2.04401 0.419826 2.20906 0.500257C2.37668 0.577593 2.52368 0.688958 2.65262 0.837444L2.65004 0.828164Z" fill="white"/>
</svg>
