<svg width="2" height="3" viewBox="0 0 2 3" fill="none" xmlns="http://www.w3.org/2000/svg">
<path d="M0.620099 1.6307L0.772253 1.81012C0.836726 1.88436 0.908934 1.94004 0.988879 1.98335C1.0714 2.02357 1.15651 2.04213 1.24419 2.04213C1.33445 2.04213 1.41955 2.02357 1.50208 1.98335C1.58202 1.94004 1.65423 1.88436 1.7187 1.80703C1.7806 1.73278 1.82959 1.64617 1.86312 1.54717C1.89665 1.45128 1.91212 1.34919 1.91212 1.24092C1.91212 1.13574 1.89665 1.03366 1.86312 0.934669C1.82959 0.838771 1.7806 0.752155 1.7187 0.674818L1.57171 0.492304C1.50981 0.408781 1.4376 0.346911 1.35508 0.297416C1.27256 0.251014 1.18745 0.226266 1.09461 0.220079C1.00435 0.216986 0.916671 0.232453 0.831568 0.272668C0.743885 0.30979 0.669098 0.368565 0.602047 0.442808C0.537575 0.517052 0.485998 0.606762 0.449893 0.705753C0.413789 0.807837 0.393158 0.913015 0.393158 1.02129C0.393158 1.12956 0.408631 1.23474 0.444736 1.33682C0.478261 1.4389 0.529839 1.52861 0.594311 1.60286L0.620099 1.6307Z" fill="white"/>
</svg>
