<svg width="2" height="2" viewBox="0 0 2 2" fill="none" xmlns="http://www.w3.org/2000/svg">
<path d="M1.6038 1.64392L1.44649 1.81406C1.30981 1.94708 1.15508 2.00586 0.979715 1.99657C0.80693 1.9842 0.657355 1.90686 0.53099 1.75838C0.407203 1.61299 0.340152 1.43356 0.329837 1.22321C0.319521 1.01595 0.36852 0.827246 0.476833 0.663292L0.618672 0.474591C0.680565 0.391068 0.752773 0.326105 0.837876 0.27661C0.922979 0.227114 1.01066 0.202367 1.1035 0.19618C1.19892 0.189993 1.28918 0.208553 1.37686 0.245675C1.46454 0.282797 1.54191 0.341572 1.61154 0.415815C1.67859 0.493152 1.73275 0.579769 1.77143 0.681853C1.81011 0.783938 1.83332 0.892209 1.8359 1.00357C1.83848 1.11494 1.82301 1.22321 1.78948 1.32839C1.75596 1.43356 1.70954 1.52637 1.64507 1.6068L1.6038 1.64392Z" fill="white"/>
</svg>
