<svg width="4" height="4" viewBox="0 0 4 4" fill="none" xmlns="http://www.w3.org/2000/svg">
<path d="M1.18932 2.99006L1.34405 3.16948C1.48073 3.32106 1.63547 3.43552 1.80825 3.51286C1.98104 3.59329 2.15898 3.63041 2.34466 3.62732C2.53034 3.62113 2.70828 3.57473 2.87849 3.48811C3.04869 3.40149 3.20085 3.27775 3.32979 3.12308C3.46132 2.96532 3.56447 2.7828 3.63668 2.57863C3.70889 2.37446 3.74757 2.16102 3.75015 1.93829C3.75531 1.71865 3.72436 1.50211 3.65731 1.29485C3.59284 1.08758 3.49742 0.901975 3.37105 0.738022L3.22148 0.555508C3.08738 0.400835 2.93265 0.283283 2.75986 0.19976C2.58707 0.116236 2.40655 0.0760214 2.22087 0.0791147C2.03519 0.0791147 1.85725 0.122424 1.68447 0.205947C1.51168 0.292564 1.35953 0.413208 1.22543 0.567882C1.0939 0.722554 0.988169 0.90507 0.913381 1.10924C0.838593 1.31341 0.799911 1.52686 0.794753 1.74958C0.789595 1.97231 0.817962 2.18886 0.882435 2.39921C0.946907 2.60647 1.04233 2.79518 1.16611 2.95913L1.18932 2.99006Z" fill="white"/>
</svg>
