<svg width="3" height="3" viewBox="0 0 3 3" fill="none" xmlns="http://www.w3.org/2000/svg">
<path d="M2.07074 2.26643L1.91601 2.44276C1.78449 2.58506 1.63233 2.65621 1.45439 2.65002C1.27903 2.64693 1.12687 2.56959 1.00051 2.41801C0.876721 2.26953 0.812248 2.08701 0.807091 1.87356C0.804512 1.66321 0.861247 1.4776 0.982455 1.32293L1.12687 1.13423C1.18877 1.05689 1.25839 0.998114 1.33834 0.951711C1.42086 0.908403 1.50339 0.886749 1.59365 0.883655C1.68133 0.880561 1.76643 0.896029 1.84896 0.933151C1.93406 0.970272 2.00627 1.02595 2.07074 1.1002C2.13521 1.17135 2.18679 1.25796 2.2229 1.35386C2.259 1.44976 2.27963 1.55184 2.28221 1.65702C2.28479 1.76529 2.26932 1.86738 2.23837 1.96637C2.20742 2.06536 2.161 2.15507 2.10169 2.23241C2.09137 2.24478 2.08106 2.25715 2.07074 2.26643Z" fill="white"/>
</svg>
