<svg width="4" height="5" viewBox="0 0 4 5" fill="none" xmlns="http://www.w3.org/2000/svg">
<path d="M2.69409 1.17249L2.84882 1.34882C2.97777 1.49421 3.07834 1.66436 3.15055 1.85924C3.22276 2.05413 3.26145 2.2583 3.2666 2.46865C3.27176 2.6821 3.24081 2.88937 3.17634 3.08735C3.11187 3.28533 3.01645 3.46166 2.89267 3.61324C2.76888 3.76482 2.62446 3.88237 2.46199 3.96589C2.29952 4.05251 2.12932 4.09272 1.95137 4.09582C1.77343 4.09582 1.60322 4.0556 1.43818 3.97517C1.27571 3.89474 1.13129 3.77719 1.00492 3.62561L0.976557 3.59468L0.829561 3.40907C0.713511 3.26058 0.62325 3.09044 0.561357 2.89865C0.499464 2.70685 0.468517 2.50578 0.471096 2.30161C0.473675 2.09435 0.50978 1.89636 0.574251 1.70766C0.641303 1.51896 0.736721 1.35192 0.857928 1.20652C0.979136 1.06113 1.1184 0.946672 1.27571 0.866241C1.4356 0.785812 1.59807 0.745596 1.77085 0.742503C1.94364 0.739409 2.10869 0.773437 2.26858 0.84768C2.42847 0.925017 2.57031 1.0302 2.69409 1.17249Z" fill="white"/>
</svg>
