<svg width="4" height="5" viewBox="0 0 4 5" fill="none" xmlns="http://www.w3.org/2000/svg">
<path d="M3.36516 1.18466L3.51732 1.36098C3.66173 1.54659 3.7752 1.75385 3.85257 1.98896C3.92736 2.22406 3.96604 2.46844 3.96346 2.72211C3.96346 2.97577 3.91962 3.21706 3.83968 3.45216C3.75973 3.68417 3.64368 3.89144 3.49668 4.07086C3.34969 4.25028 3.17948 4.39258 2.98607 4.49157C2.79265 4.59365 2.58892 4.64624 2.38003 4.65243C2.16856 4.65861 1.96483 4.61531 1.76626 4.5256C1.57026 4.43898 1.3949 4.30905 1.24016 4.13582L1.22211 4.11726L1.07254 3.93165C0.920382 3.74914 0.804333 3.53878 0.721809 3.30058C0.639285 3.06239 0.598022 2.81491 0.598022 2.55815C0.598022 2.2983 0.639285 2.05083 0.721809 1.81263C0.804333 1.57443 0.920382 1.36408 1.07254 1.18466C1.22469 1.00214 1.40005 0.859843 1.59863 0.760852C1.7972 0.661861 2.00351 0.612366 2.21756 0.612366C2.43419 0.612366 2.6405 0.661861 2.83907 0.760852C3.03764 0.859843 3.21301 1.00214 3.36516 1.18466Z" fill="white"/>
</svg>
