<svg width="4" height="4" viewBox="0 0 4 4" fill="none" xmlns="http://www.w3.org/2000/svg">
<path d="M1.33736 0.703913L1.18521 0.88024C1.05369 1.02563 0.953109 1.19577 0.8809 1.39066C0.808692 1.58555 0.770009 1.78972 0.76743 2.00317C0.762272 2.21662 0.793219 2.42078 0.857691 2.61877C0.922162 2.81675 1.01758 2.99307 1.14137 3.14465C1.26515 3.29933 1.40699 3.41688 1.56946 3.5004C1.73451 3.58393 1.90472 3.62723 2.08266 3.62723C2.25802 3.62723 2.43081 3.59011 2.59328 3.50659C2.75833 3.42616 2.90274 3.3117 3.02911 3.16012L3.0549 3.12609L3.20189 2.94358C3.32052 2.792 3.41078 2.62186 3.47268 2.43006C3.53457 2.23827 3.56552 2.04029 3.56294 1.83303C3.56036 1.62886 3.52425 1.43088 3.4572 1.24218C3.39015 1.05038 3.29731 0.883334 3.1761 0.737941C3.0549 0.592548 2.91564 0.481184 2.75575 0.400753C2.59844 0.320323 2.43339 0.277015 2.26318 0.273921C2.0904 0.270827 1.92535 0.307949 1.76546 0.382193C1.60557 0.456436 1.46373 0.564706 1.33736 0.703913Z" fill="white"/>
</svg>
