<svg width="5" height="5" viewBox="0 0 5 5" fill="none" xmlns="http://www.w3.org/2000/svg">
<path d="M3.87305 3.92119L3.71831 4.10061C3.55584 4.26766 3.37274 4.3914 3.17159 4.47492C2.96786 4.55845 2.76155 4.59557 2.5475 4.58319C2.33346 4.57391 2.12715 4.51823 1.93115 4.41305C1.73773 4.31097 1.56237 4.16867 1.41022 3.98616C1.26064 3.80673 1.14201 3.59638 1.05433 3.36128C0.969227 3.12617 0.922808 2.88179 0.912492 2.62503C0.904755 2.36827 0.933124 2.1208 1.00275 1.87641C1.07238 1.63512 1.17554 1.41549 1.3148 1.21751L1.46437 1.03499C1.62684 0.861758 1.80736 0.731832 2.0111 0.642122C2.21483 0.552411 2.42629 0.509104 2.64292 0.51529C2.85955 0.524571 3.06586 0.57716 3.26701 0.679244C3.46558 0.781329 3.64095 0.923627 3.79568 1.10614C3.95041 1.28866 4.07162 1.49592 4.1593 1.73411C4.24698 1.97231 4.29341 2.22288 4.30372 2.48273C4.31146 2.73949 4.28051 2.99315 4.2083 3.23754C4.13609 3.48501 4.03036 3.70465 3.88852 3.89954L3.87305 3.92119Z" fill="white"/>
</svg>
