<svg width="2" height="3" viewBox="0 0 2 3" fill="none" xmlns="http://www.w3.org/2000/svg">
<path d="M1.62777 0.517036L1.7825 0.693363C1.84955 0.770699 1.90371 0.857317 1.93981 0.959401C1.97849 1.05839 1.99913 1.16357 2.0017 1.27493C2.00428 1.3863 1.98881 1.49148 1.95528 1.59356C1.92434 1.69874 1.87534 1.78845 1.81345 1.86888C1.74897 1.94931 1.67677 2.01427 1.59166 2.05758C1.50914 2.10398 1.42146 2.12873 1.32862 2.13182C1.23578 2.13492 1.1481 2.11636 1.06299 2.07923C0.97531 2.03902 0.900522 1.98024 0.833472 1.906C0.820577 1.89672 0.810262 1.88435 0.802525 1.86888L0.655529 1.68327C0.534322 1.51932 0.477586 1.33062 0.482744 1.11098C0.487902 0.891345 0.554952 0.705736 0.683897 0.551064C0.812841 0.396391 0.967573 0.315961 1.15067 0.309774C1.3312 0.303587 1.49109 0.371643 1.62777 0.517036Z" fill="white"/>
</svg>
