<svg width="4" height="4" viewBox="0 0 4 4" fill="none" xmlns="http://www.w3.org/2000/svg">
<path d="M1.00028 3.04135L1.14986 3.22077C1.28138 3.36925 1.42838 3.48371 1.596 3.56414C1.76363 3.64457 1.93642 3.68169 2.11694 3.68169C2.29746 3.6786 2.47024 3.63529 2.63529 3.55177C2.80292 3.46824 2.94992 3.35069 3.07628 3.19602C3.20265 3.04444 3.30322 2.86811 3.37285 2.67013C3.44248 2.47215 3.47859 2.26179 3.47859 2.04834C3.48117 1.8318 3.44764 1.62145 3.38317 1.42347C3.31612 1.22239 3.2207 1.04297 3.09433 0.888296L2.94476 0.705782C2.81839 0.557295 2.66882 0.442837 2.50377 0.362407C2.33872 0.281978 2.16594 0.241763 1.98799 0.244856C1.80747 0.244856 1.63726 0.285071 1.47222 0.365501C1.30459 0.445931 1.15759 0.560389 1.03123 0.711969C0.902284 0.860455 0.801707 1.03369 0.729499 1.22858C0.65729 1.42656 0.618607 1.63073 0.613449 1.84418C0.608291 2.06072 0.636659 2.26798 0.698552 2.46906C0.760445 2.67013 0.850706 2.84955 0.971914 3.00732C0.97965 3.01969 0.989966 3.02897 1.00028 3.04135Z" fill="white"/>
</svg>
